<?xml version="1.0" encoding="UTF-8"?>
<svg id="Layer_1" data-name="Layer 1" xmlns="http://www.w3.org/2000/svg" viewBox="0 0 1000 1000">
  <defs>
    <style>
      .cls-1 {
        fill: #1a77b9;
      }

      .cls-2 {
        fill: #253c74;
      }

      .cls-3 {
        fill: #61abdb;
      }

      .cls-4 {
        fill: #f7f7f7;
      }

      .cls-5 {
        fill: #04b1e1;
      }
    </style>
  </defs>
  <rect class="cls-4" width="1000" height="1000"/>
  <g>
    <path class="cls-2" d="M819.31,359.71v23.28h-25.01v124.66c-.26-.04-.51-.1-.78-.18-.25-.04-.51-.1-.76-.18-9.65-2.49-18.51-9.08-22.4-12.28-.29-.22-.53-.43-.76-.61-.31-.27-.57-.49-.78-.67v-110.73h-25.01v-23.28h75.49Z"/>
    <rect class="cls-2" x="180.69" y="359.71" width="25.44" height="153.78"/>
    <polygon class="cls-2" points="358.15 359.71 358.15 513.49 334.01 513.49 334.01 404.76 317.59 513.49 296.27 513.49 296.17 512.83 279.86 404.76 279.86 513.49 257.44 513.49 257.44 359.71 293.02 359.71 307.8 465.46 322.59 359.71 358.15 359.71"/>
    <path class="cls-2" d="M445.47,359.71h-36.01v153.78h25.46v-61.98h10.55c23.83,0,36.42-13.28,36.42-38.4v-15c0-25.12-12.59-38.4-36.42-38.4ZM456.45,414.63c0,9.65-3.18,13.59-10.98,13.59h-10.55v-45.23h10.55c7.79,0,10.98,3.94,10.98,13.59v18.06Z"/>
    <path class="cls-2" d="M538.81,506.38l-1.29,8.02h-23.75l4.35-24.2c.2.26.43.5.65.76.2.22.41.46.63.68.88,1,1.82,1.96,2.78,2.9,4.41,4.3,9.53,8.05,15.2,11.08.22.13.47.26.71.39s.47.24.71.37Z"/>
    <path class="cls-2" d="M597.23,507.88l-.47-2.9-5.77-35.52-17.75-109.09-.12-.65h-33.71l-18.55,113.89c6.1,3.2,13.12,5.75,20.34,7.34.25.06.51.1.76.16.24.06.49.1.73.14l.41-4.51,24.32.1,1.12,7.98,3.96,27.46.02.1.14,1.1h25.48l-.92-5.61ZM546.49,454.54l8.79-63.57,9,63.43-17.79.14Z"/>
    <path class="cls-1" d="M727,402.19l-.37.33c-6.92,6.33-22.31,5.13-29.86-1.8-4.83-3.75-8.51-6.91-14.01-8.62-20.15-6.54-41.46,5.13-54.99,19.52-9.87,12.35-19.05,24.99-30.31,35.34-.82.89-1.55,1.66-2.23,2.28-1.53,1.57-2.46,2.51-2.46,2.51-1.52,1.59-2.95,2.7-3.17,2.46l-.42-.44-.42-.45c-.24-.23.8-1.71,2.28-3.26,0,0,.89-.92,2.37-2.51,1.52-1.52,3.28-3.91,5.25-6.65.31-.45.65-.91.99-1.38.66-.92,1.36-1.88,1.95-2.93.89-1.57,1.8-3.17,2.63-4.78,1.17-2.04,2.06-4.2,2.76-6.24,1.54-3.47,2.93-7.03,4.2-10.6,5.16-16.9,12.63-32.96,27.61-43.2,2.74-1.71,5.56-3.3,8.48-4.73,17.7-8.74,38.3-12.16,57.14-6,8.15,2.58,16.9,8.23,21.63,16.2,4.62,7.31,7.06,19.55.94,24.94Z"/>
    <path class="cls-3" d="M607,425.58c-.7,2.04-1.59,4.2-2.76,6.24-.84,1.6-1.74,3.21-2.63,4.78-.59,1.05-1.29,2.01-1.95,2.93,2.81-4.41,5.22-9.1,7.34-13.95Z"/>
    <path class="cls-5" d="M781.55,509.79l-.29.37-.31.39c-.14.22-1.71-.63-3.47-1.86l-.04-.04s-1.08-.76-2.86-1.98c-.67-.45-1.41-.96-2.2-1.49-.12-.08-.27-.16-.41-.23-.53-.26-1.06-.51-1.61-.75-.25-.12-.49-.23-.76-.35-.24-.1-.51-.2-.78-.31-.31-.14-.63-.26-.96-.39-8.53-3.22-18.32-4.04-27.67-2.98-15.26,2.8-36.34,10.14-57.01,4.55-.82-.22-1.65-.47-2.51-.73-11.83-3.71-22.22-12.04-29.87-22.52-14-19.14-18.95-45.5-7.32-64.29,5.9-8.3,12.71-13.73,20.3-13.85,13.14.88,19.48,17.83,15.75,30.01-3.49,14.32.45,29.87,16.79,38.54.63.29,1.26.59,1.9.86,13.12,5.81,26.93,7.43,40.68,11.42.41.12.8.25,1.2.39,9.75,3,19.38,8.26,27.91,14.59.27.18.53.39.8.59.26.18.51.39.78.59.25.18.51.39.76.59.94.71,1.86,1.45,2.75,2.2.73.53,1.67,1.22,2.61,1.88,1.78,1.31,2.86,2.1,2.86,2.1,1.8,1.24,3.14,2.47,2.96,2.69Z"/>
    <g>
      <path class="cls-1" d="M572.03,509.39c-8.59.22-17.18-1-25.1-3.82-2.78-1.1-5.43-2.39-8-3.84-.25-.14-.47-.27-.71-.41s-.49-.29-.71-.43c-5.67-3.35-10.79-7.49-15.2-12.24-.96-1.04-1.9-2.1-2.77-3.2-.22-.24-.43-.51-.63-.75-.22-.29-.45-.55-.65-.84-.18-.22-.37-.45-.53-.67-2.94-4.39-5.86-9.12-8.69-13.77-.02-.02-.04-.06-.08-.1-.2-.33-.43-.63-.65-.94-1.75-2.45-3.37-4.59-4.41-6.2-1.08-1.59-1.77-2.55-1.77-2.55-1.1-1.57-1.84-2.98-1.63-3.12l.78-.53s.02-.02.04-.02c.26-.04,1.31,1.08,2.35,2.61,0,0,.39.51,1.04,1.43.06.06.14.16.2.22,2.14,2.53,5.22,6.45,6.65,7.51.18.12.39.27.57.39,2.39,1.8,5.02,3.49,7.88,5,0,0,0,.02.02.02.22.14.47.26.71.39.04.02.1.04.14.08,6.1,3.2,13.12,5.75,20.34,7.34.25.06.51.1.76.16.24.06.49.1.73.14,8.55,1.73,17.34,2.12,25.38.67l3.96,27.46Z"/>
      <path class="cls-1" d="M626.25,485.04l-.41.55c-6.98,8.65-17.34,15.32-29.07,19.38l-5.77-35.52c1.06-1.29,2.04-2.67,2.9-4.16,3.18-5.71,5.83-12.18,11.38-16.24,6.04-4.45,14.98-7.06,21.63-2.96,9.49,5.94,9.04,28.14-.65,38.95Z"/>
    </g>
    <g>
      <polygon class="cls-2" points="429.93 566.33 429.76 567.17 416.11 640.09 400.46 638.78 399.51 594.75 391.24 637.98 374.66 636.62 373.37 561.58 385.94 562.62 386.28 612.7 395.26 563.41 409.14 564.57 409.77 614.68 418.48 565.37 429.93 566.33"/>
      <path class="cls-2" d="M473.47,567.21l-16.85-.26-13.4,74.47,12.22.18,2.33-14.28,11.75.2,1.84,14.34,13.04.23-10.92-74.88ZM459.53,615.89l4.73-30.52,3.84,30.69-8.57-.16Z"/>
      <polygon class="cls-2" points="537.61 565.86 537.51 566.74 529 640.88 512.44 641.49 498.44 567.27 511.58 566.8 511.7 567.47 520.43 618.97 525.51 566.31 537.61 565.86"/>
      <polygon class="cls-2" points="596.45 635.74 563.73 638.86 563.67 638.11 556.61 564.51 589.35 561.39 590.48 573.33 570.73 575.2 572.42 592.93 588.13 591.43 589.27 603.36 573.56 604.85 575.56 625.7 595.31 623.8 596.45 635.74"/>
    </g>
  </g>
</svg>