<?xml version="1.0" encoding="UTF-8"?>
<svg id="Layer_1" data-name="Layer 1" xmlns="http://www.w3.org/2000/svg" viewBox="0 0 900 1500">
  <defs>
    <style>
      .cls-1 {
        fill: #fff;
      }

      .cls-2 {
        fill: #0f5094;
      }
    </style>
  </defs>
  <rect class="cls-2" width="900" height="1500"/>
  <g>
    <g>
      <polygon class="cls-1" points="322.15 1143.01 319.71 1147.21 218.81 1153.63 207.58 977.12 209.07 975.36 210.54 973.61 211.1 973.58 211.21 975.22 211.31 976.88 211.44 978.9 222.07 1146.06 222.28 1149.36 225.59 1149.15 322.15 1143.01"/>
      <path class="cls-1" d="M342.74,961.16l-128.59,8.18.26,4.03.1,1.65.11,1.65.04.63,10.72,168.54,98.77-6.28,3.62-6.23-6.22-3.24-2.67-1.39.5-2.97,1.62-9.72-4.4-8.82-1.34-2.69,2.15-2.11,7.03-6.91,1.63-9.72.5-2.97,2.97-.44,9.75-1.45,3.77-3.7,1.56-1.54,1.56-1.54.15-.14,2.15-2.11,1.35.71-7.08-111.41ZM224.83,985.66l-.21-3.31,78.32-4.98.21,3.31-78.32,4.98ZM225.54,996.86l109.38-6.96.21,3.31-109.39,6.96-.21-3.31ZM226.46,1011.38l109.39-6.96.21,3.31-109.39,6.96-.21-3.31ZM227.39,1025.89l109.39-6.96.21,3.31-109.39,6.96-.21-3.31ZM228.31,1040.41l109.39-6.96.21,3.31-109.38,6.96-.21-3.31ZM229.23,1054.92l109.38-6.96.21,3.31-109.38,6.96-.21-3.31ZM231.08,1083.95l77.09-4.9.21,3.31-77.09,4.9-.21-3.31ZM232.21,1101.77l-.21-3.31,77.09-4.9.21,3.31-77.1,4.9ZM230.37,1072.74l-.21-3.31,109.38-6.96.21,3.31-109.38,6.96Z"/>
      <polygon class="cls-1" points="364.06 1077.18 359.88 1077.8 353.86 1074.67 356.64 1073.32 364.06 1077.18"/>
      <polygon class="cls-1" points="395.75 1113.11 392.67 1116.14 392.04 1114.88 387.64 1106.05 389.27 1096.33 389.77 1093.36 387.1 1091.97 378.35 1087.42 373.95 1078.6 373.39 1077.47 373.39 1077.47 377.66 1076.83 382.65 1086.86 392.6 1092.03 390.75 1103.09 395.75 1113.11"/>
      <polygon class="cls-1" points="387.33 1123.52 385.91 1132.02 383.06 1133.4 384.2 1126.59 387.33 1123.52"/>
      <polygon class="cls-1" points="348.62 1146.09 348.62 1146.1 348.12 1147.06 347.22 1148.78 343.69 1155.55 342.53 1156.12 346.33 1148.84 347.22 1147.12 348.32 1145.01 348.5 1145.04 348.62 1146.09"/>
      <polygon class="cls-1" points="378.21 1157.23 374.68 1158.95 371.75 1140.82 375.46 1140.27 378.21 1157.23"/>
      <path class="cls-1" d="M383.33,1106.69l1.85-11.05-9.74-5.07-.2-.1-.09-.18-4.9-9.85-11.08,1.66-5.6-2.92-1.71-.89-1.71-.89-.91-.47-2.7,2.66-1.56,1.54-1.56,1.54-2.17,2.13-11.08,1.65-1.85,11.05-7.99,7.85,5,10.02-1.85,11.05,9.94,5.18.08.16-4.35,7.49-1,1.73-1,1.72-2.44,4.2-1,1.72-1,1.73-.75,1.28,9.6-.56,4.74,8.09,5.22-10.02.9-1.72.89-1.72,2.18-4.18.55-1.05,1.07.16,1.67.25,1.68.25.36.05.4-.02-.04.08,1.1.16,2.46,21.35,7.17-5.74.15-.12,1.86.84,6.9,3.11-3.76-23.19.37-.36,7.39-1.1,3.7-.55,1.84-11.05,7.99-7.85-5-10.03ZM374.44,1097.83l.07.09-.1-.07.02-.02ZM374.72,1114.8c-1.69,9.12-9.09,15.72-17.82,16.81-.55.07-1.1.12-1.65.14-.3.01-.6.02-.89.02-.25,0-.51,0-.76-.01-1.01-.04-2.02-.15-3.04-.34-.25-.05-.49-.1-.74-.15-.58-.12-1.14-.27-1.69-.45-.58-.18-1.14-.39-1.7-.61-8.07-3.31-13.28-11.42-12.82-20.24.02-.3.04-.6.07-.9.06-.6.15-1.21.26-1.81,1.16-6.26,5.01-11.33,10.13-14.25.52-.3,1.06-.58,1.6-.82.53-.24,1.07-.47,1.62-.67,1.19-.43,2.42-.75,3.69-.96.54-.09,1.09-.15,1.64-.2.55-.05,1.1-.07,1.66-.07h.03c1.25,0,2.52.12,3.8.35,8.02,1.48,14.1,7.4,16.19,14.75h0c.19.66.34,1.32.46,2,.43,2.39.44,4.9-.02,7.43Z"/>
      <polygon class="cls-1" points="369.62 1106.23 355.99 1117.41 354.42 1118.7 352.84 1119.99 349.28 1122.91 348.69 1123.39 347.55 1121.85 345.74 1119.4 338.99 1110.29 343.97 1106.6 345.01 1108.01 345.01 1108.02 346.83 1110.46 348.65 1112.92 349.8 1114.48 352.36 1112.38 353.93 1111.08 355.51 1109.79 365.7 1101.44 369.62 1106.23"/>
    </g>
    <g>
      <path class="cls-1" d="M288.82,1287.2c-1.97,2.19-3.63,4.52-4.93,6.61-5.05-5.15-9.58-7.73-13.33-8.91l1.66-.65,2.43-.96c.66-.19,1.33-.31,2.02-.38.24-.03.49-.04.74-.04,4.07-.11,8.05,1.86,11.41,4.33Z"/>
      <path class="cls-1" d="M332.38,1308.9l-29.96,44.79-.02-.02-6.39,2.46,26.76-40.02c1.15-1.48,11.99-16.46-5.68-31.8-2.44-2.12-4.92-3.61-7.42-4.49l1.29-.49h0c1.59-.82,2.95-1.22,4-1.4,4.03-.7,8.15.75,12.25,4.3,15.68,13.61,5.63,26.12,5.17,26.67Z"/>
      <path class="cls-1" d="M319.48,1313.54l-22.87,34.19-.59.88-6.24,9.33h0s-35.81-36.7-35.81-36.7l-.16-.15c-.52-.43-12.41-10.66.27-26.59,1.91-2.4,3.95-4.12,6.1-5.15,1.5-.72,3.06-1.11,4.66-1.16.11,0,.22,0,.32,0,7.16,0,14.05,6.52,17.55,10.46l1.94,2.18,1.43-2.54c2.02-3.6,4.04-6.35,5.96-8.43,3.16-3.44,6.02-5.12,8.1-5.94.94-.37,1.73-.56,2.31-.66,3.9-.68,7.91.73,11.91,4.21,15.36,13.33,5.57,25.55,5.13,26.09Z"/>
      <polygon class="cls-1" points="385.15 1340.37 383.91 1348.26 333.93 1338.52 334.58 1334.34 385.15 1340.37"/>
      <polygon class="cls-1" points="389.58 1347.21 388.32 1355.27 338.2 1345.51 336.34 1342.23 386.54 1352.01 387.79 1344.06 389.58 1347.21"/>
      <path class="cls-1" d="M327.8,1396.91c-1.27.14-2.42.35-3.21.52-.49.11-.84.19-1,.23l-5.28,1.22-35.09,8.11-.25.06-6.68-1.92c.07-.02.15-.04.23-.06.77-.2,1.88-.41,3.15-.43,2.26-.04,8.03-.92,13.27-2.67,2.15-.72,4.02-1.52,5.62-2.4,0,0,0,0,0,0l16.99-3.14s5.68-2.27,9.12-1.38c.2.05.35.13.45.24l2.67,1.62Z"/>
      <path class="cls-1" d="M352.6,1397.48c-.4.05-.78.1-1.16.18-1.73.31-3.17.75-3.88.98-.21.07-.36.13-.43.15l-.08.03-.07.03-8.86,3.6c-.07-.78-.29-1.52-.65-2.22-.61-1.19-1.55-2.07-2.81-2.64l4.79-1.95s7.67-2.78,10.77.01l2.37,1.84Z"/>
      <path class="cls-1" d="M291.6,1381.06c-2.05-.17-4.36-.26-6.98-.26-3.51,0-6.88.15-9.58.27-1.62.07-3.01.14-3.84.14-.1,0-.19,0-.28,0-.57-.02-1.53-.08-2.63-.16-2.58-.18-6.48-.46-11.16-.46-10.86,0-21.07,1.53-30.35,4.53-3.36,1.09-6.69,1.88-9.9,2.35l-29.47,4.33-4.17.61.66,4.16,2.94,18.7,1.21,7.7.5,3.16-4.3-3.43-5.33-33.86,29.48-4.33c3.59-.53,7.12-1.39,10.58-2.51,19.89-6.45,38.07-3.82,42.75-3.7,4.52.11,25.76-2.07,29.87,2.77Z"/>
      <path class="cls-1" d="M333.69,1404.24h0s-10.82,4.4-10.82,4.4l-19.16,3.02h0l-1.23.19-1.47.23-.29.04-9.48-2.72.25-.06,32.92-7.6h0l.18-.04s3.09-.78,5.73-.78c1.59,0,3.01.28,3.47,1.2.31.61.26,1.34-.08,2.12Z"/>
      <path class="cls-1" d="M360.48,1406.55c-.14.49-.39.96-.7,1.42h0c-.49.15-.96.29-1.38.42-.28.09-.55.17-.81.25-3.01.89-28.3,8.34-34.07,10.04l-8.43-2.42-4.25-1.22-.64-.18.29-.05,2.74-.43h0l2.59-.41.64-.1h0l7.53-1.19,2.05-.83,4.76-1.93,5.75-2.33.34-.14h.01s.01-.01.01-.01h.03s7.83-3.19,7.83-3.19h.01s.02,0,.02,0l3.76-1.53s.22-.08.61-.2c1.12-.35,3.61-1.03,5.98-1.03,1.39,0,2.73.23,3.74.9,0,0,0,0,.01,0,0,0,0,0,0,0l.36.28s.02.02.03.03c0,0,.02.01.02.02,0,0,.01,0,.02.01.17.15.32.31.46.49.85,1.12,1.02,2.26.7,3.34Z"/>
      <path class="cls-1" d="M363.37,1425.4l-26.68,10.54c-11.84,4.18-21.4,4.91-26.62,4.91-2.78,0-4.32-.21-4.32-.21l-49.86-6.54-62.54-4.34-.37-2.34-.66-4.17-1.29-8.19-3.02-19.15,29.48-4.33c3.59-.53,7.12-1.39,10.58-2.51,10.83-3.51,21.15-4.33,29.07-4.33,6.62,0,11.56.57,13.69.63.11,0,.24,0,.38,0,2.35,0,7.8-.4,13.43-.4,2.37,0,4.77.07,6.98.27,5.53.5,9.91,1.81,9.77,4.86-.33,7.34-18.42,10.3-21.78,10.36-3.37.06-5.82,1.1-5.82,1.1l-3.64,1.66-6.01,2.74,10.48,3.01,4.12,1.18,12.24,3.52,4.74,1.36,6.56,1.89,4.2,1.21h0l17.06,4.9s22.71-6.69,31.81-9.38c1.67-.49,2.89-.85,3.42-1.01.77-.22,1.67-.53,2.62-.78.24-.06.48-.13.72-.18.91-.21,1.84-.36,2.76-.36,2.2,0,4.3.86,5.54,3.84,2.46,5.89-7.03,10.24-7.03,10.24Z"/>
      <polygon class="cls-1" points="401.49 1300.49 350.8 1305.3 350.24 1301.1 400.44 1292.58 401.49 1300.49"/>
      <polygon class="cls-1" points="407.7 1305.97 356.88 1310.8 354.16 1308.18 405.08 1303.35 404.02 1295.37 406.63 1297.88 407.7 1305.97"/>
      <polygon class="cls-1" points="224.45 1296.79 223.9 1300.99 173.2 1296.18 174.24 1288.27 224.45 1296.79"/>
      <polygon class="cls-1" points="220.53 1303.87 217.82 1306.49 166.99 1301.66 168.06 1293.57 170.67 1291.06 169.61 1299.04 220.53 1303.87"/>
      <polygon class="cls-1" points="240.77 1334.21 190.78 1343.95 189.54 1336.07 240.11 1330.03 240.77 1334.21"/>
      <polygon class="cls-1" points="238.35 1337.92 236.49 1341.2 186.38 1350.96 185.11 1342.9 186.9 1339.75 188.15 1347.7 238.35 1337.92"/>
    </g>
    <g>
      <path class="cls-1" d="M258.26,827.53c-2,1-4.15,1.55-6.41,1.64-8.3.33-15.52-5.89-16.4-14.16-.04-.35-.06-.71-.08-1.06-.02-.45-.02-.88,0-1.29l.03-.56-3.64,2.82-24.16.96-.44-11.1,5.49-4.24-5.65.22-3.51-88.46,6.33-4.89,4.15,104.42v.26s27.93-1.11,27.93-1.11c.19,1.31.52,2.6.97,3.83,2.43,6.68,8.42,11.61,15.39,12.72Z"/>
      <path class="cls-1" d="M360.22,823.48c-2,1-4.15,1.55-6.41,1.64-8.31.33-15.52-5.89-16.4-14.16-.04-.35-.06-.71-.08-1.06-.02-.44-.02-.9,0-1.36l.03-.55-3.81,2.88-53.12,2.11c.3-1.16.49-2.35.57-3.55l62.85-2.5c.19,1.31.52,2.6.97,3.83,2.43,6.68,8.42,11.61,15.4,12.72Z"/>
      <path class="cls-1" d="M333.83,788.36l-62.99,2.5c-2.89-1.6-6.14-2.44-9.46-2.44-.27,0-.54,0-.8.02-3.59.14-7.06,1.26-10.04,3.23l-33.51,1.33-3.51-88.33,116.8-4.64,3.51,88.33Z"/>
      <path class="cls-1" d="M391.73,759.2l-22.51-36.9-32.97,1.31,2.56,64.55,13.69-.55c2.97-1.97,6.44-3.09,10.03-3.23.26-.01.52-.02.78-.02,3.33,0,6.59.84,9.49,2.44l19.99-.8-1.06-26.81ZM344.47,751.91l-.85-21.5,21.72-.86,12.83,21.02-33.7,1.34Z"/>
      <path class="cls-1" d="M245.86,796c-.05.06-.1.13-.15.19-.58.77-1.1,1.57-1.56,2.39-.16.28-.3.56-.44.84-.59,1.2-1.06,2.46-1.39,3.72-.34,1.31-.54,2.65-.6,4l-24.08.96-.43-10.98,28.65-1.14Z"/>
      <path class="cls-1" d="M347.8,791.95c-.05.06-.1.13-.15.19-.58.77-1.1,1.57-1.56,2.4-.15.27-.3.55-.44.83-.29.59-.53,1.14-.74,1.7-.21.57-.4,1.14-.55,1.69-.04.11-.06.23-.09.34-.34,1.3-.54,2.65-.6,4l-62.78,2.5c-.17-1.34-.48-2.67-.92-3.94-.43-1.25-1-2.46-1.68-3.61-.69-1.16-1.5-2.25-2.42-3.25l71.94-2.85Z"/>
      <path class="cls-1" d="M393.39,801.13l-10.55.42c-.17-1.34-.48-2.67-.92-3.94-.04-.11-.08-.22-.12-.33-.2-.54-.43-1.09-.69-1.64-.25-.54-.54-1.07-.87-1.64-.7-1.17-1.51-2.26-2.42-3.25l15.14-.6.43,10.97Z"/>
      <path class="cls-1" d="M277.18,809.28c-.1,1.38-.38,2.74-.83,4.02-1.39,4-4.39,7.34-8.23,9.15-.79.38-1.63.69-2.43.92h-.05c-.8.23-1.63.4-2.46.49-.43.04-.81.07-1.17.08-6.55.26-12.5-3.46-15.15-9.47-.55-1.25-.94-2.57-1.15-3.94-.08-.51-.14-1.04-.17-1.61v-.19c-.03-.49-.03-.98,0-1.43.07-1.4.32-2.79.77-4.13.42-1.28,1-2.51,1.72-3.64.46-.71.99-1.41,1.58-2.06.54-.6,1.14-1.17,1.77-1.68l.07-.06c.15-.11.29-.23.45-.34.54-.41,1.13-.79,1.73-1.13.16-.09.31-.17.47-.25.24-.13.48-.24.73-.35,1.86-.85,3.85-1.32,5.92-1.41,2.06-.08,4.08.23,6.01.93.26.09.51.19.76.3.8.33,1.57.74,2.3,1.2.16.1.32.2.47.31,1.42.97,2.67,2.15,3.71,3.52.81,1.07,1.49,2.25,2.01,3.49.55,1.3.91,2.66,1.09,4.05.06.45.1.93.12,1.43v.19c.03.58.01,1.11-.03,1.63Z"/>
      <polygon class="cls-1" points="371.52 747.01 348.12 747.94 347.58 734.07 363.25 733.45 371.52 747.01"/>
      <path class="cls-1" d="M379.17,803.42v.19c.02.58.01,1.11-.03,1.63-.42,5.68-3.9,10.73-9.08,13.18-.78.36-1.6.67-2.44.91h-.04c-.8.23-1.63.4-2.46.49-.43.04-.81.07-1.17.08-6.55.27-12.5-3.46-15.16-9.47-.55-1.25-.94-2.57-1.15-3.94-.08-.51-.14-1.04-.17-1.61v-.19c-.03-.49-.03-.98,0-1.43.07-1.4.32-2.79.77-4.14.03-.1.07-.21.1-.31.19-.55.42-1.1.69-1.65.26-.55.57-1.09.93-1.66.46-.71,1-1.41,1.58-2.06.57-.63,1.18-1.21,1.84-1.74.15-.11.29-.23.44-.34.54-.4,1.12-.78,1.74-1.13.15-.09.3-.17.46-.25.23-.13.48-.24.73-.35,1.86-.85,3.85-1.32,5.92-1.41.21,0,.43-.01.64-.01,1.84,0,3.65.32,5.37.94.26.09.51.19.76.3.79.33,1.57.74,2.3,1.2.16.1.32.2.47.31,1.41.96,2.66,2.15,3.71,3.52.41.54.75,1.06,1.06,1.58.31.52.58,1.06.82,1.59.05.1.09.21.14.32.54,1.3.91,2.66,1.09,4.04l.26-.03-.26.04c.06.45.1.93.12,1.43Z"/>
      <polygon class="cls-1" points="191.49 793.94 143.78 808.55 141.86 801.35 190.52 790.29 191.49 793.94"/>
      <polygon class="cls-1" points="137.47 798.69 139.42 806.01 137.08 804.28 135.08 796.77 183.96 785.66 186.52 787.55 137.47 798.69"/>
      <polygon class="cls-1" points="182.33 764.68 132.84 770.94 132.17 763.51 181.99 760.9 182.33 764.68"/>
      <polygon class="cls-1" points="128.29 760.15 128.96 767.69 126.96 765.59 126.27 757.85 176.33 755.22 178.52 757.52 128.78 760.12 128.29 760.15"/>
      <polygon class="cls-1" points="185.95 734.27 185.45 738.02 135.78 733.26 136.77 725.87 185.95 734.27"/>
      <polygon class="cls-1" points="183.3 730.2 133.73 721.74 132.73 729.24 131.23 726.75 132.26 719.05 181.67 727.48 183.3 730.2"/>
    </g>
    <g>
      <path class="cls-1" d="M374.66,560.11l-.53.68c-6.56-3.22-17.08-8.12-27.78-12.02,6.59-3.62,9.21-9.31,10.23-13.64,7.43,8.77,14.2,18.9,18.08,24.98Z"/>
      <path class="cls-1" d="M266.01,508.9c-.67-.09-1.32-.17-1.98-.25.86-.46,1.41-.72,1.52-.76l.46,1.02Z"/>
      <path class="cls-1" d="M256.6,509.43c-4.26-2.39-8.38-4.63-11.32-6.21,2.25-1.9,4.88-3.62,7.87-5.11,2.18-1.09,4.42-2.03,6.72-2.83-2.48,3.49-4.42,8.27-3.27,14.15Z"/>
      <path class="cls-1" d="M254.59,512.4c-9.87,1.71-15.95,7.36-19.03,11.17-.14-6.59,2.27-12.7,6.99-17.76,2.88,1.54,7.38,3.97,12.04,6.59Z"/>
      <path class="cls-1" d="M268.2,520.42c-.2.35-.36.72-.51,1.1-.23.64-.38,1.29-.45,1.95-2.73-.3-7.55.06-13.5,4.3-6.12,4.35-7.62,12.31-7.92,17.34-3.42-3.17-5.85-6.28-7.26-9.32-1.08-2.33-1.87-4.65-2.36-6.93l.04.02c.29-.53,7.1-13.09,23.75-13.41,3.05,1.76,5.92,3.48,8.21,4.96Z"/>
      <path class="cls-1" d="M272.21,533.24c-3.22,1.23-6.56,3.63-8.4,7.99-2.41,5.71-2.53,11.48-2.27,15.03-4.75-2.75-8.82-5.46-12.21-8.15-.07-3.38.28-13.05,6.47-17.45,5.96-4.24,10.27-3.89,11.83-3.54.73,2.3,2.33,4.47,4.57,6.12Z"/>
      <path class="cls-1" d="M287.86,528.95c-.57,1.54-1.92,2.7-3.83,3.29-1.62.5-3.46.54-5.29.12-.3-.06-.59-.15-.89-.24-.21-.06-.42-.13-.63-.21-4.64-1.71-7.41-5.82-6.18-9.16.77-2.07,2.89-3.37,5.49-3.65,1.6-.17,3.39.04,5.15.69,2.33.86,4.25,2.34,5.4,4.17,1.06,1.68,1.34,3.45.78,4.99Z"/>
      <path class="cls-1" d="M289.9,532.51c-.1,4.58-1.36,21.35-13.95,31.17-3.48-1.61-7.07-3.38-10.58-5.27-.32-2.08-1.1-9.07,1.73-15.78,2.44-5.8,8.01-6.76,10.36-6.9,1.76.46,3.55.6,5.26.42.82-.09,1.61-.25,2.38-.49,2.01-.62,3.65-1.71,4.8-3.14Z"/>
      <path class="cls-1" d="M284.24,492.03c-3.66,2.71-7.84,6.76-9.64,12.03-1.31,3.83-1.2,7.76.34,11.72-1.65.34-3.14,1-4.37,1.93-2.64-1.72-6.08-3.78-9.68-5.84l.12-.05c-3.6-9.11,1.91-15.51,5.29-18.37,2.24-.51,4.52-.88,6.85-1.14,3.59-.39,7.29-.48,11.1-.28Z"/>
      <path class="cls-1" d="M296.71,572.18c-4.21-1.52-10.36-3.87-17.13-6.86,11.1-9.62,13.37-23.81,13.8-30.48,3.47,2.57,8.42,5.98,13.91,8.93-.21.66-.29,1.53-.06,2.62.36,1.72,1.49,4.05,4.23,7.1-1.29,4.29-5.18,13.95-14.77,18.69Z"/>
      <path class="cls-1" d="M328.11,566.71c-.55,3-2,8.68-5.48,12.09-6.06-1.11-13.01-2.68-20.84-4.88-.2-.07-.39-.13-.59-.19,7.7-4.97,11.44-12.6,13.12-17.37,3.14,2.91,7.58,6.34,13.8,10.36Z"/>
      <path class="cls-1" d="M352.17,580.45l-.34.7c-3.37.17-6.88.16-10.49,0-.02,0-.04,0-.07,0-3.91-.24-8.75-.73-14.53-1.66,2.6-3.44,3.94-7.74,4.61-10.74,9.67,6.03,16.45,9.62,20.82,11.7Z"/>
      <path class="cls-1" d="M337.73,516.6c-.66,2.6-4.98,17.55-19.05,24.47h0c-3.8-.59-6.73-.61-8.69.1-5.65-2.94-10.88-6.53-14.46-9.19,22.76-7.09,31.29-18.39,33.6-22.19,2.91,2.17,5.8,4.46,8.61,6.81Z"/>
      <path class="cls-1" d="M353.6,531.72c-.37,3.97-2.36,11.89-12.15,15.34h0c-1.19-.4-2.38-.78-3.55-1.13-5.21-1.58-9.85-2.89-13.85-3.81,10.86-7.05,15.24-18.2,16.68-22.96,4.77,4.19,9.19,8.49,12.88,12.55Z"/>
      <path class="cls-1" d="M313.9,499.9c-2.87.25-6.37.74-9.94,1.66-10.57,2.73-17.14,8.14-19.16,15.72-.6-.32-1.23-.6-1.88-.84-1.4-.52-2.82-.82-4.2-.91-1.63-3.52-1.87-6.98-.74-10.3,2.13-6.22,8.54-10.66,11.99-12.68,4.06.51,8.23,1.34,12.51,2.5,3.43.92,7.31,2.61,11.42,4.84Z"/>
      <path class="cls-1" d="M326.21,507.67c-1.76,2.94-10.15,14.79-34.19,21.62-.19.06-.39.11-.58.17.05-.17.09-.35.12-.53.45-2.25-.05-4.65-1.46-6.87-.59-.93-1.31-1.79-2.15-2.56,2.71-15.28,26.14-16.26,31.6-16.28,2.19,1.38,4.42,2.87,6.65,4.46Z"/>
      <path class="cls-1" d="M373.94,563.54l.83,7.5s-52.15-21.61-60.05-18.48c0,0-5.98-5.97-3.48-7.9s16.75-1.81,62.7,18.88Z"/>
      <path class="cls-1" d="M353.14,592.21c-31.27.69-70.6-11.85-89.65-22.3-27.46-15.06-25.9-22.71-25.9-22.71l-.66-7.51c2.83,4.34,8.04,9.49,14.73,14.39,8.26,6.06,22.65,14.64,44.29,21.16,32.44,9.76,50.99,9.29,56.36,8.86l.83,8.12Z"/>
      <polygon class="cls-1" points="175.48 435.01 173.78 440.81 173.77 440.84 173.69 441.22 172.79 440.86 157.89 434.74 158.21 427.08 175.48 435.01"/>
      <path class="cls-1" d="M193.5,414.63l-1.77-.81-1.95-10.28s-9.3-9.13-6.95-22.34c.4,2.25,1.04,4.25,1.74,5.94,1.79,4.32,4.21,7.36,5.36,8.64l3.58,18.86Z"/>
      <polygon class="cls-1" points="183.55 501.04 181.4 507.38 166.32 503.47 157.68 495.19 149.04 486.91 146.47 479.18 146.8 471.11 149.1 478.64 149.31 479.34 149.85 479.85 158.48 488.13 167.13 496.42 167.66 496.92 168.37 497.1 183.45 501.01 183.55 501.04"/>
      <path class="cls-1" d="M198.38,478.23l-.53.15.26-.23c.09.03.18.06.27.08Z"/>
      <polygon class="cls-1" points="199.68 480.78 198.6 484.33 195.78 487.27 190.3 488.89 192.09 483.61 192.2 482.91 192.98 482.75 199.04 480.96 199.32 480.88 199.68 480.78"/>
      <polygon class="cls-1" points="228.28 485.83 228.24 485.95 226.14 491.55 219.82 494.78 208.98 473.55 208.97 473.54 207.26 475.3 204.03 476.4 204.14 475.61 204.63 471.79 204.64 470.92 205.05 470.86 210.84 468.89 220.08 486.97 221.35 489.47 223.85 488.19 228.28 485.83"/>
      <polygon class="cls-1" points="220.86 459.19 220.67 459.33 220.84 459.16 220.86 459.19"/>
      <polygon class="cls-1" points="238.08 475.61 238.03 475.74 235.9 481.36 232.39 483.15 231.39 481.19 230.58 479.63 231.27 479.2 233.62 478 238.08 475.61"/>
      <polygon class="cls-1" points="267.97 400.27 266.21 406.09 254.28 409.9 256.2 406.2 256.67 405.3 256.46 404.32 256.39 403.96 264.69 401.32 267.97 400.27"/>
      <path class="cls-1" d="M295.54,444.24c-2.24,4.32-5.88,9.13-11.71,14.04-2.13,1.79-4.22,3.2-6.26,4.29-16.61,8.9-29.69-3.34-29.69-3.34l-13.77-2.01-3.67-7.19,18.99,2.78c1.95,1.59,7.73,5.76,15.75,6.58,5.6.58,11.13-.58,16.46-3.43,2.29-1.23,4.56-2.78,6.75-4.62,2.72-2.29,5.1-4.66,7.15-7.1Z"/>
      <path class="cls-1" d="M233.62,478l.45-.23,3.97-2.03.05-.13-4.46,2.39ZM223.85,488.19l.45-.23,3.93-2.01.05-.12-4.43,2.36ZM177.96,434.2l1.85-.19h0s-1.85.19-1.85.19Z"/>
      <polygon class="cls-1" points="179.81 434.01 179.81 434.01 179.81 434.01 177.96 434.2 179.81 434.01"/>
      <path class="cls-1" d="M321.76,365.21c0,.13,0,.25-.02.38-.19,2.36-2.16,4.21-4.57,4.21-.95,0-1.84-.29-2.57-.79-1.22-.83-2.01-2.22-2.01-3.8,0-1.46.69-2.76,1.76-3.6.78-.62,1.76-.99,2.83-.99.24,0,.48.02.71.06,2.2.33,3.88,2.23,3.88,4.52Z"/>
      <polygon class="cls-1" points="290.34 377.64 293.8 384.91 295.26 385.23 305.08 381.16 290.34 377.64"/>
      <path class="cls-1" d="M372.43,362.67c-.64,11.78-7.81,23.54-12.29,29.82-.96,1.35-1.8,2.44-2.42,3.22-.02.02-.04.04-.05.07-.22.28-.45.54-.69.8-3.38,3.74-8.17,11.11-10.29,24.17l-5.97-.97-1.99-.32c1.55-9.52,4.45-16.56,7.47-21.63.61-1.03,1.23-1.98,1.84-2.86-9.2-.59-26.42-2.58-39.47-7.57-1.53-.58-2.99-1.2-4.39-1.87l7.67-3.27h0l4.03-1.73-20.29-5.07h0l-7.25-1.82,11.98-2.68,7.78-1.74-4.83-.71-7.33-1.08s5.69-2.2,14.41-4.58c-.26.74-.4,1.54-.4,2.36,0,.42.04.83.11,1.24.26,1.51.99,2.84,2.02,3.87h0c1.3,1.3,3.09,2.1,5.07,2.1,3.97,0,7.21-3.23,7.21-7.21,0-.16,0-.32-.02-.48-.04-.59-.15-1.16-.32-1.69-.37-1.17-1.03-2.2-1.89-3.02,8.52-1.77,18.27-3.15,27.93-3.15,6.85,0,13.66.7,19.95,2.44.82.23,1.64.47,2.42.72.03.88.02,1.76-.03,2.65Z"/>
      <path class="cls-1" d="M393.76,371.83c-3.55,17.14-22.86,31.14-24.34,32.18-.37.37-.8.79-1.18,1.15-2.45,2.82-5.51,7.84-7.05,18.45l-7.97-1.16c1.09-7.56,3.51-15.37,7.06-20.87.17-.27.33-.53.49-.81,1.24-2.19,2.24-3.55,3.57-5.78,2.24-3.75,2-3.65,4.91-8.93,4.89-8.87,7.4-17.1,7.5-24.57,7.3,2.77,12.79,6.3,17.01,10.34Z"/>
      <path class="cls-1" d="M407.46,398.14c-7.65,7.96-18.43,13.04-23.78,15.23-.94-1.52-2.08-2.69-3.34-3.65-1.71,3.52-3.34,8.52-3.87,15.27l-8.03-.64c.48-6.06,1.85-11.74,4-16.67.26-.59.67-1.1,1.18-1.49h0c1.88-1.46,4.85-3.9,8.12-7.11.8-.79,1.61-1.62,2.43-2.49,6.61-7.06,10.98-14.11,13.03-21.02,5.45,6.73,8.2,14.55,10.25,22.57Z"/>
      <path class="cls-1" d="M409.42,423.4c-8.48,2.99-17.61,3.65-23.11,3.73.19-4.07-.16-7.27-.91-9.82,2.84-1.16,7.03-3.06,11.56-5.74,4.53-2.67,8.43-5.53,11.67-8.56.28,1.19.55,2.38.81,3.57,1.19,5.32,1.22,11.03-.01,16.81Z"/>
      <path class="cls-1" d="M408.05,428.35c-2.06,6.08-5.54,12.16-10.57,17.87-5.61-1.26-10.87-3.35-15.02-5.31,1.75-2.52,2.99-5.65,3.48-9.51,3.01-.02,7.15-.21,11.75-.86,3.72-.52,7.17-1.26,10.35-2.2Z"/>
      <path class="cls-1" d="M394.08,449.8c-4.12,4.03-9.07,7.84-14.89,11.29-4.48-3.47-8.32-7.57-11.26-11.17,4.17-1,8.31-2.74,11.58-5.67,1.99.98,4.27,2,6.76,2.97,2.68,1.05,5.29,1.91,7.81,2.58Z"/>
      <path class="cls-1" d="M375.14,463.35c-.83.44-1.67.87-2.54,1.3-14.03,6.92-23.85,9.08-30.4,9.08-7.63,0-10.8-2.94-10.99-4.7-.1-.96.29-1.77.89-2.44l.8-.17h0c1.61-.1,22.64-1.51,37.26-7.6,1.64,1.65,3.3,3.17,4.96,4.54Z"/>
      <path class="cls-1" d="M367.04,455.47c-10.03,3.84-23.54,5.66-30.64,6.4-1.98.21-3.47.33-4.24.39-.15-.09-.3-.18-.46-.28-2.76-1.74-5.8-4.55-5.99-8.44-.16-3.3,4.57-4.2,9.74-4.2,6.17,0,12.99,1.27,12.99,1.27,0,0,3.36.55,8.07.55,2.01,0,4.26-.1,6.61-.38h0c1.14,1.47,2.45,3.06,3.91,4.7Z"/>
      <path class="cls-1" d="M306.23,389.81s3.32,1.81,16.15,4.66c12.83,2.85,18.86,2.85,18.86,2.85,0,0-1.94,3.85-2.95,6.63,0,0-12.7-2.14-18.69-4.02-6-1.88-10.69-3.95-10.69-3.95l-2.68-6.16Z"/>
      <path class="cls-1" d="M381.35,416.84s-1.26,5.2-1.48,11.41l-9.77-.66,3.4,7.44,7.03.5s1.8-4.48,1.86-9.11c.06-4.63-.09-6.56-1.04-9.58Z"/>
      <path class="cls-1" d="M354.84,425.85l3.34,7.19,8.04,1.17s.57-4.1,1.39-6.81c0,0-8.13-.95-12.77-1.54Z"/>
      <path class="cls-1" d="M352.82,425.54s-.85,3.94-1.13,5.74l-8.1-1.25-2.87-6.38s7.82,1.29,12.1,1.89Z"/>
      <path class="cls-1" d="M334.95,476.81s4.71,2.26,14.76.45c10.06-1.8,18.76-5.87,27.72-10.12l3.55,7.86s-16.95,8.7-28.49,10.12c-11.54,1.42-14.76-2.26-15.41-3.61s-2.13-4.71-2.13-4.71Z"/>
      <path class="cls-1" d="M378.56,466.39s9.49-4.9,16.89-11.66c7.4-6.76,12.61-15.51,14.61-20.14,1.99-4.63,3.86-12.68,3.92-17.11,0,0,1.35,5.85,1.35,10.55s-.97,7.85-.97,7.85l-3.15.9,1.8,3.8s-1.65,4.92-4.37,9.45-5.92,7.89-5.92,7.89l-5.78-1.66,2.46,5.05s-2.52,2.8-6.79,5.96c-4.26,3.16-7.57,5.01-7.57,5.01l-6.49-5.89Z"/>
      <path class="cls-1" d="M188.11,486.61l-3.96,11.69-15.08-3.91-8.64-8.28-8.65-8.28-2.35-7.74-2.19-7.17,11.26-4.36c.51,2.29,1.65,6.08,4.19,10.24,3.66,5.96,11.03,13.85,25.42,17.81Z"/>
      <path class="cls-1" d="M198.38,478.23l-.53.16-7.72,2.28h0s0,.01,0,.01l-.81,2.4c-10.66-2.88-18.51-8.28-23.34-16.06-2.59-4.17-3.58-7.96-3.94-9.82l2.46-.95.11-.04h0s.01,0,.01,0l.03-.09,2-8.04c.78,2.67,2.13,6.23,4.44,10.02,4.09,6.74,12.07,15.51,27.04,20.07.09.03.18.06.27.08Z"/>
      <path class="cls-1" d="M207.19,467.18l-5,1.69h0s0,.01,0,.01l-.82,6.32c-12.2-3.2-21.29-9.57-27.02-18.91-2.93-4.78-4.2-9.18-4.72-11.56l6.24-1.08h0s0,0,0,0l.31-1.07,1.02-3.44c.78,2.51,2.1,5.8,4.32,9.31,3.95,6.25,11.54,14.33,25.67,18.72Z"/>
      <path class="cls-1" d="M238.65,472.28l-5.87,2.99-.44.22-10.78-21.09-4.61,4.71,11.93,23.34-.3.15-5.56,2.85-.45.23-10.85-21.23h0l-.09.09c-12.15-3-21.19-9.03-26.87-17.92-4.2-6.59-4.92-12.41-4.94-12.62h0s.06-.07.06-.07h0s-21.67-9.94-21.67-9.94l2.95-6.44,5.38,2.46,18.46,8.46h0s2.83-3.02,2.83-3.02l1.68-1.79h0s-21.53-9.88-21.53-9.88l2.95-6.44,21.44,9.84,2.26,1.04h0s0,0,0,0c12.33,3.03,21.5,9.14,27.26,18.17,3.87,6.07,4.82,11.5,4.97,12.58l-.07.08,3.91,7.66,7.95,15.56Z"/>
      <path class="cls-1" d="M301.66,421.62c-.06-2.56-.55-4.07-.55-4.07-9.08,8.08-15.94,11.62-20.49,13.16-.22.07-.45.14-.66.21-.28.08-.53.15-.78.22-.12.04-.26.07-.38.1-.23.07-.46.13-.69.17h0c-.33.08-.65.14-.94.19-.2.03-.39.07-.57.09-.63.09-1.15.13-1.56.14-.47.02-.79-.01-.97-.03-.11,0-.17-.02-.17-.02h0s3.44-3.7,3.44-3.7l9.52-10.23c-1.01.13-2,.27-2.96.42h0c-3.22.53-6.22,1.21-8.97,2.02-.01,0-.01,0-.02.01-.55.16-1.09.33-1.62.49,0,0,0,0-.01.01-.8.26-1.57.52-2.32.78,0,0-.01.01-.01.02-1.27.46-2.47.93-3.63,1.43-.45.2-.9.4-1.34.59-.66.31-1.31.63-1.94.94-.41.2-.8.41-1.19.61-.61.32-1.19.65-1.76.97-.36.2-.71.41-1.06.63-2.49,1.5-4.53,2.98-6.17,4.31-2.59,2.1-4.15,3.81-4.77,4.52h0c-.19.23-.29.36-.29.36h-.01s-9.65.68-9.65.68l-2.06.15h.01s13.3-25.52,13.3-25.52l-.03-.14h.02l.1-.03,3.24-6.21-.44-2.12-.16-.72h.01s15.83-5.05,15.83-5.05l-2.15-6.76-15.16,4.83h-.01s-.71-3.41-.71-3.41l-3.44-.57h0s4.18-15.35,4.18-15.35l-6.84-1.86-2.5,9.15-1.88,6.87v.02l-.27-.05-2.6-.43-31.15,17.97h0s.15-5.32.15-5.32l.17-6.41h0s2.02-1.73,4.66-5.28c1.26-1.7,2.65-3.81,4.04-6.35.2-.36.39-.72.58-1.09.3-.58.59-1.17.89-1.79.19-.4.38-.8.57-1.22.29-.64.57-1.31.85-1.98.17-.43.34-.86.52-1.3,0-.02.02-.04.02-.06.45-1.17.88-2.4,1.28-3.68,0,0,0-.01,0-.02.24-.76.47-1.55.69-2.35,0,0,0-.01,0-.02.15-.54.29-1.08.42-1.63,0-.01,0-.02.01-.02.69-2.79,1.26-5.8,1.64-9.04t0-.02c.11-.97.21-1.95.29-2.97l-13.36,13.55h-.01s-.09-.37-.09-1.13c-.01-.41,0-.93.07-1.56v-.11c.02-.15.04-.3.06-.46.04-.3.09-.61.15-.95h0c.04-.22.08-.46.14-.7.02-.12.05-.25.09-.38.05-.26.12-.51.18-.78.82-3.12,2.55-7.44,6.1-12.99,1.68-2.63,3.77-5.53,6.37-8.71,0,0-.61-.17-1.71-.28-.64-.07-1.44-.11-2.38-.1-.23,0-.47.02-.72.02h0c-.26.02-.51.04-.78.05-.27.03-.54.05-.82.09-.29.03-.57.07-.86.11-.16.02-.31.04-.46.07-1.07.18-2.22.45-3.44.82-.17.05-.34.11-.53.17-.35.11-.71.24-1.07.38-.91.34-1.86.75-2.84,1.23-.19.09-.39.19-.59.3-4.56,2.35-9.68,6.34-14.81,12.99-1.7,2.2-3.01,4.34-4.02,6.43-1.48,3.08-2.28,6.01-2.58,8.74-1.39,12.36,7.18,20.77,7.18,20.77l3.87,20.39c16.09,4.19,24.5,13.01,28.74,19.73,3.38,5.36,4.7,10.2,5.19,12.62l20.32,2.97s5.91,5.53,14.84,6.45c4.34.45,9.4-.2,14.84-3.11,2.04-1.09,4.14-2.51,6.27-4.3,6.22-5.23,9.95-10.35,12.13-14.89.08-.15.15-.3.21-.45.1-.2.19-.4.27-.6.44-1,.81-1.96,1.11-2.89.12-.37.23-.73.33-1.09.05-.19.1-.36.15-.54.32-1.23.54-2.39.68-3.47.02-.14.04-.31.05-.45.03-.3.06-.59.08-.88.03-.28.04-.56.05-.83,0-.27.02-.53.01-.77,0,0,0,0,0,0,0-.25,0-.49-.01-.72ZM219.4,418.34l-3.71-.2c.04-.69,1.14-17.05,21.37-23.09l1.06,3.56c-17.63,5.28-18.68,19.15-18.72,19.73ZM226.82,427.15l-.22-1.84-.23-1.85h0c.64-.08,14.36-2.08,18.44-19.99l3.63.83c-4.69,20.58-20.93,22.77-21.62,22.85Z"/>
    </g>
    <g>
      <path class="cls-1" d="M199.27,178.75c-.27-.19-.59-.4-.95-.62-.76-.45-1.57-.83-2.39-1.14-1.29-.48-2.66-.79-4.07-.93-1.03-.1-2.08-.1-3.15,0-.98.08-1.98.25-2.96.5-1.23.3-2.48.72-3.7,1.25-1.66.71-3.24,1.25-4.69,1.61-3.91.96-6.12.41-7.29-.22-.28-.15-.54-.33-.76-.52l-.03-.02-.04-.04s-.04-.04-.06-.06l-.02-.02c-.06-.06-.11-.11-.16-.17-.34-.38-.58-.82-.7-1.31-.13-.52-.13-1.06-.01-1.62.05-.25.13-.51.24-.77.31-.76.78-1.58,1.37-2.36,1.96-2.6,4.9-4.54,8.05-5.32,2.61-.64,5.38-.53,8.23.33.9.27,1.77.58,2.58.91,1.29.53,2.49,1.15,3.55,1.85.54.34,1.06.72,1.58,1.15.59.48,1.14.99,1.64,1.52,1.97,2.08,3.02,4.28,3.71,5.98Z"/>
      <path class="cls-1" d="M196.98,163.02c-.35-.39-.76-.82-1.23-1.28-.9-.89-1.84-1.71-2.79-2.44-.82-.65-1.69-1.25-2.58-1.8-.87-.54-1.77-1.03-2.66-1.44-1.64-.77-3.33-1.34-5.04-1.69-1.37-.28-2.76-.42-4.13-.42-.2,0-.41,0-.61,0-1.47.04-2.97.25-4.45.62-.35.08-.7.18-1.05.28-.56.17-1.06.3-1.52.41-4.78,1.18-9.06,1-12.37-.51-1.06-.48-2.03-1.1-2.87-1.85-.69-.62-1.29-1.32-1.79-2.08-1.41-2.17-1.88-4.76-1.28-7.09.51-1.99,1.61-4.13,3.24-5.94,1.63-1.81,3.8-3.28,6.43-3.93,3.76-.93,7.99-.13,12.56,2.36.48.26.98.56,1.52.88,2.44,1.5,4.7,3.17,6.75,4.95,2.6,2.26,4.93,4.81,6.94,7.56,3.38,4.64,5.4,9.25,6.95,13.39Z"/>
      <path class="cls-1" d="M178.74,162.35c-.62.09-1.23.21-1.83.36-4.53,1.11-8.59,3.96-11.14,7.8-.55.82-1,1.67-1.34,2.5-.25.62-.43,1.26-.54,1.91l-.74-.51h-.04c-.48-.23-.9-.52-1.22-.87-.92-.98-1.12-2.35-.54-3.77,1.16-2.87,4.61-6.49,9.43-7.68,2.53-.62,5.21-.53,7.96.25Z"/>
      <path class="cls-1" d="M162.74,129.28c-.51.08-1.03.18-1.53.3-7.53,1.85-11.66,8.2-12.9,13.07-.41,1.59-.49,3.28-.26,4.95-2.38-2.39-3.41-5.71-2.63-8.76,1.01-3.97,4.4-8.56,9.67-9.86,1.01-.25,2.05-.37,3.12-.37,1.45,0,2.96.23,4.53.68Z"/>
      <path class="cls-1" d="M201.54,191.52c-.39.13-.79.25-1.18.34l-.12.03c-.9.22-1.94.45-2.94.66-.99.22-2.03.44-2.9.65l-.28.07c-8.58,2.11-13.96,4.4-17.98,7.65-1.46,1.2-2.76,2.78-4.03,4.32-2.26,2.73-4.59,5.57-7.88,6.37-.37.09-.71.15-1.02.18-.91.03-1.7-.17-2.36-.56l-.05-.03s0,0,0,0h-.01c-.08-.06-.15-.11-.25-.19-.36-.27-.66-.61-.88-1.02-.26-.46-.41-.99-.45-1.55-.04-.65.08-1.32.33-1.94.05-.11.1-.23.17-.36.08-.17.17-.34.29-.51,1.54-2.46,4.51-5.28,8.36-7.94,4.74-3.26,10.26-5.92,14.42-6.94.07-.02.14-.03.22-.05,1.46-.36,3.04-.62,4.67-.8,1.64-.17,3.31-.22,4.95-.14h.06c1.43.08,2.82.25,4.27.52,1.21.22,2.44.53,3.66.91.33.11.64.21.93.31Z"/>
      <path class="cls-1" d="M189.52,185.35c-.77.03-1.55.09-2.32.17-1.84.2-3.61.5-5.22.89-.07.01-.17.04-.27.06-8.34,2.05-21,9.68-25.46,16.8-.2.31-.39.65-.56.99-.45.92-.74,1.89-.86,2.87l-1.21-.83-.13-.09c-1.65-1.13-1.95-3.53-.68-5.47,3.15-5.07,13.79-12.66,22.78-14.88l.22-.06c1.49-.36,3.07-.62,4.68-.8,3.03-.33,6.06-.22,9.03.33Z"/>
      <path class="cls-1" d="M169.02,178.38h0c.05.06.1.11.16.17l-.15-.17Z"/>
      <path class="cls-1" d="M169.02,178.38h0c.05.06.1.11.16.17l-.15-.17Z"/>
      <path class="cls-1" d="M169.02,178.38h0c.05.06.1.11.16.17l-.15-.17Z"/>
      <path class="cls-1" d="M365.87,199.34s.04-.02.06-.03c-.02.01-.04.03-.06.03h0Z"/>
      <path class="cls-1" d="M358.03,250.2c0,1.97-.56,3.74-1.22,4.89-.35.62-.82,1.13-1.39,1.52l-.66.44c.13-1.04.14-2.08.06-3.11h0s0-.06,0-.06c-.11-1.21-.38-2.42-.8-3.57-1.1-3.04-3.8-7.18-10.37-9.61-1.46-.54-2.95-.99-4.43-1.32-1.55-.35-3.1-.57-4.64-.68,3.7-.89,8.75-1.25,15.12,1.12,3.94,1.46,6.62,3.88,7.74,6.97.42,1.16.59,2.32.59,3.42Z"/>
      <path class="cls-1" d="M369.15,195.4c.09,1.02-.6,2.11-2,3.13-.28.21-.61.42-1.01.66-.07.04-.14.08-.21.12-.02.01-.04.03-.06.03h0c-.19-.94-.59-1.83-1.2-2.65-.82-1.12-2-2.07-3.42-2.76-1.36-.65-3.02-1.21-4.81-1.62-1.85-.42-3.82-.67-5.82-.75,6.83-1.46,13.28-.14,16.29,1.31,1.36.66,2.15,1.55,2.24,2.52Z"/>
      <path class="cls-1" d="M382.54,227.42c-.11.06-.21.13-.32.19-.06.03-.13.07-.2.1-.08.05-.16.08-.24.12-.01,0-.02.01-.03.02,0-.37,0-.73-.03-1.12-.07-.82-.22-1.64-.47-2.44-.94-3.13-3.12-5.8-5.98-7.34-2.33-1.3-5.15-2.33-8.39-3.06-3.7-.83-8-1.26-12.42-1.26-.38,0-.77,0-1.15,0,9.18-1.32,20.67-.62,27.43,3.16,2.31,1.23,3.94,3.69,4.16,6.26.18,2.14-.66,4.05-2.35,5.36Z"/>
      <path class="cls-1" d="M377.32,227.66c0,.48-.06.95-.16,1.41-.31,1.35-1.06,2.5-2.22,3.4-2.24,1.38-4.85,1.66-8.21.91-2.2-.49-4.48-1.38-6.7-2.24-2.18-.85-4.44-1.72-6.58-2.21-.42-.09-.84-.17-1.25-.24-6.98-1.01-14.63.49-25.59,5.01-1.12.45-2.42,1.04-3.68,1.61-1.69.76-3.43,1.55-4.8,2.05-.35.13-.72.24-1.11.33,1.62-2.9,3.64-5.68,4.75-7.16.62-.82,1.3-1.58,2.04-2.28.1-.1.2-.2.31-.3,1.09-.98,2.25-1.93,3.47-2.82,1.85-1.37,3.77-2.58,5.74-3.61,1-.53,2.01-1.01,3.02-1.43,4.6-1.97,11.42-3.02,18.14-3.02,3.99,0,7.94.37,11.38,1.15,2.84.64,5.27,1.52,7.24,2.62,1.89,1,3.35,2.85,3.92,4.95.17.62.26,1.26.26,1.87Z"/>
      <path class="cls-1" d="M350.43,255.78h0c-.03.56-.1,1.13-.22,1.7-.2.96-.54,1.88-.98,2.66-.37.63-.87,1.17-1.48,1.58-.03.02-.06.04-.09.06l-.05.03.23.35-.28-.32c-1.08.66-2.42.85-3.75.56-2.88-.65-5.56-3.44-7.53-7.86-2.69-6.02-7.49-8.24-11.05-9.04-.93-.21-1.78-.32-2.48-.38,4.12-1.61,9.03-2.85,15.49-1.4,1.29.29,2.59.68,3.86,1.15,2.62.97,8.67,3.98,8.33,10.92Z"/>
      <path class="cls-1" d="M361.46,201.31c-.18.56-.58,1.13-1.18,1.69l-2.65,1.72c-2.91,1.43-7.09,2.51-12.41,3.22-3.87.51-7.34,1.41-10.31,2.65-1.13.48-2.2,1.01-3.18,1.59-4.06,2.37-5.93,5.02-6.71,6.48-.97-3.69-1.65-9.71,7.21-16.94,1.75-1.43,3.71-2.61,5.81-3.52,4-1.73,7.91-2.23,11.09-2.23,2.81,0,5.07.39,6.34.68,1.46.33,2.8.77,3.85,1.28.48.23.89.5,1.23.78.62.54,1.3,1.42.91,2.6Z"/>
      <path class="cls-1" d="M237.76,103.38c-2.75,2.79-5.35,5.65-7.72,8.53-11.37,2.19-16.45,5.95-17.99,7.32l-.87-3.1-.94-3.33,1.35-1.7c.12-.11.58-.54,1.5-1.15.72-.48,1.58-.97,2.54-1.45.41-.2.85-.41,1.3-.61,3.74-1.65,10.34-3.74,20.82-4.5Z"/>
      <path class="cls-1" d="M296.54,272.81c-.45-1.12-1.28-2.36-2.48-3.71,0,0,0,0-.02-.01-.06-.06-.25-.24-.56-.52-.09-.09-.2-.19-.31-.29-.64-.59-1.54-1.42-2.46-2.27-.18-.17-.36-.33-.54-.5-.28-.26-.56-.51-.82-.76,0,0-.01,0-.02-.01-6.3-4.97-15.3-9.69-24.99-13.07-15.37-5.36-30.08-19.24-37.96-31.31,1.74,1.99,3.58,3.94,5.52,5.82,8.72,8.46,18.56,14.89,27.72,18.09,8.14,2.84,15.83,6.69,21.67,10.83,2.92,2.08,4.84,3.83,6.05,5.18,0,0,0,0,0,0,.55.5,1.17,1.06,1.81,1.65.28.26.57.53.86.79h0c1.46,1.35,2.96,2.79,4.13,3.97.11.11.2.21.3.31.11.11.21.21.3.31l1.82-2.92c.07-.11,1.47-2.38,2.57-6.05.73,6.89-1.58,12.38-2.61,14.43Z"/>
      <path class="cls-1" d="M297.81,137.92c-.93,3.74-2.36,6.62-3.35,7.77l-1.97,2.27c-4.16,1.46-7.96,2.62-11.31,3.47-9.14,2.31-38.96,11.08-46.31,28.24-.95-4.02-.42-7.79,1.63-11.49,2.9-5.24,8.68-10.17,17.19-14.64,9.03-4.75,18.75-7.73,25.32-9.39,5.32-1.35,11.81-3.49,18.81-6.22Z"/>
      <path class="cls-1" d="M376.35,93.67c-10.1,14.45-27.72,26.58-40.76,34.22l-.21.13v.17c-4.26,12.08-13.71,32.25-29.27,32.25-2.63,0-4.47-.64-5.02-.85l-1.87-6.62c.42.08.84.14,1.25.19.6.08,1.24.12,1.88.13.17,0,.34,0,.5,0,.51,0,.98-.01,1.46-.05,1.81-.13,3.63-.49,5.39-1.07,3.35-1.1,6.58-2.99,9.59-5.62,6.47-5.66,12.04-14.79,16.55-27.16,9.7-5.77,23.38-14.96,33.76-26.06.93-.99,1.77-1.93,2.58-2.87.4-.47.79-.94,1.18-1.41.35-.42.72-.88,1.12-1.4.05-.06.09-.11.14-.17l1.74,6.18Z"/>
      <path class="cls-1" d="M310.66,210.5c-2.68,10.52-10.98,16.11-17.6,18.97-1.63-2.04-3.55-4.03-5.72-5.92,1.88-.62,3.7-1.33,5.42-2.14,3.57-1.66,6.74-3.69,9.41-6.04,1.2-1.04,2.32-2.18,3.32-3.37.59-.7,1.16-1.43,1.69-2.18.49-.69.95-1.41,1.38-2.14.31-.52.59-1.05.86-1.58l1.24,4.39Z"/>
      <path class="cls-1" d="M307.84,198.91h0s0,0,0,0h0Z"/>
      <g>
        <path class="cls-1" d="M372.65,81.97s-.02-.02-.05-.04c-3.2-2.52-20.34-14.94-46.97-14.94-12.11,0-24.6,2.56-37.14,7.62l-.14.06-.14-.05c-5.46-1.81-14.24-3.98-25.17-3.98-5.22,0-10.52.49-15.74,1.46-9.88,1.84-33.38,8.94-38.09,35.2.68-.56,1.77-1.35,3.36-2.22.67-.36,1.32-.7,2.02-1.01,0,0,.01,0,.02,0,.08-.03.16-.07.24-.11l.24-.11c.1-.05.19-.08.28-.13l.74-.31c.74-.3,1.39-.55,2.04-.78,6.26-2.22,14.05-3.52,23.15-3.88,1.66-.07,3.43-.1,5.25-.1.16,0,.31,0,.47,0h.08c2.9-.06,6.3.06,8.79.7l-1.17,4.52c-2.78-.72-7.57-.62-10.69-.42-.12.12-.24.23-.36.35-2.73,2.63-5.29,5.3-7.61,7.94-.59.66-1.17,1.33-1.77,2.04-.53.63-1.14,1.37-1.72,2.08-14.26,17.71-21.03,36.82-20.12,56.79.18,3.99.68,8.04,1.48,12.04.81,4.01,1.89,7.9,3.32,11.91.43,1.19.88,2.38,1.38,3.63,5.55,14.02,23.95,33.39,42.5,39.86,17.52,6.12,29.87,15.41,32.19,21.14.95-1.88,2.98-6.69,2.73-12.81-.06-1.36-.23-2.74-.51-4.11-.33-1.57-.8-3.12-1.42-4.62-.73-1.77-1.66-3.5-2.77-5.13-.32-.48-.66-.97-1.07-1.5-.38-.51-.78-1-1.17-1.47-2.87-3.42-6.65-6.65-11.25-9.61l-1.01-.65,1.19-.13c.12-.01,12.02-1.37,20.8-8.77.25-.21.49-.42.73-.64.59-.53,1.09-1.02,1.55-1.52.62-.64,1.23-1.35,1.81-2.1,1.97-2.55,3.41-5.43,4.29-8.55.01-.05.03-.09.04-.14-.11.03-.23.06-.37.08h-.05c-4,.9-17.98,3.76-32.92,3.76-16.6,0-28.74-3.44-36.09-10.24-.9-.82-1.73-1.71-2.48-2.64-.74-.91-1.43-1.91-2.05-2.95-.9-1.54-1.65-3.21-2.22-4.98-1.86-5.74-1.34-11.29,1.55-16.51,3.32-6.01,9.72-11.54,19.01-16.42,9.41-4.95,19.49-8.04,26.29-9.76,5.68-1.43,12.7-3.8,20.3-6.84.07-.03.13-.06.2-.08.17-2.2.08-5.17-.85-8.59l4.51-1.23c.8,2.94,1.08,5.6,1.09,7.85h0s0,.32,0,.32v.34c-.06,1.38-.19,2.76-.4,4.14h0c-.15,1-.35,2-.59,2.99-.65,2.73-1.64,5.38-2.77,7.46-.22.4-.43.77-.64,1.09-.2.31-.39.59-.58.84.52.18,1.43.45,2.65.61.24.03.5.06.78.08.56.04,1.15.06,1.78.04.6-.02,1.22-.07,1.82-.16.94-.13,1.9-.35,2.85-.65,12.06-3.76,19.74-19.16,24.07-31.45v-.17l.21-.13c14.21-8.33,25.6-17.01,33.86-25.81.76-.8,1.51-1.63,2.23-2.45.4-.47.8-.93,1.18-1.4.35-.42.74-.9,1.11-1.38.76-.96,1.5-1.94,2.18-2.92.03-.04.06-.08.08-.11-.09-.07-.2-.16-.33-.27ZM343.77,83.94c-.18,1.23-.91,2.29-1.99,3.04-1.08.75-2.5,1.2-4.08,1.2-.42,0-.86-.03-1.28-.1-1.74-.26-3.29-1.03-4.38-2.17-1.12-1.16-1.63-2.57-1.41-3.97.29-1.91,1.89-3.44,4.16-4.01.99-.25,2.09-.3,3.18-.14.82.13,1.6.37,2.3.7,2.42,1.13,3.82,3.31,3.5,5.43Z"/>
        <polygon class="cls-1" points="303.17 130.95 303.16 131.27 303.16 130.95 303.17 130.95"/>
        <path class="cls-1" d="M303.16,130.95v.32-.32s0,0,0,0Z"/>
      </g>
      <path class="cls-1" d="M303.16,131.27c-.01,1.77-.19,3.29-.4,4.48.22-1.38.35-2.77.39-4.14v-.34Z"/>
    </g>
    <g>
      <path class="cls-1" d="M511.6,156.48v-24.5h17.88v3.85h-13.33v20.65h-4.55ZM515.8,147.06v-3.78h12.18v3.78h-12.18Z"/>
      <path class="cls-1" d="M533.16,156.48v-18.69h4.17v5.15l-.49-1.5c.54-1.26,1.41-2.22,2.62-2.89,1.21-.67,2.7-1,4.45-1v4.17c-.16-.02-.33-.04-.49-.05-.16-.01-.32-.02-.46-.02-1.68,0-3.01.48-3.99,1.43-.98.96-1.47,2.42-1.47,4.38v9.03h-4.34Z"/>
      <path class="cls-1" d="M551.95,156.72c-1.4,0-2.62-.24-3.67-.72-1.05-.48-1.86-1.14-2.43-2-.57-.85-.86-1.81-.86-2.89s.25-1.99.75-2.83c.5-.84,1.32-1.5,2.47-1.99,1.14-.49,2.66-.74,4.55-.74h5.43v2.91h-5.11c-1.47,0-2.47.24-2.99.72-.53.48-.79,1.08-.79,1.8,0,.77.32,1.39.95,1.86s1.5.7,2.62.7,2.04-.24,2.89-.73c.85-.49,1.48-1.21,1.87-2.17l.7,2.62c-.42,1.1-1.17,1.95-2.24,2.55-1.07.61-2.45.91-4.13.91ZM557.83,156.48v-3.82l-.21-.77v-6.62c0-1.28-.39-2.28-1.17-2.99-.78-.71-1.97-1.07-3.55-1.07-1.03,0-2.04.16-3.04.49-1,.33-1.87.78-2.59,1.36l-1.72-3.18c1.03-.77,2.23-1.35,3.61-1.75,1.38-.4,2.81-.59,4.3-.59,2.73,0,4.83.65,6.3,1.96,1.47,1.31,2.21,3.31,2.21,6.02v10.96h-4.13Z"/>
      <path class="cls-1" d="M563.96,135.23l3.89-4.79h3.85l3.88,4.79h-3.43l-3.88-4.02h3.01l-3.88,4.02h-3.43ZM567.6,156.48v-18.69h4.34v18.69h-4.34Z"/>
      <path class="cls-1" d="M586.25,156.72c-1.96,0-3.71-.41-5.23-1.24-1.53-.83-2.72-1.96-3.59-3.4-.86-1.43-1.29-3.08-1.29-4.95s.43-3.55,1.29-4.97c.86-1.42,2.06-2.55,3.59-3.38,1.53-.83,3.27-1.24,5.23-1.24,1.8,0,3.39.37,4.79,1.12,1.4.75,2.45,1.83,3.15,3.26l-3.32,1.96c-.56-.86-1.24-1.51-2.05-1.94-.8-.43-1.67-.65-2.61-.65-1.07,0-2.04.24-2.91.72-.86.48-1.54,1.16-2.03,2.03-.49.88-.73,1.91-.73,3.1s.25,2.23.73,3.11c.49.89,1.17,1.57,2.03,2.05.86.48,1.83.72,2.91.72.93,0,1.8-.22,2.61-.65s1.49-1.09,2.05-1.98l3.32,1.96c-.7,1.4-1.75,2.48-3.15,3.24-1.4.76-3,1.14-4.79,1.14Z"/>
      <path class="cls-1" d="M597.87,156.48v-25.97h4.34v12.35l-.91-1.58c.63-1.19,1.57-2.11,2.82-2.76s2.69-.98,4.32-.98c1.52,0,2.85.29,4.01.88s2.08,1.48,2.76,2.69c.69,1.21,1.03,2.77,1.03,4.66v10.71h-4.38v-10.15c0-1.66-.39-2.89-1.16-3.71-.77-.82-1.87-1.22-3.29-1.22-1.03,0-1.94.21-2.73.63-.79.42-1.41,1.04-1.84,1.87s-.65,1.87-.65,3.13v9.45h-4.34Z"/>
      <path class="cls-1" d="M630.63,156.72c-2.08,0-3.89-.41-5.44-1.24-1.55-.83-2.75-1.96-3.61-3.4-.85-1.43-1.28-3.08-1.28-4.95s.41-3.52,1.24-4.95c.83-1.43,1.97-2.57,3.43-3.39,1.46-.83,3.12-1.24,4.99-1.24s3.44.4,4.87,1.21c1.42.8,2.54,1.93,3.36,3.38.82,1.45,1.23,3.16,1.23,5.14,0,.16,0,.37-.02.61-.01.25-.03.46-.05.65h-15.58v-2.9h13.26l-1.75.91c.02-1.05-.19-1.99-.65-2.82-.46-.83-1.08-1.47-1.87-1.92-.79-.46-1.73-.68-2.8-.68s-1.99.23-2.82.68c-.83.46-1.46,1.1-1.91,1.94s-.67,1.81-.67,2.91v.7c0,1.12.25,2.11.75,2.97.5.86,1.22,1.54,2.15,2.01.93.48,2.02.72,3.25.72,1.05,0,2-.18,2.83-.53s1.59-.86,2.24-1.54l2.38,2.73c-.86.98-1.93,1.73-3.2,2.24-1.27.51-2.72.77-4.36.77Z"/>
      <path class="cls-1" d="M651.52,156.72c-1.59,0-2.99-.3-4.2-.89-1.21-.59-2.17-1.5-2.85-2.73-.69-1.22-1.03-2.77-1.03-4.64v-10.68h4.41v10.12c0,1.66.38,2.9,1.15,3.73.77.83,1.84,1.24,3.22,1.24,1.03,0,1.92-.21,2.69-.63.77-.42,1.37-1.05,1.79-1.89s.63-1.88.63-3.12v-9.45h4.38v18.69h-4.17v-5.08l.74,1.58c-.63,1.19-1.55,2.11-2.77,2.76-1.21.65-2.54.98-3.99.98Z"/>
      <path class="cls-1" d="M667.48,156.48v-18.69h4.17v5.15l-.49-1.5c.54-1.26,1.41-2.22,2.62-2.89,1.21-.67,2.7-1,4.45-1v4.17c-.16-.02-.33-.04-.49-.05-.16-.01-.32-.02-.46-.02-1.68,0-3.01.48-3.99,1.43-.98.96-1.47,2.42-1.47,4.38v9.03h-4.34Z"/>
      <path class="cls-1" d="M519.09,194.64c-1.8,0-3.41-.38-4.83-1.14-1.42-.76-2.55-1.81-3.38-3.17s-1.24-2.93-1.24-4.73.41-3.41,1.24-4.78,1.95-2.42,3.38-3.17c1.42-.75,3.03-1.12,4.83-1.12,1.59,0,3.02.32,4.29.96,1.27.64,2.28,1.63,3.03,2.96s1.12,3.04,1.12,5.14-.37,3.75-1.12,5.08-1.76,2.32-3.03,2.97c-1.27.65-2.7.98-4.29.98ZM519.65,202.51c-1.75,0-3.44-.23-5.06-.68s-2.97-1.13-4.04-2.01l1.96-3.25c.82.68,1.84,1.22,3.08,1.65,1.24.42,2.52.63,3.85.63,2.03,0,3.52-.47,4.48-1.42.96-.95,1.43-2.37,1.43-4.29v-3.33l.35-4.2-.14-4.24v-4.58h4.17v15.86c0,3.38-.86,5.87-2.59,7.47-1.73,1.6-4.22,2.4-7.49,2.4ZM519.75,190.93c1.1,0,2.08-.23,2.94-.68s1.53-1.08,2.01-1.89c.48-.81.72-1.72.72-2.75s-.24-2.01-.72-2.8c-.48-.79-1.15-1.41-2.01-1.86-.86-.44-1.84-.67-2.94-.67s-2.08.22-2.96.67c-.88.44-1.55,1.06-2.03,1.86s-.72,1.73-.72,2.8.24,1.94.72,2.75c.48.8,1.16,1.43,2.03,1.89s1.86.68,2.96.68Z"/>
      <path class="cls-1" d="M541.1,195.72c-1.4,0-2.62-.24-3.67-.72-1.05-.48-1.86-1.14-2.43-2-.57-.85-.86-1.81-.86-2.89s.25-1.99.75-2.83c.5-.84,1.32-1.5,2.47-1.99,1.14-.49,2.66-.74,4.55-.74h5.43v2.91h-5.11c-1.47,0-2.47.24-2.99.72-.53.48-.79,1.08-.79,1.8,0,.77.32,1.39.95,1.86s1.5.7,2.62.7,2.04-.24,2.89-.73c.85-.49,1.48-1.21,1.87-2.17l.7,2.62c-.42,1.1-1.17,1.95-2.24,2.55-1.07.61-2.45.91-4.13.91ZM546.98,195.48v-3.82l-.21-.77v-6.62c0-1.28-.39-2.28-1.17-2.99-.78-.71-1.97-1.07-3.55-1.07-1.03,0-2.04.16-3.04.49-1,.33-1.87.78-2.59,1.36l-1.72-3.18c1.03-.77,2.23-1.35,3.61-1.75,1.38-.4,2.81-.59,4.3-.59,2.73,0,4.83.65,6.3,1.96,1.47,1.31,2.21,3.31,2.21,6.02v10.96h-4.13Z"/>
      <path class="cls-1" d="M556.75,195.48v-18.69h4.17v5.15l-.49-1.5c.54-1.26,1.41-2.22,2.62-2.89,1.21-.67,2.7-1,4.45-1v4.17c-.16-.02-.33-.04-.49-.05-.16-.01-.32-.02-.46-.02-1.68,0-3.01.48-3.99,1.43-.98.96-1.47,2.42-1.47,4.38v9.03h-4.34Z"/>
      <path class="cls-1" d="M575.54,195.72c-1.4,0-2.62-.24-3.67-.72-1.05-.48-1.86-1.14-2.43-2-.57-.85-.86-1.81-.86-2.89s.25-1.99.75-2.83c.5-.84,1.32-1.5,2.47-1.99,1.14-.49,2.66-.74,4.55-.74h5.43v2.91h-5.11c-1.47,0-2.47.24-2.99.72-.53.48-.79,1.08-.79,1.8,0,.77.32,1.39.95,1.86s1.5.7,2.62.7,2.04-.24,2.89-.73c.85-.49,1.48-1.21,1.87-2.17l.7,2.62c-.42,1.1-1.17,1.95-2.24,2.55-1.07.61-2.45.91-4.13.91ZM581.42,195.48v-3.82l-.21-.77v-6.62c0-1.28-.39-2.28-1.17-2.99-.78-.71-1.97-1.07-3.55-1.07-1.03,0-2.04.16-3.04.49-1,.33-1.87.78-2.59,1.36l-1.72-3.18c1.03-.77,2.23-1.35,3.61-1.75,1.38-.4,2.81-.59,4.3-.59,2.73,0,4.83.65,6.3,1.96,1.47,1.31,2.21,3.31,2.21,6.02v10.96h-4.13Z"/>
      <path class="cls-1" d="M591.18,195.48v-18.69h4.17v5.08l-.74-1.58c.63-1.19,1.57-2.11,2.82-2.76s2.69-.98,4.32-.98c1.52,0,2.85.29,4.01.88s2.08,1.48,2.76,2.69c.69,1.21,1.03,2.77,1.03,4.66v10.71h-4.38v-10.15c0-1.66-.39-2.89-1.16-3.71-.77-.82-1.87-1.22-3.29-1.22-1.03,0-1.94.21-2.73.63-.79.42-1.41,1.04-1.84,1.87s-.65,1.87-.65,3.13v9.45h-4.34Z"/>
      <path class="cls-1" d="M612.64,180.29v-3.5h12.46v3.5h-12.46ZM622.16,195.72c-2.05,0-3.64-.53-4.76-1.59-1.12-1.06-1.68-2.62-1.68-4.67v-16.8h4.34v16.66c0,.89.23,1.58.7,2.07.47.49,1.12.73,1.96.73.96,0,1.75-.26,2.38-.77l1.26,3.12c-.54.42-1.18.73-1.93.94s-1.5.32-2.27.32Z"/>
      <path class="cls-1" d="M632.17,173.71c-.82,0-1.49-.26-2.01-.77-.53-.51-.79-1.14-.79-1.89,0-.7.26-1.31.79-1.82.53-.51,1.2-.77,2.01-.77s1.49.24,2.01.72c.52.48.79,1.09.79,1.84s-.26,1.38-.77,1.91c-.51.53-1.19.79-2.03.79ZM630,195.48v-18.69h4.34v18.69h-4.34Z"/>
      <path class="cls-1" d="M648.86,195.72c-2.08,0-3.89-.41-5.44-1.24-1.55-.83-2.75-1.96-3.61-3.4-.85-1.43-1.28-3.08-1.28-4.95s.41-3.52,1.24-4.95c.83-1.43,1.97-2.57,3.43-3.39,1.46-.83,3.12-1.24,4.99-1.24s3.44.4,4.87,1.21c1.42.8,2.54,1.93,3.36,3.38.82,1.45,1.23,3.16,1.23,5.14,0,.16,0,.37-.02.61-.01.25-.03.46-.05.65h-15.58v-2.9h13.26l-1.75.91c.02-1.05-.19-1.99-.65-2.82-.46-.83-1.08-1.47-1.87-1.92-.79-.46-1.73-.68-2.8-.68s-1.99.23-2.82.68c-.83.46-1.46,1.1-1.91,1.94s-.67,1.81-.67,2.91v.7c0,1.12.25,2.11.75,2.97.5.86,1.22,1.54,2.15,2.01.93.48,2.02.72,3.25.72,1.05,0,2-.18,2.83-.53s1.59-.86,2.24-1.54l2.38,2.73c-.86.98-1.93,1.73-3.2,2.24-1.27.51-2.72.77-4.36.77Z"/>
    </g>
    <g>
      <path class="cls-1" d="M511.6,456.41v-24.5h4.55v20.65h12.81v3.85h-17.36Z"/>
      <path class="cls-1" d="M537.81,456.66c-1.4,0-2.62-.24-3.67-.72-1.05-.48-1.86-1.14-2.43-2-.57-.85-.86-1.81-.86-2.89s.25-1.99.75-2.83c.5-.84,1.32-1.5,2.47-1.99,1.14-.49,2.66-.74,4.55-.74h5.43v2.91h-5.11c-1.47,0-2.47.24-2.99.72-.53.48-.79,1.08-.79,1.8,0,.77.32,1.39.95,1.86s1.5.7,2.62.7,2.04-.24,2.89-.73c.85-.49,1.48-1.21,1.87-2.17l.7,2.62c-.42,1.1-1.17,1.95-2.24,2.55-1.07.61-2.45.91-4.13.91ZM543.69,456.41v-3.82l-.21-.77v-6.62c0-1.28-.39-2.28-1.17-2.99-.78-.71-1.97-1.07-3.55-1.07-1.03,0-2.04.16-3.04.49-1,.33-1.87.78-2.59,1.36l-1.72-3.18c1.03-.77,2.23-1.35,3.61-1.75,1.38-.4,2.81-.59,4.3-.59,2.73,0,4.83.65,6.3,1.96,1.47,1.31,2.21,3.31,2.21,6.02v10.96h-4.13Z"/>
      <path class="cls-1" d="M553.46,456.41v-18.69h4.17v5.15l-.49-1.5c.54-1.26,1.41-2.22,2.62-2.89,1.21-.67,2.7-1,4.45-1v4.17c-.16-.02-.33-.04-.49-.05-.16-.01-.32-.02-.46-.02-1.68,0-3.01.48-3.99,1.43-.98.96-1.47,2.42-1.47,4.38v9.03h-4.34Z"/>
      <path class="cls-1" d="M575.68,455.57c-1.8,0-3.41-.38-4.83-1.14-1.42-.76-2.55-1.81-3.38-3.17s-1.24-2.93-1.24-4.73.41-3.41,1.24-4.78,1.95-2.42,3.38-3.17c1.42-.75,3.03-1.12,4.83-1.12,1.59,0,3.02.32,4.29.96,1.27.64,2.28,1.63,3.03,2.96s1.12,3.04,1.12,5.14-.37,3.75-1.12,5.08-1.76,2.32-3.03,2.97c-1.27.65-2.7.98-4.29.98ZM576.24,463.45c-1.75,0-3.44-.23-5.06-.68s-2.97-1.13-4.04-2.01l1.96-3.25c.82.68,1.84,1.22,3.08,1.65,1.24.42,2.52.63,3.85.63,2.03,0,3.52-.47,4.48-1.42.96-.95,1.43-2.37,1.43-4.29v-3.33l.35-4.2-.14-4.24v-4.58h4.17v15.86c0,3.38-.86,5.87-2.59,7.47-1.73,1.6-4.22,2.4-7.49,2.4ZM576.35,451.86c1.1,0,2.08-.23,2.94-.68s1.53-1.08,2.01-1.89c.48-.81.72-1.72.72-2.75s-.24-2.01-.72-2.8c-.48-.79-1.15-1.41-2.01-1.86-.86-.44-1.84-.67-2.94-.67s-2.08.22-2.96.67c-.88.44-1.55,1.06-2.03,1.86s-.72,1.73-.72,2.8.24,1.94.72,2.75c.48.8,1.16,1.43,2.03,1.89s1.86.68,2.96.68Z"/>
      <path class="cls-1" d="M600.84,456.66c-2.08,0-3.89-.41-5.44-1.24-1.55-.83-2.75-1.96-3.61-3.4-.85-1.43-1.28-3.08-1.28-4.95s.41-3.52,1.24-4.95c.83-1.43,1.97-2.57,3.43-3.39,1.46-.83,3.12-1.24,4.99-1.24s3.44.4,4.87,1.21c1.42.8,2.54,1.93,3.36,3.38.82,1.45,1.23,3.16,1.23,5.14,0,.16,0,.37-.02.61-.01.25-.03.46-.05.65h-15.58v-2.9h13.26l-1.75.91c.02-1.05-.19-1.99-.65-2.82-.46-.83-1.08-1.47-1.87-1.92-.79-.46-1.73-.68-2.8-.68s-1.99.23-2.82.68c-.83.46-1.46,1.1-1.91,1.94s-.67,1.81-.67,2.91v.7c0,1.12.25,2.11.75,2.97.5.86,1.22,1.54,2.15,2.01.93.48,2.02.72,3.25.72,1.05,0,2-.18,2.83-.53s1.59-.86,2.24-1.54l2.38,2.73c-.86.98-1.93,1.73-3.2,2.24-1.27.51-2.72.77-4.36.77Z"/>
      <path class="cls-1" d="M629.3,456.66c-1.59,0-3.09-.21-4.51-.61-1.42-.41-2.57-.9-3.43-1.49l1.68-3.32c.84.54,1.84.97,3.01,1.31s2.34.51,3.54.51c1.35,0,2.34-.18,2.96-.54.62-.36.93-.86.93-1.49,0-.51-.21-.9-.63-1.17-.42-.27-.97-.47-1.64-.61-.68-.14-1.43-.27-2.26-.38-.83-.12-1.66-.27-2.49-.47s-1.58-.49-2.26-.88c-.68-.39-1.23-.9-1.65-1.56s-.63-1.53-.63-2.62c0-1.17.34-2.19,1.01-3.06s1.63-1.56,2.85-2.05c1.23-.49,2.68-.73,4.36-.73,1.24,0,2.5.15,3.8.44s2.37.69,3.24,1.21l-1.71,3.33c-.86-.51-1.75-.87-2.66-1.07s-1.81-.3-2.69-.3c-1.31,0-2.29.19-2.94.58-.65.39-.98.88-.98,1.49,0,.56.21.98.63,1.26s.97.5,1.64.65c.68.15,1.43.29,2.26.42.83.13,1.65.29,2.47.49.82.2,1.57.48,2.26.84.69.36,1.24.87,1.66,1.52s.63,1.5.63,2.55c0,1.19-.34,2.21-1.03,3.06-.69.85-1.66,1.52-2.9,2-1.25.48-2.75.72-4.5.72Z"/>
      <path class="cls-1" d="M650.3,456.66c-2.08,0-3.89-.41-5.44-1.24-1.55-.83-2.75-1.96-3.61-3.4-.85-1.43-1.28-3.08-1.28-4.95s.41-3.52,1.24-4.95c.83-1.43,1.97-2.57,3.43-3.39,1.46-.83,3.12-1.24,4.99-1.24s3.44.4,4.87,1.21c1.42.8,2.54,1.93,3.36,3.38.82,1.45,1.23,3.16,1.23,5.14,0,.16,0,.37-.02.61-.01.25-.03.46-.05.65h-15.58v-2.9h13.26l-1.75.91c.02-1.05-.19-1.99-.65-2.82-.46-.83-1.08-1.47-1.87-1.92-.79-.46-1.73-.68-2.8-.68s-1.99.23-2.82.68c-.83.46-1.46,1.1-1.91,1.94s-.67,1.81-.67,2.91v.7c0,1.12.25,2.11.75,2.97.5.86,1.22,1.54,2.15,2.01.93.48,2.02.72,3.25.72,1.05,0,2-.18,2.83-.53s1.59-.86,2.24-1.54l2.38,2.73c-.86.98-1.93,1.73-3.2,2.24-1.27.51-2.72.77-4.36.77ZM646.59,435.17l4.72-4.79h5.18l-6.12,4.79h-3.78Z"/>
      <path class="cls-1" d="M663.32,456.41v-25.97h4.34v25.97h-4.34Z"/>
      <path class="cls-1" d="M682.18,456.66c-2.08,0-3.89-.41-5.44-1.24-1.55-.83-2.75-1.96-3.61-3.4-.85-1.43-1.28-3.08-1.28-4.95s.41-3.52,1.24-4.95c.83-1.43,1.97-2.57,3.43-3.39,1.46-.83,3.12-1.24,4.99-1.24s3.44.4,4.87,1.21c1.42.8,2.54,1.93,3.36,3.38.82,1.45,1.23,3.16,1.23,5.14,0,.16,0,.37-.02.61-.01.25-.03.46-.05.65h-15.58v-2.9h13.26l-1.75.91c.02-1.05-.19-1.99-.65-2.82-.46-.83-1.08-1.47-1.87-1.92-.79-.46-1.73-.68-2.8-.68s-1.99.23-2.82.68c-.83.46-1.46,1.1-1.91,1.94s-.67,1.81-.67,2.91v.7c0,1.12.25,2.11.75,2.97.5.86,1.22,1.54,2.15,2.01.93.48,2.02.72,3.25.72,1.05,0,2-.18,2.83-.53s1.59-.86,2.24-1.54l2.38,2.73c-.86.98-1.93,1.73-3.2,2.24-1.27.51-2.72.77-4.36.77Z"/>
      <path class="cls-1" d="M703.74,456.66c-1.96,0-3.71-.41-5.23-1.24-1.53-.83-2.72-1.96-3.59-3.4-.86-1.43-1.29-3.08-1.29-4.95s.43-3.55,1.29-4.97c.86-1.42,2.06-2.55,3.59-3.38,1.53-.83,3.27-1.24,5.23-1.24,1.8,0,3.39.37,4.79,1.12,1.4.75,2.45,1.83,3.15,3.26l-3.32,1.96c-.56-.86-1.24-1.51-2.05-1.94-.8-.43-1.67-.65-2.61-.65-1.07,0-2.04.24-2.91.72-.86.48-1.54,1.16-2.03,2.03-.49.88-.73,1.91-.73,3.1s.25,2.23.73,3.11c.49.89,1.17,1.57,2.03,2.05.86.48,1.83.72,2.91.72.93,0,1.8-.22,2.61-.65s1.49-1.09,2.05-1.98l3.32,1.96c-.7,1.4-1.75,2.48-3.15,3.24-1.4.76-3,1.14-4.79,1.14Z"/>
      <path class="cls-1" d="M713.26,441.22v-3.5h12.46v3.5h-12.46ZM722.78,456.66c-2.05,0-3.64-.53-4.76-1.59-1.12-1.06-1.68-2.62-1.68-4.67v-16.8h4.34v16.66c0,.89.23,1.58.7,2.07.47.49,1.12.73,1.96.73.96,0,1.75-.26,2.38-.77l1.26,3.12c-.54.42-1.18.73-1.93.94s-1.5.32-2.27.32Z"/>
      <path class="cls-1" d="M732.79,434.64c-.82,0-1.49-.26-2.01-.77-.53-.51-.79-1.14-.79-1.89,0-.7.26-1.31.79-1.82.53-.51,1.2-.77,2.01-.77s1.49.24,2.01.72c.52.48.79,1.09.79,1.84s-.26,1.38-.77,1.91c-.51.53-1.19.79-2.03.79ZM730.62,456.41v-18.69h4.34v18.69h-4.34Z"/>
      <path class="cls-1" d="M749.1,456.66c-1.89,0-3.59-.41-5.09-1.24s-2.69-1.97-3.55-3.41c-.86-1.45-1.29-3.09-1.29-4.93s.43-3.55,1.29-4.97c.86-1.42,2.04-2.55,3.54-3.38,1.49-.83,3.2-1.24,5.11-1.24s3.66.41,5.16,1.24,2.68,1.95,3.54,3.38c.85,1.42,1.28,3.08,1.28,4.97s-.43,3.52-1.28,4.95c-.85,1.44-2.04,2.57-3.55,3.4s-3.23,1.24-5.15,1.24ZM749.1,452.95c1.07,0,2.03-.24,2.87-.72.84-.48,1.5-1.17,1.98-2.06s.72-1.93.72-3.1-.24-2.22-.72-3.1-1.14-1.55-1.98-2.03c-.84-.48-1.78-.72-2.83-.72s-2,.24-2.83.72c-.84.48-1.5,1.16-2,2.03-.49.88-.73,1.91-.73,3.1s.25,2.2.73,3.1c.49.9,1.16,1.59,2,2.06.84.48,1.77.72,2.8.72Z"/>
      <path class="cls-1" d="M763.31,456.41v-18.69h4.17v5.08l-.74-1.58c.63-1.19,1.57-2.11,2.82-2.76s2.69-.98,4.32-.98c1.52,0,2.85.29,4.01.88s2.08,1.48,2.76,2.69c.69,1.21,1.03,2.77,1.03,4.66v10.71h-4.38v-10.15c0-1.66-.39-2.89-1.16-3.71-.77-.82-1.87-1.22-3.29-1.22-1.03,0-1.94.21-2.73.63-.79.42-1.41,1.04-1.84,1.87s-.65,1.87-.65,3.13v9.45h-4.34Z"/>
      <path class="cls-1" d="M519.09,495.66c-1.8,0-3.41-.4-4.85-1.19-1.44-.79-2.56-1.91-3.38-3.34-.82-1.44-1.22-3.12-1.22-5.06s.41-3.59,1.22-5.04c.82-1.45,1.94-2.57,3.38-3.36,1.43-.79,3.05-1.19,4.85-1.19,1.56,0,2.96.34,4.2,1.03,1.24.69,2.22,1.74,2.94,3.15.72,1.41,1.08,3.21,1.08,5.41s-.35,3.97-1.05,5.39c-.7,1.42-1.66,2.48-2.89,3.17-1.22.69-2.65,1.03-4.29,1.03ZM519.61,491.95c1.05,0,1.99-.24,2.82-.72.83-.48,1.49-1.17,2-2.06s.75-1.93.75-3.1-.25-2.22-.75-3.1-1.17-1.55-2-2.03c-.83-.48-1.77-.72-2.82-.72s-1.99.24-2.82.72c-.83.48-1.49,1.16-2,2.03s-.75,1.91-.75,3.1.25,2.2.75,3.1,1.17,1.59,2,2.06c.83.48,1.77.72,2.82.72ZM525.32,495.41v-4.41l.11-4.97-.35-4.97v-11.62h4.41v25.97h-4.17Z"/>
      <path class="cls-1" d="M544.01,495.66c-2.08,0-3.89-.41-5.44-1.24-1.55-.83-2.75-1.96-3.61-3.4-.85-1.43-1.28-3.08-1.28-4.95s.41-3.52,1.24-4.95c.83-1.43,1.97-2.57,3.43-3.39,1.46-.83,3.12-1.24,4.99-1.24s3.44.4,4.87,1.21c1.42.8,2.54,1.93,3.36,3.38.82,1.45,1.23,3.16,1.23,5.14,0,.16,0,.37-.02.61-.01.25-.03.46-.05.65h-15.58v-2.9h13.26l-1.75.91c.02-1.05-.19-1.99-.65-2.82-.46-.83-1.08-1.47-1.87-1.92-.79-.46-1.73-.68-2.8-.68s-1.99.23-2.82.68c-.83.46-1.46,1.1-1.91,1.94s-.67,1.81-.67,2.91v.7c0,1.12.25,2.11.75,2.97.5.86,1.22,1.54,2.15,2.01.93.48,2.02.72,3.25.72,1.05,0,2-.18,2.83-.53s1.59-.86,2.24-1.54l2.38,2.73c-.86.98-1.93,1.73-3.2,2.24-1.27.51-2.72.77-4.36.77Z"/>
      <path class="cls-1" d="M566.69,502.2v-25.48h4.17v4.41l-.18,4.97.35,4.97v11.13h-4.34ZM577.01,495.66c-1.54,0-2.93-.34-4.17-1.03-1.24-.69-2.22-1.74-2.94-3.17-.72-1.42-1.08-3.22-1.08-5.39s.34-4,1.03-5.41c.69-1.41,1.66-2.46,2.92-3.15s2.67-1.03,4.24-1.03c1.82,0,3.44.4,4.86,1.19,1.42.79,2.55,1.91,3.38,3.36.83,1.45,1.24,3.13,1.24,5.04s-.41,3.62-1.24,5.06c-.83,1.43-1.96,2.55-3.38,3.34-1.42.79-3.04,1.19-4.86,1.19ZM576.49,491.95c1.07,0,2.02-.25,2.85-.74.83-.49,1.49-1.18,1.98-2.06s.73-1.91.73-3.08-.24-2.22-.73-3.1-1.15-1.55-1.98-2.03c-.83-.48-1.78-.72-2.85-.72s-1.96.24-2.8.72c-.84.48-1.5,1.16-2,2.03s-.74,1.91-.74,3.1.25,2.19.74,3.08,1.16,1.57,2,2.06,1.77.74,2.8.74Z"/>
      <path class="cls-1" d="M590.69,495.41v-18.69h4.17v5.15l-.49-1.5c.54-1.26,1.41-2.22,2.62-2.89,1.21-.67,2.7-1,4.45-1v4.17c-.16-.02-.33-.04-.49-.05-.16-.01-.32-.02-.46-.02-1.68,0-3.01.48-3.99,1.43-.98.96-1.47,2.42-1.47,4.38v9.03h-4.34Z"/>
      <path class="cls-1" d="M613.41,495.66c-1.89,0-3.59-.41-5.09-1.24s-2.69-1.97-3.55-3.41c-.86-1.45-1.29-3.09-1.29-4.93s.43-3.55,1.29-4.97c.86-1.42,2.04-2.55,3.54-3.38,1.49-.83,3.2-1.24,5.11-1.24s3.66.41,5.16,1.24,2.68,1.95,3.54,3.38c.85,1.42,1.28,3.08,1.28,4.97s-.43,3.52-1.28,4.95c-.85,1.44-2.04,2.57-3.55,3.4s-3.23,1.24-5.15,1.24ZM613.41,491.95c1.07,0,2.03-.24,2.87-.72.84-.48,1.5-1.17,1.98-2.06s.72-1.93.72-3.1-.24-2.22-.72-3.1-1.14-1.55-1.98-2.03c-.84-.48-1.78-.72-2.83-.72s-2,.24-2.83.72c-.84.48-1.5,1.16-2,2.03-.49.88-.73,1.91-.73,3.1s.25,2.2.73,3.1c.49.9,1.16,1.59,2,2.06.84.48,1.77.72,2.8.72Z"/>
      <path class="cls-1" d="M635.49,495.66c-1.8,0-3.41-.4-4.85-1.19-1.44-.79-2.56-1.91-3.38-3.34-.82-1.44-1.22-3.12-1.22-5.06s.41-3.59,1.22-5.04c.82-1.45,1.94-2.57,3.38-3.36,1.43-.79,3.05-1.19,4.85-1.19,1.56,0,2.96.34,4.2,1.03,1.24.69,2.22,1.74,2.94,3.15.72,1.41,1.08,3.21,1.08,5.41s-.35,3.97-1.05,5.39c-.7,1.42-1.66,2.48-2.89,3.17-1.22.69-2.65,1.03-4.29,1.03ZM636.02,491.95c1.05,0,1.99-.24,2.82-.72.83-.48,1.49-1.17,2-2.06s.75-1.93.75-3.1-.25-2.22-.75-3.1-1.17-1.55-2-2.03c-.83-.48-1.77-.72-2.82-.72s-1.99.24-2.82.72c-.83.48-1.49,1.16-2,2.03s-.75,1.91-.75,3.1.25,2.2.75,3.1,1.17,1.59,2,2.06c.83.48,1.77.72,2.82.72ZM641.72,495.41v-4.41l.11-4.97-.35-4.97v-11.62h4.41v25.97h-4.17Z"/>
      <path class="cls-1" d="M659.54,495.66c-1.59,0-2.99-.3-4.2-.89-1.21-.59-2.17-1.5-2.85-2.73-.69-1.22-1.03-2.77-1.03-4.64v-10.68h4.41v10.12c0,1.66.38,2.9,1.15,3.73.77.83,1.84,1.24,3.22,1.24,1.03,0,1.92-.21,2.69-.63.77-.42,1.37-1.05,1.79-1.89s.63-1.88.63-3.12v-9.45h4.38v18.69h-4.17v-5.08l.74,1.58c-.63,1.19-1.55,2.11-2.77,2.76-1.21.65-2.54.98-3.99.98Z"/>
      <path class="cls-1" d="M677.67,473.64c-.82,0-1.49-.26-2.01-.77-.53-.51-.79-1.14-.79-1.89,0-.7.26-1.31.79-1.82.53-.51,1.2-.77,2.01-.77s1.49.24,2.01.72c.52.48.79,1.09.79,1.84s-.26,1.38-.77,1.91c-.51.53-1.19.79-2.03.79ZM675.5,495.41v-18.69h4.34v18.69h-4.34Z"/>
      <path class="cls-1" d="M683.09,480.22v-3.5h12.46v3.5h-12.46ZM692.61,495.66c-2.05,0-3.64-.53-4.76-1.59-1.12-1.06-1.68-2.62-1.68-4.67v-16.8h4.34v16.66c0,.89.23,1.58.7,2.07.47.49,1.12.73,1.96.73.96,0,1.75-.26,2.38-.77l1.26,3.12c-.54.42-1.18.73-1.93.94s-1.5.32-2.27.32Z"/>
      <path class="cls-1" d="M706.23,495.66c-1.59,0-3.09-.21-4.51-.61-1.42-.41-2.57-.9-3.43-1.49l1.68-3.32c.84.54,1.84.97,3.01,1.31s2.34.51,3.54.51c1.35,0,2.34-.18,2.96-.54.62-.36.93-.86.93-1.49,0-.51-.21-.9-.63-1.17-.42-.27-.97-.47-1.64-.61-.68-.14-1.43-.27-2.26-.38-.83-.12-1.66-.27-2.49-.47s-1.58-.49-2.26-.88c-.68-.39-1.23-.9-1.65-1.56s-.63-1.53-.63-2.62c0-1.17.34-2.19,1.01-3.06s1.63-1.56,2.85-2.05c1.23-.49,2.68-.73,4.36-.73,1.24,0,2.5.15,3.8.44s2.37.69,3.24,1.21l-1.71,3.33c-.86-.51-1.75-.87-2.66-1.07s-1.81-.3-2.69-.3c-1.31,0-2.29.19-2.94.58-.65.39-.98.88-.98,1.49,0,.56.21.98.63,1.26s.97.5,1.64.65c.68.15,1.43.29,2.26.42.83.13,1.65.29,2.47.49.82.2,1.57.48,2.26.84.69.36,1.24.87,1.66,1.52s.63,1.5.63,2.55c0,1.19-.34,2.21-1.03,3.06-.69.85-1.66,1.52-2.9,2-1.25.48-2.75.72-4.5.72Z"/>
    </g>
    <g>
      <path class="cls-1" d="M511.6,756.35v-24.5h4.55v20.65h12.81v3.85h-17.36Z"/>
      <path class="cls-1" d="M534.35,734.58c-.82,0-1.49-.26-2.01-.77-.53-.51-.79-1.14-.79-1.89,0-.7.26-1.31.79-1.82.53-.51,1.2-.77,2.01-.77s1.49.24,2.01.72c.52.48.79,1.09.79,1.84s-.26,1.38-.77,1.91c-.51.53-1.19.79-2.03.79ZM532.18,756.35v-18.69h4.34v18.69h-4.34Z"/>
      <path class="cls-1" d="M547.22,756.35l-8.01-18.69h4.51l6.93,16.49h-2.24l7.14-16.49h4.2l-8.01,18.69h-4.52Z"/>
      <path class="cls-1" d="M562.52,756.35v-18.69h4.17v5.15l-.49-1.5c.54-1.26,1.41-2.22,2.62-2.89,1.21-.67,2.7-1,4.45-1v4.17c-.16-.02-.33-.04-.49-.05-.16-.01-.32-.02-.46-.02-1.68,0-3.01.48-3.99,1.43-.98.96-1.47,2.42-1.47,4.38v9.03h-4.34Z"/>
      <path class="cls-1" d="M581.31,756.59c-1.4,0-2.62-.24-3.67-.72-1.05-.48-1.86-1.14-2.43-2-.57-.85-.86-1.81-.86-2.89s.25-1.99.75-2.83c.5-.84,1.32-1.5,2.47-1.99,1.14-.49,2.66-.74,4.55-.74h5.43v2.91h-5.11c-1.47,0-2.47.24-2.99.72-.53.48-.79,1.08-.79,1.8,0,.77.32,1.39.95,1.86s1.5.7,2.62.7,2.04-.24,2.89-.73c.85-.49,1.48-1.21,1.87-2.17l.7,2.62c-.42,1.1-1.17,1.95-2.24,2.55-1.07.61-2.45.91-4.13.91ZM587.19,756.35v-3.82l-.21-.77v-6.62c0-1.28-.39-2.28-1.17-2.99-.78-.71-1.97-1.07-3.55-1.07-1.03,0-2.04.16-3.04.49-1,.33-1.87.78-2.59,1.36l-1.72-3.18c1.03-.77,2.23-1.35,3.61-1.75,1.38-.4,2.81-.59,4.3-.59,2.73,0,4.83.65,6.3,1.96,1.47,1.31,2.21,3.31,2.21,6.02v10.96h-4.13Z"/>
      <path class="cls-1" d="M599.13,734.58c-.82,0-1.49-.26-2.01-.77-.53-.51-.79-1.14-.79-1.89,0-.7.26-1.31.79-1.82.53-.51,1.2-.77,2.01-.77s1.49.24,2.01.72c.52.48.79,1.09.79,1.84s-.26,1.38-.77,1.91c-.51.53-1.19.79-2.03.79ZM596.96,756.35v-18.69h4.34v18.69h-4.34Z"/>
      <path class="cls-1" d="M612.85,756.59c-1.59,0-3.09-.21-4.51-.61-1.42-.41-2.57-.9-3.43-1.49l1.68-3.32c.84.54,1.84.97,3.01,1.31s2.34.51,3.54.51c1.35,0,2.34-.18,2.96-.54.62-.36.93-.86.93-1.49,0-.51-.21-.9-.63-1.17-.42-.27-.97-.47-1.64-.61-.68-.14-1.43-.27-2.26-.38-.83-.12-1.66-.27-2.49-.47s-1.58-.49-2.26-.88c-.68-.39-1.23-.9-1.65-1.56s-.63-1.53-.63-2.62c0-1.17.34-2.19,1.01-3.06s1.63-1.56,2.85-2.05c1.23-.49,2.68-.73,4.36-.73,1.24,0,2.5.15,3.8.44s2.37.69,3.24,1.21l-1.71,3.33c-.86-.51-1.75-.87-2.66-1.07s-1.81-.3-2.69-.3c-1.31,0-2.29.19-2.94.58-.65.39-.98.88-.98,1.49,0,.56.21.98.63,1.26s.97.5,1.64.65c.68.15,1.43.29,2.26.42.83.13,1.65.29,2.47.49.82.2,1.57.48,2.26.84.69.36,1.24.87,1.66,1.52s.63,1.5.63,2.55c0,1.19-.34,2.21-1.03,3.06-.69.85-1.66,1.52-2.9,2-1.25.48-2.75.72-4.5.72Z"/>
      <path class="cls-1" d="M633.46,756.59c-1.89,0-3.59-.41-5.09-1.24s-2.69-1.97-3.55-3.41c-.86-1.45-1.29-3.09-1.29-4.93s.43-3.55,1.29-4.97c.86-1.42,2.04-2.55,3.54-3.38,1.49-.83,3.2-1.24,5.11-1.24s3.66.41,5.16,1.24,2.68,1.95,3.54,3.38c.85,1.42,1.28,3.08,1.28,4.97s-.43,3.52-1.28,4.95c-.85,1.44-2.04,2.57-3.55,3.4s-3.23,1.24-5.15,1.24ZM633.46,752.89c1.07,0,2.03-.24,2.87-.72.84-.48,1.5-1.17,1.98-2.06s.72-1.93.72-3.1-.24-2.22-.72-3.1-1.14-1.55-1.98-2.03c-.84-.48-1.78-.72-2.83-.72s-2,.24-2.83.72c-.84.48-1.5,1.16-2,2.03-.49.88-.73,1.91-.73,3.1s.25,2.2.73,3.1c.49.9,1.16,1.59,2,2.06.84.48,1.77.72,2.8.72Z"/>
      <path class="cls-1" d="M647.67,756.35v-18.69h4.17v5.08l-.74-1.58c.63-1.19,1.57-2.11,2.82-2.76s2.69-.98,4.32-.98c1.52,0,2.85.29,4.01.88s2.08,1.48,2.76,2.69c.69,1.21,1.03,2.77,1.03,4.66v10.71h-4.38v-10.15c0-1.66-.39-2.89-1.16-3.71-.77-.82-1.87-1.22-3.29-1.22-1.03,0-1.94.21-2.73.63-.79.42-1.41,1.04-1.84,1.87s-.65,1.87-.65,3.13v9.45h-4.34Z"/>
      <path class="cls-1" d="M681.31,756.35v-18.69h4.17v5.15l-.49-1.5c.54-1.26,1.41-2.22,2.62-2.89,1.21-.67,2.7-1,4.45-1v4.17c-.16-.02-.33-.04-.49-.05-.16-.01-.32-.02-.46-.02-1.68,0-3.01.48-3.99,1.43-.98.96-1.47,2.42-1.47,4.38v9.03h-4.34Z"/>
      <path class="cls-1" d="M700.1,756.59c-1.4,0-2.62-.24-3.67-.72-1.05-.48-1.86-1.14-2.43-2-.57-.85-.86-1.81-.86-2.89s.25-1.99.75-2.83c.5-.84,1.32-1.5,2.47-1.99,1.14-.49,2.66-.74,4.55-.74h5.43v2.91h-5.11c-1.47,0-2.47.24-2.99.72-.53.48-.79,1.08-.79,1.8,0,.77.32,1.39.95,1.86s1.5.7,2.62.7,2.04-.24,2.89-.73c.85-.49,1.48-1.21,1.87-2.17l.7,2.62c-.42,1.1-1.17,1.95-2.24,2.55-1.07.61-2.45.91-4.13.91ZM705.98,756.35v-3.82l-.21-.77v-6.62c0-1.28-.39-2.28-1.17-2.99-.78-.71-1.97-1.07-3.55-1.07-1.03,0-2.04.16-3.04.49-1,.33-1.87.78-2.59,1.36l-1.72-3.18c1.03-.77,2.23-1.35,3.61-1.75,1.38-.4,2.81-.59,4.3-.59,2.73,0,4.83.65,6.3,1.96,1.47,1.31,2.21,3.31,2.21,6.02v10.96h-4.13Z"/>
      <path class="cls-1" d="M715.75,763.14v-25.48h4.17v4.41l-.18,4.97.35,4.97v11.13h-4.34ZM726.07,756.59c-1.54,0-2.93-.34-4.17-1.03-1.24-.69-2.22-1.74-2.94-3.17-.72-1.42-1.08-3.22-1.08-5.39s.34-4,1.03-5.41c.69-1.41,1.66-2.46,2.92-3.15s2.67-1.03,4.24-1.03c1.82,0,3.44.4,4.86,1.19,1.42.79,2.55,1.91,3.38,3.36.83,1.45,1.24,3.13,1.24,5.04s-.41,3.62-1.24,5.06c-.83,1.43-1.96,2.55-3.38,3.34-1.42.79-3.04,1.19-4.86,1.19ZM725.55,752.89c1.07,0,2.02-.25,2.85-.74.83-.49,1.49-1.18,1.98-2.06s.73-1.91.73-3.08-.24-2.22-.73-3.1-1.15-1.55-1.98-2.03c-.83-.48-1.78-.72-2.85-.72s-1.96.24-2.8.72c-.84.48-1.5,1.16-2,2.03s-.74,1.91-.74,3.1.25,2.19.74,3.08,1.16,1.57,2,2.06,1.77.74,2.8.74Z"/>
      <path class="cls-1" d="M741.93,734.58c-.82,0-1.49-.26-2.01-.77-.53-.51-.79-1.14-.79-1.89,0-.7.26-1.31.79-1.82.53-.51,1.2-.77,2.01-.77s1.49.24,2.01.72c.52.48.79,1.09.79,1.84s-.26,1.38-.77,1.91c-.51.53-1.19.79-2.03.79ZM739.76,756.35v-18.69h4.34v18.69h-4.34Z"/>
      <path class="cls-1" d="M757.75,756.59c-1.8,0-3.41-.4-4.85-1.19-1.44-.79-2.56-1.91-3.38-3.34-.82-1.44-1.22-3.12-1.22-5.06s.41-3.59,1.22-5.04c.82-1.45,1.94-2.57,3.38-3.36,1.43-.79,3.05-1.19,4.85-1.19,1.56,0,2.96.34,4.2,1.03,1.24.69,2.22,1.74,2.94,3.15.72,1.41,1.08,3.21,1.08,5.41s-.35,3.97-1.05,5.39c-.7,1.42-1.66,2.48-2.89,3.17-1.22.69-2.65,1.03-4.29,1.03ZM758.27,752.89c1.05,0,1.99-.24,2.82-.72.83-.48,1.49-1.17,2-2.06s.75-1.93.75-3.1-.25-2.22-.75-3.1-1.17-1.55-2-2.03c-.83-.48-1.77-.72-2.82-.72s-1.99.24-2.82.72c-.83.48-1.49,1.16-2,2.03s-.75,1.91-.75,3.1.25,2.2.75,3.1,1.17,1.59,2,2.06c.83.48,1.77.72,2.82.72ZM763.98,756.35v-4.41l.11-4.97-.35-4.97v-11.62h4.41v25.97h-4.17Z"/>
      <path class="cls-1" d="M782.67,756.59c-2.08,0-3.89-.41-5.44-1.24-1.55-.83-2.75-1.96-3.61-3.4-.85-1.43-1.28-3.08-1.28-4.95s.41-3.52,1.24-4.95c.83-1.43,1.97-2.57,3.43-3.39,1.46-.83,3.12-1.24,4.99-1.24s3.44.4,4.87,1.21c1.42.8,2.54,1.93,3.36,3.38.82,1.45,1.23,3.16,1.23,5.14,0,.16,0,.37-.02.61-.01.25-.03.46-.05.65h-15.58v-2.9h13.26l-1.75.91c.02-1.05-.19-1.99-.65-2.82-.46-.83-1.08-1.47-1.87-1.92-.79-.46-1.73-.68-2.8-.68s-1.99.23-2.82.68c-.83.46-1.46,1.1-1.91,1.94s-.67,1.81-.67,2.91v.7c0,1.12.25,2.11.75,2.97.5.86,1.22,1.54,2.15,2.01.93.48,2.02.72,3.25.72,1.05,0,2-.18,2.83-.53s1.59-.86,2.24-1.54l2.38,2.73c-.86.98-1.93,1.73-3.2,2.24-1.27.51-2.72.77-4.36.77Z"/>
      <path class="cls-1" d="M519.96,795.59c-2.08,0-3.89-.41-5.44-1.24-1.55-.83-2.75-1.96-3.61-3.4-.85-1.43-1.28-3.08-1.28-4.95s.41-3.52,1.24-4.95c.83-1.43,1.97-2.57,3.43-3.39,1.46-.83,3.12-1.24,4.99-1.24s3.44.4,4.87,1.21c1.42.8,2.54,1.93,3.36,3.38.82,1.45,1.23,3.16,1.23,5.14,0,.16,0,.37-.02.61-.01.25-.03.46-.05.65h-15.58v-2.9h13.26l-1.75.91c.02-1.05-.19-1.99-.65-2.82-.46-.83-1.08-1.47-1.87-1.92-.79-.46-1.73-.68-2.8-.68s-1.99.23-2.82.68c-.83.46-1.46,1.1-1.91,1.94s-.67,1.81-.67,2.91v.7c0,1.12.25,2.11.75,2.97.5.86,1.22,1.54,2.15,2.01.93.48,2.02.72,3.25.72,1.05,0,2-.18,2.83-.53s1.59-.86,2.24-1.54l2.38,2.73c-.86.98-1.93,1.73-3.2,2.24-1.27.51-2.72.77-4.36.77Z"/>
      <path class="cls-1" d="M530.46,780.16v-3.5h12.46v3.5h-12.46ZM539.98,795.59c-2.05,0-3.64-.53-4.76-1.59-1.12-1.06-1.68-2.62-1.68-4.67v-16.8h4.34v16.66c0,.89.23,1.58.7,2.07.47.49,1.12.73,1.96.73.96,0,1.75-.26,2.38-.77l1.26,3.12c-.54.42-1.18.73-1.93.94s-1.5.32-2.27.32Z"/>
      <path class="cls-1" d="M554.96,780.3v-3.5h12.46v3.5h-12.46ZM558.04,795.35v-19.71c0-1.98.58-3.56,1.73-4.74,1.16-1.18,2.81-1.77,4.95-1.77.77,0,1.5.08,2.19.25.69.16,1.26.42,1.73.77l-1.23,3.25c-.3-.21-.67-.38-1.08-.52-.42-.14-.85-.21-1.29-.21-.91,0-1.6.25-2.06.75-.47.5-.7,1.24-.7,2.22v2.17l.1,1.92v15.61h-4.34ZM572.6,773.58c-.82,0-1.49-.26-2.01-.77-.53-.51-.79-1.14-.79-1.89,0-.7.26-1.31.79-1.82.52-.51,1.2-.77,2.01-.77s1.49.24,2.01.72c.53.48.79,1.09.79,1.84s-.26,1.38-.77,1.91c-.51.53-1.19.79-2.03.79ZM570.46,795.35v-18.69h4.34v18.69h-4.34Z"/>
      <path class="cls-1" d="M586.18,795.59c-1.4,0-2.62-.24-3.67-.72-1.05-.48-1.86-1.14-2.43-2-.57-.85-.86-1.81-.86-2.89s.25-1.99.75-2.83c.5-.84,1.32-1.5,2.47-1.99,1.14-.49,2.66-.74,4.55-.74h5.43v2.91h-5.11c-1.47,0-2.47.24-2.99.72-.53.48-.79,1.08-.79,1.8,0,.77.32,1.39.95,1.86s1.5.7,2.62.7,2.04-.24,2.89-.73c.85-.49,1.48-1.21,1.87-2.17l.7,2.62c-.42,1.1-1.17,1.95-2.24,2.55-1.07.61-2.45.91-4.13.91ZM592.06,795.35v-3.82l-.21-.77v-6.62c0-1.28-.39-2.28-1.17-2.99-.78-.71-1.97-1.07-3.55-1.07-1.03,0-2.04.16-3.04.49-1,.33-1.87.78-2.59,1.36l-1.72-3.18c1.03-.77,2.23-1.35,3.61-1.75,1.38-.4,2.81-.59,4.3-.59,2.73,0,4.83.65,6.3,1.96,1.47,1.31,2.21,3.31,2.21,6.02v10.96h-4.13Z"/>
      <path class="cls-1" d="M601.82,795.35v-25.97h4.34v11.62l-.35,4.97.18,4.97v4.41h-4.17ZM612.15,795.59c-1.56,0-2.98-.34-4.24-1.03s-2.23-1.74-2.92-3.17c-.69-1.42-1.03-3.22-1.03-5.39s.36-4,1.08-5.41c.72-1.41,1.7-2.46,2.94-3.15,1.24-.69,2.62-1.03,4.17-1.03,1.82,0,3.44.4,4.86,1.19,1.42.79,2.55,1.91,3.38,3.36.83,1.45,1.24,3.13,1.24,5.04s-.41,3.62-1.24,5.06c-.83,1.43-1.96,2.55-3.38,3.34-1.42.79-3.04,1.19-4.86,1.19ZM611.62,791.89c1.07,0,2.02-.24,2.85-.72.83-.48,1.49-1.17,1.98-2.06s.73-1.93.73-3.1-.24-2.22-.73-3.1-1.15-1.55-1.98-2.03c-.83-.48-1.78-.72-2.85-.72s-1.96.24-2.8.72c-.84.48-1.5,1.16-2,2.03s-.74,1.91-.74,3.1.25,2.2.74,3.1,1.16,1.59,2,2.06c.84.48,1.77.72,2.8.72Z"/>
      <path class="cls-1" d="M625.83,795.35v-25.97h4.34v25.97h-4.34Z"/>
      <path class="cls-1" d="M644.7,795.59c-2.08,0-3.89-.41-5.44-1.24-1.55-.83-2.75-1.96-3.61-3.4-.85-1.43-1.28-3.08-1.28-4.95s.41-3.52,1.24-4.95c.83-1.43,1.97-2.57,3.43-3.39,1.46-.83,3.12-1.24,4.99-1.24s3.44.4,4.87,1.21c1.42.8,2.54,1.93,3.36,3.38.82,1.45,1.23,3.16,1.23,5.14,0,.16,0,.37-.02.61-.01.25-.03.46-.05.65h-15.58v-2.9h13.26l-1.75.91c.02-1.05-.19-1.99-.65-2.82-.46-.83-1.08-1.47-1.87-1.92-.79-.46-1.73-.68-2.8-.68s-1.99.23-2.82.68c-.83.46-1.46,1.1-1.91,1.94s-.67,1.81-.67,2.91v.7c0,1.12.25,2.11.75,2.97.5.86,1.22,1.54,2.15,2.01.93.48,2.02.72,3.25.72,1.05,0,2-.18,2.83-.53s1.59-.86,2.24-1.54l2.38,2.73c-.86.98-1.93,1.73-3.2,2.24-1.27.51-2.72.77-4.36.77Z"/>
    </g>
    <g>
      <path class="cls-1" d="M511.6,1056.29v-24.5h10.08c2.17,0,4.03.34,5.58,1.03,1.55.69,2.75,1.69,3.59,2.99s1.26,2.87,1.26,4.69-.42,3.34-1.26,4.64-2.04,2.3-3.59,3.01c-1.55.71-3.41,1.07-5.58,1.07h-7.53l2-2.1v9.17h-4.55ZM516.15,1047.61l-2-2.24h7.32c2.01,0,3.52-.43,4.53-1.28s1.52-2.05,1.52-3.59-.51-2.74-1.52-3.59-2.53-1.28-4.53-1.28h-7.32l2-2.24v14.21Z"/>
      <path class="cls-1" d="M541.7,1056.53c-1.4,0-2.62-.24-3.67-.72-1.05-.48-1.86-1.14-2.43-2-.57-.85-.86-1.81-.86-2.89s.25-1.99.75-2.83c.5-.84,1.32-1.5,2.47-1.99,1.14-.49,2.66-.74,4.55-.74h5.43v2.91h-5.11c-1.47,0-2.47.24-2.99.72-.53.48-.79,1.08-.79,1.8,0,.77.32,1.39.95,1.86s1.5.7,2.62.7,2.04-.24,2.89-.73c.85-.49,1.48-1.21,1.87-2.17l.7,2.62c-.42,1.1-1.17,1.95-2.24,2.55-1.07.61-2.45.91-4.13.91ZM547.58,1056.29v-3.82l-.21-.77v-6.62c0-1.28-.39-2.28-1.17-2.99-.78-.71-1.97-1.07-3.55-1.07-1.03,0-2.04.16-3.04.49-1,.33-1.87.78-2.59,1.36l-1.72-3.18c1.03-.77,2.23-1.35,3.61-1.75,1.38-.4,2.81-.59,4.3-.59,2.73,0,4.83.65,6.3,1.96,1.47,1.31,2.21,3.31,2.21,6.02v10.96h-4.13Z"/>
      <path class="cls-1" d="M557.34,1056.29v-18.69h4.17v5.15l-.49-1.5c.54-1.26,1.41-2.22,2.62-2.89,1.21-.67,2.7-1,4.45-1v4.17c-.16-.02-.33-.04-.49-.05-.16-.01-.32-.02-.46-.02-1.68,0-3.01.48-3.99,1.43-.98.96-1.47,2.42-1.47,4.38v9.03h-4.34Z"/>
      <path class="cls-1" d="M570.04,1041.1v-3.5h12.46v3.5h-12.46ZM579.57,1056.53c-2.05,0-3.64-.53-4.76-1.59-1.12-1.06-1.68-2.62-1.68-4.67v-16.8h4.34v16.66c0,.89.23,1.58.7,2.07.47.49,1.12.73,1.96.73.96,0,1.75-.26,2.38-.77l1.26,3.12c-.54.42-1.18.73-1.93.94s-1.5.32-2.27.32Z"/>
      <path class="cls-1" d="M595.53,1056.53c-2.08,0-3.89-.41-5.44-1.24-1.55-.83-2.75-1.96-3.61-3.4-.85-1.43-1.28-3.08-1.28-4.95s.41-3.52,1.24-4.95c.83-1.43,1.97-2.57,3.43-3.39,1.46-.83,3.12-1.24,4.99-1.24s3.44.4,4.87,1.21c1.42.8,2.54,1.93,3.36,3.38.82,1.45,1.23,3.16,1.23,5.14,0,.16,0,.37-.02.61-.01.25-.03.46-.05.65h-15.58v-2.9h13.26l-1.75.91c.02-1.05-.19-1.99-.65-2.82-.46-.83-1.08-1.47-1.87-1.92-.79-.46-1.73-.68-2.8-.68s-1.99.23-2.82.68c-.83.46-1.46,1.1-1.91,1.94s-.67,1.81-.67,2.91v.7c0,1.12.25,2.11.75,2.97.5.86,1.22,1.54,2.15,2.01.93.48,2.02.72,3.25.72,1.05,0,2-.18,2.83-.53s1.59-.86,2.24-1.54l2.38,2.73c-.86.98-1.93,1.73-3.2,2.24-1.27.51-2.72.77-4.36.77Z"/>
      <path class="cls-1" d="M608.55,1056.29v-18.69h4.17v5.08l-.74-1.58c.63-1.19,1.57-2.11,2.82-2.76s2.69-.98,4.32-.98c1.52,0,2.85.29,4.01.88s2.08,1.48,2.76,2.69c.69,1.21,1.03,2.77,1.03,4.66v10.71h-4.38v-10.15c0-1.66-.39-2.89-1.16-3.71-.77-.82-1.87-1.22-3.29-1.22-1.03,0-1.94.21-2.73.63-.79.42-1.41,1.04-1.84,1.87s-.65,1.87-.65,3.13v9.45h-4.34Z"/>
      <path class="cls-1" d="M638.12,1056.53c-1.4,0-2.62-.24-3.67-.72-1.05-.48-1.86-1.14-2.43-2-.57-.85-.86-1.81-.86-2.89s.25-1.99.75-2.83c.5-.84,1.32-1.5,2.47-1.99,1.14-.49,2.66-.74,4.55-.74h5.43v2.91h-5.11c-1.47,0-2.47.24-2.99.72-.53.48-.79,1.08-.79,1.8,0,.77.32,1.39.95,1.86s1.5.7,2.62.7,2.04-.24,2.89-.73c.85-.49,1.48-1.21,1.87-2.17l.7,2.62c-.42,1.1-1.17,1.95-2.24,2.55-1.07.61-2.45.91-4.13.91ZM644,1056.29v-3.82l-.21-.77v-6.62c0-1.28-.39-2.28-1.17-2.99-.78-.71-1.97-1.07-3.55-1.07-1.03,0-2.04.16-3.04.49-1,.33-1.87.78-2.59,1.36l-1.72-3.18c1.03-.77,2.23-1.35,3.61-1.75,1.38-.4,2.81-.59,4.3-.59,2.73,0,4.83.65,6.3,1.96,1.47,1.31,2.21,3.31,2.21,6.02v10.96h-4.13Z"/>
      <path class="cls-1" d="M655.94,1034.52c-.82,0-1.49-.26-2.01-.77-.53-.51-.79-1.14-.79-1.89,0-.7.26-1.31.79-1.82.53-.51,1.2-.77,2.01-.77s1.49.24,2.01.72c.52.48.79,1.09.79,1.84s-.26,1.38-.77,1.91c-.51.53-1.19.79-2.03.79ZM653.77,1056.29v-18.69h4.34v18.69h-4.34Z"/>
      <path class="cls-1" d="M663.88,1056.29v-18.69h4.17v5.15l-.49-1.5c.54-1.26,1.41-2.22,2.62-2.89,1.21-.67,2.7-1,4.45-1v4.17c-.16-.02-.33-.04-.49-.05-.16-.01-.32-.02-.46-.02-1.68,0-3.01.48-3.99,1.43-.98.96-1.47,2.42-1.47,4.38v9.03h-4.34Z"/>
      <path class="cls-1" d="M686.98,1056.53c-2.08,0-3.89-.41-5.44-1.24-1.55-.83-2.75-1.96-3.61-3.4-.85-1.43-1.28-3.08-1.28-4.95s.41-3.52,1.24-4.95c.83-1.43,1.97-2.57,3.43-3.39,1.46-.83,3.12-1.24,4.99-1.24s3.44.4,4.87,1.21c1.42.8,2.54,1.93,3.36,3.38.82,1.45,1.23,3.16,1.23,5.14,0,.16,0,.37-.02.61-.01.25-.03.46-.05.65h-15.58v-2.9h13.26l-1.75.91c.02-1.05-.19-1.99-.65-2.82-.46-.83-1.08-1.47-1.87-1.92-.79-.46-1.73-.68-2.8-.68s-1.99.23-2.82.68c-.83.46-1.46,1.1-1.91,1.94s-.67,1.81-.67,2.91v.7c0,1.12.25,2.11.75,2.97.5.86,1.22,1.54,2.15,2.01.93.48,2.02.72,3.25.72,1.05,0,2-.18,2.83-.53s1.59-.86,2.24-1.54l2.38,2.73c-.86.98-1.93,1.73-3.2,2.24-1.27.51-2.72.77-4.36.77Z"/>
      <path class="cls-1" d="M717.53,1056.53c-1.8,0-3.41-.4-4.85-1.19-1.44-.79-2.56-1.91-3.38-3.34-.82-1.44-1.22-3.12-1.22-5.06s.41-3.59,1.22-5.04c.82-1.45,1.94-2.57,3.38-3.36,1.43-.79,3.05-1.19,4.85-1.19,1.56,0,2.96.34,4.2,1.03,1.24.69,2.22,1.74,2.94,3.15.72,1.41,1.08,3.21,1.08,5.41s-.35,3.97-1.05,5.39c-.7,1.42-1.66,2.48-2.89,3.17-1.22.69-2.65,1.03-4.29,1.03ZM718.06,1052.82c1.05,0,1.99-.24,2.82-.72.83-.48,1.49-1.17,2-2.06s.75-1.93.75-3.1-.25-2.22-.75-3.1-1.17-1.55-2-2.03c-.83-.48-1.77-.72-2.82-.72s-1.99.24-2.82.72c-.83.48-1.49,1.16-2,2.03s-.75,1.91-.75,3.1.25,2.2.75,3.1,1.17,1.59,2,2.06c.83.48,1.77.72,2.82.72ZM723.76,1056.29v-4.41l.11-4.97-.35-4.97v-11.62h4.41v25.97h-4.17Z"/>
      <path class="cls-1" d="M742.45,1056.53c-2.08,0-3.89-.41-5.44-1.24-1.55-.83-2.75-1.96-3.61-3.4-.85-1.43-1.28-3.08-1.28-4.95s.41-3.52,1.24-4.95c.83-1.43,1.97-2.57,3.43-3.39,1.46-.83,3.12-1.24,4.99-1.24s3.44.4,4.87,1.21c1.42.8,2.54,1.93,3.36,3.38.82,1.45,1.23,3.16,1.23,5.14,0,.16,0,.37-.02.61-.01.25-.03.46-.05.65h-15.58v-2.9h13.26l-1.75.91c.02-1.05-.19-1.99-.65-2.82-.46-.83-1.08-1.47-1.87-1.92-.79-.46-1.73-.68-2.8-.68s-1.99.23-2.82.68c-.83.46-1.46,1.1-1.91,1.94s-.67,1.81-.67,2.91v.7c0,1.12.25,2.11.75,2.97.5.86,1.22,1.54,2.15,2.01.93.48,2.02.72,3.25.72,1.05,0,2-.18,2.83-.53s1.59-.86,2.24-1.54l2.38,2.73c-.86.98-1.93,1.73-3.2,2.24-1.27.51-2.72.77-4.36.77Z"/>
      <path class="cls-1" d="M519.75,1095.53c-1.96,0-3.71-.41-5.23-1.24-1.53-.83-2.72-1.96-3.59-3.4-.86-1.43-1.29-3.08-1.29-4.95s.43-3.55,1.29-4.97c.86-1.42,2.06-2.55,3.59-3.38,1.53-.83,3.27-1.24,5.23-1.24,1.8,0,3.39.37,4.79,1.12,1.4.75,2.45,1.83,3.15,3.26l-3.32,1.96c-.56-.86-1.24-1.51-2.05-1.94-.8-.43-1.67-.65-2.61-.65-1.07,0-2.04.24-2.91.72-.86.48-1.54,1.16-2.03,2.03-.49.88-.73,1.91-.73,3.1s.25,2.23.73,3.11c.49.89,1.17,1.57,2.03,2.05.86.48,1.83.72,2.91.72.93,0,1.8-.22,2.61-.65s1.49-1.09,2.05-1.98l3.32,1.96c-.7,1.4-1.75,2.48-3.15,3.24-1.4.76-3,1.14-4.79,1.14Z"/>
      <path class="cls-1" d="M539.63,1095.53c-1.89,0-3.59-.41-5.09-1.24s-2.69-1.97-3.55-3.41c-.86-1.45-1.29-3.09-1.29-4.93s.43-3.55,1.29-4.97c.86-1.42,2.04-2.55,3.54-3.38,1.49-.83,3.2-1.24,5.11-1.24s3.66.41,5.16,1.24,2.68,1.95,3.54,3.38c.85,1.42,1.28,3.08,1.28,4.97s-.43,3.52-1.28,4.95c-.85,1.44-2.04,2.57-3.55,3.4s-3.23,1.24-5.15,1.24ZM539.63,1091.82c1.07,0,2.03-.24,2.87-.72.84-.48,1.5-1.17,1.98-2.06s.72-1.93.72-3.1-.24-2.22-.72-3.1-1.14-1.55-1.98-2.03c-.84-.48-1.78-.72-2.83-.72s-2,.24-2.83.72c-.84.48-1.5,1.16-2,2.03-.49.88-.73,1.91-.73,3.1s.25,2.2.73,3.1c.49.9,1.16,1.59,2,2.06.84.48,1.77.72,2.8.72Z"/>
      <path class="cls-1" d="M553.84,1095.29v-18.69h4.17v5.08l-.74-1.58c.63-1.19,1.57-2.11,2.82-2.76s2.69-.98,4.32-.98c1.52,0,2.85.29,4.01.88s2.08,1.48,2.76,2.69c.69,1.21,1.03,2.77,1.03,4.66v10.71h-4.38v-10.15c0-1.66-.39-2.89-1.16-3.71-.77-.82-1.87-1.22-3.29-1.22-1.03,0-1.94.21-2.73.63-.79.42-1.41,1.04-1.84,1.87s-.65,1.87-.65,3.13v9.45h-4.34Z"/>
      <path class="cls-1" d="M575.29,1080.24v-3.5h12.46v3.5h-12.46ZM578.38,1095.29v-19.71c0-1.98.58-3.56,1.73-4.74,1.16-1.18,2.81-1.77,4.95-1.77.77,0,1.5.08,2.19.25.69.16,1.26.42,1.73.77l-1.23,3.25c-.3-.21-.67-.38-1.08-.52-.42-.14-.85-.21-1.29-.21-.91,0-1.6.25-2.06.75-.47.5-.7,1.24-.7,2.22v2.17l.1,1.92v15.61h-4.34ZM592.94,1073.52c-.82,0-1.49-.26-2.01-.77-.53-.51-.79-1.14-.79-1.89,0-.7.26-1.31.79-1.82.52-.51,1.2-.77,2.01-.77s1.49.24,2.01.72c.53.48.79,1.09.79,1.84s-.26,1.38-.77,1.91c-.51.53-1.19.79-2.03.79ZM590.8,1095.29v-18.69h4.34v18.69h-4.34Z"/>
      <path class="cls-1" d="M606.51,1095.53c-1.4,0-2.62-.24-3.67-.72-1.05-.48-1.86-1.14-2.43-2-.57-.85-.86-1.81-.86-2.89s.25-1.99.75-2.83c.5-.84,1.32-1.5,2.47-1.99,1.14-.49,2.66-.74,4.55-.74h5.43v2.91h-5.11c-1.47,0-2.47.24-2.99.72-.53.48-.79,1.08-.79,1.8,0,.77.32,1.39.95,1.86s1.5.7,2.62.7,2.04-.24,2.89-.73c.85-.49,1.48-1.21,1.87-2.17l.7,2.62c-.42,1.1-1.17,1.95-2.24,2.55-1.07.61-2.45.91-4.13.91ZM612.39,1095.29v-3.82l-.21-.77v-6.62c0-1.28-.39-2.28-1.17-2.99-.78-.71-1.97-1.07-3.55-1.07-1.03,0-2.04.16-3.04.49-1,.33-1.87.78-2.59,1.36l-1.72-3.18c1.03-.77,2.23-1.35,3.61-1.75,1.38-.4,2.81-.59,4.3-.59,2.73,0,4.83.65,6.3,1.96,1.47,1.31,2.21,3.31,2.21,6.02v10.96h-4.13Z"/>
      <path class="cls-1" d="M622.16,1095.29v-18.69h4.17v5.08l-.74-1.58c.63-1.19,1.57-2.11,2.82-2.76s2.69-.98,4.32-.98c1.52,0,2.85.29,4.01.88s2.08,1.48,2.76,2.69c.69,1.21,1.03,2.77,1.03,4.66v10.71h-4.38v-10.15c0-1.66-.39-2.89-1.16-3.71-.77-.82-1.87-1.22-3.29-1.22-1.03,0-1.94.21-2.73.63-.79.42-1.41,1.04-1.84,1.87s-.65,1.87-.65,3.13v9.45h-4.34Z"/>
      <path class="cls-1" d="M654.71,1095.53c-1.96,0-3.71-.41-5.23-1.24-1.53-.83-2.72-1.96-3.59-3.4-.86-1.43-1.29-3.08-1.29-4.95s.43-3.55,1.29-4.97c.86-1.42,2.06-2.55,3.59-3.38,1.53-.83,3.27-1.24,5.23-1.24,1.8,0,3.39.37,4.79,1.12,1.4.75,2.45,1.83,3.15,3.26l-3.32,1.96c-.56-.86-1.24-1.51-2.05-1.94-.8-.43-1.67-.65-2.61-.65-1.07,0-2.04.24-2.91.72-.86.48-1.54,1.16-2.03,2.03-.49.88-.73,1.91-.73,3.1s.25,2.23.73,3.11c.49.89,1.17,1.57,2.03,2.05.86.48,1.83.72,2.91.72.93,0,1.8-.22,2.61-.65s1.49-1.09,2.05-1.98l3.32,1.96c-.7,1.4-1.75,2.48-3.15,3.24-1.4.76-3,1.14-4.79,1.14Z"/>
      <path class="cls-1" d="M674.97,1095.53c-2.08,0-3.89-.41-5.44-1.24-1.55-.83-2.75-1.96-3.61-3.4-.85-1.43-1.28-3.08-1.28-4.95s.41-3.52,1.24-4.95c.83-1.43,1.97-2.57,3.43-3.39,1.46-.83,3.12-1.24,4.99-1.24s3.44.4,4.87,1.21c1.42.8,2.54,1.93,3.36,3.38.82,1.45,1.23,3.16,1.23,5.14,0,.16,0,.37-.02.61-.01.25-.03.46-.05.65h-15.58v-2.9h13.26l-1.75.91c.02-1.05-.19-1.99-.65-2.82-.46-.83-1.08-1.47-1.87-1.92-.79-.46-1.73-.68-2.8-.68s-1.99.23-2.82.68c-.83.46-1.46,1.1-1.91,1.94s-.67,1.81-.67,2.91v.7c0,1.12.25,2.11.75,2.97.5.86,1.22,1.54,2.15,2.01.93.48,2.02.72,3.25.72,1.05,0,2-.18,2.83-.53s1.59-.86,2.24-1.54l2.38,2.73c-.86.98-1.93,1.73-3.2,2.24-1.27.51-2.72.77-4.36.77Z"/>
      <path class="cls-1" d="M706.19,1095.53c-1.96,0-3.71-.41-5.23-1.24-1.53-.83-2.72-1.96-3.59-3.4-.86-1.43-1.29-3.08-1.29-4.95s.43-3.55,1.29-4.97c.86-1.42,2.06-2.55,3.59-3.38,1.53-.83,3.27-1.24,5.23-1.24,1.8,0,3.39.37,4.79,1.12,1.4.75,2.45,1.83,3.15,3.26l-3.32,1.96c-.56-.86-1.24-1.51-2.05-1.94-.8-.43-1.67-.65-2.61-.65-1.07,0-2.04.24-2.91.72-.86.48-1.54,1.16-2.03,2.03-.49.88-.73,1.91-.73,3.1s.25,2.23.73,3.11c.49.89,1.17,1.57,2.03,2.05.86.48,1.83.72,2.91.72.93,0,1.8-.22,2.61-.65s1.49-1.09,2.05-1.98l3.32,1.96c-.7,1.4-1.75,2.48-3.15,3.24-1.4.76-3,1.14-4.79,1.14Z"/>
      <path class="cls-1" d="M726.46,1095.53c-2.08,0-3.89-.41-5.44-1.24-1.55-.83-2.75-1.96-3.61-3.4-.85-1.43-1.28-3.08-1.28-4.95s.41-3.52,1.24-4.95c.83-1.43,1.97-2.57,3.43-3.39,1.46-.83,3.12-1.24,4.99-1.24s3.44.4,4.87,1.21c1.42.8,2.54,1.93,3.36,3.38.82,1.45,1.23,3.16,1.23,5.14,0,.16,0,.37-.02.61-.01.25-.03.46-.05.65h-15.58v-2.9h13.26l-1.75.91c.02-1.05-.19-1.99-.65-2.82-.46-.83-1.08-1.47-1.87-1.92-.79-.46-1.73-.68-2.8-.68s-1.99.23-2.82.68c-.83.46-1.46,1.1-1.91,1.94s-.67,1.81-.67,2.91v.7c0,1.12.25,2.11.75,2.97.5.86,1.22,1.54,2.15,2.01.93.48,2.02.72,3.25.72,1.05,0,2-.18,2.83-.53s1.59-.86,2.24-1.54l2.38,2.73c-.86.98-1.93,1.73-3.2,2.24-1.27.51-2.72.77-4.36.77Z"/>
      <path class="cls-1" d="M739.48,1095.29v-18.69h4.17v5.15l-.49-1.5c.54-1.26,1.41-2.22,2.62-2.89,1.21-.67,2.7-1,4.45-1v4.17c-.16-.02-.33-.04-.49-.05-.16-.01-.32-.02-.46-.02-1.68,0-3.01.48-3.99,1.43-.98.96-1.47,2.42-1.47,4.38v9.03h-4.34Z"/>
      <path class="cls-1" d="M752.18,1080.1v-3.5h12.46v3.5h-12.46ZM761.7,1095.53c-2.05,0-3.64-.53-4.76-1.59-1.12-1.06-1.68-2.62-1.68-4.67v-16.8h4.34v16.66c0,.89.23,1.58.7,2.07.47.49,1.12.73,1.96.73.96,0,1.75-.26,2.38-.77l1.26,3.12c-.54.42-1.18.73-1.93.94s-1.5.32-2.27.32Z"/>
      <path class="cls-1" d="M771.71,1073.52c-.82,0-1.49-.26-2.01-.77-.53-.51-.79-1.14-.79-1.89,0-.7.26-1.31.79-1.82.53-.51,1.2-.77,2.01-.77s1.49.24,2.01.72c.52.48.79,1.09.79,1.84s-.26,1.38-.77,1.91c-.51.53-1.19.79-2.03.79ZM769.54,1095.29v-18.69h4.34v18.69h-4.34Z"/>
      <path class="cls-1" d="M777.14,1080.24v-3.5h12.46v3.5h-12.46ZM780.22,1095.29v-19.71c0-1.98.58-3.56,1.73-4.74,1.16-1.18,2.81-1.77,4.95-1.77.77,0,1.5.08,2.19.25.69.16,1.26.42,1.73.77l-1.23,3.25c-.3-.21-.67-.38-1.08-.52-.42-.14-.85-.21-1.29-.21-.91,0-1.6.25-2.06.75-.47.5-.7,1.24-.7,2.22v2.17l.1,1.92v15.61h-4.34ZM794.78,1073.52c-.82,0-1.49-.26-2.01-.77-.53-.51-.79-1.14-.79-1.89,0-.7.26-1.31.79-1.82.52-.51,1.2-.77,2.01-.77s1.49.24,2.01.72c.53.48.79,1.09.79,1.84s-.26,1.38-.77,1.91c-.51.53-1.19.79-2.03.79ZM792.64,1095.29v-18.69h4.34v18.69h-4.34Z"/>
      <path class="cls-1" d="M811.51,1095.53c-2.08,0-3.89-.41-5.44-1.24-1.55-.83-2.75-1.96-3.61-3.4-.85-1.43-1.28-3.08-1.28-4.95s.41-3.52,1.24-4.95c.83-1.43,1.97-2.57,3.43-3.39,1.46-.83,3.12-1.24,4.99-1.24s3.44.4,4.87,1.21c1.42.8,2.54,1.93,3.36,3.38.82,1.45,1.23,3.16,1.23,5.14,0,.16,0,.37-.02.61-.01.25-.03.46-.05.65h-15.58v-2.9h13.26l-1.75.91c.02-1.05-.19-1.99-.65-2.82-.46-.83-1.08-1.47-1.87-1.92-.79-.46-1.73-.68-2.8-.68s-1.99.23-2.82.68c-.83.46-1.46,1.1-1.91,1.94s-.67,1.81-.67,2.91v.7c0,1.12.25,2.11.75,2.97.5.86,1.22,1.54,2.15,2.01.93.48,2.02.72,3.25.72,1.05,0,2-.18,2.83-.53s1.59-.86,2.24-1.54l2.38,2.73c-.86.98-1.93,1.73-3.2,2.24-1.27.51-2.72.77-4.36.77ZM807.8,1074.04l4.72-4.79h5.18l-6.12,4.79h-3.78Z"/>
    </g>
    <g>
      <path class="cls-1" d="M519.1,1356.47c-1.9,0-3.71-.27-5.43-.82s-3.11-1.25-4.15-2.12l1.56-3.54c.97.77,2.17,1.41,3.61,1.92,1.43.51,2.9.77,4.41.77,1.27,0,2.3-.14,3.09-.42.79-.28,1.37-.66,1.74-1.14.37-.48.55-1.02.55-1.63,0-.75-.27-1.35-.8-1.8-.53-.45-1.22-.82-2.06-1.08-.84-.27-1.78-.51-2.81-.73s-2.06-.5-3.09-.82c-1.03-.33-1.97-.74-2.83-1.24-.86-.5-1.54-1.17-2.07-2.01-.52-.84-.78-1.91-.78-3.22s.35-2.55,1.06-3.66c.71-1.11,1.78-2,3.23-2.66,1.45-.67,3.28-1,5.5-1,1.46,0,2.9.19,4.34.56,1.43.37,2.68.91,3.75,1.61l-1.42,3.54c-1.09-.65-2.21-1.14-3.37-1.45-1.16-.31-2.27-.47-3.33-.47-1.23,0-2.23.15-3.02.46-.79.3-1.36.71-1.72,1.21-.36.5-.54,1.06-.54,1.66,0,.75.26,1.35.78,1.8s1.2.81,2.05,1.07c.84.26,1.79.5,2.83.74s2.07.51,3.09.82c1.02.31,1.95.72,2.81,1.22.86.5,1.54,1.17,2.06,2,.52.83.78,1.88.78,3.17s-.35,2.51-1.06,3.62c-.71,1.11-1.79,2-3.25,2.66-1.46.67-3.3,1-5.52,1Z"/>
      <path class="cls-1" d="M541.69,1356.37c-2.06,0-3.86-.41-5.4-1.24-1.54-.83-2.73-1.96-3.57-3.4-.84-1.43-1.27-3.08-1.27-4.95s.41-3.52,1.23-4.95c.82-1.43,1.95-2.57,3.4-3.39s3.09-1.24,4.95-1.24,3.41.4,4.82,1.21,2.52,1.93,3.33,3.38c.81,1.45,1.21,3.16,1.21,5.14,0,.16,0,.37-.02.61-.01.25-.03.46-.05.65h-15.44v-2.9h13.15l-1.74.91c.02-1.05-.19-1.99-.64-2.82-.45-.83-1.07-1.47-1.86-1.92-.79-.46-1.71-.68-2.78-.68s-1.97.23-2.79.68-1.45,1.1-1.89,1.94c-.44.84-.66,1.81-.66,2.91v.7c0,1.12.25,2.11.75,2.97.5.86,1.21,1.54,2.13,2.01.92.48,2,.72,3.23.72,1.04,0,1.98-.18,2.81-.53s1.57-.86,2.22-1.54l2.36,2.73c-.86.98-1.92,1.73-3.18,2.24-1.26.51-2.7.77-4.32.77Z"/>
      <path class="cls-1" d="M554.6,1356.12v-18.69h4.13v5.15l-.49-1.5c.53-1.26,1.4-2.22,2.6-2.89,1.2-.67,2.67-1,4.41-1v4.17c-.16-.02-.32-.04-.49-.05s-.31-.02-.45-.02c-1.67,0-2.98.48-3.96,1.43-.97.96-1.46,2.42-1.46,4.38v9.03h-4.3Z"/>
      <path class="cls-1" d="M574.59,1356.12l-7.95-18.69h4.48l6.87,16.49h-2.22l7.08-16.49h4.16l-7.95,18.69h-4.48Z"/>
      <path class="cls-1" d="M591.9,1334.35c-.81,0-1.48-.26-2-.77-.52-.51-.78-1.14-.78-1.89,0-.7.26-1.31.78-1.82.52-.51,1.19-.77,2-.77s1.47.24,2,.72c.52.48.78,1.09.78,1.84s-.25,1.38-.76,1.91c-.51.53-1.18.79-2.01.79ZM589.75,1356.12v-18.69h4.3v18.69h-4.3Z"/>
      <path class="cls-1" d="M608.25,1356.37c-1.94,0-3.67-.41-5.19-1.24-1.51-.83-2.7-1.96-3.56-3.4-.86-1.43-1.28-3.08-1.28-4.95s.43-3.55,1.28-4.97c.86-1.42,2.04-2.55,3.56-3.38,1.52-.83,3.25-1.24,5.19-1.24,1.78,0,3.37.37,4.75,1.12,1.39.75,2.43,1.83,3.12,3.26l-3.3,1.96c-.56-.86-1.23-1.51-2.03-1.94-.8-.43-1.66-.65-2.59-.65-1.06,0-2.02.24-2.88.72-.86.48-1.53,1.16-2.01,2.03-.49.88-.73,1.91-.73,3.1s.24,2.23.73,3.11c.49.89,1.16,1.57,2.01,2.05.86.48,1.82.72,2.88.72.93,0,1.79-.22,2.59-.65.8-.43,1.47-1.09,2.03-1.98l3.3,1.96c-.69,1.4-1.73,2.48-3.12,3.24-1.39.76-2.97,1.14-4.75,1.14Z"/>
      <path class="cls-1" d="M628.34,1356.37c-2.06,0-3.86-.41-5.4-1.24-1.54-.83-2.73-1.96-3.57-3.4-.84-1.43-1.27-3.08-1.27-4.95s.41-3.52,1.23-4.95c.82-1.43,1.95-2.57,3.4-3.39s3.09-1.24,4.95-1.24,3.41.4,4.82,1.21,2.52,1.93,3.33,3.38c.81,1.45,1.21,3.16,1.21,5.14,0,.16,0,.37-.02.61-.01.25-.03.46-.05.65h-15.44v-2.9h13.15l-1.74.91c.02-1.05-.19-1.99-.64-2.82-.45-.83-1.07-1.47-1.86-1.92-.79-.46-1.71-.68-2.78-.68s-1.97.23-2.79.68-1.45,1.1-1.89,1.94c-.44.84-.66,1.81-.66,2.91v.7c0,1.12.25,2.11.75,2.97.5.86,1.21,1.54,2.13,2.01.92.48,2,.72,3.23.72,1.04,0,1.98-.18,2.81-.53s1.57-.86,2.22-1.54l2.36,2.73c-.86.98-1.92,1.73-3.18,2.24-1.26.51-2.7.77-4.32.77Z"/>
      <path class="cls-1" d="M519.86,1395.37c-2.06,0-3.86-.41-5.4-1.24-1.54-.83-2.73-1.96-3.57-3.4-.84-1.43-1.27-3.08-1.27-4.95s.41-3.52,1.23-4.95c.82-1.43,1.95-2.57,3.4-3.39s3.09-1.24,4.95-1.24,3.41.4,4.82,1.21,2.52,1.93,3.33,3.38c.81,1.45,1.21,3.16,1.21,5.14,0,.16,0,.37-.02.61-.01.25-.03.46-.05.65h-15.44v-2.9h13.15l-1.74.91c.02-1.05-.19-1.99-.64-2.82-.45-.83-1.07-1.47-1.86-1.92-.79-.46-1.71-.68-2.78-.68s-1.97.23-2.79.68-1.45,1.1-1.89,1.94c-.44.84-.66,1.81-.66,2.91v.7c0,1.12.25,2.11.75,2.97.5.86,1.21,1.54,2.13,2.01.92.48,2,.72,3.23.72,1.04,0,1.98-.18,2.81-.53s1.57-.86,2.22-1.54l2.36,2.73c-.86.98-1.92,1.73-3.18,2.24-1.26.51-2.7.77-4.32.77Z"/>
      <path class="cls-1" d="M529.68,1395.12l8.12-10.71-.04,2.31-7.81-10.29h4.86l5.45,7.32h-1.84l5.48-7.32h4.68l-7.84,10.33.04-2.34,8.16,10.71h-4.93l-5.73-7.8,1.84.25-5.62,7.56h-4.82Z"/>
      <path class="cls-1" d="M560.29,1395.37c-2.06,0-3.86-.41-5.4-1.24-1.54-.83-2.73-1.96-3.57-3.4-.84-1.43-1.27-3.08-1.27-4.95s.41-3.52,1.23-4.95c.82-1.43,1.95-2.57,3.4-3.39s3.09-1.24,4.95-1.24,3.41.4,4.82,1.21,2.52,1.93,3.33,3.38c.81,1.45,1.21,3.16,1.21,5.14,0,.16,0,.37-.02.61-.01.25-.03.46-.05.65h-15.44v-2.9h13.15l-1.74.91c.02-1.05-.19-1.99-.64-2.82-.45-.83-1.07-1.47-1.86-1.92-.79-.46-1.71-.68-2.78-.68s-1.97.23-2.79.68-1.45,1.1-1.89,1.94c-.44.84-.66,1.81-.66,2.91v.7c0,1.12.25,2.11.75,2.97.5.86,1.21,1.54,2.13,2.01.92.48,2,.72,3.23.72,1.04,0,1.98-.18,2.81-.53s1.57-.86,2.22-1.54l2.36,2.73c-.86.98-1.92,1.73-3.18,2.24-1.26.51-2.7.77-4.32.77Z"/>
      <path class="cls-1" d="M573.2,1395.12v-18.69h4.13v5.01l-.76-1.51c.62-1.19,1.53-2.11,2.72-2.76,1.19-.65,2.56-.98,4.11-.98,1.73,0,3.24.43,4.51,1.29s2.12,2.19,2.53,3.99l-1.67-.63c.58-1.38,1.56-2.5,2.95-3.36s3-1.29,4.82-1.29c1.48,0,2.79.29,3.94.88,1.14.58,2.04,1.48,2.69,2.69.65,1.21.97,2.77.97,4.66v10.71h-4.3v-10.15c0-1.66-.36-2.89-1.09-3.71-.73-.82-1.76-1.22-3.11-1.22-.95,0-1.79.21-2.52.63s-1.3,1.04-1.7,1.87c-.41.83-.61,1.86-.61,3.1v9.49h-4.3v-10.15c0-1.66-.36-2.89-1.09-3.71-.73-.82-1.76-1.22-3.11-1.22-.95,0-1.79.21-2.52.63s-1.3,1.04-1.7,1.87c-.41.83-.61,1.86-.61,3.1v9.49h-4.3Z"/>
      <path class="cls-1" d="M609.74,1401.91v-25.48h4.13v4.41l-.17,4.97.35,4.97v11.13h-4.3ZM619.98,1395.37c-1.53,0-2.9-.34-4.13-1.03-1.23-.69-2.2-1.74-2.92-3.17-.72-1.42-1.08-3.22-1.08-5.39s.34-4,1.02-5.41c.68-1.41,1.65-2.46,2.9-3.15,1.25-.69,2.65-1.03,4.2-1.03,1.8,0,3.41.4,4.82,1.19,1.41.79,2.53,1.91,3.35,3.36.82,1.45,1.23,3.13,1.23,5.04s-.41,3.62-1.23,5.06c-.82,1.43-1.94,2.55-3.35,3.34-1.41.79-3.02,1.19-4.82,1.19ZM619.46,1391.66c1.06,0,2.01-.25,2.83-.74s1.48-1.18,1.96-2.06c.49-.89.73-1.91.73-3.08s-.24-2.22-.73-3.1c-.49-.88-1.14-1.55-1.96-2.03-.82-.48-1.76-.72-2.83-.72s-1.94.24-2.78.72c-.83.48-1.49,1.16-1.98,2.03-.49.88-.73,1.91-.73,3.1s.24,2.19.73,3.08c.49.89,1.15,1.57,1.98,2.06.83.49,1.76.74,2.78.74Z"/>
      <path class="cls-1" d="M633.54,1395.12v-25.97h4.3v25.97h-4.3Z"/>
      <path class="cls-1" d="M649.13,1395.37c-1.39,0-2.6-.24-3.64-.72-1.04-.48-1.85-1.14-2.41-2-.57-.85-.85-1.81-.85-2.89s.25-1.99.75-2.83c.5-.84,1.31-1.5,2.45-1.99,1.13-.49,2.64-.74,4.51-.74h5.38v2.91h-5.07c-1.46,0-2.45.24-2.97.72-.52.48-.78,1.08-.78,1.8,0,.77.31,1.39.94,1.86.62.47,1.49.7,2.6.7s2.02-.24,2.86-.73c.84-.49,1.46-1.21,1.86-2.17l.69,2.62c-.42,1.1-1.16,1.95-2.22,2.55-1.06.61-2.43.91-4.09.91ZM654.96,1395.12v-3.82l-.21-.77v-6.62c0-1.28-.39-2.28-1.16-2.99s-1.95-1.07-3.52-1.07c-1.02,0-2.02.16-3.02.49-1,.33-1.85.78-2.57,1.36l-1.7-3.18c1.02-.77,2.21-1.35,3.57-1.75s2.79-.59,4.27-.59c2.71,0,4.79.65,6.25,1.96,1.46,1.31,2.19,3.31,2.19,6.02v10.96h-4.09Z"/>
      <path class="cls-1" d="M666.79,1373.35c-.81,0-1.48-.26-2-.77-.52-.51-.78-1.14-.78-1.89,0-.7.26-1.31.78-1.82.52-.51,1.19-.77,2-.77s1.47.24,2,.72c.52.48.78,1.09.78,1.84s-.25,1.38-.76,1.91c-.51.53-1.18.79-2.01.79ZM664.64,1395.12v-18.69h4.3v18.69h-4.3Z"/>
      <path class="cls-1" d="M674.67,1395.12v-18.69h4.13v5.15l-.49-1.5c.53-1.26,1.4-2.22,2.6-2.89,1.2-.67,2.67-1,4.41-1v4.17c-.16-.02-.32-.04-.49-.05s-.31-.02-.45-.02c-1.67,0-2.98.48-3.96,1.43-.97.96-1.46,2.42-1.46,4.38v9.03h-4.3Z"/>
      <path class="cls-1" d="M697.57,1395.37c-2.06,0-3.86-.41-5.4-1.24-1.54-.83-2.73-1.96-3.57-3.4-.84-1.43-1.27-3.08-1.27-4.95s.41-3.52,1.23-4.95c.82-1.43,1.95-2.57,3.4-3.39s3.09-1.24,4.95-1.24,3.41.4,4.82,1.21,2.52,1.93,3.33,3.38c.81,1.45,1.21,3.16,1.21,5.14,0,.16,0,.37-.02.61-.01.25-.03.46-.05.65h-15.44v-2.9h13.15l-1.74.91c.02-1.05-.19-1.99-.64-2.82-.45-.83-1.07-1.47-1.86-1.92-.79-.46-1.71-.68-2.78-.68s-1.97.23-2.79.68-1.45,1.1-1.89,1.94c-.44.84-.66,1.81-.66,2.91v.7c0,1.12.25,2.11.75,2.97.5.86,1.21,1.54,2.13,2.01.92.48,2,.72,3.23.72,1.04,0,1.98-.18,2.81-.53s1.57-.86,2.22-1.54l2.36,2.73c-.86.98-1.92,1.73-3.18,2.24-1.26.51-2.7.77-4.32.77Z"/>
    </g>
  </g>
</svg>