<?xml version="1.0" encoding="UTF-8"?>
<svg id="Layer_1" data-name="Layer 1" xmlns="http://www.w3.org/2000/svg" viewBox="0 0 1000 1000">
  <defs>
    <style>
      .cls-1 {
        fill: #1a77b9;
      }

      .cls-2 {
        fill: #253c74;
      }

      .cls-3 {
        fill: #61abdb;
      }

      .cls-4 {
        fill: #f7f7f7;
      }

      .cls-5 {
        fill: #04b1e1;
      }
    </style>
  </defs>
  <rect class="cls-4" width="1000" height="1000"/>
  <g>
    <path class="cls-2" d="M891.88,491.56v23.28h-25.01v124.68c-.27-.06-.53-.1-.78-.18-.24-.04-.51-.1-.75-.18-9.65-2.51-18.51-9.1-22.4-12.3-.29-.22-.53-.43-.76-.61-.33-.29-.57-.51-.78-.67v-110.73h-24.99v-23.28h75.47Z"/>
    <rect class="cls-2" x="253.25" y="491.56" width="25.46" height="153.78"/>
    <polygon class="cls-2" points="430.71 491.56 430.71 645.33 406.58 645.33 406.58 536.63 390.15 645.33 368.83 645.33 368.73 644.68 352.43 536.63 352.43 645.33 330.02 645.33 330.02 491.56 365.59 491.56 380.36 597.31 395.15 491.56 430.71 491.56"/>
    <path class="cls-2" d="M518.04,491.56h-36.01v153.78h25.46v-61.98h10.55c23.83,0,36.42-13.28,36.42-38.4v-15c0-25.12-12.59-38.4-36.42-38.4ZM507.49,514.84h10.55c7.79,0,10.98,3.94,10.98,13.59v18.06c0,9.65-3.18,13.59-10.98,13.59h-10.55v-45.23Z"/>
    <path class="cls-2" d="M611.36,638.24l-1.14,7.1h-23.73l4.19-23.29c.22.27.44.52.65.76.22.22.41.46.63.68.9,1.01,1.82,1.96,2.78,2.91,4.41,4.3,9.52,8.06,15.21,11.08.22.14.46.27.71.38.24.14.46.24.71.38Z"/>
    <path class="cls-2" d="M669.79,639.72l-.47-2.9-5.77-35.52-17.75-109.09-.12-.65h-33.71l-18.55,113.89c6.1,3.2,13.12,5.75,20.34,7.35.25.06.51.1.76.16.24.06.49.1.73.14l.41-4.49,24.32.08,1.12,7.98,3.96,27.46.02.1.14,1.1h25.48l-.92-5.61ZM619.05,586.39l8.79-63.57,9,63.43-17.79.14Z"/>
    <path class="cls-1" d="M799.56,534.04l-.37.33c-6.92,6.33-22.31,5.13-29.86-1.8-4.83-3.75-8.51-6.91-14.01-8.62-20.15-6.54-41.46,5.13-54.99,19.52-9.87,12.35-19.05,24.99-30.31,35.34-.82.89-1.55,1.66-2.23,2.28-1.53,1.57-2.46,2.51-2.46,2.51-1.52,1.59-2.95,2.7-3.17,2.46l-.42-.44-.42-.45c-.24-.23.8-1.71,2.28-3.26,0,0,.89-.92,2.37-2.51,1.52-1.52,3.28-3.91,5.25-6.65.31-.45.65-.91.99-1.38.66-.92,1.36-1.88,1.95-2.93.89-1.57,1.8-3.17,2.63-4.78,1.17-2.04,2.06-4.2,2.76-6.24,1.54-3.47,2.93-7.03,4.2-10.6,5.16-16.9,12.63-32.96,27.61-43.2,2.74-1.71,5.56-3.3,8.48-4.73,17.7-8.74,38.3-12.16,57.14-6,8.15,2.58,16.9,8.23,21.63,16.2,4.62,7.31,7.06,19.55.94,24.94Z"/>
    <path class="cls-3" d="M679.56,557.43c-.7,2.04-1.59,4.2-2.76,6.24-.84,1.6-1.74,3.21-2.63,4.78-.59,1.05-1.29,2.01-1.95,2.93,2.81-4.41,5.22-9.1,7.34-13.95Z"/>
    <path class="cls-5" d="M854.11,641.64l-.29.39-.31.39c-.14.22-1.71-.65-3.47-1.88l-.04-.04s-1.08-.74-2.86-1.96c-.67-.47-1.41-.96-2.2-1.49-.12-.08-.27-.16-.41-.24-.53-.27-1.06-.51-1.61-.76-.25-.12-.49-.22-.76-.35-.24-.1-.51-.2-.78-.31-.31-.14-.63-.27-.96-.39-8.51-3.22-18.3-4.02-27.67-2.98-15.26,2.82-36.34,10.16-57.01,4.55-.82-.2-1.65-.47-2.49-.73-11.85-3.71-22.24-12.04-29.89-22.5-14-19.14-18.95-45.52-7.32-64.29,5.9-8.3,12.71-13.73,20.3-13.85,13.14.88,19.48,17.81,15.75,29.99-3.49,14.34.45,29.89,16.79,38.54.63.31,1.27.59,1.9.86,13.12,5.83,26.93,7.43,40.68,11.43.41.12.8.24,1.2.39,9.75,3.02,19.38,8.28,27.91,14.59.27.2.53.39.8.59.26.2.51.39.78.59.25.18.51.39.76.59.94.71,1.86,1.45,2.75,2.2.73.53,1.67,1.22,2.61,1.9,1.78,1.29,2.86,2.08,2.86,2.08,1.8,1.27,3.14,2.49,2.96,2.69Z"/>
    <g>
      <path class="cls-1" d="M644.59,641.23c-8.59.22-17.18-1-25.1-3.82-2.78-1.1-5.43-2.39-8-3.84-.25-.14-.47-.27-.71-.41s-.49-.29-.71-.43c-5.67-3.35-10.79-7.49-15.2-12.24-.96-1.04-1.9-2.1-2.78-3.2-.22-.25-.43-.51-.63-.76-.22-.29-.45-.55-.65-.84-.18-.22-.37-.45-.53-.67-2.94-4.39-5.86-9.12-8.69-13.77-.02-.02-.04-.06-.08-.1-.2-.33-.43-.63-.65-.94-1.75-2.45-3.37-4.59-4.41-6.2-1.08-1.59-1.77-2.55-1.77-2.55-1.1-1.57-1.84-2.98-1.63-3.12l.78-.53s.02-.02.04-.02c.27-.04,1.31,1.08,2.35,2.61,0,0,.39.51,1.04,1.43.06.06.14.16.2.22,2.14,2.53,5.22,6.45,6.65,7.51.18.12.39.26.57.39,2.39,1.8,5.02,3.49,7.88,5,0,0,0,.02.02.02.22.14.47.26.71.39.04.02.1.04.14.08,6.1,3.2,13.12,5.75,20.34,7.35.25.06.51.1.76.16.24.06.49.1.73.14,8.55,1.73,17.34,2.12,25.38.67l3.96,27.46Z"/>
      <path class="cls-1" d="M698.81,616.9l-.41.55c-6.98,8.65-17.34,15.32-29.07,19.38l-5.77-35.52c1.06-1.29,2.04-2.67,2.9-4.16,3.18-5.71,5.83-12.18,11.38-16.24,6.04-4.45,14.98-7.06,21.63-2.96,9.49,5.94,9.04,28.14-.65,38.95Z"/>
    </g>
    <g>
      <polygon class="cls-2" points="394.46 359.9 391.6 434.29 375.36 436.12 375.18 435.47 356.06 364.22 368.95 362.75 369.12 363.41 381.54 413.31 382.56 361.22 394.46 359.9"/>
      <path class="cls-2" d="M440.55,356.88l-16.63.92-7.94,74.14,12.04-.65,1.29-14.2,11.57-.63,2.79,13.98,12.87-.71-16-72.84ZM432.77,375.45l5.9,29.81-8.43.45,2.53-30.26Z"/>
      <path class="cls-2" d="M510.12,411.35c.02,5.98-1.47,10.67-4.43,13.91-3,3.33-7.43,5.02-13.14,5.04h-.12c-11.3,0-17.57-6.67-17.63-18.79l-.16-37.91c-.02-5.98,1.47-10.67,4.41-13.92,3.02-3.33,7.45-5.02,13.16-5.04h.12c11.3,0,17.57,6.67,17.61,18.81l.04,6.94-12.24.06-.04-7.67c-.02-5.63-2.9-6.32-5.08-6.32h-.04c-2.2.02-5.1.69-5.08,6.36l.18,39.44c.02,5.49,2.71,6.22,5.08,6.22h.04c1.69-.02,2.92-.45,3.71-1.35.92-1,1.39-2.65,1.37-4.92l-.06-13.34-5.65.02-.06-11.81,17.89-.08.12,24.34Z"/>
      <path class="cls-2" d="M570.31,358.16l-.04.78-2.9,54.9c-.63,11.63-6.71,17.96-17.18,17.96-.47,0-.96,0-1.45-.04-11.36-.59-17.28-7.63-16.63-19.79l2.96-55.66,12.83.67-.04.78-2.96,55.72c-.29,5.49,2.18,6.37,4.65,6.49,1.71.08,2.9-.29,3.73-1.12.94-.94,1.47-2.57,1.59-4.84l3-56.5,12.42.65Z"/>
      <polygon class="cls-2" points="608.03 373.55 606.07 390.97 621.52 392.71 620.19 404.46 604.75 402.72 602.44 423.19 621.89 425.39 620.56 437.14 588.32 433.51 596.57 360.37 628.78 364 627.46 375.75 608.03 373.55"/>
    </g>
    <path class="cls-2" d="M145.42,491.56h-37.3v153.78h37.3c23.85,0,36.44-13.28,36.44-38.4v-76.98c0-25.12-12.59-38.4-36.44-38.4ZM133.59,514.84h11.41c7.9,0,11.43,4.33,11.43,14.04v79.16c0,9.69-3.53,14.02-11.43,14.02h-11.41v-107.22Z"/>
    <polygon class="cls-2" points="234.05 491.56 233.99 513.31 220.5 542.24 207.85 542.24 216.99 516.14 209.46 516.14 209.46 491.56 234.05 491.56"/>
  </g>
</svg>