<?xml version="1.0" encoding="UTF-8"?>
<svg id="Layer_1" data-name="Layer 1" xmlns="http://www.w3.org/2000/svg" viewBox="0 0 1000 1000">
  <defs>
    <style>
      .cls-1 {
        fill: #fcf9f2;
      }
    </style>
  </defs>
  <rect class="cls-1" y=".02" width="1000" height="1000"/>
  <g>
    <path d="M876.01,308.58c-8.19-6.79-10.62-3.04-15.96-6.76-4.61-3.21-9.03-2.35-14.11-2.24-2.51.05-4.7.08-7.41.68-2.55.56-12.9.36-22.16,2.19-3.18.63-6.2,3.28-9.36,4.18-13.71,3.9-21,10.83-29.24,22.26-1.24,1.72-2.29,4.52-3.1,6.65-2.45,6.45.67,12.82.75,16.02l.36,13.6.55,5.96c.64,7,1.14,13.82,2.87,20.59l4.61,17.99c1.43,5.58,1.6,11.24,1.98,16.99l.51,7.6c.76,11.29-1.08,4.43.69,16.19.88,5.81.54,12.55,1.23,19.67l.81,8.37c.61,6.31,1.02,12.07.72,18.41l-.23,4.76c-.29,6.1-.69,12.55.06,18.73.68,5.62,6.9,33.4-.68,35.35-.85.22-2.57-1.21-2.49-2.15,1.09-11.69-1.83-5.74-1.71-19.63.01-1.59-2.26-9.3-2.27-9.75l-.53-15.47c-.13-3.7-.4-6.91-.02-10.64s.54-8.36-.1-12.05l-1.98-11.3c-1.65-9.43-.4-13.69-.92-15.96-.09-.4-1.6.22-2.06.07l-9.03-3.13c-5.58-1.94-10.57-4.35-16.19-5.93l-10.78-3.03-9.27-3c-9.33-3.02-14.76-2.44-23.38.49l-7.85,2.66c-2.1.71-8.26,2.94-8.75,4.89-.19.75.44,2.69.36,3.5l-.54,5.62c-2.26,2.82-5.62,13.04-5.5,14.9.74,11.47-2.64,13.19.28,19.9,8.11,18.62-4.26,18.77-.66,25.96l3.31,6.62c1.63,3.25,6.62,3.38,8.67,5.55,2.42,2.57,4.75,3.33,7.87,4.88,4.5,2.24,8.64,4.72,13.48,6.58,2.33.9,4.43,3.75,6.67,4.95,16.92,9.04,24.63,6.64,44.34,17.58,7.41,4.11,15.61,4.42,15.36,10.87-.85,2.76-5.23,1.62-6.81,2.56-10.84,6.47-11.28-2.03-22.99-1l-6.96-3.3-16.1-4.29c-3.46-.92-6.62-2.14-10.23-2.85-5.36-1.07-11.31-2.15-16.12-4.63-5.13-2.65-10-3.21-15.33-4.62l-11.39-3.01c-4.46-1.18-8.63-4.17-13.76-4.73-9.57-1.04-8.21-7.56-18.74-8.59-8.37-.82-9.66-5.74-18.59-7.85-9.93-2.35-11.27-5.51-23.64-8.54-4.88-1.2-9.12-3.23-13.75-5.07-5.53-2.2-10.98-3.82-16.2-6.74-2.22-1.25-4.15-1.85-7-2.46l-4.59,11.45-4.06,4.75c-1.84,2.15-7.58,9.3-9.98,10.34-4.58,1.98-8.14-.79-11.11,1.68l-6.13-2.48c-1.72,4.36-1.75,8.94-2.1,13.65l-.58,7.84-.69,9.14-.59,6.51-.7,8.51c-1.08,13.27.58,12.59-2.12,26.19-.64,3.2-.08,6.85-.52,10.23-.23,1.76-3.94,2.67-4.97,1.55-1.7-1.86-1.96-3.48-1.89-5.64.1-3.21-.35-6.73.2-9.91.63-3.63,1.4-7,.78-10.56-.96-5.52,1.08-23.05,1.81-29.61l1.38-12.49c.49-4.38.5-8.99,1.85-13.17.52-1.62.97-3.3,1.22-4.63-3.23,1.37-6.37-1.92-12.7-4.72l-6.69-2.96c-7.17-3.17-5.32-2.4-8.36-6.83-1.96-2.87-4.1-6.1-6.12-8.74-1.49-1.95-4.28-2.47-3.99-5.99l-2.97-6.39c-1.51-3.24-1.66-6.16-3.47-9.31l-.33-6.2c-4.65-2-10.59-1.32-15.16-3.64-7.35-3.74-14.44-6.78-21.96-10.11-6.06-2.68-10.98-7.14-17.63-9.03-7.26-2.07-9.1-6.48-18.95-10.22-2.57-.97-3.24-2.88-3.16-5.52s-1.4-6.28-1.05-8.84l1.5-11.12c.73-5.4,2.03-10.69,3.5-15.94l3.12-11.13c.8-2.84,1.87-5.78,3.6-8.12,2.06-2.79,1.87-5.98,3-9.03,1.77-4.77,5.69-11.83,9.78-15.38,6.42-5.57,22.43-4.67,30.74-3.94,1.81.16,4.57.89,6.05.9l15.2.15c1.57.02,4.4-.66,5.88-1.28l-.51-7.51c-.25-3.66-1.1-7.37-1.13-11.03-.17-16.81-1.86-10.96-3.02-26.47-.19-2.55-1.19-5.04-1.33-7.62l-.5-8.86c-.74-13.07,1.59-13.62-.88-24.79l1.36-7.13c.75-3.93,3.58-7.54,4.72-11.24,1.21-3.92,2.96-6.12,5.77-8.87,1.81-1.78,3.76-4.09,5.5-6.07,6.37-7.22,5.98-4.62,12.68-11.57,4.07-.71,8.43-.44,12.42.19,8.58,2.68,16.39,2.33,24.83.74,2.99-.56,6.3-.62,9.58-.94,4.95-.48,10.05.54,14.64,2.67l3.4,3.1c.46-2.49.31-4.51-.24-6.87-7.24,1.45-12.58-1.27-18.09-4.81l-4.77-3.07c-4.78-3.08-10.57-3.77-16.04-5.57-3.7-1.22-8.71-.7-12.13-.99l-3.58-.31c-2.39-.21-16.12,5.84-21.6,7.75-3.25,1.13-6.97,2.05-10.04,3.66-7.38,3.87-13.64,9.75-18.95,15.99-4.27,5.02-4.9,11.34-6.49,17.32-2.1,7.92-4.81,21.14-4.37,29.36l.73,13.69c.16,2.95,1.43,6.42,1.91,9.15,2.74,4.5,4.92,8.32,5.15,13.86-.06-1.41,1.44,17.87.75,14.48l2.22,10.97.3,8.4c-.99,1.43-4.35,2.56-6.22,2.03-7.67-2.19-4.24-7.77-5.42-12.06s-1.75-8.06-1.82-12.7c-.05-3.57-.89-7.28-1.18-10.98-.15-1.93.33-5.03-.61-6.46-1.58-2.39-4.29-4.48-4.46-7.14s-.36-4.86-1.6-7.07c-1.58-2.83.39-6.46.01-9.33-1.06-8.1-.76-15.5.48-23.56.75-4.89,1.45-9.62,2.58-14.43.58-2.45.72-5.37,1.63-7.66,2.27-5.73,4.46-11.74,9.05-15.78l7.56-6.65c2.44-2.14,3.97-4.18,6.75-5.8,3.61-2.09,7.05-4.19,11.02-5.44l9.82-3.1c8.97-2.84,5.57-3.45,17.99-6.69,6.73-1.76,14.94-.6,21.6,1.24,4.61,1.28,13.01,3.79,16.85,6.15,2.44,1.5,5.74,2.97,7.76,4.64,3.81,3.15,8.84,5.71,13.24,3.41.53-.28,2.29.93,2.58.56,2.48-3.12-.95-3.29.9-9.04,3.7-11.54-1.86-13.76,5.12-26.34,1.29-2.33,2.94-6.76,3.08-9.47.6-11.82,1.69-23.39,7.12-33.74,3.81-7.26-.66-4.94,3.68-15.9,1.43-3.6,4.35-7.28,4.65-11.01.24-2.93-.41-6.08.7-9.07,1.05-2.83,1.81-6.03,3.13-8.54,5.65-10.68,11.6-9.01,16.09-17.92,1.13-2.24,3.09-4.26,4.81-6.16,3.57-3.95,7.55-6.28,12.25-8.73,5.29-2.76,9.9-7.42,15.99-8.52,1.64-.3,3.97-.02,5.62-.85,3.99-2.01,7.78-1.27,11.62-1.49,15.81-.91,11.68,1.92,26.08,2.26,4.83.11,8.84,1.33,13.44,2.3,4.3.91,8.16,1.42,12.45,3.46,2.12,1,6.16-.21,8.35.66,13.44,5.35,13.61-.68,25.16,4.95,10.58,5.17,6.62.28,16.17,6,3.48,2.08,8.18,2.45,11.97,3.73,4.98,1.7,10.29,2.92,12.08,3.59,6.01,2.26,11.87,3.86,17.94,5.7,4.13,1.26,7.96,3.41,12.39,4.38,3.39.75,6.47,2.41,9.66,3.98,1.75.86,4.35,1.07,6.13,1.72l14.37,5.2c3.24,1.17,6.45,2.14,9.83,2.5,5.16.54,8.48,4.54,8.29,9.92,3.3-2.65,5.83-2.54,8.94-1.96,1.79-.92,4.51-2.3,6.81-2.92,1.04-.28,3.46,1.41,3.54,2.47l.41,5.33c-2.56,16.34,1.18,9.17-1.96,28.71-1.15,7.14-1.53,14.22-4.09,20.89-4.07,10.62-2.62,15.87-4.22,25.21-1.34,7.82-2.92,15.28-3.35,23.2-.51,9.23-2,17.95-3.29,27.2-.81,5.8-.35,11.59-1.53,17.53-1.33,6.68,1.01,20.27-1.16,27.73-.49,1.67.22,5.67,1.61,6.68,2.49,1.46,4.74,3.27,7.25,4.68l9.17,5.13c3.96,2.22,7.36,4.14,11.82,5.29,3.58.92,6.51,3.84,9.45,6.01,2.77,2.04,5.11,3.86,7.77,6.22l-3.78,3.91,4.69,3.48c1.19.88,3.73,2.76,4.22,4.16l3.88,11.14c2.08,5.97,3.39,11.65,3.87,17.96.54,7.11,1.47,13.98.87,21.14l-1.55,18.56-.78,11.05-.75,7.91c-.5,5.27-1.48,10.28-2.03,15.55l-2.95,28.35-1.69,13.48-.58,9.14c-.43,6.82-1.42,13.44-2.52,20.13l-2.39,14.44-2.07,10.45-3.26,21.57c-2.07,13.74-3.79,16.56-4.38,31.87-.56,14.43-2.64,14.2-3.28,26.07-.26,4.84-1.33,9.06-2.81,13.69l-1.94,6.05c-1.19,3.71-1.59,6.82-1.32,11.07l-3.41,6.43c-1.04-.39-2.38-.96-3-1.43-1.86-1.39-.53-12.3.12-15.79,2.29-12.36,3.85-5.84,4.45-20.71.2-5,2.13-9.97,2.51-14.94l.76-9.85.58-7.84c.45-6.12,1.86-12,2.78-18.06l2.08-13.57,1.25-9.31,1.08-6.61c2.89-17.76,5.93-35.04,7.4-52.96l.74-9,.75-9.75,3.15-30.28,1.04-8.88.61-6.53.7-9.76.63-8.49.67-7.83c.51-6.02.52-11.57-.11-17.57-.72-6.93-.81-13.82-3.2-20.39l-4.55-12.51c-3.47-3.39-14.18-10.27-18.51-11.32l-10-2.43-4.56-1.85c-2.57-1.04-5.3-2.03-7.63-3.4-3.95,1.61-8.84.27-12.63.91-6.42,1.09-12.32,1.56-17.22-4.13-9.98,2.64-12.99-1-20.08,3.13-8.01,4.66-8.18-4.39-21.37,12.2-2.95,3.72-1.01,6.77-.33,10.36l3.21,17.09,1.08,5.65c.6,3.13,1.07,6.02,1.2,9.24l.18,4.44,1.83,16.19c.57,5.02,2,9.82,2.54,14.83l1.62,14.83c.42,3.85,1.97,7.83,1.93,11.66-.02,2.11-.37,4.08-.17,6.06.28,2.75,1.29,5.78,1.4,8.45.37,8.54.3,16.71.13,25.34-.07,3.37-3.24,12.55-2.91,17.51l.57,8.56c.36,5.38.65,10.43.15,15.83-.65,6.95-.43,15.49.4,22.61l1.36,11.76,2.13,13.94,3.19,23.17c1.21,8.78,1.33,17.02,3.32,25.66,1.8,7.79,4.1,14.69,7.51,22.02l6.02,12.9c3.62,7.77,8.37,14.39,11.36,22.49,1.15,3.12,3.21,6.05,5.24,8.28,1.01,1.11,1.51-2.25,5.79-2.12,1.02.03,1.63,1.76,2.41,3.73,7.08-1.85,22.75-8.96,21.22-17.77-.56-3.25-.86-5.73.92-8.67.91-1.51,2.92-2.19,4.46-1.79s3.84,1.86,3.19,3.56c-4.76,12.52-2.33,13.96-9.97,20.84-3.93,3.54-7.84,6.11-12.77,8.2l-6.77,2.87c-1.49,3.67-1.2,7.45-.58,11.42.87,5.51-2.9,13.44-.15,21.77l10.44-7.89c3.56-2.69,6.73-6.26,11.8-7.07l9.6-1.53c2.54-.4,6.86,2.88,7.68,5.17,2.23,6.2,1.08,12.05-1.21,17.72-4.47,11.06-2.17,11.73-8.44,16.31-2.08,1.52-3.27,3.75-4.85,5.62l-5.96,7.05c-8.92,10.54-4.82,2.76-12.88,12.67-1.07,1.32-4.69,1.48-5.84,2.6-2.09,2.06-4.24,4.6-6.63,6.42l-3.07-.57c-2.28,3.02-5.22,4.25-8.38,6.04-2.3,1.31-3.47,4.98-6.84,4.85-1.8-.07-4.92.35-5.87,1.62-2.36,3.14-5.39.71-7.73,1.59-2.55.96-5.32,3.2-8.31,3.66-8.3,1.28-18.43-.73-19.44-10.21-.47-4.47-1.16-8.46-2-13.1-.57-3.13,1.85-8.14,4.3-10.01,3.23-2.47,4.6-5.48,7.15-8.22,5.36-5.76,11.92-10.6,17.62-16.1.68-.25,1.58-.61.75-.34.34-11.79,2-19.7,4.23-30.35,1.81-8.64.98-11.35,2.51-19.67.36-1.98,2.47-11.78-.43-11.53-3.2.28-6.69-1.9-9.16-3.64-11.91-8.35-7.2-14.28-17.67-28.11-2.2-2.91-4.98-6.02-6.06-9.43-2.18-6.87-4.22-13.15-7.29-19.63-.98-2.06-3.76-12.62-3.22-15.19.16-.74,2.06-1.81,2.72-1.56,5.38,2.11,3.92,7.32,5.24,10.82,2.29,6.09,4.64,11.93,6.44,18.17,3.56,12.32,8.89,9.62,14.91,26.89,2.26,6.48,6.41,13.06,13.65,14.65,2.93.64,7.07-1.74,9.46,2.61l1.2-1.39-4.87-9.3c-5.38-10.27-12.07-19.61-16.21-30.57-3.48-9.21-5.77-18.91-6.34-28.49l-.58-9.72-2.51-17.86-1.57-11.51c-.28-2.09-.34-4.13-.53-6.17l-1.18-12.28c-.25-2.63-.29-5.17-.44-7.9l-.42-7.23c-.4-6.91-.21-13.65-.06-20.62.18-8.29-1.73-13.79-.21-21.08l2.81-13.46-.38-12.22c-.17-5.53-.03-10.53-1.03-16.06-.54-2.96-.49-6.1-.83-9.1l-1.77-15.66-3.77-25.36-2.2-20.28c-.89-8.18-3.11-23.98-5.39-31.12-2.91-9.1-2.19-13.67,3.86-20.65,2.59-2.99,5.23-6.15,8.59-8.35s7.28-2.38,10.92-3.53c4.96-1.56,9.9-4.05,15.24-3.31,2.78.39,5.19.36,7.95.05l5.4-.61c1.78-.2,4.33,2.98,5.98,4.04,5.44.35,10.97.39,16.48.07,3.11-.18,6.66-2.07,9.6-.75l8.52,3.82c7.5,3.36,2.82.47,7.83,2.29.23.08.41-1.47.19-1.57-1.74-.79-5.34-1.68-7.19-2.74-2.58-1.48-4.64-3.43-7.18-4.58-2.35-1.07-5.22-1.82-7.08-3.37ZM696.63,421.11c-4.65-.95-9.04-1.61-13.6-2.88l-10.38-2.88-14.81-4.5c-4.13-1.26-8.09-2.1-12.31-3.44-6.17-1.97-12.77-2.75-18.73-5.54-2.81-1.32-5.47-4.17-8.4-4.43-2.58-.22-4.77-.73-7.18-1.3-10.25-2.44-6.78-4.44-10.34-7.9-.55-.53-2.66.46-3.45.34-7.74-1.16-15.12-5.55-22.51-8.26-3.99-1.46-11.05-1.93-15.04-4.63-2.54-1.72-9.33-6.41-5.99-10.62,1.34-1.69,5.64-1.34,7,.22,4.47,5.13,10.31,4.46,15.69,6.82l23.99,10.53c2.93,1.29,5.39,4.9,9.46,3.4l5.78,2.84c5.36-2.09,7.02,1.69,15.98,5.65,10.53,4.65,5.94,2.2,18.51,5.23,5.38,1.3,10.14,3.38,15.53,4.86l11.84,3.25c7.64,2.1,14.4,3.97,22.12,5.6,5.44,1.15,10.94,3.35,16.36,4.87,7.57,2.13,12.33,5.91,23.75,7.18,5.08.57,9.98.77,14.88,2.24l13.09,3.93c3.35,1.01,7.04,2.29,8.47,6.12.35.95-1.21,3.02-2.17,3.32-.87.27-2.52.12-3.64-.22l-13.18-3.97c-5.01-1.51-9.66-2.38-14.75-3l-9.58-1.16c2.07,2.81,4.9,2.5,7.73,3.18l10.45,2.5c2.73.65,5.13,1.75,7.76,2.74l18.53,7c.34-11.69,1.98-8.68-.43-20.48-.61-3-.67-5.95-.88-9.11-.98-14.79-2.92-10.88-4.44-18.88-.79-4.14-1.45-8.14-2.02-12.34l-1.15-8.48c-.72-5.32-1.35-10.58-1.44-15.77-.2-11.85-1.72-10.03-2.48-22.07-.26-4.15,2.38-8.07,3.72-11.72,1.98-5.38,5.07-9.34,8.98-13.35,2.56-2.63,4.84-5.63,7.83-7.76,7.14-5.08,14.74-8.14,22.73-11.4,6.17-2.51,11.69-3.91,18.73-4.26l8.37-.41c2.56-.12,5.71-.1,7.68-1.26l.33-9.09.61-6.63c.26-2.83.43-5.56.52-8.45l.24-7.74.22-4.7.37-13.65c.08-3.07,1.34-6.29,2.27-9.44.52-1.75,2.92-3.33,4.57-4.33.82,1.4,1.91,3.42,2.04,4.58-.9,5.15-1.22,9.96-1.47,15.09l-.63,13.06-.52,9.78c-.38,7.2-2.2,13.94-3.56,21.16-.45,2.37,9.84-.46,16.07,4.08,1.24-1,2.95-4.35,2.29-5.89-1.1-2.58-.75-4.01-.65-6.57l.51-13.38c.19-4.99,1.04-9.43,1.19-14.51.45-14.65,3.46-20.76,4.07-38.33.08-2.2,1.14-5.19,1.46-7.48l1.12-8.18,1.37-13.45c.72-7.11,1.82-13.78,4.4-20.36,3.21-8.21,1.92-10.22,3.39-18.27,2.89-15.88-1.18-10.19.97-22.61-2.87-1.48-6.34-1.62-8.3,1.16-1.28,1.81-3.57,4.8-3.75,6.94-.54,6.43-2.4,11.85-6.44,16.71-5.03,6.06-4.39,19.62-4.85,22.22l-2.49,14.3c-.51,2.91-2.22,6.27-1.89,9.12.42,3.57.38,6.66-.1,10.12l-1.19,8.6c-.51,3.67-.88,7.01-1.63,10.91-1.66.01-3.68-.25-5.2-.74-3.24-6.55,1.3-16.4.52-21.94-1.82-12.82,1.74-13.02,3.15-26.9l.69-6.71c.73-7.12,1.09-14.93,4.93-21.24,2.34-3.85,6.24-6.82,6.24-11.94,0-2.63.58-5.56,1.87-7.87l3.57-6.38c-5.07,1.49-9.14-.32-12.76-3.73-.95-.89-4.09-.54-5.24-1.11-5.52-2.73-11.05-4.66-16.53-7.03l-13.15-5.69-9.72-3.83-7.25-2.56-11.13-3.93-13.14-4.47c-1.49-.51-3.59-1-5.16-1.27-4.15-.72-7.29-3.2-11.05-4.56-4.69-1.7-9.48-2.55-14.11-4.96-5.25-2.74-8.46.73-19.81-3.02-3.11-1.03-6.84-1.11-10.01-1.88l-9.97-2.42c-3.77-.92-7.89-2.67-11.78-2.8-6.32-.22-11.82-.7-17.88-2.59-4.27-1.33-6,1.59-14.26-.09-2.81-.57-5.88,1.92-8.41,2.18-4.37.44-7.77.46-11.35,3.36-11.98,9.71-10.58,3.16-18.05,14.53-2.42,3.68-5.41,7.28-8.27,10.49-.98.96-4.4,1.57-5.11,2.74l-4.92,8.13c-2.43,4.02-3.25,7.99-1.5,12.59-2.84,5.14-5.91,10.2-7.19,15.86-.83,3.66-.55,7.61-2.07,11.07-6.51,14.78-2.69,10.78-5.09,18.35-3.73,11.75,2.01,6.39-3.03,20.54-.59,1.65-.12,3.98.19,5.86l-5.08,6.76c-.55,4.27.4,9.16-.59,13.17-.91,3.65-.83,6.63-1.76,10.25l-2.94,11.51c-1.42,5.56.06,11.59-1.97,16.67l-4.95,12.39c-1.07,2.67-.31,6.3-1.61,8.84l-5.34,10.42c-3.69,7.21,2.18,4.29-.52,12.47-1.31,3.98-2.84,8.19-3.15,12.31l-.61,7.95c-.28,3.73-.68,7.34-1.33,11.09l-1.16,6.62c-1.07,6.08-1.31,14.21-.67,20.49.16,1.62,2.57,4.29,1.59,6.03-.54.95-3.06,1.54-4.06.86-2.34-1.58-3.69-4.91-3.89-7.99-1.39-20.71.66-17.32,2.1-34.51.71-8.45.13-12.13,3.05-20.54,3.16-9.09-3.67-5.71,1.25-18.16.77-1.95,1.71-3.27,2.89-5.06,5.24-7.95,1.64-10.01,5.44-16.74,1.85-3.28,3.51-7.35,3.73-10.67-11.02-2.66-.94-3-13.67-3.59-7.28-.34-7.46.91-17.73,1.18-1.73.05-4.57.91-6.32,1.18-4.03-1.52-8.29-.86-12.11-1.87-2.71-.72-4.63-1.17-7.3-1.24-9.01-.27-2.39.9-10.67,4.52-1.93,2.85-4.36,5.91-6.94,8.61-1.55,1.62-2.32,4.39-3.38,6.43-5.91,11.37-7.91,9.57-6.34,24.51-3,8.14,1.02,24.74,1.33,29.12l.66,9.11c.37,5.08,2.15,9.57,2.55,14.63l.52,6.62c.66,8.4,1.77,9.4,2.06,17.46,2.48,1.89,6.65.84,9.65.39,9.55-1.42,13.48,1.37,22.34,0,3.76-.58,7.55,0,11.41.25,2.91.19,5.57.53,5.93,3.78.28,2.56-1.68,4.51-4.65,4.77l-5.89.53c-2.54.23-5.81-.05-8.17.46-3.29.71-5.6,1.25-8.88.62-3.49-.68-7.24.05-10.87.36l-11.84,1.01c-7.87.67-9.12,2.49-15.04,1.14-2.18-.5-4.68-.48-7.02-.27l-6.36.58c-8.25-2.02-15.97-2.01-24.24-1.33-5.5.45-9.91,1.73-12.24,7.17l-6.4,14.94c-1.74,4.07-2.84,7.35-4.23,11.62l-3.61,11.05-1.91,9.74c-.94,4.81-.27,10.14-.21,15.04l12.75,7.6,20.71,10.66c7.08,3.64,14.52,7.06,22.01,9.73,9.25,3.3,18.43,4.75,27.33,9.52,2.93,1.57,7.42,1.45,10.64,2.35,5.44,1.52,10.44,3.24,15.98,4.19s10.84,3.23,16.24,5.28c3.82,1.45,7.55,2.53,11.48,3.62,9.76,2.71,9.59,4.19,18.24,5.87,4.36.84,8.06,2.79,11.83,5.04,2.55,1.53,5.44,2.46,8.26,3.5l12.27,4.52c7.78,2.86,15.28,5.28,22.95,8.4,5.54,2.26,11.32,3.37,16.37,6.55,6.7,4.22,12.08,2.53,19.98,8.61,3.44,2.65,6.51,3.57,10.51,4.71l20.17,5.78c7.59,2.18,14.9,4.19,22.23,7.04,3.36,1.31,6.62,2.18,10.34,2.27-3.41-4.32-10.31-7.15-15.7-9.77l-16.54-8.05c-2.82-1.37-4.06-1.99-6.76-4.22l-6.19-5.11c-4.1-3.38-2.29-8.71-3.17-12.67s-1.98-6.15-.39-10.17c1.18-2.99-.98-7.49-.24-10.63l2.33-9.86c.94-3.99-.83-8.11.31-12.21l2.24-8.02c2.2-7.88,4.3-10.16,4.09-16.48-1.25-2.18-1.36-3.19.02-5.14,1.2-1.7,2.74-5.33,4.54-6.19l6.82-3.26c2.12-1.01,5.13-1.43,7.36-2.36,9.16-3.82,13.64-4.71,23.98-4.58l-8.56-3.25c-6.42-2.44-13.08-5.12-19.84-6.49ZM521.29,498.54c-3.39-.47-5.99-1.03-9.72-2.11,1.48,4.84,4.71,8.08,7.93,11.49,8.58,9.09,2.32,11.27,18.29,13.48,3.38.47,5.46,2.25,6.18,5.35.22.93-.64,2.54-1.4,2.97-.92.53-2.43.28-3.68-.13-2.01-.66-4.11-.52-6.61-.9-3.58-.55-9.45-2.98-11.34-6.19-2.52-4.28-3.99-8.31-7.86-11.42-7.45-6-6.83-16.48-11.63-17.54-6.48-1.43-12.01-2.95-18.2-6.63-.57,1.43-.06,3.46,1.16,4.58,3.76,3.44,3.64,9.48,7.77,15.12,7.22,5.89,8.57,14.69,18.15,16.51,4.17.79,7.85,4.43,11.9,5.32l8.19,1.81c6.36,1.4,2.02,3.68,15.51,1.72,2.29-1.78,10.7-10.95,11.5-12.48l3.9-7.38-8.9-3.82c-2.09-.9-4.64-1.69-6.93-2.07-12.65-2.06-13.68-6.23-24.2-7.68ZM888.77,718.87l-3.21,2.69c-2,.32-2.87,1.06-4.28,2.4-8.31,7.92-9.21,5.19-14.04,10.61-1.41.7-5.46.66-6.87-.22-1.36-1.18-2.8-3.29-3.55-4.55.44-4.45.18-8.13-.08-12.48-.18-2.95,1.68-6.66,1.66-9.65-.04-5.59-.08-10.08,1.14-15.51l-7.68-3.25-2.29,15.33c-.88,5.89-1.57,11.59-1.83,17.65l-.38,8.47c-.13,2.86.91,20.77-5.44,18.91-1.31-.38-2.75-2.34-2.48-3.84l1.29-7.16c-.36-3.11-.39-5.54-.12-8.53l.55-6.08c.55-6.05,1.13-11.96,2.19-18.04l2.97-17.08-6.57-5.52-.7,10.85-.6,8.45-.66,11.13c-.16,2.73-.87,4.88-1.67,7.66-.97,3.4-.53,15.45-2.24,20.64,2.51,4.86-4.41,8.32-7.37,10.34-7.79,5.32-10.92,13.31-18.61,20.12,1.39,3.3,5.59,3.48,8.83,2.44l18.74-6.02c5.32-1.71,11.21-2.82,15.66-5.92l11.46-7.99c1.2-.83,2.53-2.59,3.56-3.55l11.51-10.76c1.4-1.31,3.68-2.14,5.15-3.22l4.93-3.6c2.78-2.03,5.24-4.19,7.96-6.52,2.44-2.1,2.6-7.7.89-9.75-2.67.77-4.95,1.27-7.81,1.55ZM827.38,787.36c3.7-.34,5.96-.98,8.96-2.09l4.81-1.78c2.93-2.54,5.82-4.53,8.95-6.73,1.45-1.02,2.76-2.57,4.53-3.21,7.1-2.56,4.99-5.54,11.91-7.79,1.85-.6,3.2-3.39,4.8-4.81,2.66-2.37,5.84-4.27,7.98-6.98l6.19-7.88c-3-.2-3.95,2.36-5.56,3.82-3.49,3.17-6.67,6.29-10.04,10.02-2.57,2.84-7.49,4.3-10.55,7.19-2.45,2.31-4.54,3.95-7.86,4.67-4.56,1-8.31,3.72-12.62,5.42-8.93,3.52-18.56,6.47-27.7,7.82-.84.12-2.73-.57-2.75.05l-.07,2.65c-.02.74,1.4,2.02,2.21,2.29,8.85,3,11.92-2.21,16.83-2.66Z"/>
    <path d="M793.07,591.65c-.96.64-3.27.24-3.81-.48-2.21-2.96-1.74-9.46.9-13.46-7.07-6.88-4.87-9.34-2.1-17.8,1.83,1.61,1.54,3.27,2,5.52l1.61,7.81,1.27,8.02c.46,2.92.33,7.01.13,10.39Z"/>
    <path d="M623.28,506.11l-9.83-3.57-10.86-4.57-5.2-2.04c-5.16-2.02-10.7-2.8-16.13-4.13l-13.24-3.25-9.6-2.62c-2.95-.8-5.9-1.87-8.72-2.97l-7.11-2.76-9.79-3.83c-8.19-3.2-16.14-5.57-24.79-7.19-4.69-.88-9.13-2.52-13.75-3.78l-31.72-8.67-9.11-2.81c-1.79-.55-4.09-1.58-5.86-2.47l-15.58-7.78c-.49-.24-1.38-1.37-1.22-1.83,1.14-3.25,15.18,3.19,18.03,4.42,19.24,8.34,20.87,6.32,38.09,11.49,9.31,2.79,18.32,4.93,27.87,6.85,6.35,1.27,12.28,3.43,18.41,5.66,10.71,3.9,21.1,7.39,32.13,10.22,3.37.86,6.69,1.21,10.08,1.82l12.54,2.24c6.28,1.12,12.25,2.33,18.06,4.77,9.42,3.94,24.91,8.68,31.7,12.05,2.91,1.45,5.54,4.4,8.47,5.61s5.38,2.73,5.31,5.79c-.06,2.81-2.5,6.09-5.3,5.6-1.03-.18-3.24-1.33-3.97-2.11-4.92-5.32-11.99-7.63-18.89-10.13Z"/>
    <path d="M671.44,444.76c-3.53,5.74-6.97.52-13.4-.39-17.92-2.55-5.35-2.7-21.67-5.79-5.22-1.95-10.62-2.9-16.14-4.12l-7.96-1.76c-7.11-1.57-13.93-3.65-21.1-4.81-3.97-.64-8-.88-11.75-2.06l-19.7-6.24c-7.19-2.28-24.59-6.49-31.34-9.8-6.93-3.4-11.78-5.25-19.31-5.73-1.62-.1-4.67-1.89-5.74-3.15-.46-.54.47-2.49,1.04-2.92.8-.6,1.67-.57,2.87-.29,2.13.5,4.69.49,7.08.92,3.88.7,7.59,2.14,11.52,3.36,1.94.6,4.63-.03,6.53.27,4.02.64,7.87,2.3,11.91,3.28,6.86,1.67,13.46,3.34,20.11,5.41l15.35,4.8c2.26.71,5.12,1.06,7.55,1.41,7.63,1.12,14.7,3.1,22.19,4.66l19.99,4.18c8.01,1.67,15.27,4.58,23.15,6.64l16.18,4.23c1.36.36,2.92,1.95,3.35,2.97.63,1.5.17,3.49-.71,4.92Z"/>
    <path d="M487.55,394.77c-.5,2.91-4.42,5.21-6.18,5.06-.75-.06-1.65-1.18-2.59-1.88-2.43-1.83-6.17-1.52-9.18-2.49l-20.71-6.68c-1.1-.35-3.78.46-4.66-.18-1.69-1.22-3.46-5.9-1.39-9.11,2.3-3.58,14.13,1.21,17.94,2.72,4.49,1.78,8.92,3.04,13.69,3.89,4.35.78,14.03,3.17,13.08,8.67Z"/>
    <path d="M545.98,546.8c1.36.45,2.45,3.31,2.19,4.8l-2.55,14.52c-.86,4.86,1.77,20.27.02,28.21,6.18-1.66,5.39-3.01,13.5-6.97,3.15-1.54,6.83-4.94,10.27-4.39,4.48.71,9.24,1.99,11.23,5.96,2.64,5.26,1.84,12.69-1.58,17.77-6.37,4.82-3.23,13.64-13.11,22.9-7.32,6.86-5.1,6.65-14.23,14.37-6.84,5.79-5.1,1.49-16.06,13.86-7.31,8.25-9.83,6.61-17.54,12.45-5.18,3.92-10.48,5.65-16.78,6.98-7.02,1.48-9.45,4.54-18.67,1.23l-8.95-3.21c-4.03-1.45-4.02-3.99-4.97-7.41-1.2-4.33-1.95,3.83-2.12-11.81-.05-4.28,1.72-7.59,5.63-9.56,1.2-.6,2.43-2.45,3.47-3.57,3.44-3.67,6.94-7.51,10.82-10.58,2.73-2.16,4.55-3.78,6.62-6.65,1.93-2.67,4.87-5.19,7.28-7.72-.47-12.85,5-21.82,3.05-34.69-.51-3.35-.18-6.66.1-10.06l.86-10.43.91-9.1,2.26-11.78c.19-1.01-.78-3.44-.21-4.34,1.51-2.39,5.86-3.59,8.07-2.53,1,.48,1.51,2.87,1.31,4.15l-3.29,21.64-.83,8.41c-.36,3.61-.15,6.87.05,10.51l.5,9.07c.09,1.55-.1,4.2-.35,5.89l-2.5,16.97c-.05.34,1.44,6.77-.58,9.72-1.16,1.71-3.6,1.9-5.08,2.26-3.67,3.55-5.94,8.42-9.31,12.17l-12.09,13.46c-1.86,2.07-4.81,4.94-6.62,6.84-.19.81-.25,2.96-.24,3.85,3.55-1.46,6.82-.86,10.39-1.62,4.48-.96,9.33-2.25,13.58-3.91,1.45-.57,11.87-7.44,13.82-8.86.64-.47,2.46-.65,3.15-1.05,4.96-2.85,10.09-7.26,14.81-10.9,4.08-3.15,3.22-5.69,9.35-9.02l7.55-4.09,10.15-7.69c4.29-3.25,14.89-13.28,12.31-20.24-2.03.26-3.49,1.75-5.14,2.68l-9.69,5.41c-2.35,1.31-4.96,2.38-7.6,3.63l-4.62.34c-.71,2.08-1.66,4.14-3.32,5.19-2.01,1.26-5.83.46-5.94-2.19-.33-8.27-.36-16.4.77-24.63.45-3.28,1.31-6.41,1.06-9.8-.66-9.05,1.55-15.4,5.06-23.6.63-1.48,1.69-3.56,3.84-2.85ZM537.71,641.73c7.39-1.69,12.63-6.7,15.51-12.73-6.36,3.53-11.36,7.92-15.51,12.73ZM503.04,667.54c3.81-.31,6.55-3.39,9.56-5.23l6.12-3.75c4.92-3.01,10.21-5.97,12.74-11.8-2.76.62-4.35,3.12-6.46,4.29-4.11,2.29-7.97,4.52-11.93,6.99l-6.08,3.79c-2.95,1.84-6.52,2.4-9.97,3.16-1.9.42-4.42,1.69-6.19,1.98-3.32.55-5.91-.55-8.63,2.66,12.67,3.76,7.63-1,20.83-2.1Z"/>
    <path d="M824.25,129.27c-2.4-2.61-5.58-2.09-8.18-2.95-5.72-1.91-10.93-4.93-16.92-6.34s-10.89-3.89-16.47-5.58c-4.92-1.49-9.01-4.02-13.71-5.74l-16.77-6.16c-3.15-1.16-6.81-1.52-9.52-3.59-3.18-2.43-6.91-2.55-10.44-4.12l-14.25-6.34c-3.75-1.67-8.05-2.59-12.17-2.75l-13.37-.5-14.41-.67-10.52-1.24c-10.36-1.22-5.8-1.43-14.43,1.43-3.36.18-6.7.36-9.53,2.6-1.74,1.38-5.27-.52-6.23-2.44,1.97-1.43,3.37-2.49,5.34-4.11,1.32-1.09,4.55-1.34,6.07-2.24l4.86-2.88c3.42-2.02,6.14-.85,9.53-.38,6.87.96,14.02,1.87,20.89,1.68,3-.08,5.72-.42,8.8-.19l9.15.69c15.96,1.2,18.92,4.98,29.73,8.76,5.35,1.87,10.43,2.65,15.6,5.46,3.56,1.93,7.97,2.89,11.88,4.41,4.53,1.76,9.56,2.35,13.97,4.34,2.55,1.15,4.91,2.62,7.58,3.45,3.74,1.16,7.36,2.13,10.94,3.42l24.38,8.79c2.63.95,5.25,1.87,7.95,2.48l17.2,3.89c1.5.34,3.46,2.47,5.17,2.43,3.29-.08,4.29,1.11,5.21,3.8.57,1.67-.21,4.54-2.66,5.4-1.61.56-5.41.68-6.92-.13-12.48-6.65-14.66-1.33-17.74-4.69Z"/>
  </g>
  <g>
    <path d="M80.39,872.98c.26.85,5.89-2.97,7.02-4.53,1.4-1.94,2.85-2.79,5.13-1.61.7.37,1.96.66,2.59.51s1.38-1.89.93-2.43c-1.65-1.97-2.01-5.17.07-7.59l-5.13-2.26c-.82.24-2.18,1.42-2.71,2.25,1.53,1.67,2.17,5.2-.26,5.8-6.06,1.49-3.93,4.59-7.28,3.94-.77-.15-1.74-1.19-2.23-2.27-1.95-4.29,5.51-4.52,3.45-11.53,3.31-3.68,7.89-6.77,12.56-8.2,3.89-1.19,5.64,1.36,7.48,3.9,1.69,2.33,5.23,4,5.24,7.21s-1.46,5.39-4.48,5.97c4.81,4.71-.4,10.26-3.97,13.04-5.8,4.51-7.79-3.01-10.74-.17-3.43,3.29-8.63,3.92-11.43,1.04-1.46-1.5.53-6.34,1.86-6.38.56-.02,1.26,1.11,1.43,1.67l.5,1.64Z"/>
    <path d="M184.62,862.17l-9.14,6.05c-1.92,1.27-4.69,2.57-6.8,1.01-2.88-2.13-5.68-5.43-6.02-9.04s2.15-6.81,4.66-9.43c-3.81-.96-4.99-3.31-5.25-6.88-.24-3.26,1.61-7.41,4-9.99,7.74-4.09,9.73,3.47,15.22,1.76,4.13-1.28,7.65.95,8.89,4.8.78,2.4.71,4.55-.5,6.85-2.83,5.35.35,4.97-2.25,10.7-.56,1.24-1.56,3.34-2.81,4.17ZM179.74,847.21c1.15-.68,2.6-2.58,2.44-3.5-4.9,3.77-7.25-2.23-12.41-4.18-1.23,1.32-1.68,3.39-1.29,4.87l3.86-.44c2.59,1.31,4.88,2.44,7.4,3.25ZM174.67,856.88l4.29-1.21c.6-.17,1.19-1.57.92-2.23l-5.26,1.21c-.33.08-.88,1.03-1.04,1.33-.1.2.85.97,1.09.9Z"/>
    <path d="M348.63,852.54l3.62,1.39,7.15-5.04,1.88-3.21-8.51-4.49c-1.58-1.01-3.12-2.84-4.79-4.38l-3.67,4.55,1.95,5.41c.72,1.99.88,4.08-.09,6.07-2.44,5-9.14,4.04-13.4,3.52l-5.91-.71c-.09,6.28-5.24,8.52-10.96,9.24-12.25,1.54-5.59,3.66-17.47-2.12-1.71-.83-3-2.86-3.42-4.28-.68-2.34.54-4.1,1.47-6.27,1.37-3.21,3.17-6.57,5.44-9.13,1.9-9.53-4.27.21-10.88-10.76l-.37-5.95c-.14-2.2-.41-4.02,1.49-5.62,1.28-1.08,2.83-3.29,4.23-4.02l11.05-5.78c-.25-1.92-2.04-3.25-3.7-4.27l-.9-2.55c-1.14-.98-2.54-2.99-1.98-4.53.71-1.95,2.22-3.48,3.61-4.81,3.57-3.42,8.37-3.11,10.8-1.48.59.4.47,2.08.45,3.5l5.24.28c1.86,3.46-1.91,5.84-.17,7.58,1.61,1.61,2-2.57,7.77-2.89.64-1.62.5-4.84,3.29-5.36,1.25-.23,3.43.98,4.74,1.63,2.7-1.45,4.85-3.5,5.99-6.57l6.23-.14c1.06-4.14,2.3-18.36,6.55-20.34,2.26-8.02,6.56-5.26,13.61-7.26,3.66-1.04,6.61-.71,10.14.5,9.84,3.35,11.28,1.55,22.19,4.8l7.58,2.25c2.61.78,4.88-.36,7.65-.67,3.51-.39,7.39,1.05,10.94,1.07,2.61.02,5.6-.38,8.06.14l5.2,1.11c3.08.66,6.09,1.53,9.24,1.68,3.64.16,7.4,1.27,10.91,1.19,3.24-.07,6.56-.64,9.63.04,2.59.58,4.92.84,7.64.98l8.41.41c2.56.12,3.26,1.17,4.17,3.33,4.89,11.6,2.57,8.72,11.63,18.11,3.13,3.25,5.3,5.93,5.36,10.85l.09,7.17.12,12.16.23,10.49c.04,1.69-.19,3.65-1.16,4.81-3.29,3.95-7.87-1.94-19.77,2.7-6.54,2.55-8.32,2.19-14.51,5.13-4.75,2.25-9.69,2.61-15.03,2.61-3.04,0-6.16,1.22-9.08,2.09-10.61,3.19-17.37,1.7-27.02,4.7-2.75.85-5.27,3.23-7.61,4.66-2.63,1.61-4.98-.81-6.55-2.32-2.34-2.25-4.56.35-6.6,1.01l-4.66,1.5-5.31-3.46c-2.71,5.58-14.89,6.71-18.76,1.43l-6.9,3.99c-2.36,6.24-6.1,6.72-12.92,7.65-3.47.48-8.25-1.68-9.88-4.71-2.13-3.97,1.16-7.39,2.54-10.43l3.71-8.16ZM451.56,846.48l9.22-1.35,5.38-1c2.76-.51,5.58-2.38,8.22-3.32l12.98-4.6c3.45-1.22,7.98.69,11.45-1.21,2.37-1.29,1.07-4.11.61-6.07l-1.35-5.71c-.91-3.84,2.16-6.65.76-7.11l-1.91-.63c-2.79-.92-4.06-.2-6.38,1.36-1.6,1.08-4.86.2-6.86.04-11.84-.96-6.61,1.87-18.73-1.74-3.46-1.03-6.85-1.19-10.27-1.66-15.1-2.09-14.61,2.24-21.6,1.34-15.69-2.01-18.91,5.33-21.95-.3-1.32-2.45-1.39-6.68,1.63-8.16l7.35-.67c4.42-.4,8.75-.18,13.38-.29,7.07-.16,4.55-2.92,19.11-1.84,8.94.66,18.61,4.4,22.58,4.02l7.87-.75c1.18-.11,3.22-1.76,4.52-1.42,3.14.8,6.25.89,8.74-.11-.64-3.59-4.11-3.98-5.56-6.25-2.65-4.16-4.69-9.01-6.89-13.28l-6.38-.46-8.37-.39c-5.52-.26-8.79-.14-13.24-1.31-1.93-.51-5.14.25-6.99-.36-12.93-4.21-13.05-1.57-24.35-3.48-9.74-1.65-9.03,2.63-25.61-2.61-10.44-3.3-6.04-.4-14.5-2.49-8.57-2.11-7.19-3.71-16.69-.94l4.33,5.5c8.02,10.17,17.24,10.74,21.68,19.04,1.84,3.43,6.04.98,8.22,7.44,1.02.51,3.95,1.36,4.33,2.49,2.1,6.55-1.4,12.2-1.55,16.43-.16,4.59-1.33,8.54-3.58,12.49l.65,5c.06.42.47,1.35.64,1.7.13.26.94-1.12,1.23-1.22,7.62-2.69,7.28-3.16,15.5-2.57,7.53.54,8.68-.94,12.2-1.46l8.88-1.31,7.88-.65c1.61-.13,3.03-.69,4.51-1.16l9.61-3.07c1.61-.51,3.25-2.58,5.26-2.58h10.83c3.4-.02,13.12-5.54,14.25-1.64.45,1.56-.87,4.24-2.2,4.52-3.38.73-6.02,2.66-9.25,2.88l-11.71.79c2.59-.17-18.96,6.04-22.77,6.62-4.62.71-9.07,1.35-13.56,2.29-6.59,1.39-.57.81-8.74.38-2.94-.15-11.15.23-13.32.76-8.37,2.03-3.45-.19-9.86-.34-.39,2.11-2.44,11.47-.1,11.51l1.62.03c11.39,1.7,8.96-4.8,28.29-6.67,13.46-1.3,14.16-3.52,20.53-4.45ZM361.44,792.17c3.1-3.17,5.81-2.8,10.44-1.31-2.82-3.74-6.36-6.4-10.02-9.44l-3.23-5.26c-.98,2.04-.83,3.65-1.2,5.52-.9,4.63-2.03,8.67-1.45,13.5l3.01,2.63c.35-2.64.93-4.1,2.44-5.65ZM380.72,798.22c1.38,4.48,3.46,2.75,4.89,6.14.9,2.13,2.04-5.5-4.89-6.14ZM347.89,809c.08.65,1.41,1.98,1.86,1.56l1.51-1.42c-.85-1.14-1.9-2.86-1.58-3.85.28-.87,1.09-2.27,1.59-3.43.45-1.05-2.17-3.02-3.11-3.37l-3.27,2.74c-4.41,3.7,2.35,2.12,3.01,7.76ZM376.55,806.57l-3.86-5.02-5.47.61c-.45.05-1.43.43-1.8.6-4.26,2.02,9.78,3.97,11.12,3.81ZM334.71,811.39l-5.48-3.42c-.48,1.06-.7,3.19-.08,3.77,1.65,1.57,4.81,1.08,5.56-.35ZM319.85,816.15c.8-3.08.55-5.12-.34-7.65l-3.46,2.61,3.8,5.04ZM370.93,810.03l-6.57.51c-.41.03-1.37.52-1.7.77-.25.19.29,1.21.6,1.26.59.09,7.99-.74,7.67-2.54ZM395.72,842.48c.3-4.22-1.7-10.14,1.71-13.74-5.23-.02-9.45.08-13.19-5.29-.84-1.21,1.42-2.86,2.11-2.66l3.17.95c.17.05,10.69-3.36,9.43-4.69-2.78-2.93-2.23-.1-6.41-4.39-1.19,1.35-4.03,4.07-5.77,2.87-2.26-1.56-4.54-3.93-7.47-2.25-.97,1.96,3.45,4.19,3.17,4.9l-.72,1.81-1.03,5.59c6.34,1.96,5.46.06,9.39,4.96,2.78,3.46,1,7.86.58,11.69-.23,2.13-.76,15.07.39,15.37l2.51.66c.52.14,1.53.13,1.98.07s.69-1.64.43-2.2c-1.76-3.76-.59-9.16-.28-13.63ZM327.75,838.08c-2.99-1.79-3.66-4.46-2.3-7.16.86-1.71,1.91-3.85,3.48-4.93,8.18-5.66,5.92-1.23,14.01-6.34l3.01.36-4.47-3.58c-2.5,4.91-10.54,5.51-14.68,3.48l-2.44,6.17c3.83,6.38-5.68,9.89-4.45,12.82.85,2.02,1.34,3.48,1.77,5.54l6.06-6.35ZM350.98,826.33c.69-.56,2.09-1.76,2.09-2.37l-.03-5.61-7.12,1.66,3.4,2.83,1.67,3.48ZM310.54,840.62c-.59-4.58.21-7.98,3.47-10.72-1.56-1.12-2.99-2.05-3.31-2.92-.37-1.01.83-2.65,1.48-3.97.53-1.21-1.9-3.24-3.61-4.01-4.48,2.42-4.02,4.17-10.7,6.63-.18,1.35-.19,3.25-.03,5.13l8.31-.04c2.3-.01,4.22,2.58,3.2,4.37-1.07,1.89-2.02,4.99,1.2,5.52ZM370.52,824.42c.83-1.39,1.5-3.05,1.83-4.36-.27-1.58-2.52-.81-3.63-.75l-7.53.42c-.6,2.79,1.16,4.47,3.07,5.52,1.69.93,5.13,1.06,6.26-.84ZM359.43,837.2c1.24-2.34,2.03-3.92,2.64-5.93l1.43-4.75-6.02.37c-1.04.07-2.28.68-2.61,1.62l-1.57,4.41c1.07,2.45,3.17,3.77,6.14,4.28ZM337.72,848.84l-3.38-3.77c-3.24-3.61,6-10.95,7.78-13.36l-6.33-1.18c-.27-.51-.05,1.22.24,1.6,1.1,1.42.61,3.28-.81,4.63-1.67,1.58-3.04,2.18-5.72,2.21-.12,1.31-.1,3.62-.42,4.73l-1.47,5.16h10.09ZM380.69,858.81c1.87-2,.95-4.04.83-6.09-.22-3.85-.19-7.64.02-11.5.03-.57.48-1.94.23-2.39s-1.63-.09-2.12-.3l-4.27-1.8c-1.95-.82-3.77,2.33-3.01,4.17.44,1.07,1.11,2.72,1.51,3.57,6.53,5.97,2.75,14.94,4.91,15.14.44.04,1.59-.47,1.89-.79ZM306.64,859.03c3.87-.16,6.2-3.95,5.65-7.06l-5.27-1.29c-1.69,1.18-3.35,3.79-4.49,6.2.9.88,3.01,2.2,4.11,2.16ZM354.76,867.65c-.66-2.68-.73-3.82.51-5.05,3.05-3.01,3.04.78,9.6-3.6-3.09-1.27-5.3-1.89-6.71-4.84-.92,2.37-1.81,3.81-3.53,5.36-1.38,1.24-7.44,7.05-5.88,8.63.24.24,1.18.58,1.51.5l4.49-1.01Z"/>
    <path d="M482.06,800.26c-5.68-1.66-4.94,2.52-13.06.19-5.05-1.45-9.84-1.95-15.1-2-1.79-.02-4.06-1.2-5.87-1.27l-11.04-.45c.9.04-14.24-1.73-13.66-1.61-6.52-1.38-12.64-1.71-19.39-1.55-2.18.05-5-1.17-7.01-.92-1.85.23-3.3.55-4.51-.73-1.02-1.08-.81-2.71-.02-4.23.88-1.68,2.3-2.2,4.23-2.1l7.92.44c7.61.42,14.59,1.09,22.14,2.32,2.2.36,5,.42,7.27.57l7.46.48c7.02.45,22.08,2.39,28.83,3.93,4.37,1,9.22-.49,13.15,2.51,1.1.84-.07,3.96-1.33,4.43Z"/>
    <path d="M449.7,827.08l-7.09,1.78c-16.67,4.18-21.3,1.15-34.28,3.54-1.34.25-3.1-2.17-2.94-3.38.25-1.86,1.19-3.94,3.2-4.39,1.4-.31,2.51-.22,3.91-.18l12.4.36c6.16.18,13.38-.02,18.32-4.61,3.66-.3,7.34-.47,10.88-1.03,2.34-.37,4.25-.93,6.61-.47l6.3,1.21c1.49.29,4.54.05,5.94-.34,2.67-1,4.78-1.1,7.47-.82,6.95.71,11.54-1.1,12.92,2.4.33.83-.03,3.36-.92,3.66-4.72,1.46-10.08-.18-14.83.66l-7.32,1.29c-2.25.4-8.11-2.25-14.43-.11-1.47.5-4.37-.03-6.14.42Z"/>
    <path d="M288.37,865.03c-1.88,9.25-15.03,12.74-23.46,8.62-3.72-1.82-5.03-6.1-5.22-9.83,2.18-1.7.49-3.09.2-4.9-.58-3.52,2.63-6.78,5.49-8.27,4.93-2.56-1.05-6.61,8.08-10.63l6.45-2.84c5.93,1.51,3.48.74,6.22,4.61,4.37,1,6.28,4.47,6.72,8.6,1.17,11.09-2.73,6.06-4.47,14.63ZM280.49,863c.6-1.92-1.42-4.55.19-6.15l4.51-4.49c-2.99-1.53-5.55-2.76-7.11-4.63-.22-.26-.24-1.78-.54-1.68-.32.1-1.1.3-1.14.61l-.15,1.25c-.12,1.01-.53,2.46-1.14,3.1-.48.5-1.94.76-3.04.69-1.52-.09-4.4,2.2-3.58,3.52.95,1.51,1.71,2.98,1.53,4.66-.11,1.1-2.1,2.2-3.32,2.81-.85.42-1.02,2.85-.54,3.62,2.8,4.48,12.8,1.55,14.31-3.28Z"/>
    <path d="M233.57,858.18c-3.35-.75-6.25-4.03-7.04-7.1-.63-2.44.56-5.05,1.53-7.34-.87-1.48-2.14-3.25-2.89-4.79-1.76-3.62.41-7.85,3.13-10.08,2.46-2.02,5.07-3.41,8.33-2.59,3.72-1.91,8.16-2.47,12.07-.04,1.74,1.08,2.98,3.59,3.86,5.68,5.09,2.18,7.31,7.71,5.49,13.03-1.4,4.1-4.19,8.26-8.71,9.26-1.96.43-2.94,1.13-4.59,2.37-2.74,2.05-7.38,2.45-11.16,1.6ZM250.71,840.87c.32-.77-1.41-2.24-2.29-2.19-3.1.18-5.18-2-5.31-5.39-5.94,5.43-8.22-2.11-10.9.26-.58.52-.96,2.48-.47,3.12l4.74,6.18c.66.85,1.07,3.63.13,4.09-.84.41-2.91.87-3.82,1.12-1.03,1.36,2.63,4.12,4.07,2.79s2.71-3.34,4.76-3.59c4.71-.58,6.14.69,9.09-6.38Z"/>
  </g>
</svg>