<?xml version="1.0" encoding="UTF-8"?>
<svg id="Layer_1" data-name="Layer 1" xmlns="http://www.w3.org/2000/svg" viewBox="0 0 1101.55 133.74">
  <defs>
    <style>
      .cls-1 {
        fill: #231f20;
      }
    </style>
  </defs>
  <path class="cls-1" d="M45.93,47.89l-16.67-3.92c-4.76-1.12-8.31-2.92-10.64-5.39-2.33-2.47-3.5-5.76-3.5-9.87,0-5.04,1.91-9.03,5.74-11.97s8.92-4.41,15.27-4.41c5.69,0,10.22,1.4,13.58,4.2,3.36,2.8,5.23,6.72,5.6,11.76h13.86c-.37-5.88-1.94-10.92-4.69-15.12-2.75-4.2-6.54-7.44-11.34-9.73-4.81-2.29-10.43-3.43-16.88-3.43-6.91,0-13,1.21-18.28,3.64-5.28,2.43-9.36,5.84-12.25,10.22-2.9,4.39-4.34,9.48-4.34,15.26,0,7.28,2.12,13.28,6.37,18,4.25,4.72,10.48,8.01,18.7,9.87l16.67,3.78c4.85,1.12,8.4,2.94,10.64,5.46,2.24,2.52,3.36,5.79,3.36,9.8,0,4.95-1.98,8.92-5.95,11.9-3.97,2.99-9.31,4.48-16.03,4.48-6.35,0-11.44-1.42-15.26-4.27-3.83-2.85-5.79-6.7-5.88-11.55H0c.37,5.7,2.03,10.67,4.97,14.91,2.94,4.25,7,7.52,12.18,9.8s11.18,3.43,18,3.43c7.19,0,13.46-1.21,18.83-3.64,5.37-2.43,9.52-5.88,12.46-10.36,2.94-4.48,4.41-9.75,4.41-15.82,0-7.09-2.08-12.91-6.23-17.44-4.16-4.53-10.39-7.72-18.7-9.59Z"/>
  <polygon class="cls-1" points="99.57 13.16 86.4 13.16 86.4 34.59 72.96 34.59 72.96 45.65 86.4 45.65 86.4 103.07 99.57 103.07 99.57 45.65 113.01 45.65 113.01 34.59 99.57 34.59 99.57 13.16"/>
  <path class="cls-1" d="M166.51,70.72c0,7.38-1.59,12.95-4.76,16.73-3.18,3.78-7.8,5.67-13.87,5.67-5.04,0-9.03-1.56-11.97-4.69-2.94-3.13-4.41-8.33-4.41-15.61v-38.23h-13.16v42.57c0,8.4,2.17,15.1,6.51,20.1,4.34,5,10.48,7.49,18.42,7.49,5.04,0,9.66-1.12,13.86-3.36,4.2-2.24,7.28-5.13,9.24-8.68l1.4,10.36h11.76V34.59h-13.02v36.13Z"/>
  <path class="cls-1" d="M243.53,45.65c-2.33-4.29-5.58-7.54-9.73-9.73-4.16-2.19-8.89-3.29-14.21-3.29-6.72,0-12.51,1.59-17.36,4.76-4.86,3.18-8.59,7.49-11.2,12.95-2.61,5.46-3.92,11.69-3.92,18.7s1.28,13.07,3.85,18.49c2.57,5.42,6.23,9.64,10.99,12.67,4.76,3.03,10.46,4.55,17.08,4.55,5.51,0,10.43-1.21,14.77-3.64s7.63-5.93,9.87-10.5l1.12,12.46h11.76V0h-13.02v45.65ZM240.73,81.22c-1.77,3.64-4.27,6.49-7.49,8.54-3.22,2.05-7.07,3.08-11.55,3.08s-8.31-1.03-11.48-3.08c-3.17-2.05-5.6-4.9-7.28-8.54-1.68-3.64-2.52-7.84-2.52-12.6s.84-8.8,2.52-12.39c1.68-3.59,4.11-6.44,7.28-8.54s7-3.15,11.48-3.15,8.33,1.03,11.55,3.08c3.22,2.05,5.72,4.88,7.49,8.47,1.77,3.6,2.66,7.77,2.66,12.53s-.89,8.96-2.66,12.6Z"/>
  <rect class="cls-1" x="269.99" y="34.59" width="13.16" height="68.48"/>
  <path class="cls-1" d="M276.44.98c-2.33,0-4.37.84-6.09,2.52-1.73,1.68-2.59,3.73-2.59,6.16s.86,4.37,2.59,6.09c1.73,1.73,3.76,2.59,6.09,2.59s4.48-.86,6.16-2.59c1.68-1.73,2.52-3.76,2.52-6.09s-.84-4.48-2.52-6.16c-1.68-1.68-3.73-2.52-6.16-2.52Z"/>
  <path class="cls-1" d="M346.18,37.39c-5.32-3.08-11.44-4.62-18.35-4.62s-13.05,1.54-18.42,4.62c-5.37,3.08-9.59,7.33-12.67,12.74-3.08,5.42-4.62,11.62-4.62,18.63s1.54,13.21,4.62,18.63c3.08,5.42,7.3,9.66,12.67,12.74,5.37,3.08,11.5,4.62,18.42,4.62s13.02-1.54,18.35-4.62,9.52-7.33,12.6-12.74c3.08-5.41,4.62-11.62,4.62-18.63s-1.54-13.21-4.62-18.63c-3.08-5.41-7.28-9.66-12.6-12.74ZM347.37,81.36c-1.92,3.64-4.55,6.49-7.91,8.54-3.36,2.05-7.24,3.08-11.62,3.08s-8.26-1.03-11.62-3.08c-3.36-2.05-6-4.9-7.91-8.54-1.91-3.64-2.87-7.84-2.87-12.6s.96-9.08,2.87-12.67c1.91-3.59,4.55-6.42,7.91-8.47,3.36-2.05,7.23-3.08,11.62-3.08s8.26,1.03,11.62,3.08c3.36,2.05,6,4.88,7.91,8.47,1.91,3.6,2.87,7.82,2.87,12.67s-.96,8.96-2.87,12.6Z"/>
  <polygon class="cls-1" points="420.96 1.82 407.23 1.82 407.23 103.07 409.61 103.07 420.96 103.07 465.49 103.07 465.49 90.33 420.96 90.33 420.96 1.82"/>
  <path class="cls-1" d="M515.55,35.64c-4.25-2.01-9.22-3.01-14.91-3.01s-11.04.98-15.47,2.94c-4.43,1.96-7.87,4.72-10.29,8.26-2.43,3.55-3.64,7.7-3.64,12.46h11.48c0-4.2,1.52-7.44,4.55-9.73,3.03-2.29,7.3-3.43,12.81-3.43,3.08,0,5.83.49,8.26,1.47,2.43.98,4.34,2.61,5.74,4.9,1.4,2.29,2.1,5.35,2.1,9.17v1.96l-21.57,1.68c-8.03.65-14.28,2.87-18.77,6.65-4.48,3.78-6.72,8.8-6.72,15.05s2.08,11.16,6.23,14.98c4.15,3.83,9.87,5.74,17.16,5.74,5.51,0,10.43-1.14,14.77-3.43s7.4-5.39,9.17-9.31l1.4,11.06h11.21v-42.99c0-6.16-1.19-11.27-3.57-15.33-2.38-4.06-5.7-7.09-9.94-9.1ZM516.32,73.52c0,6.44-1.78,11.55-5.32,15.33-3.55,3.78-8.45,5.67-14.7,5.67-4.3,0-7.68-.91-10.15-2.73-2.47-1.82-3.71-4.55-3.71-8.19,0-3.36,1.28-6.11,3.85-8.26,2.57-2.15,6.74-3.5,12.53-4.06l17.51-1.4v3.64Z"/>
  <polygon class="cls-1" points="559.88 13.16 546.71 13.16 546.71 34.59 533.27 34.59 533.27 45.65 546.71 45.65 546.71 103.07 559.88 103.07 559.88 45.65 573.32 45.65 573.32 34.59 559.88 34.59 559.88 13.16"/>
  <path class="cls-1" d="M618.69,34.03c-1.31-.28-2.5-.49-3.57-.63-1.07-.14-2.22-.21-3.43-.21-5.32,0-9.76,1.42-13.3,4.27-2.63,2.11-4.54,4.67-5.73,7.68l-.85-10.41h-12.32v68.34h13.16v-36.27c0-6.63,1.8-11.74,5.39-15.33,3.59-3.59,8.52-5.39,14.77-5.39h5.88v-12.04Z"/>
  <path class="cls-1" d="M672.47,37.39c-5.32-3.08-11.44-4.62-18.35-4.62s-13.05,1.54-18.42,4.62c-5.37,3.08-9.59,7.33-12.67,12.74-3.08,5.42-4.62,11.62-4.62,18.63s1.54,13.21,4.62,18.63c3.08,5.42,7.3,9.66,12.67,12.74,5.37,3.08,11.5,4.62,18.42,4.62s13.02-1.54,18.35-4.62c5.32-3.08,9.52-7.33,12.6-12.74,3.08-5.41,4.62-11.62,4.62-18.63s-1.54-13.21-4.62-18.63c-3.08-5.41-7.28-9.66-12.6-12.74ZM673.66,81.36c-1.91,3.64-4.55,6.49-7.91,8.54-3.36,2.05-7.24,3.08-11.62,3.08s-8.26-1.03-11.62-3.08c-3.36-2.05-6-4.9-7.91-8.54-1.91-3.64-2.87-7.84-2.87-12.6s.96-9.08,2.87-12.67c1.91-3.59,4.55-6.42,7.91-8.47,3.36-2.05,7.23-3.08,11.62-3.08s8.26,1.03,11.62,3.08c3.36,2.05,6,4.88,7.91,8.47,1.91,3.6,2.87,7.82,2.87,12.67s-.96,8.96-2.87,12.6Z"/>
  <path class="cls-1" d="M775.96,32.63c-6.16,0-11.34,1.63-15.54,4.9-3.08,2.4-5.28,5.38-6.6,8.93-1.44-3.55-3.62-6.53-6.56-8.93-4.02-3.27-9.06-4.9-15.12-4.9-5.42,0-10.01,1.28-13.79,3.85-2.92,1.98-5.12,4.34-6.62,7.07l-1.29-8.96h-11.76v68.48h13.16v-40.61c0-3.64.7-6.79,2.1-9.45s3.34-4.71,5.81-6.16c2.47-1.45,5.34-2.17,8.61-2.17,4.67,0,8.35,1.42,11.06,4.27,2.71,2.85,4.06,6.98,4.06,12.39v41.73h13.02v-40.61c0-3.64.7-6.81,2.1-9.52,1.4-2.71,3.34-4.78,5.81-6.23,2.47-1.45,5.34-2.17,8.61-2.17,4.67,0,8.38,1.47,11.13,4.41,2.75,2.94,4.13,7.12,4.13,12.53v41.59h12.88v-44.81c0-7.93-2.24-14.19-6.72-18.77-4.48-4.57-10.64-6.86-18.49-6.86Z"/>
  <path class="cls-1" d="M868.38,37.18c-4.76-3.03-10.41-4.55-16.95-4.55-5.42,0-10.34,1.19-14.77,3.57-4.43,2.38-7.77,5.95-10.01,10.71l-.98-12.32h-11.9v99.15h13.16v-41.87c2.24,4.2,5.51,7.42,9.8,9.66,4.29,2.24,9.19,3.36,14.7,3.36,6.81,0,12.58-1.59,17.29-4.76,4.71-3.17,8.31-7.51,10.78-13.02,2.47-5.51,3.71-11.76,3.71-18.77s-1.29-13.19-3.85-18.56c-2.57-5.37-6.23-9.57-10.99-12.6ZM867.47,81.22c-1.73,3.64-4.18,6.51-7.35,8.61-3.17,2.1-7,3.15-11.48,3.15s-8.33-1.03-11.55-3.08c-3.22-2.05-5.7-4.92-7.42-8.61-1.73-3.69-2.59-7.82-2.59-12.39s.86-8.96,2.59-12.6c1.73-3.64,4.2-6.49,7.42-8.54,3.22-2.05,7.07-3.08,11.55-3.08s8.31,1.03,11.48,3.08c3.17,2.05,5.62,4.9,7.35,8.54,1.73,3.64,2.59,7.84,2.59,12.6s-.86,8.68-2.59,12.32Z"/>
  <path class="cls-1" d="M934.62,90.75c-3.27,2.05-7.47,3.08-12.6,3.08-7,0-12.37-2.22-16.1-6.65-3.23-3.84-5.06-9.1-5.49-15.77l52.97-.13v-4.9c0-6.81-1.33-12.74-3.99-17.79-2.66-5.04-6.4-8.96-11.2-11.76-4.81-2.8-10.48-4.2-17.02-4.2s-12.44,1.54-17.43,4.62c-5,3.08-8.92,7.33-11.76,12.74-2.85,5.42-4.27,11.72-4.27,18.91s1.45,13.33,4.34,18.7c2.89,5.37,6.91,9.57,12.04,12.6,5.13,3.03,11.02,4.55,17.65,4.55,8.49,0,15.5-2.01,21.01-6.02,5.51-4.01,9.1-9.66,10.78-16.94h-12.32c-1.12,3.92-3.32,6.91-6.58,8.96ZM909.9,46.56c3.13-1.91,6.88-2.87,11.27-2.87,5.79,0,10.41,1.73,13.86,5.18,3.45,3.46,5.18,8.03,5.18,13.72h-39.55c.39-2.82,1.08-5.36,2.09-7.63,1.63-3.69,4.01-6.49,7.14-8.4Z"/>
  <polygon class="cls-1" points="981.12 13.16 967.95 13.16 967.95 34.59 954.51 34.59 954.51 45.65 967.95 45.65 967.95 103.07 981.12 103.07 981.12 45.65 994.56 45.65 994.56 34.59 981.12 34.59 981.12 13.16"/>
  <polygon class="cls-1" points="1021.3 13.16 1008.14 13.16 1008.14 34.59 994.7 34.59 994.7 45.65 1008.14 45.65 1008.14 103.07 1021.3 103.07 1021.3 45.65 1034.75 45.65 1034.75 34.59 1021.3 34.59 1021.3 13.16"/>
  <path class="cls-1" d="M1089.22,81.78c-1.12,3.92-3.32,6.91-6.58,8.96-3.27,2.05-7.47,3.08-12.6,3.08-7,0-12.37-2.22-16.1-6.65-3.23-3.84-5.06-9.1-5.49-15.77l52.97-.13v-4.9c0-6.81-1.33-12.74-3.99-17.79-2.66-5.04-6.4-8.96-11.2-11.76-4.81-2.8-10.48-4.2-17.02-4.2s-12.44,1.54-17.43,4.62c-5,3.08-8.92,7.33-11.76,12.74-2.85,5.42-4.27,11.72-4.27,18.91s1.45,13.33,4.34,18.7c2.89,5.37,6.91,9.57,12.04,12.6,5.13,3.03,11.02,4.55,17.65,4.55,8.49,0,15.5-2.01,21.01-6.02,5.51-4.01,9.1-9.66,10.78-16.94h-12.32ZM1057.93,46.56c3.13-1.91,6.88-2.87,11.27-2.87,5.79,0,10.41,1.73,13.86,5.18,3.45,3.46,5.18,8.03,5.18,13.72h-39.55c.39-2.82,1.08-5.36,2.09-7.63,1.63-3.69,4.01-6.49,7.14-8.4Z"/>
</svg>