<?xml version="1.0" encoding="UTF-8"?>
<svg id="Layer_1" data-name="Layer 1" xmlns="http://www.w3.org/2000/svg" viewBox="0 0 506.38 103.21">
  <defs>
    <style>
      .cls-1 {
        fill: #231f20;
      }
    </style>
  </defs>
  <path class="cls-1" d="M36.97,0L0,101.25h14.28l8.96-25.21h42.57l9.1,25.21h14.42L52.24,0h-15.26ZM27.45,64.14l15.4-42.29c.37-1.03.7-2.08.98-3.15.28-1.07.51-1.98.7-2.73.09.75.33,1.66.7,2.73.37,1.07.7,2.12.98,3.15l15.54,42.29H27.45Z"/>
  <path class="cls-1" d="M162.59,68.34c-.65,2.05-1.24,3.95-1.75,5.67-.51,1.73-.98,3.46-1.4,5.18-.42,1.73-.82,3.53-1.19,5.39-.28-1.31-.61-2.71-.98-4.2-.37-1.49-.79-2.99-1.26-4.48-.47-1.49-.86-2.92-1.19-4.27-.33-1.35-.68-2.45-1.05-3.29l-11.34-35.57h-13.44l-11.48,35.57c-.47,1.49-.98,3.1-1.54,4.83-.56,1.73-1.1,3.55-1.61,5.46-.51,1.91-.96,3.9-1.33,5.95-.65-2.99-1.31-5.81-1.96-8.47-.65-2.66-1.4-5.25-2.24-7.77l-11.34-35.57h-13.58l22.41,68.48h13.02l11.9-36.55c1.21-4.11,2.17-7.4,2.87-9.87.7-2.47,1.24-4.55,1.61-6.23.37,1.87.91,4.13,1.61,6.79.7,2.66,1.61,5.72,2.73,9.17l11.9,36.69h12.46l23.39-68.48h-13.72l-11.48,35.57Z"/>
  <path class="cls-1" d="M303.47,30.81c-6.16,0-11.34,1.63-15.54,4.9-3.08,2.4-5.28,5.38-6.6,8.93-1.44-3.55-3.62-6.53-6.57-8.93-4.01-3.27-9.06-4.9-15.12-4.9-5.42,0-10.01,1.28-13.79,3.85-2.92,1.98-5.12,4.34-6.62,7.07l-1.29-8.96h-11.76v68.48h13.16v-40.61c0-3.64.7-6.79,2.1-9.45,1.4-2.66,3.34-4.71,5.81-6.16,2.47-1.45,5.34-2.17,8.61-2.17,4.67,0,8.35,1.42,11.06,4.27,2.71,2.85,4.06,6.98,4.06,12.39v41.73h13.02v-40.61c0-3.64.7-6.81,2.1-9.52,1.4-2.71,3.34-4.78,5.81-6.23,2.47-1.45,5.34-2.17,8.61-2.17,4.67,0,8.38,1.47,11.13,4.41,2.75,2.94,4.13,7.12,4.13,12.53v41.59h12.88v-44.81c0-7.93-2.24-14.19-6.72-18.77-4.48-4.57-10.64-6.86-18.49-6.86Z"/>
  <path class="cls-1" d="M384.34,33.82c-4.25-2.01-9.22-3.01-14.92-3.01s-11.04.98-15.47,2.94c-4.43,1.96-7.87,4.71-10.29,8.26-2.43,3.55-3.64,7.7-3.64,12.46h11.48c0-4.2,1.52-7.44,4.55-9.73,3.03-2.29,7.3-3.43,12.81-3.43,3.08,0,5.83.49,8.26,1.47,2.43.98,4.34,2.62,5.74,4.9,1.4,2.29,2.1,5.35,2.1,9.17v1.96l-21.57,1.68c-8.03.65-14.28,2.87-18.77,6.65-4.48,3.78-6.72,8.8-6.72,15.05s2.08,11.16,6.23,14.98c4.15,3.83,9.87,5.74,17.16,5.74,5.51,0,10.43-1.14,14.77-3.43,4.34-2.29,7.4-5.39,9.17-9.31l1.4,11.06h11.2v-42.99c0-6.16-1.19-11.27-3.57-15.33-2.38-4.06-5.7-7.09-9.94-9.1ZM385.11,71.7c0,6.44-1.78,11.55-5.32,15.33-3.55,3.78-8.45,5.67-14.7,5.67-4.3,0-7.68-.91-10.15-2.73-2.47-1.82-3.71-4.55-3.71-8.19,0-3.36,1.28-6.11,3.85-8.26,2.57-2.15,6.74-3.5,12.53-4.06l17.51-1.4v3.64Z"/>
  <path class="cls-1" d="M446.45,30.81c-4.86,0-9.31,1.1-13.37,3.29-4.06,2.2-7.17,5.25-9.31,9.17l-1.4-10.5h-11.9v68.48h13.16v-36.27c0-6.72,1.7-12.09,5.11-16.1,3.41-4.01,8.19-6.02,14.35-6.02,5.04,0,9.05,1.52,12.04,4.55,2.99,3.04,4.48,8.01,4.48,14.92v38.93h13.16v-41.87c0-8.77-2.15-15.73-6.44-20.87-4.3-5.13-10.92-7.7-19.89-7.7Z"/>
  <path class="cls-1" d="M490,58.05c.37,5.09.79,9.36,1.26,12.81h10.22c.47-3.45.89-7.7,1.26-12.74.37-5.04.68-10.53.91-16.46.23-5.93.35-11.97.35-18.14V0h-15.12v23.53c0,6.07.09,12.07.28,18,.19,5.93.47,11.44.84,16.53Z"/>
  <path class="cls-1" d="M503.44,86.26c-1.96-1.96-4.29-2.94-7-2.94s-5.07.98-7.07,2.94c-2.01,1.96-3.01,4.3-3.01,7s1,5.04,3.01,7c2.01,1.96,4.36,2.94,7.07,2.94s5.04-.98,7-2.94c1.96-1.96,2.94-4.29,2.94-7s-.98-5.04-2.94-7Z"/>
</svg>