<?xml version="1.0" encoding="UTF-8"?>
<svg id="Layer_1" data-name="Layer 1" xmlns="http://www.w3.org/2000/svg" viewBox="0 0 406.67 105.03">
  <defs>
    <style>
      .cls-1 {
        fill: #231f20;
      }
    </style>
  </defs>
  <path class="cls-1" d="M73.94,6.72c-7.28-4.48-15.73-6.72-25.35-6.72s-17.93,2.24-25.21,6.72c-7.28,4.48-13,10.64-17.16,18.49C2.08,33.05,0,42.11,0,52.38s2.05,19.47,6.16,27.31c4.11,7.84,9.83,13.98,17.16,18.42,7.33,4.44,15.71,6.65,25.14,6.65s18.09-2.22,25.42-6.65c7.33-4.43,13.07-10.59,17.22-18.49,4.15-7.89,6.23-16.97,6.23-27.24s-2.08-19.33-6.23-27.17c-4.15-7.84-9.87-14-17.15-18.49ZM78.63,72.82c-2.85,5.88-6.84,10.48-11.97,13.79-5.13,3.31-11.16,4.97-18.06,4.97s-12.79-1.63-17.93-4.9c-5.13-3.27-9.13-7.84-11.97-13.72-2.85-5.88-4.27-12.74-4.27-20.59s1.42-14.7,4.27-20.59c2.85-5.88,6.84-10.43,11.97-13.65,5.13-3.22,11.11-4.83,17.93-4.83s12.93,1.61,18.06,4.83c5.13,3.22,9.12,7.77,11.97,13.65,2.85,5.88,4.27,12.74,4.27,20.59s-1.43,14.56-4.27,20.45Z"/>
  <path class="cls-1" d="M143.4,32.63c-5.32,0-9.99,1.14-14,3.43-4.02,2.29-7.1,5.3-9.24,9.03V0h-13.16v102.93h13.16v-37.25c0-3.92.75-7.47,2.24-10.64,1.49-3.17,3.71-5.69,6.65-7.56,2.94-1.87,6.51-2.8,10.71-2.8,3.27,0,6.14.65,8.61,1.96,2.47,1.31,4.39,3.39,5.74,6.23,1.35,2.85,2.03,6.61,2.03,11.27v38.93h13.16v-41.87c0-8.77-2.15-15.73-6.44-20.87-4.29-5.13-10.78-7.7-19.46-7.7Z"/>
  <polygon class="cls-1" points="210.34 45.65 247.31 45.65 210.34 92.43 210.34 103.07 263.69 103.07 263.69 92.01 226.44 92.01 263.69 45.37 263.69 34.59 210.34 34.59 210.34 45.65"/>
  <path class="cls-1" d="M320.27,70.72c0,7.38-1.59,12.95-4.76,16.74-3.18,3.78-7.8,5.67-13.87,5.67-5.04,0-9.03-1.56-11.97-4.69-2.94-3.13-4.41-8.33-4.41-15.62v-38.23h-13.16v42.57c0,8.4,2.17,15.1,6.51,20.1,4.34,5,10.48,7.49,18.42,7.49,5.04,0,9.66-1.12,13.86-3.36,4.2-2.24,7.28-5.13,9.24-8.68l1.4,10.36h11.76V34.59h-13.02v36.13Z"/>
  <polygon class="cls-1" points="366.06 13.16 352.9 13.16 352.9 34.59 339.45 34.59 339.45 45.65 352.9 45.65 352.9 103.07 366.06 103.07 366.06 45.65 379.5 45.65 379.5 34.59 366.06 34.59 366.06 13.16"/>
  <path class="cls-1" d="M390.29,59.87c.37,5.09.79,9.36,1.26,12.81h10.22c.47-3.45.89-7.7,1.26-12.74.37-5.04.68-10.53.91-16.46.23-5.93.35-11.97.35-18.14V1.82h-15.12v23.53c0,6.07.09,12.07.28,18,.19,5.93.47,11.44.84,16.53Z"/>
  <path class="cls-1" d="M403.73,88.08c-1.96-1.96-4.3-2.94-7-2.94s-5.07.98-7.07,2.94c-2.01,1.96-3.01,4.3-3.01,7s1,5.04,3.01,7c2.01,1.96,4.36,2.94,7.07,2.94s5.04-.98,7-2.94c1.96-1.96,2.94-4.29,2.94-7s-.98-5.04-2.94-7Z"/>
</svg>