<?xml version="1.0" encoding="UTF-8"?>
<svg id="Layer_1" data-name="Layer 1" xmlns="http://www.w3.org/2000/svg" viewBox="0 0 964.03 133.88">
  <defs>
    <style>
      .cls-1 {
        fill: #231f20;
      }
    </style>
  </defs>
  <path class="cls-1" d="M76.6,1.96l-24.51,64.56c-.84,2.24-1.82,5-2.94,8.26-1.12,3.27-2.29,6.91-3.5,10.92-1.03-3.83-2.05-7.26-3.08-10.29-1.03-3.03-2.1-5.95-3.22-8.75L14.7,1.96H0l38.51,101.25h14.28L90.89,1.96h-14.28Z"/>
  <path class="cls-1" d="M134.72,37.53c-5.32-3.08-11.44-4.62-18.35-4.62s-13.05,1.54-18.42,4.62c-5.37,3.08-9.59,7.33-12.67,12.74-3.08,5.42-4.62,11.62-4.62,18.63s1.54,13.21,4.62,18.63c3.08,5.42,7.3,9.66,12.67,12.74,5.37,3.08,11.5,4.62,18.42,4.62s13.02-1.54,18.35-4.62c5.32-3.08,9.52-7.33,12.6-12.74,3.08-5.41,4.62-11.62,4.62-18.63s-1.54-13.21-4.62-18.63c-3.08-5.41-7.28-9.66-12.6-12.74ZM135.91,81.5c-1.92,3.64-4.55,6.49-7.91,8.54-3.36,2.05-7.24,3.08-11.62,3.08s-8.26-1.03-11.62-3.08c-3.36-2.05-6-4.9-7.91-8.54-1.92-3.64-2.87-7.84-2.87-12.6s.96-9.08,2.87-12.67c1.91-3.59,4.55-6.42,7.91-8.47,3.36-2.05,7.23-3.08,11.62-3.08s8.26,1.03,11.62,3.08c3.36,2.05,6,4.88,7.91,8.47,1.91,3.6,2.87,7.82,2.87,12.67s-.96,8.96-2.87,12.6Z"/>
  <rect class="cls-1" x="161.19" y=".14" width="13.16" height="103.07"/>
  <path class="cls-1" d="M235.41,70.86c0,7.38-1.59,12.95-4.76,16.73-3.17,3.78-7.8,5.67-13.86,5.67-5.04,0-9.03-1.56-11.97-4.69-2.94-3.13-4.41-8.33-4.41-15.61v-38.23h-13.16v42.57c0,8.4,2.17,15.1,6.51,20.1,4.34,5,10.48,7.49,18.42,7.49,5.04,0,9.66-1.12,13.86-3.36,4.2-2.24,7.28-5.13,9.24-8.68l1.4,10.36h11.76V34.73h-13.02v36.13Z"/>
  <path class="cls-1" d="M339.17,32.77c-6.16,0-11.34,1.63-15.54,4.9-3.08,2.4-5.28,5.38-6.6,8.93-1.44-3.55-3.62-6.53-6.56-8.93-4.02-3.27-9.06-4.9-15.12-4.9-5.42,0-10.01,1.28-13.79,3.85-2.92,1.98-5.12,4.34-6.62,7.07l-1.3-8.96h-11.76v68.48h13.16v-40.61c0-3.64.7-6.79,2.1-9.45s3.34-4.71,5.81-6.16c2.47-1.45,5.34-2.17,8.61-2.17,4.67,0,8.35,1.42,11.06,4.27,2.71,2.85,4.06,6.98,4.06,12.39v41.73h13.02v-40.61c0-3.64.7-6.81,2.1-9.52,1.4-2.71,3.34-4.78,5.81-6.23,2.47-1.45,5.34-2.17,8.61-2.17,4.67,0,8.38,1.47,11.13,4.41,2.75,2.94,4.13,7.12,4.13,12.53v41.59h12.88v-44.81c0-7.93-2.24-14.19-6.72-18.77-4.48-4.57-10.64-6.86-18.49-6.86Z"/>
  <rect class="cls-1" x="376.99" y="34.73" width="13.16" height="68.48"/>
  <path class="cls-1" d="M383.43,1.12c-2.33,0-4.37.84-6.09,2.52-1.73,1.68-2.59,3.73-2.59,6.16s.86,4.37,2.59,6.09c1.73,1.73,3.76,2.59,6.09,2.59s4.48-.86,6.16-2.59c1.68-1.73,2.52-3.76,2.52-6.09s-.84-4.48-2.52-6.16c-1.68-1.68-3.74-2.52-6.16-2.52Z"/>
  <path class="cls-1" d="M455.69,47.05c-2.24-4.76-5.56-8.33-9.94-10.71-4.39-2.38-9.29-3.57-14.7-3.57-6.54,0-12.18,1.52-16.94,4.55-4.76,3.04-8.45,7.24-11.06,12.6-2.62,5.37-3.92,11.55-3.92,18.56s1.24,13.26,3.71,18.77c2.47,5.51,6.09,9.85,10.85,13.02,4.76,3.17,10.5,4.76,17.23,4.76,5.51,0,10.41-1.12,14.7-3.36,4.29-2.24,7.61-5.46,9.94-9.66v41.87h13.02V34.73h-11.76l-1.12,12.32ZM452.75,81.43c-1.78,3.69-4.27,6.56-7.49,8.61-3.22,2.05-7.07,3.08-11.55,3.08s-8.31-1.05-11.48-3.15c-3.17-2.1-5.6-4.97-7.28-8.61s-2.52-7.75-2.52-12.32.84-8.96,2.52-12.6,4.11-6.49,7.28-8.54c3.17-2.05,7-3.08,11.48-3.08s8.33,1.03,11.55,3.08c3.22,2.05,5.72,4.9,7.49,8.54,1.77,3.64,2.66,7.84,2.66,12.6s-.89,8.71-2.66,12.39Z"/>
  <path class="cls-1" d="M529.35,70.86c0,7.38-1.59,12.95-4.76,16.73-3.17,3.78-7.8,5.67-13.86,5.67-5.04,0-9.03-1.56-11.97-4.69-2.94-3.13-4.41-8.33-4.41-15.61v-38.23h-13.16v42.57c0,8.4,2.17,15.1,6.51,20.1,4.34,5,10.48,7.49,18.42,7.49,5.04,0,9.66-1.12,13.86-3.36,4.2-2.24,7.28-5.13,9.24-8.68l1.4,10.36h11.76V34.73h-13.02v36.13Z"/>
  <path class="cls-1" d="M596.85,90.89c-3.27,2.05-7.47,3.08-12.6,3.08-7,0-12.37-2.22-16.1-6.65-3.23-3.84-5.06-9.1-5.49-15.77l52.97-.13v-4.9c0-6.81-1.33-12.74-3.99-17.79-2.66-5.04-6.4-8.96-11.2-11.76-4.81-2.8-10.48-4.2-17.02-4.2s-12.44,1.54-17.43,4.62c-5,3.08-8.92,7.33-11.76,12.74-2.85,5.42-4.27,11.72-4.27,18.91s1.45,13.33,4.34,18.7c2.89,5.37,6.91,9.57,12.04,12.6,5.13,3.03,11.02,4.55,17.65,4.55,8.49,0,15.5-2.01,21.01-6.02,5.51-4.01,9.1-9.66,10.78-16.94h-12.32c-1.12,3.92-3.32,6.91-6.58,8.96ZM572.13,46.7c3.13-1.91,6.88-2.87,11.27-2.87,5.79,0,10.41,1.73,13.86,5.18,3.45,3.46,5.18,8.03,5.18,13.72h-39.55c.39-2.82,1.08-5.36,2.09-7.63,1.63-3.69,4.01-6.49,7.14-8.4Z"/>
  <path class="cls-1" d="M696.83,72.12c4.48-3.92,8.31-7.54,11.48-10.85,3.17-3.31,5.76-6.53,7.77-9.66,2.01-3.13,3.48-6.3,4.41-9.52.93-3.22,1.4-6.6,1.4-10.15,0-6.53-1.38-12.16-4.13-16.88-2.75-4.71-6.61-8.38-11.55-10.99-4.95-2.61-10.83-3.92-17.64-3.92s-12.81,1.47-18,4.41-9.22,7.12-12.11,12.53c-2.9,5.42-4.44,11.72-4.62,18.91h13.72c.09-7.19,2.03-12.91,5.81-17.15,3.78-4.25,8.8-6.37,15.05-6.37s10.95,1.8,14.35,5.39c3.41,3.6,5.11,8.57,5.11,14.91,0,2.71-.33,5.23-.98,7.56-.65,2.33-1.78,4.69-3.36,7.07-1.59,2.38-3.74,4.97-6.44,7.77-2.71,2.8-6.12,5.93-10.22,9.38l-32.63,28.15v10.5l68.34-.14v-12.74h-46.75l20.98-18.21Z"/>
  <path class="cls-1" d="M793.39,6.65c-6.21-4.43-13.56-6.65-22.06-6.65s-15.87,2.22-22.13,6.65c-6.26,4.44-11.09,10.6-14.49,18.49-3.41,7.89-5.11,17.06-5.11,27.52s1.66,19.75,4.97,27.59c3.31,7.84,8.1,13.93,14.35,18.28,6.25,4.34,13.72,6.51,22.41,6.51s16.13-2.17,22.34-6.51c6.21-4.34,10.97-10.43,14.28-18.28,3.31-7.84,4.97-17.04,4.97-27.59s-1.71-19.63-5.11-27.52c-3.41-7.89-8.22-14.05-14.42-18.49ZM796.05,74.15c-2.2,6.02-5.39,10.62-9.59,13.79-4.2,3.18-9.24,4.76-15.12,4.76s-11.04-1.59-15.19-4.76c-4.16-3.17-7.35-7.77-9.59-13.79-2.24-6.02-3.36-13.19-3.36-21.5s1.12-15.61,3.36-21.64c2.24-6.02,5.44-10.64,9.59-13.86,4.15-3.22,9.22-4.83,15.19-4.83s10.92,1.61,15.12,4.83c4.2,3.22,7.4,7.84,9.59,13.86,2.19,6.02,3.29,13.23,3.29,21.64s-1.1,15.47-3.29,21.5Z"/>
  <path class="cls-1" d="M863.2,72.12c4.48-3.92,8.31-7.54,11.48-10.85,3.17-3.31,5.76-6.53,7.77-9.66,2.01-3.13,3.48-6.3,4.41-9.52.93-3.22,1.4-6.6,1.4-10.15,0-6.53-1.38-12.16-4.13-16.88-2.75-4.71-6.61-8.38-11.55-10.99-4.95-2.61-10.83-3.92-17.64-3.92s-12.81,1.47-18,4.41-9.22,7.12-12.11,12.53c-2.9,5.42-4.44,11.72-4.62,18.91h13.72c.09-7.19,2.03-12.91,5.81-17.15,3.78-4.25,8.8-6.37,15.05-6.37s10.95,1.8,14.35,5.39c3.41,3.6,5.11,8.57,5.11,14.91,0,2.71-.33,5.23-.98,7.56-.65,2.33-1.78,4.69-3.36,7.07-1.59,2.38-3.74,4.97-6.44,7.77-2.71,2.8-6.12,5.93-10.22,9.38l-32.63,28.15v10.5l68.34-.14v-12.74h-46.75l20.98-18.21Z"/>
  <path class="cls-1" d="M961.3,57.91c-1.82-3.97-4.39-7.35-7.7-10.15-3.32-2.8-7.12-4.92-11.41-6.37-2.68-.9-5.49-1.52-8.43-1.86l27.75-26.49V1.96h-62.88v12.18h45.51l-28.71,27.59v9.1h10.08c8.12,0,14.24,1.87,18.34,5.6,4.11,3.73,6.16,8.64,6.16,14.7,0,6.44-1.98,11.62-5.95,15.54-3.97,3.92-9.22,5.88-15.75,5.88s-11.41-1.84-15.19-5.53c-3.78-3.69-5.67-8.8-5.67-15.33h-13.58c0,6.91,1.47,12.86,4.41,17.86,2.94,5,6.98,8.8,12.11,11.41,5.13,2.61,11.02,3.92,17.65,3.92s12.95-1.35,18.42-4.06c5.46-2.71,9.75-6.58,12.88-11.62,3.13-5.04,4.69-10.97,4.69-17.79,0-5.04-.91-9.54-2.73-13.51Z"/>
</svg>