<?xml version="1.0" encoding="UTF-8"?>
<svg id="Layer_1" data-name="Layer 1" xmlns="http://www.w3.org/2000/svg" viewBox="0 0 543.63 102.93">
  <defs>
    <style>
      .cls-1 {
        fill: #231f20;
      }
    </style>
  </defs>
  <path class="cls-1" d="M83.6,40.33c-.09,2.43-.14,5.32-.14,8.68v52.24h13.44V0h-13.72l-34.87,85.14L13.44,0H0v101.25h13.44v-43.27c0-7.09-.07-13.16-.21-18.21-.14-5.04-.4-8.77-.77-11.2l29.41,72.68h12.88l29.55-72.96c-.19,1.77-.33,3.62-.42,5.53-.09,1.92-.19,4.09-.28,6.51Z"/>
  <rect class="cls-1" x="114.83" width="13.72" height="101.25"/>
  <polygon class="cls-1" points="146.62 0 146.62 101.25 149 101.25 160.34 101.25 204.88 101.25 204.88 88.51 160.34 88.51 160.34 0 146.62 0"/>
  <polygon class="cls-1" points="275.18 12.6 275.18 0 227.84 0 215.1 0 214.12 0 214.12 101.25 227.84 101.25 227.84 58.26 267.61 58.26 267.61 45.79 227.84 45.79 227.84 12.6 275.18 12.6"/>
  <polygon class="cls-1" points="379.92 12.6 379.92 0 332.59 0 319.85 0 318.87 0 318.87 101.25 332.59 101.25 332.59 58.26 372.36 58.26 372.36 45.79 332.59 45.79 332.59 12.6 379.92 12.6"/>
  <path class="cls-1" d="M395.33,98.38c5.13,3.03,11.02,4.55,17.65,4.55,8.5,0,15.5-2.01,21.01-6.02,5.51-4.01,9.1-9.66,10.78-16.95h-12.32c-1.12,3.92-3.31,6.91-6.58,8.96-3.27,2.05-7.47,3.08-12.6,3.08-7,0-12.37-2.22-16.11-6.65-3.23-3.84-5.06-9.1-5.49-15.77l52.97-.13v-4.9c0-6.81-1.33-12.74-3.99-17.79s-6.4-8.96-11.2-11.76c-4.81-2.8-10.48-4.2-17.01-4.2s-12.44,1.54-17.44,4.62c-5,3.08-8.92,7.33-11.76,12.74-2.85,5.42-4.27,11.72-4.27,18.91s1.45,13.33,4.34,18.7c2.89,5.37,6.91,9.57,12.04,12.6ZM401.14,44.74c3.13-1.91,6.88-2.87,11.27-2.87,5.79,0,10.41,1.73,13.86,5.18,3.45,3.46,5.18,8.03,5.18,13.72h-39.55c.39-2.82,1.08-5.36,2.09-7.63,1.63-3.69,4.01-6.49,7.14-8.4Z"/>
  <path class="cls-1" d="M485.51,89.84c-2.52,1.82-6.12,2.73-10.78,2.73-4.29,0-7.7-1-10.22-3.01-2.52-2.01-3.78-4.74-3.78-8.19h-12.6c0,6.54,2.38,11.76,7.14,15.68,4.76,3.92,11.16,5.88,19.19,5.88,5.51,0,10.29-.86,14.35-2.59,4.06-1.73,7.26-4.2,9.59-7.42,2.33-3.22,3.5-6.98,3.5-11.27,0-5.04-1.45-9.03-4.34-11.97-2.89-2.94-7.24-5.06-13.02-6.37l-12.04-2.94c-6.72-1.68-10.08-4.81-10.08-9.38,0-3.08,1.12-5.51,3.36-7.28,2.24-1.77,5.41-2.66,9.52-2.66s7.14.98,9.38,2.94c2.24,1.96,3.41,4.72,3.5,8.26h12.6c-.09-4.39-1.19-8.17-3.29-11.34-2.1-3.17-5-5.65-8.68-7.42-3.69-1.77-8.05-2.66-13.09-2.66s-9.5.84-13.37,2.52c-3.88,1.68-6.91,4.06-9.1,7.14-2.2,3.08-3.29,6.72-3.29,10.92,0,5.04,1.47,9.1,4.41,12.18s7.44,5.37,13.51,6.86l12.04,2.8c3.55.93,6,2.15,7.35,3.64,1.35,1.5,2.03,3.36,2.03,5.6,0,3.08-1.26,5.53-3.78,7.35Z"/>
  <polygon class="cls-1" points="530.19 101.25 530.19 43.83 543.63 43.83 543.63 32.77 530.19 32.77 530.19 11.34 517.02 11.34 517.02 32.77 503.58 32.77 503.58 43.83 517.02 43.83 517.02 101.25 530.19 101.25"/>
</svg>