<?xml version="1.0" encoding="UTF-8"?>
<svg id="Layer_1" data-name="Layer 1" xmlns="http://www.w3.org/2000/svg" viewBox="0 0 748.79 131.92">
  <defs>
    <style>
      .cls-1 {
        fill: #231f20;
      }
    </style>
  </defs>
  <rect class="cls-1" width="13.72" height="101.25"/>
  <path class="cls-1" d="M106.85,30.81c-6.16,0-11.34,1.63-15.54,4.9-3.08,2.4-5.28,5.38-6.6,8.93-1.44-3.55-3.62-6.53-6.56-8.93-4.02-3.27-9.06-4.9-15.12-4.9-5.42,0-10.01,1.29-13.79,3.85-2.92,1.98-5.12,4.34-6.62,7.07l-1.3-8.96h-11.76v68.48h13.16v-40.61c0-3.64.7-6.79,2.1-9.45,1.4-2.66,3.34-4.71,5.81-6.16,2.47-1.45,5.34-2.17,8.61-2.17,4.67,0,8.35,1.42,11.06,4.27,2.71,2.85,4.06,6.98,4.06,12.39v41.73h13.02v-40.61c0-3.64.7-6.81,2.1-9.52,1.4-2.71,3.34-4.78,5.81-6.23,2.47-1.45,5.34-2.17,8.61-2.17,4.67,0,8.38,1.47,11.13,4.41,2.75,2.94,4.13,7.12,4.13,12.53v41.59h12.88v-44.81c0-7.93-2.24-14.19-6.72-18.77-4.48-4.57-10.64-6.86-18.49-6.86Z"/>
  <path class="cls-1" d="M199.28,35.36c-4.76-3.03-10.41-4.55-16.94-4.55-5.42,0-10.34,1.19-14.77,3.57-4.44,2.38-7.77,5.95-10.01,10.71l-.98-12.32h-11.9v99.15h13.16v-41.87c2.24,4.2,5.51,7.42,9.8,9.66,4.29,2.24,9.2,3.36,14.71,3.36,6.81,0,12.58-1.59,17.29-4.76,4.71-3.17,8.31-7.51,10.78-13.02,2.47-5.51,3.71-11.76,3.71-18.77s-1.28-13.19-3.85-18.56c-2.57-5.37-6.23-9.57-10.99-12.6ZM198.37,79.4c-1.73,3.64-4.18,6.51-7.35,8.61-3.18,2.1-7,3.15-11.48,3.15s-8.33-1.03-11.55-3.08c-3.22-2.05-5.7-4.92-7.42-8.61-1.73-3.69-2.59-7.82-2.59-12.39s.86-8.96,2.59-12.6c1.73-3.64,4.2-6.49,7.42-8.54,3.22-2.05,7.07-3.08,11.55-3.08s8.31,1.03,11.48,3.08c3.17,2.05,5.62,4.9,7.35,8.54,1.73,3.64,2.59,7.84,2.59,12.6s-.86,8.68-2.59,12.32Z"/>
  <path class="cls-1" d="M266.15,33.82c-4.25-2.01-9.22-3.01-14.91-3.01s-11.04.98-15.47,2.94c-4.44,1.96-7.87,4.71-10.29,8.26-2.43,3.55-3.64,7.7-3.64,12.46h11.48c0-4.2,1.52-7.45,4.55-9.73,3.03-2.29,7.3-3.43,12.81-3.43,3.08,0,5.83.49,8.26,1.47,2.43.98,4.34,2.61,5.74,4.9,1.4,2.29,2.1,5.35,2.1,9.17v1.96l-21.57,1.68c-8.03.65-14.28,2.87-18.77,6.65-4.48,3.78-6.72,8.8-6.72,15.05s2.08,11.16,6.23,14.98c4.15,3.83,9.87,5.74,17.16,5.74,5.51,0,10.43-1.14,14.77-3.43,4.34-2.29,7.4-5.39,9.17-9.31l1.4,11.06h11.2v-42.99c0-6.16-1.19-11.27-3.57-15.33-2.38-4.06-5.7-7.09-9.94-9.1ZM266.92,71.7c0,6.44-1.77,11.55-5.32,15.33-3.55,3.78-8.45,5.67-14.71,5.67-4.29,0-7.68-.91-10.15-2.73-2.47-1.82-3.71-4.55-3.71-8.19,0-3.36,1.28-6.11,3.85-8.26,2.57-2.15,6.74-3.5,12.53-4.06l17.5-1.4v3.64Z"/>
  <path class="cls-1" d="M333.29,87.67c-3.36,2.33-7.38,3.5-12.04,3.5-4.11,0-7.7-1-10.78-3.01-3.08-2.01-5.46-4.81-7.14-8.4s-2.52-7.87-2.52-12.81.89-9.24,2.66-12.88c1.77-3.64,4.25-6.46,7.42-8.47,3.17-2.01,6.81-3.01,10.92-3.01,4.39,0,8.21,1.12,11.48,3.36,3.27,2.24,5.46,5.56,6.58,9.94h13.16c-1.12-7.56-4.53-13.63-10.22-18.21-5.7-4.57-12.84-6.86-21.43-6.86-6.63,0-12.46,1.54-17.51,4.62-5.04,3.08-8.99,7.33-11.83,12.74-2.85,5.42-4.27,11.72-4.27,18.91s1.4,13.47,4.2,18.83c2.8,5.37,6.7,9.55,11.69,12.53,4.99,2.99,10.85,4.48,17.58,4.48,5.51,0,10.53-1.05,15.05-3.15,4.53-2.1,8.26-4.99,11.2-8.68,2.94-3.69,4.83-8,5.67-12.95h-13.16c-1.12,4.02-3.36,7.19-6.72,9.52Z"/>
  <polygon class="cls-1" points="380.77 11.34 367.6 11.34 367.6 32.77 354.16 32.77 354.16 43.83 367.6 43.83 367.6 101.25 380.77 101.25 380.77 43.83 394.21 43.83 394.21 32.77 380.77 32.77 380.77 11.34"/>
  <path class="cls-1" d="M548.11,0l-18.62,62.04c-.65,2.24-1.33,4.76-2.03,7.56-.7,2.8-1.52,6.35-2.45,10.64-.75-3.73-1.49-7.05-2.24-9.94-.75-2.89-1.54-5.69-2.38-8.4L501.34,0h-14.84l-19.19,61.9c-.75,2.71-1.52,5.42-2.31,8.12-.79,2.71-1.61,6.12-2.45,10.22-.75-3.83-1.45-7.19-2.1-10.08-.65-2.89-1.35-5.65-2.1-8.26L439.86,0h-14.28l30.11,101.25h13.44l24.79-80.1,24.51,80.1h13.16L562.12,0h-14Z"/>
  <path class="cls-1" d="M601.54,33.82c-4.25-2.01-9.22-3.01-14.91-3.01s-11.04.98-15.47,2.94c-4.44,1.96-7.87,4.71-10.29,8.26-2.43,3.55-3.64,7.7-3.64,12.46h11.48c0-4.2,1.52-7.45,4.55-9.73,3.03-2.29,7.3-3.43,12.81-3.43,3.08,0,5.83.49,8.26,1.47,2.43.98,4.34,2.61,5.74,4.9,1.4,2.29,2.1,5.35,2.1,9.17v1.96l-21.57,1.68c-8.03.65-14.28,2.87-18.77,6.65-4.48,3.78-6.72,8.8-6.72,15.05s2.08,11.16,6.23,14.98c4.15,3.83,9.87,5.74,17.16,5.74,5.51,0,10.43-1.14,14.77-3.43,4.34-2.29,7.4-5.39,9.17-9.31l1.4,11.06h11.2v-42.99c0-6.16-1.19-11.27-3.57-15.33-2.38-4.06-5.7-7.09-9.94-9.1ZM602.31,71.7c0,6.44-1.77,11.55-5.32,15.33-3.55,3.78-8.45,5.67-14.7,5.67-4.3,0-7.68-.91-10.15-2.73-2.47-1.82-3.71-4.55-3.71-8.19,0-3.36,1.28-6.11,3.85-8.26,2.57-2.15,6.74-3.5,12.53-4.06l17.5-1.4v3.64Z"/>
  <path class="cls-1" d="M671.91,32.77l-15.26,38.23c-1.21,2.99-2.31,5.88-3.29,8.68-.98,2.8-1.8,5.37-2.45,7.7-.56-2.05-1.31-4.5-2.24-7.35-.93-2.85-2.01-5.86-3.22-9.03l-14.98-38.23h-14l27.59,68.48h13.02l28.57-68.48h-13.72Z"/>
  <path class="cls-1" d="M736.47,79.96c-1.12,3.92-3.32,6.91-6.58,8.96-3.27,2.05-7.47,3.08-12.6,3.08-7,0-12.37-2.22-16.1-6.65-3.23-3.84-5.06-9.1-5.49-15.77l52.97-.13v-4.9c0-6.81-1.33-12.74-3.99-17.79s-6.4-8.96-11.2-11.76c-4.81-2.8-10.48-4.2-17.02-4.2s-12.44,1.54-17.43,4.62c-5,3.08-8.92,7.33-11.76,12.74-2.85,5.42-4.27,11.72-4.27,18.91s1.45,13.33,4.34,18.7c2.89,5.37,6.91,9.57,12.04,12.6,5.13,3.03,11.02,4.55,17.65,4.55,8.49,0,15.5-2.01,21.01-6.02,5.51-4.01,9.1-9.66,10.78-16.95h-12.32ZM705.17,44.74c3.13-1.91,6.88-2.87,11.27-2.87,5.79,0,10.41,1.73,13.86,5.18,3.45,3.46,5.18,8.03,5.18,13.72h-39.55c.39-2.82,1.08-5.36,2.08-7.63,1.63-3.69,4.01-6.49,7.14-8.4Z"/>
</svg>