<?xml version="1.0" encoding="UTF-8"?>
<svg id="Layer_1" data-name="Layer 1" xmlns="http://www.w3.org/2000/svg" viewBox="0 0 621.58 828.77">
  <defs>
    <style>
      .cls-1 {
        fill: #f8f8f9;
      }

      .cls-2 {
        fill: #27b070;
      }

      .cls-3 {
        fill: #242323;
      }
    </style>
  </defs>
  <rect class="cls-3" y="552.52" width="621.58" height="276.25"/>
  <rect class="cls-1" y="276.26" width="621.58" height="276.25"/>
  <rect class="cls-2" y="0" width="621.58" height="276.25"/>
  <g>
    <g>
      <path class="cls-1" d="M168.29,210.49v.39c-.11-.01-.34-.03-.4-.03-1.32,0-2.5,1.08-2.5,2.61v4.71h-.45v-7.62h.45v1.64h.03c.33-1,1.25-1.75,2.32-1.75.24,0,.4.01.55.04Z"/>
      <path class="cls-1" d="M174.58,210.53h.45v7.22c0,2.15-1.29,3.15-3.26,3.15s-3.02-1.02-3.14-2.17h.45c.16.91.99,1.78,2.72,1.78s2.78-.82,2.78-2.6v-1.91h-.03c-.43,1.11-1.54,1.87-2.88,1.87-1.67,0-3.24-1.17-3.24-3.76s1.57-3.67,3.24-3.67c1.34,0,2.44.73,2.88,1.91h.03v-1.81ZM174.58,214.11c0-2.24-1.48-3.29-2.81-3.29-1.57,0-2.87,1.05-2.87,3.29s1.3,3.38,2.87,3.38c1.33,0,2.81-1.04,2.81-3.38Z"/>
      <path class="cls-1" d="M183.6,214.34c0,2.46-1.43,3.93-3.18,3.93-1.57,0-2.54-.94-2.99-2.12h-.03v2.02h-.45v-10.68h.45v4.96h.03c.43-1.11,1.42-2.08,3-2.08,1.73,0,3.17,1.46,3.17,3.97ZM183.12,214.34c0-2.24-1.17-3.58-2.79-3.58s-2.93,1.34-2.93,3.58,1.36,3.54,2.93,3.54,2.79-1.34,2.79-3.54Z"/>
      <path class="cls-1" d="M155.27,232.3c0-2.35,1.46-3.94,3.57-3.94,1.76,0,2.93,1.21,3.09,2.61h-.48c-.06-.88-.9-2.23-2.61-2.23-2.02,0-3.09,1.72-3.09,3.56s1.08,3.58,3.09,3.58c1.73,0,2.55-1.33,2.61-2.29h.48c-.11,1.43-1.31,2.67-3.09,2.67-2.11,0-3.57-1.6-3.57-3.97Z"/>
      <path class="cls-1" d="M173.3,230.7v5.39h-.45v-5.39c0-.93-.3-1.94-1.72-1.94-1.66,0-2.58,1.43-2.58,2.41v4.93h-.45v-5.39c0-.93-.3-1.94-1.72-1.94-1.66,0-2.58,1.43-2.58,2.41v4.93h-.45v-7.62h.45v1.46h.03c.37-.81,1.24-1.57,2.55-1.57,1.02,0,1.85.54,2.09,1.61h.03c.42-.85,1.32-1.61,2.63-1.61s2.17.78,2.17,2.33Z"/>
      <path class="cls-1" d="M173.91,238.74v-.37c.18.01.3.03.49.03.55,0,.78-.25.78-1.23v-8.69h.45v8.65c0,1.3-.48,1.66-1.12,1.66-.21,0-.39-.01-.6-.04ZM174.98,226.86v-.84h.84v.84h-.84Z"/>
      <path class="cls-1" d="M183.23,230.68v5.41h-.45v-5.41c0-.93-.39-1.94-2-1.94s-2.76,1.43-2.76,2.41v4.94h-.45v-7.62h.45v1.49h.03c.48-.84,1.34-1.61,2.84-1.61,1.3,0,2.35.78,2.35,2.33Z"/>
      <path class="cls-1" d="M169.17,248.61v5.41h-.45v-5.41c0-.93-.39-1.94-2-1.94s-2.76,1.43-2.76,2.41v4.94h-.45v-10.68h.45v4.56h.03c.48-.84,1.34-1.61,2.84-1.61,1.3,0,2.35.78,2.35,2.33Z"/>
      <path class="cls-1" d="M171.1,250.13v.09c0,1.97.99,3.58,3,3.58,1.78,0,2.46-1.24,2.64-2.08h.48c-.33,1.33-1.33,2.46-3.14,2.46-2.15,0-3.47-1.61-3.47-3.94s1.4-3.97,3.5-3.97,3.21,1.55,3.21,3.47c0,.13,0,.25-.02.39h-6.21ZM171.1,249.74h5.75c0-1.61-.84-3.08-2.76-3.08s-2.91,1.45-2.99,3.08Z"/>
      <path class="cls-1" d="M177.45,254.01l3.06-3.9-2.82-3.72h.55l2.55,3.41h.03l2.55-3.41h.55l-2.82,3.72,3.08,3.9h-.57l-2.79-3.62h-.03l-2.78,3.62h-.57Z"/>
    </g>
    <g>
      <path class="cls-1" d="M207.58,214.82h.51c0,1.79,1.15,3.09,3.2,3.09,1.79,0,2.84-.96,2.84-2.5s-1.38-2.43-2.54-2.43h-1.12v-.42h1.06c1.22,0,2.2-.88,2.2-2.23,0-1.13-.78-2.24-2.43-2.24-2.2,0-2.87,1.37-2.87,2.69h-.51c0-1.75,1.15-3.11,3.38-3.11,1.54,0,2.94.99,2.94,2.66,0,1.29-.67,2-1.67,2.42v.03c1.36.4,2.08,1.36,2.08,2.63,0,1.88-1.38,2.91-3.35,2.91-2.24,0-3.7-1.33-3.7-3.51Z"/>
      <path class="cls-1" d="M216.33,215.7h.48c.1,1.37,1.09,2.21,2.41,2.21,2.2,0,3.24-1.88,3.24-5.36v-.7h-.02c-.33,1.82-1.87,2.63-3.15,2.63-2,0-3.27-1.39-3.27-3.36s1.27-3.44,3.33-3.44c2.31,0,3.58,1.75,3.58,4.88,0,3.88-1.34,5.77-3.72,5.77-1.54,0-2.76-.97-2.88-2.63ZM222.17,210.88c0-1.33-.96-2.78-2.82-2.78s-2.82,1.25-2.82,3.02,1.02,2.94,2.76,2.94c1.31,0,2.88-.96,2.88-3.18Z"/>
      <path class="cls-1" d="M209.01,236.09c0-2.85.69-7.14,4.11-9.9h0s-6.06-.01-6.06-.01v-.4h6.72v.36c-3.69,2.79-4.29,7.23-4.29,9.96h-.48Z"/>
      <path class="cls-1" d="M214.52,233.22c0-1.4.91-2.32,2.17-2.75v-.03c-.96-.39-1.7-1.12-1.7-2.29,0-1.63,1.37-2.55,3.11-2.55s3.11.93,3.11,2.55c0,1.17-.76,1.9-1.7,2.29v.03c1.24.43,2.17,1.34,2.17,2.75,0,1.96-1.76,3.03-3.57,3.03s-3.57-1.08-3.57-3.03ZM221.15,233.22c0-1.57-1.42-2.55-3.06-2.55s-3.06.99-3.06,2.55,1.42,2.61,3.06,2.61,3.06-1,3.06-2.61ZM220.69,228.16c0-1.37-1.12-2.14-2.6-2.14s-2.6.76-2.6,2.14c0,1.3,1.12,2.09,2.6,2.09s2.6-.79,2.6-2.09Z"/>
      <path class="cls-1" d="M207.56,254.01c0-2.02,1.17-3.32,2.96-4.26,1.76-.93,3.14-1.61,3.14-3.33,0-1.33-.9-2.48-2.48-2.48-1.75,0-2.88,1.34-2.88,2.91h-.48c0-1.69,1.2-3.33,3.36-3.33,1.76,0,2.99,1.06,2.99,2.9s-1.4,2.63-2.87,3.44c-1.48.81-3.23,1.64-3.23,3.71v.03h6.09v.42h-6.6Z"/>
      <path class="cls-1" d="M216.78,254.01c0-2.85.69-7.14,4.11-9.9h0s-6.07-.01-6.07-.01v-.4h6.72v.36c-3.69,2.79-4.29,7.23-4.29,9.96h-.48Z"/>
      <path class="cls-1" d="M229.5,250.19c0,2.46-1.43,3.93-3.18,3.93-1.57,0-2.54-.94-2.99-2.12h-.03v2.02h-.45v-10.68h.45v4.96h.03c.43-1.11,1.42-2.08,3-2.08,1.73,0,3.17,1.46,3.17,3.97ZM229.03,250.19c0-2.24-1.17-3.58-2.79-3.58s-2.93,1.34-2.93,3.58,1.36,3.54,2.93,3.54,2.79-1.34,2.79-3.54Z"/>
      <path class="cls-1" d="M230.8,248.86c0-2.93,1.18-5.33,3.71-5.33s3.69,2.4,3.69,5.33-1.17,5.32-3.69,5.32-3.71-2.39-3.71-5.32ZM237.69,248.86c0-2.72-.99-4.92-3.18-4.92s-3.2,2.2-3.2,4.92,1,4.9,3.2,4.9,3.18-2.18,3.18-4.9Z"/>
      <path class="cls-1" d="M240.59,254.01c0-2.85.69-7.14,4.11-9.9h0s-6.06-.01-6.06-.01v-.4h6.72v.36c-3.69,2.79-4.29,7.23-4.29,9.96h-.48Z"/>
      <path class="cls-1" d="M245.95,248.86c0-2.93,1.18-5.33,3.71-5.33s3.69,2.4,3.69,5.33-1.17,5.32-3.69,5.32-3.71-2.39-3.71-5.32ZM252.83,248.86c0-2.72-.99-4.92-3.18-4.92s-3.2,2.2-3.2,4.92,1,4.9,3.2,4.9,3.18-2.18,3.18-4.9Z"/>
    </g>
    <g>
      <path class="cls-1" d="M247.19,209.41c-.6.72-1.21.79-2.11.79v-.42c1.49,0,2.11-.64,2.11-1.94h.48v10.32h-.48v-8.75Z"/>
      <path class="cls-1" d="M250.96,218.17c0-2.85.69-7.14,4.11-9.9h0s-6.07-.01-6.07-.01v-.4h6.72v.36c-3.69,2.79-4.29,7.23-4.29,9.96h-.48Z"/>
      <path class="cls-1" d="M256.35,213.45c0-3.88,1.34-5.77,3.72-5.77,1.54,0,2.76.97,2.88,2.63h-.48c-.11-1.37-1.09-2.21-2.41-2.21-2.2,0-3.24,1.88-3.24,5.36v.7h.01c.33-1.82,1.87-2.63,3.15-2.63,2,0,3.27,1.39,3.27,3.36s-1.27,3.44-3.33,3.44c-2.32,0-3.58-1.75-3.58-4.88ZM262.76,214.9c0-1.73-1.02-2.94-2.76-2.94-1.31,0-2.88.96-2.88,3.18,0,1.33.96,2.78,2.82,2.78s2.82-1.25,2.82-3.02Z"/>
      <path class="cls-1" d="M245.69,230.94c0-2.93,1.18-5.33,3.71-5.33s3.69,2.4,3.69,5.33-1.17,5.32-3.69,5.32-3.71-2.39-3.71-5.32ZM252.57,230.94c0-2.72-.99-4.92-3.18-4.92s-3.2,2.2-3.2,4.92,1,4.9,3.2,4.9,3.18-2.18,3.18-4.9Z"/>
    </g>
    <g>
      <path class="cls-1" d="M285.11,209.41c-.6.72-1.21.79-2.11.79v-.42c1.49,0,2.11-.64,2.11-1.94h.48v10.32h-.48v-8.75Z"/>
      <path class="cls-1" d="M289.14,209.41c-.6.72-1.21.79-2.11.79v-.42c1.49,0,2.11-.64,2.11-1.94h.48v10.32h-.48v-8.75Z"/>
      <path class="cls-1" d="M291.45,218.17c0-2.02,1.16-3.32,2.96-4.26,1.76-.93,3.14-1.61,3.14-3.33,0-1.33-.9-2.48-2.48-2.48-1.75,0-2.88,1.34-2.88,2.91h-.48c0-1.69,1.2-3.33,3.36-3.33,1.76,0,2.99,1.06,2.99,2.9s-1.4,2.63-2.87,3.44c-1.48.81-3.23,1.64-3.23,3.71v.03h6.09v.42h-6.6Z"/>
      <path class="cls-1" d="M283.4,232.74h.51c0,1.79,1.15,3.09,3.2,3.09,1.79,0,2.84-.96,2.84-2.5s-1.37-2.43-2.54-2.43h-1.12v-.42h1.06c1.23,0,2.2-.88,2.2-2.23,0-1.13-.78-2.24-2.44-2.24-2.2,0-2.87,1.37-2.87,2.69h-.51c0-1.75,1.15-3.11,3.38-3.11,1.54,0,2.94.99,2.94,2.66,0,1.29-.67,2-1.67,2.42v.03c1.36.4,2.08,1.36,2.08,2.63,0,1.88-1.37,2.91-3.35,2.91-2.24,0-3.71-1.33-3.71-3.51Z"/>
      <path class="cls-1" d="M291.96,231.37c0-3.88,1.34-5.77,3.72-5.77,1.54,0,2.76.97,2.88,2.63h-.48c-.11-1.37-1.09-2.21-2.41-2.21-2.2,0-3.24,1.88-3.24,5.36v.7h.01c.33-1.82,1.87-2.63,3.15-2.63,2,0,3.27,1.39,3.27,3.36s-1.27,3.44-3.33,3.44c-2.32,0-3.58-1.75-3.58-4.88ZM298.37,232.82c0-1.73-1.02-2.94-2.76-2.94-1.31,0-2.88.96-2.88,3.18,0,1.33.96,2.78,2.82,2.78s2.82-1.25,2.82-3.02Z"/>
    </g>
    <g>
      <path class="cls-1" d="M321.32,232.74h.51c0,1.79,1.15,3.09,3.2,3.09,1.79,0,2.84-.96,2.84-2.5s-1.38-2.43-2.54-2.43h-1.12v-.42h1.06c1.22,0,2.2-.88,2.2-2.23,0-1.13-.78-2.24-2.43-2.24-2.2,0-2.87,1.37-2.87,2.69h-.51c0-1.75,1.15-3.11,3.38-3.11,1.54,0,2.94.99,2.94,2.66,0,1.29-.67,2-1.67,2.42v.03c1.36.4,2.08,1.36,2.08,2.63,0,1.88-1.38,2.91-3.35,2.91-2.24,0-3.71-1.33-3.71-3.51Z"/>
      <path class="cls-1" d="M331.36,227.34c-.6.72-1.21.79-2.11.79v-.42c1.49,0,2.11-.64,2.11-1.94h.48v10.32h-.48v-8.75Z"/>
    </g>
    <g>
      <path class="cls-1" d="M23.89,254.19l-3.94-10.3h.67l3.64,9.62h.02l3.66-9.62h.65l-3.96,10.3h-.73Z"/>
      <path class="cls-1" d="M29.91,248.94v.12c0,2.67,1.33,4.85,4.06,4.85,2.4,0,3.33-1.68,3.58-2.81h.65c-.44,1.8-1.8,3.33-4.24,3.33-2.91,0-4.69-2.18-4.69-5.33s1.9-5.37,4.73-5.37,4.34,2.1,4.34,4.69c0,.18,0,.34-.02.53h-8.4ZM29.91,248.41h7.78c0-2.18-1.13-4.16-3.74-4.16s-3.94,1.96-4.04,4.16Z"/>
      <path class="cls-1" d="M44.85,243.81v.53c-.14-.02-.46-.04-.54-.04-1.78,0-3.37,1.46-3.37,3.54v6.36h-.61v-10.3h.61v2.22h.04c.45-1.35,1.7-2.36,3.13-2.36.32,0,.55.02.75.06Z"/>
      <path class="cls-1" d="M49.6,244.41h-2.28v7.25c0,1.7.34,2.04,1.62,2.04.26,0,.42-.02.67-.04v.5c-.28.04-.53.06-.75.06-1.49,0-2.14-.46-2.14-2.46v-7.35h-1.52v-.53h1.52v-3.43h.61v3.43h2.28v.53Z"/>
      <path class="cls-1" d="M56.38,242.09c0-2,.65-2.46,2.04-2.46.26,0,.5.02.81.06v.51c-.26-.02-.42-.04-.73-.04-1.17,0-1.51.34-1.51,2.04v1.7h2.24v.53h-2.24v9.78h-.61v-9.78h-1.47v-.53h1.47v-1.8ZM60.59,239.75h.61v14.45h-.61v-14.45Z"/>
      <path class="cls-1" d="M63.23,251.67c0-1.9,1.21-2.71,3.88-3.13,1.56-.24,3.29-.2,3.29-1.98,0-1.56-1.19-2.3-2.79-2.3-2.08,0-3.15.99-3.25,2.54h-.65c.1-1.43.99-3.07,3.9-3.07,1.88,0,3.39.79,3.39,3.13v5.64c0,.87.12,1.21.71,1.21.14,0,.24-.02.38-.04v.53c-.14.02-.32.04-.46.04-.79,0-1.23-.34-1.23-1.7h-.04c-.83,1.33-2.16,1.88-3.8,1.88-1.98,0-3.33-1.07-3.33-2.75ZM70.4,250.62v-2.61c-.3.67-1.58.87-3.09,1.05-1.98.24-3.43.81-3.43,2.42s.99,2.4,2.85,2.4c2.53,0,3.68-1.7,3.68-3.27Z"/>
      <path class="cls-1" d="M78.4,243.81v.53c-.14-.02-.46-.04-.54-.04-1.78,0-3.37,1.46-3.37,3.54v6.36h-.61v-10.3h.61v2.22h.04c.45-1.35,1.7-2.36,3.13-2.36.32,0,.55.02.75.06Z"/>
      <path class="cls-1" d="M79.15,248.94v.12c0,2.67,1.33,4.85,4.06,4.85,2.4,0,3.33-1.68,3.58-2.81h.65c-.44,1.8-1.8,3.33-4.24,3.33-2.91,0-4.69-2.18-4.69-5.33s1.9-5.37,4.73-5.37,4.34,2.1,4.34,4.69c0,.18,0,.34-.02.53h-8.4ZM79.15,248.41h7.78c0-2.18-1.13-4.16-3.74-4.16s-3.94,1.96-4.04,4.16Z"/>
    </g>
  </g>
  <g>
    <g>
      <path class="cls-3" d="M168.29,485.51v.39c-.11-.01-.34-.03-.4-.03-1.32,0-2.5,1.08-2.5,2.61v4.71h-.45v-7.62h.45v1.64h.03c.33-1,1.25-1.75,2.32-1.75.24,0,.4.01.55.04Z"/>
      <path class="cls-3" d="M174.58,485.56h.45v7.22c0,2.15-1.29,3.15-3.26,3.15s-3.02-1.02-3.14-2.17h.45c.16.91.99,1.78,2.72,1.78s2.78-.82,2.78-2.6v-1.91h-.03c-.43,1.11-1.54,1.87-2.88,1.87-1.67,0-3.24-1.17-3.24-3.76s1.57-3.67,3.24-3.67c1.34,0,2.44.73,2.88,1.91h.03v-1.81ZM174.58,489.13c0-2.24-1.48-3.29-2.81-3.29-1.57,0-2.87,1.05-2.87,3.29s1.3,3.38,2.87,3.38c1.33,0,2.81-1.04,2.81-3.38Z"/>
      <path class="cls-3" d="M183.6,489.36c0,2.46-1.43,3.93-3.18,3.93-1.57,0-2.54-.94-2.99-2.12h-.03v2.02h-.45v-10.68h.45v4.96h.03c.43-1.11,1.42-2.08,3-2.08,1.73,0,3.17,1.46,3.17,3.97ZM183.12,489.36c0-2.24-1.17-3.58-2.79-3.58s-2.93,1.34-2.93,3.58,1.36,3.54,2.93,3.54,2.79-1.34,2.79-3.54Z"/>
      <path class="cls-3" d="M155.27,507.32c0-2.35,1.46-3.94,3.57-3.94,1.76,0,2.93,1.21,3.09,2.61h-.48c-.06-.88-.9-2.23-2.61-2.23-2.02,0-3.09,1.72-3.09,3.56s1.08,3.58,3.09,3.58c1.73,0,2.55-1.33,2.61-2.29h.48c-.11,1.43-1.31,2.67-3.09,2.67-2.11,0-3.57-1.6-3.57-3.97Z"/>
      <path class="cls-3" d="M173.3,505.72v5.39h-.45v-5.39c0-.93-.3-1.94-1.72-1.94-1.66,0-2.58,1.43-2.58,2.41v4.93h-.45v-5.39c0-.93-.3-1.94-1.72-1.94-1.66,0-2.58,1.43-2.58,2.41v4.93h-.45v-7.62h.45v1.46h.03c.37-.81,1.24-1.57,2.55-1.57,1.02,0,1.85.54,2.09,1.61h.03c.42-.85,1.32-1.61,2.63-1.61s2.17.78,2.17,2.33Z"/>
      <path class="cls-3" d="M173.91,513.76v-.37c.18.01.3.03.49.03.55,0,.78-.25.78-1.23v-8.69h.45v8.65c0,1.3-.48,1.66-1.12,1.66-.21,0-.39-.01-.6-.04ZM174.98,501.88v-.84h.84v.84h-.84Z"/>
      <path class="cls-3" d="M183.23,505.7v5.41h-.45v-5.41c0-.93-.39-1.94-2-1.94s-2.76,1.43-2.76,2.41v4.94h-.45v-7.62h.45v1.49h.03c.48-.84,1.34-1.61,2.84-1.61,1.3,0,2.35.78,2.35,2.33Z"/>
      <path class="cls-3" d="M169.17,523.63v5.41h-.45v-5.41c0-.93-.39-1.94-2-1.94s-2.76,1.43-2.76,2.41v4.94h-.45v-10.68h.45v4.56h.03c.48-.84,1.34-1.61,2.84-1.61,1.3,0,2.35.78,2.35,2.33Z"/>
      <path class="cls-3" d="M171.1,525.15v.09c0,1.97.99,3.58,3,3.58,1.78,0,2.46-1.24,2.64-2.08h.48c-.33,1.33-1.33,2.46-3.14,2.46-2.15,0-3.47-1.61-3.47-3.94s1.4-3.97,3.5-3.97,3.21,1.55,3.21,3.47c0,.13,0,.25-.02.39h-6.21ZM171.1,524.76h5.75c0-1.61-.84-3.08-2.76-3.08s-2.91,1.45-2.99,3.08Z"/>
      <path class="cls-3" d="M177.45,529.03l3.06-3.9-2.82-3.72h.55l2.55,3.41h.03l2.55-3.41h.55l-2.82,3.72,3.08,3.9h-.57l-2.79-3.62h-.03l-2.78,3.62h-.57Z"/>
    </g>
    <g>
      <path class="cls-3" d="M207.56,493.19c0-2.02,1.17-3.32,2.96-4.26,1.76-.93,3.14-1.61,3.14-3.33,0-1.33-.9-2.48-2.48-2.48-1.75,0-2.88,1.34-2.88,2.91h-.48c0-1.69,1.2-3.33,3.36-3.33,1.76,0,2.99,1.06,2.99,2.9s-1.4,2.63-2.87,3.44c-1.48.81-3.23,1.64-3.23,3.71v.03h6.09v.42h-6.6Z"/>
      <path class="cls-3" d="M219.87,493.19v-2.72h-5.21v-.42l5.21-7.19h.48v7.19h1.57v.42h-1.57v2.72h-.48ZM215.21,490.05h4.66v-6.42l-4.66,6.42Z"/>
      <path class="cls-3" d="M222.93,490.32c0-1.4.91-2.32,2.17-2.75v-.03c-.96-.39-1.7-1.12-1.7-2.29,0-1.63,1.37-2.55,3.11-2.55s3.11.93,3.11,2.55c0,1.17-.76,1.9-1.7,2.29v.03c1.24.43,2.17,1.34,2.17,2.75,0,1.96-1.76,3.03-3.57,3.03s-3.57-1.08-3.57-3.03ZM229.56,490.32c0-1.57-1.42-2.55-3.06-2.55s-3.06.99-3.06,2.55,1.42,2.61,3.06,2.61,3.06-1,3.06-2.61ZM229.1,485.26c0-1.37-1.12-2.14-2.6-2.14s-2.6.76-2.6,2.14c0,1.3,1.12,2.09,2.6,2.09s2.6-.79,2.6-2.09Z"/>
      <path class="cls-3" d="M207.77,505.96c0-2.93,1.18-5.33,3.71-5.33s3.69,2.4,3.69,5.33-1.17,5.32-3.69,5.32-3.71-2.39-3.71-5.32ZM214.66,505.96c0-2.72-.99-4.92-3.18-4.92s-3.2,2.2-3.2,4.92,1,4.9,3.2,4.9,3.18-2.18,3.18-4.9Z"/>
      <path class="cls-3" d="M208.77,520.16v1.25h1.66v.39h-1.66v7.23h-.45v-7.23h-1.09v-.39h1.09v-1.33c0-1.48.48-1.82,1.51-1.82.19,0,.37.01.6.04v.37c-.19-.01-.31-.03-.54-.03-.87,0-1.12.25-1.12,1.51Z"/>
      <path class="cls-3" d="M211.18,526.17c0-1.4.91-2.32,2.17-2.75v-.03c-.96-.39-1.7-1.12-1.7-2.29,0-1.63,1.37-2.55,3.11-2.55s3.11.93,3.11,2.55c0,1.17-.76,1.9-1.7,2.29v.03c1.24.43,2.17,1.34,2.17,2.75,0,1.96-1.76,3.03-3.57,3.03s-3.57-1.08-3.57-3.03ZM217.81,526.17c0-1.57-1.42-2.55-3.06-2.55s-3.06.99-3.06,2.55,1.42,2.61,3.06,2.61,3.06-1,3.06-2.61ZM217.35,521.1c0-1.37-1.12-2.14-2.6-2.14s-2.6.76-2.6,2.14c0,1.3,1.12,2.09,2.6,2.09s2.6-.79,2.6-2.09Z"/>
      <path class="cls-3" d="M220.78,520.16v1.25h1.66v.39h-1.66v7.23h-.45v-7.23h-1.09v-.39h1.09v-1.33c0-1.48.48-1.82,1.51-1.82.19,0,.37.01.6.04v.37c-.19-.01-.31-.03-.54-.03-.87,0-1.12.25-1.12,1.51Z"/>
      <path class="cls-3" d="M223.19,526.17c0-1.4.91-2.32,2.17-2.75v-.03c-.96-.39-1.7-1.12-1.7-2.29,0-1.63,1.37-2.55,3.11-2.55s3.11.93,3.11,2.55c0,1.17-.76,1.9-1.7,2.29v.03c1.24.43,2.17,1.34,2.17,2.75,0,1.96-1.76,3.03-3.57,3.03s-3.57-1.08-3.57-3.03ZM229.82,526.17c0-1.57-1.42-2.55-3.06-2.55s-3.06.99-3.06,2.55,1.42,2.61,3.06,2.61,3.06-1,3.06-2.61ZM229.35,521.1c0-1.37-1.12-2.14-2.6-2.14s-2.6.76-2.6,2.14c0,1.3,1.12,2.09,2.6,2.09s2.6-.79,2.6-2.09Z"/>
      <path class="cls-3" d="M232.79,520.16v1.25h1.66v.39h-1.66v7.23h-.45v-7.23h-1.09v-.39h1.09v-1.33c0-1.48.48-1.82,1.51-1.82.19,0,.37.01.6.04v.37c-.2-.01-.31-.03-.54-.03-.87,0-1.12.25-1.12,1.51Z"/>
      <path class="cls-3" d="M235.48,526.57h.48c.1,1.37,1.09,2.21,2.4,2.21,2.2,0,3.24-1.88,3.24-5.36v-.7h-.02c-.33,1.82-1.87,2.63-3.15,2.63-2,0-3.27-1.39-3.27-3.36s1.27-3.44,3.33-3.44c2.32,0,3.59,1.75,3.59,4.88,0,3.88-1.35,5.77-3.72,5.77-1.54,0-2.76-.97-2.88-2.63ZM241.32,521.74c0-1.33-.96-2.78-2.82-2.78s-2.82,1.25-2.82,3.02,1.02,2.94,2.76,2.94c1.31,0,2.88-.96,2.88-3.18Z"/>
    </g>
    <g>
      <path class="cls-3" d="M245.48,493.19c0-2.02,1.16-3.32,2.96-4.26,1.76-.93,3.14-1.61,3.14-3.33,0-1.33-.9-2.48-2.48-2.48-1.75,0-2.88,1.34-2.88,2.91h-.48c0-1.69,1.2-3.33,3.36-3.33,1.76,0,2.99,1.06,2.99,2.9s-1.4,2.63-2.87,3.44c-1.48.81-3.23,1.64-3.23,3.71v.03h6.09v.42h-6.6Z"/>
      <path class="cls-3" d="M257.78,493.19v-2.72h-5.21v-.42l5.21-7.19h.48v7.19h1.57v.42h-1.57v2.72h-.48ZM253.12,490.05h4.66v-6.42l-4.66,6.42Z"/>
      <path class="cls-3" d="M260.84,490.32c0-1.4.91-2.32,2.17-2.75v-.03c-.96-.39-1.7-1.12-1.7-2.29,0-1.63,1.37-2.55,3.11-2.55s3.11.93,3.11,2.55c0,1.17-.76,1.9-1.7,2.29v.03c1.24.43,2.17,1.34,2.17,2.75,0,1.96-1.76,3.03-3.57,3.03s-3.57-1.08-3.57-3.03ZM267.48,490.32c0-1.57-1.42-2.55-3.06-2.55s-3.06.99-3.06,2.55,1.42,2.61,3.06,2.61,3.06-1,3.06-2.61ZM267.01,485.26c0-1.37-1.12-2.14-2.6-2.14s-2.6.76-2.6,2.14c0,1.3,1.12,2.09,2.6,2.09s2.6-.79,2.6-2.09Z"/>
      <path class="cls-3" d="M245.69,505.96c0-2.93,1.18-5.33,3.71-5.33s3.69,2.4,3.69,5.33-1.17,5.32-3.69,5.32-3.71-2.39-3.71-5.32ZM252.57,505.96c0-2.72-.99-4.92-3.18-4.92s-3.2,2.2-3.2,4.92,1,4.9,3.2,4.9,3.18-2.18,3.18-4.9Z"/>
    </g>
    <g>
      <path class="cls-3" d="M283.39,493.19c0-2.02,1.17-3.32,2.96-4.26,1.76-.93,3.14-1.61,3.14-3.33,0-1.33-.9-2.48-2.48-2.48-1.75,0-2.88,1.34-2.88,2.91h-.48c0-1.69,1.2-3.33,3.36-3.33,1.76,0,2.99,1.06,2.99,2.9s-1.4,2.63-2.87,3.44c-1.48.81-3.23,1.64-3.23,3.71v.03h6.09v.42h-6.6Z"/>
      <path class="cls-3" d="M295.7,493.19v-2.72h-5.21v-.42l5.21-7.19h.48v7.19h1.57v.42h-1.57v2.72h-.48ZM291.04,490.05h4.66v-6.42l-4.66,6.42Z"/>
      <path class="cls-3" d="M299.04,490.72h.48c.11,1.37,1.09,2.21,2.41,2.21,2.2,0,3.24-1.88,3.24-5.36v-.7h-.01c-.33,1.82-1.87,2.63-3.15,2.63-2,0-3.27-1.39-3.27-3.36s1.27-3.44,3.33-3.44c2.32,0,3.58,1.75,3.58,4.88,0,3.88-1.34,5.77-3.72,5.77-1.54,0-2.76-.97-2.88-2.63ZM304.88,485.9c0-1.33-.96-2.78-2.82-2.78s-2.82,1.25-2.82,3.02,1.02,2.94,2.76,2.94c1.31,0,2.88-.96,2.88-3.18Z"/>
      <path class="cls-3" d="M283.6,505.96c0-2.93,1.18-5.33,3.71-5.33s3.69,2.4,3.69,5.33-1.17,5.32-3.69,5.32-3.71-2.39-3.71-5.32ZM290.49,505.96c0-2.72-.99-4.92-3.18-4.92s-3.2,2.2-3.2,4.92,1,4.9,3.2,4.9,3.18-2.18,3.18-4.9Z"/>
    </g>
    <path class="cls-3" d="M321.3,511.11c0-2.02,1.17-3.32,2.96-4.26,1.76-.93,3.14-1.61,3.14-3.33,0-1.33-.9-2.48-2.48-2.48-1.75,0-2.88,1.34-2.88,2.91h-.48c0-1.69,1.2-3.33,3.36-3.33,1.76,0,2.99,1.06,2.99,2.9s-1.4,2.63-2.87,3.44c-1.48.81-3.23,1.64-3.23,3.71v.03h6.1v.42h-6.6Z"/>
    <g>
      <path class="cls-3" d="M21,529.21v-14.45h.61v14.45h-.61Z"/>
      <path class="cls-3" d="M31.2,518.91h.61v10.3h-.61v-1.96h-.04c-.65,1.09-1.82,2.12-3.84,2.12-1.76,0-3.17-1.05-3.17-3.15v-7.31h.61v7.31c0,1.25.53,2.63,2.71,2.63s3.74-1.94,3.74-3.25v-6.69Z"/>
      <path class="cls-3" d="M47.88,521.92v7.29h-.61v-7.29c0-1.25-.4-2.63-2.32-2.63-2.24,0-3.5,1.94-3.5,3.25v6.67h-.61v-7.29c0-1.25-.4-2.63-2.32-2.63-2.24,0-3.49,1.94-3.49,3.25v6.67h-.61v-10.3h.61v1.98h.04c.51-1.09,1.68-2.12,3.46-2.12,1.37,0,2.51.73,2.83,2.18h.04c.57-1.15,1.78-2.18,3.56-2.18s2.93,1.05,2.93,3.15Z"/>
      <path class="cls-3" d="M50.16,516.73v-1.13h1.13v1.13h-1.13ZM50.43,529.21v-10.3h.61v10.3h-.61Z"/>
      <path class="cls-3" d="M53.72,523.96v.12c0,2.67,1.33,4.85,4.06,4.85,2.4,0,3.33-1.68,3.58-2.81h.65c-.45,1.8-1.8,3.33-4.24,3.33-2.91,0-4.69-2.18-4.69-5.33s1.9-5.37,4.73-5.37,4.34,2.1,4.34,4.69c0,.18,0,.34-.02.53h-8.4ZM53.72,523.44h7.78c0-2.18-1.13-4.16-3.74-4.16s-3.94,1.96-4.04,4.16ZM57.96,517.11h-.59l-1.54-2.57h.83l1.29,2.57Z"/>
      <path class="cls-3" d="M68.67,518.83v.52c-.14-.02-.46-.04-.55-.04-1.78,0-3.37,1.46-3.37,3.54v6.36h-.61v-10.3h.61v2.22h.04c.44-1.35,1.7-2.36,3.13-2.36.32,0,.55.02.75.06Z"/>
      <path class="cls-3" d="M69.41,523.96v.12c0,2.67,1.33,4.85,4.06,4.85,2.4,0,3.33-1.68,3.58-2.81h.65c-.45,1.8-1.8,3.33-4.24,3.33-2.91,0-4.69-2.18-4.69-5.33s1.9-5.37,4.73-5.37,4.34,2.1,4.34,4.69c0,.18,0,.34-.02.53h-8.4ZM69.41,523.44h7.78c0-2.18-1.13-4.16-3.74-4.16s-3.94,1.96-4.04,4.16Z"/>
      <path class="cls-3" d="M92.14,521.9v7.31h-.61v-7.31c0-1.25-.53-2.63-2.71-2.63s-3.74,1.94-3.74,3.25v6.69h-.61v-14.45h.61v6.16h.04c.65-1.13,1.82-2.18,3.84-2.18,1.76,0,3.17,1.05,3.17,3.15Z"/>
      <path class="cls-3" d="M94.09,526.69c0-1.9,1.21-2.71,3.88-3.13,1.56-.24,3.29-.2,3.29-1.98,0-1.56-1.19-2.3-2.79-2.3-2.08,0-3.15.99-3.25,2.54h-.65c.1-1.43.99-3.07,3.9-3.07,1.88,0,3.39.79,3.39,3.13v5.64c0,.87.12,1.21.71,1.21.14,0,.24-.02.38-.04v.53c-.14.02-.32.04-.46.04-.79,0-1.23-.34-1.23-1.7h-.04c-.83,1.33-2.16,1.88-3.8,1.88-1.98,0-3.33-1.07-3.33-2.75ZM101.26,525.64v-2.61c-.3.67-1.58.87-3.09,1.05-1.98.24-3.43.81-3.43,2.42s.99,2.4,2.85,2.4c2.53,0,3.68-1.7,3.68-3.27Z"/>
      <path class="cls-3" d="M111.61,518.91h.61v10.3h-.61v-1.96h-.04c-.65,1.09-1.82,2.12-3.84,2.12-1.76,0-3.17-1.05-3.17-3.15v-7.31h.61v7.31c0,1.25.53,2.63,2.71,2.63s3.74-1.94,3.74-3.25v-6.69Z"/>
      <path class="cls-3" d="M118.11,519.44h-2.28v7.25c0,1.7.34,2.04,1.62,2.04.26,0,.42-.02.67-.04v.5c-.28.04-.53.06-.75.06-1.49,0-2.14-.46-2.14-2.46v-7.35h-1.52v-.53h1.52v-3.43h.61v3.43h2.28v.53Z"/>
      <path class="cls-3" d="M119.54,523.96v.12c0,2.67,1.33,4.85,4.06,4.85,2.4,0,3.33-1.68,3.58-2.81h.65c-.45,1.8-1.8,3.33-4.24,3.33-2.91,0-4.69-2.18-4.69-5.33s1.9-5.37,4.73-5.37,4.34,2.1,4.34,4.69c0,.18,0,.34-.02.53h-8.4ZM119.54,523.44h7.78c0-2.18-1.13-4.16-3.74-4.16s-3.94,1.96-4.04,4.16Z"/>
    </g>
  </g>
  <g>
    <g>
      <path class="cls-1" d="M168.29,574.38v.39c-.11-.01-.34-.03-.4-.03-1.32,0-2.5,1.08-2.5,2.61v4.71h-.45v-7.62h.45v1.64h.03c.33-1,1.25-1.75,2.32-1.75.24,0,.4.01.55.04Z"/>
      <path class="cls-1" d="M174.58,574.42h.45v7.22c0,2.15-1.29,3.15-3.26,3.15s-3.02-1.02-3.14-2.17h.45c.16.91.99,1.78,2.72,1.78s2.78-.82,2.78-2.6v-1.91h-.03c-.43,1.11-1.54,1.87-2.88,1.87-1.67,0-3.24-1.17-3.24-3.77s1.57-3.67,3.24-3.67c1.34,0,2.44.73,2.88,1.91h.03v-1.81ZM174.58,577.99c0-2.24-1.48-3.29-2.81-3.29-1.57,0-2.87,1.04-2.87,3.29s1.3,3.38,2.87,3.38c1.33,0,2.81-1.04,2.81-3.38Z"/>
      <path class="cls-1" d="M183.6,578.23c0,2.46-1.43,3.93-3.18,3.93-1.57,0-2.54-.94-2.99-2.12h-.03v2.02h-.45v-10.68h.45v4.96h.03c.43-1.11,1.42-2.08,3-2.08,1.73,0,3.17,1.46,3.17,3.97ZM183.12,578.23c0-2.24-1.17-3.59-2.79-3.59s-2.93,1.34-2.93,3.59,1.36,3.54,2.93,3.54,2.79-1.34,2.79-3.54Z"/>
      <path class="cls-1" d="M155.27,596.19c0-2.35,1.46-3.95,3.57-3.95,1.76,0,2.93,1.21,3.09,2.62h-.48c-.06-.88-.9-2.23-2.61-2.23-2.02,0-3.09,1.72-3.09,3.56s1.08,3.58,3.09,3.58c1.73,0,2.55-1.33,2.61-2.29h.48c-.11,1.43-1.31,2.67-3.09,2.67-2.11,0-3.57-1.6-3.57-3.97Z"/>
      <path class="cls-1" d="M173.3,594.59v5.39h-.45v-5.39c0-.93-.3-1.94-1.72-1.94-1.66,0-2.58,1.43-2.58,2.4v4.93h-.45v-5.39c0-.93-.3-1.94-1.72-1.94-1.66,0-2.58,1.43-2.58,2.4v4.93h-.45v-7.62h.45v1.46h.03c.37-.81,1.24-1.57,2.55-1.57,1.02,0,1.85.54,2.09,1.61h.03c.42-.85,1.32-1.61,2.63-1.61s2.17.78,2.17,2.33Z"/>
      <path class="cls-1" d="M173.91,602.63v-.37c.18.01.3.03.49.03.55,0,.78-.25.78-1.22v-8.69h.45v8.65c0,1.3-.48,1.66-1.12,1.66-.21,0-.39-.02-.6-.04ZM174.98,590.75v-.84h.84v.84h-.84Z"/>
      <path class="cls-1" d="M183.23,594.57v5.41h-.45v-5.41c0-.93-.39-1.94-2-1.94s-2.76,1.43-2.76,2.41v4.94h-.45v-7.62h.45v1.49h.03c.48-.84,1.34-1.61,2.84-1.61,1.3,0,2.35.78,2.35,2.33Z"/>
      <path class="cls-1" d="M169.17,612.5v5.41h-.45v-5.41c0-.93-.39-1.94-2-1.94s-2.76,1.43-2.76,2.4v4.95h-.45v-10.68h.45v4.56h.03c.48-.84,1.34-1.61,2.84-1.61,1.3,0,2.35.78,2.35,2.33Z"/>
      <path class="cls-1" d="M171.1,614.02v.09c0,1.97.99,3.59,3,3.59,1.78,0,2.46-1.24,2.64-2.08h.48c-.33,1.33-1.33,2.46-3.14,2.46-2.15,0-3.47-1.61-3.47-3.95s1.4-3.97,3.5-3.97,3.21,1.55,3.21,3.46c0,.13,0,.25-.02.39h-6.21ZM171.1,613.63h5.75c0-1.61-.84-3.08-2.76-3.08s-2.91,1.45-2.99,3.08Z"/>
      <path class="cls-1" d="M177.45,617.9l3.06-3.9-2.82-3.72h.55l2.55,3.41h.03l2.55-3.41h.55l-2.82,3.72,3.08,3.9h-.57l-2.79-3.62h-.03l-2.78,3.62h-.57Z"/>
    </g>
    <g>
      <path class="cls-1" d="M207.58,578.71h.51c0,1.79,1.15,3.09,3.2,3.09,1.79,0,2.84-.96,2.84-2.5s-1.38-2.43-2.54-2.43h-1.12v-.42h1.06c1.22,0,2.2-.88,2.2-2.23,0-1.13-.78-2.24-2.43-2.24-2.2,0-2.87,1.37-2.87,2.69h-.51c0-1.75,1.15-3.11,3.38-3.11,1.54,0,2.94.98,2.94,2.66,0,1.29-.67,2-1.67,2.42v.03c1.36.4,2.08,1.36,2.08,2.63,0,1.88-1.38,2.91-3.35,2.91-2.24,0-3.7-1.33-3.7-3.51Z"/>
      <path class="cls-1" d="M216.13,577.34c0-3.88,1.35-5.77,3.72-5.77,1.54,0,2.76.97,2.88,2.63h-.48c-.1-1.38-1.09-2.21-2.4-2.21-2.2,0-3.24,1.88-3.24,5.36v.7h.02c.33-1.82,1.87-2.63,3.15-2.63,2,0,3.27,1.39,3.27,3.36s-1.27,3.44-3.33,3.44c-2.32,0-3.59-1.75-3.59-4.88ZM222.54,578.79c0-1.73-1.02-2.94-2.76-2.94-1.31,0-2.88.96-2.88,3.18,0,1.33.96,2.78,2.82,2.78s2.82-1.26,2.82-3.02Z"/>
      <path class="cls-1" d="M207.77,594.83c0-2.93,1.18-5.33,3.71-5.33s3.69,2.4,3.69,5.33-1.17,5.32-3.69,5.32-3.71-2.39-3.71-5.32ZM214.66,594.83c0-2.72-.99-4.92-3.18-4.92s-3.2,2.2-3.2,4.92,1,4.9,3.2,4.9,3.18-2.18,3.18-4.9Z"/>
      <path class="cls-1" d="M207.56,617.9c0-2.02,1.17-3.32,2.96-4.26,1.76-.93,3.14-1.61,3.14-3.33,0-1.33-.9-2.48-2.48-2.48-1.75,0-2.88,1.34-2.88,2.91h-.48c0-1.69,1.2-3.33,3.36-3.33,1.76,0,2.99,1.06,2.99,2.9s-1.4,2.63-2.87,3.44c-1.48.81-3.23,1.64-3.23,3.71v.03h6.09v.42h-6.6Z"/>
      <path class="cls-1" d="M219.87,617.9v-2.72h-5.21v-.42l5.21-7.19h.48v7.19h1.57v.42h-1.57v2.72h-.48ZM215.21,614.77h4.66v-6.42l-4.66,6.42Z"/>
      <path class="cls-1" d="M222.78,617.9c0-2.02,1.17-3.32,2.96-4.26,1.76-.93,3.14-1.61,3.14-3.33,0-1.33-.9-2.48-2.48-2.48-1.75,0-2.88,1.34-2.88,2.91h-.48c0-1.69,1.2-3.33,3.36-3.33,1.76,0,2.99,1.06,2.99,2.9s-1.4,2.63-2.87,3.44c-1.48.81-3.23,1.64-3.23,3.71v.03h6.1v.42h-6.6Z"/>
      <path class="cls-1" d="M230.64,614.56h.51c0,1.79,1.15,3.09,3.2,3.09,1.79,0,2.84-.96,2.84-2.5s-1.38-2.43-2.54-2.43h-1.12v-.42h1.06c1.22,0,2.2-.88,2.2-2.23,0-1.13-.78-2.24-2.43-2.24-2.2,0-2.87,1.37-2.87,2.69h-.51c0-1.75,1.15-3.11,3.38-3.11,1.54,0,2.94.98,2.94,2.66,0,1.29-.67,2-1.67,2.42v.03c1.36.4,2.08,1.36,2.08,2.63,0,1.88-1.38,2.91-3.35,2.91-2.24,0-3.7-1.33-3.7-3.51Z"/>
      <path class="cls-1" d="M238.96,617.9c0-2.02,1.17-3.32,2.96-4.26,1.76-.93,3.14-1.61,3.14-3.33,0-1.33-.9-2.48-2.48-2.48-1.75,0-2.88,1.34-2.88,2.91h-.48c0-1.69,1.2-3.33,3.36-3.33,1.76,0,2.99,1.06,2.99,2.9s-1.4,2.63-2.87,3.44c-1.48.81-3.23,1.64-3.23,3.71v.03h6.09v.42h-6.6Z"/>
      <path class="cls-1" d="M246.81,614.56h.51c0,1.79,1.15,3.09,3.2,3.09,1.79,0,2.84-.96,2.84-2.5s-1.37-2.43-2.54-2.43h-1.12v-.42h1.06c1.23,0,2.2-.88,2.2-2.23,0-1.13-.78-2.24-2.44-2.24-2.2,0-2.87,1.37-2.87,2.69h-.51c0-1.75,1.15-3.11,3.38-3.11,1.54,0,2.94.98,2.94,2.66,0,1.29-.67,2-1.67,2.42v.03c1.36.4,2.08,1.36,2.08,2.63,0,1.88-1.37,2.91-3.35,2.91-2.24,0-3.7-1.33-3.7-3.51Z"/>
    </g>
    <g>
      <path class="cls-1" d="M245.49,578.71h.51c0,1.79,1.15,3.09,3.2,3.09,1.79,0,2.84-.96,2.84-2.5s-1.37-2.43-2.54-2.43h-1.12v-.42h1.06c1.23,0,2.2-.88,2.2-2.23,0-1.13-.78-2.24-2.44-2.24-2.2,0-2.87,1.37-2.87,2.69h-.51c0-1.75,1.15-3.11,3.38-3.11,1.54,0,2.94.98,2.94,2.66,0,1.29-.67,2-1.67,2.42v.03c1.36.4,2.08,1.36,2.08,2.63,0,1.88-1.37,2.91-3.35,2.91-2.24,0-3.7-1.33-3.7-3.51Z"/>
      <path class="cls-1" d="M253.82,579.31h.48c.08,1.49,1.08,2.5,2.82,2.5,1.57,0,2.85-.96,2.85-3.15,0-2.05-1.25-2.91-2.78-2.91s-2.33.84-2.64,1.36h-.52l1.12-5.36h4.83v.42h-4.45l-.88,4.2v.03c.67-.75,1.67-1.06,2.66-1.06,2.02,0,3.18,1.42,3.18,3.33,0,2.17-1.27,3.57-3.36,3.57-2.3,0-3.26-1.48-3.3-2.91Z"/>
      <path class="cls-1" d="M245.49,596.64h.51c0,1.79,1.15,3.09,3.2,3.09,1.79,0,2.84-.96,2.84-2.49s-1.37-2.44-2.54-2.44h-1.12v-.42h1.06c1.23,0,2.2-.88,2.2-2.23,0-1.13-.78-2.24-2.44-2.24-2.2,0-2.87,1.38-2.87,2.69h-.51c0-1.75,1.15-3.11,3.38-3.11,1.54,0,2.94.99,2.94,2.66,0,1.29-.67,2-1.67,2.42v.03c1.36.4,2.08,1.36,2.08,2.63,0,1.88-1.37,2.91-3.35,2.91-2.24,0-3.7-1.33-3.7-3.51Z"/>
    </g>
    <g>
      <path class="cls-1" d="M283.4,578.71h.51c0,1.79,1.15,3.09,3.2,3.09,1.79,0,2.84-.96,2.84-2.5s-1.37-2.43-2.54-2.43h-1.12v-.42h1.06c1.23,0,2.2-.88,2.2-2.23,0-1.13-.78-2.24-2.44-2.24-2.2,0-2.87,1.37-2.87,2.69h-.51c0-1.75,1.15-3.11,3.38-3.11,1.54,0,2.94.98,2.94,2.66,0,1.29-.67,2-1.67,2.42v.03c1.36.4,2.08,1.36,2.08,2.63,0,1.88-1.37,2.91-3.35,2.91-2.24,0-3.71-1.33-3.71-3.51Z"/>
      <path class="cls-1" d="M291.74,579.31h.48c.07,1.49,1.08,2.5,2.82,2.5,1.57,0,2.85-.96,2.85-3.15,0-2.05-1.25-2.91-2.78-2.91s-2.33.84-2.64,1.36h-.52l1.12-5.36h4.82v.42h-4.45l-.88,4.2v.03c.67-.75,1.67-1.06,2.66-1.06,2.02,0,3.18,1.42,3.18,3.33,0,2.17-1.27,3.57-3.36,3.57-2.3,0-3.26-1.48-3.3-2.91Z"/>
      <path class="cls-1" d="M283.4,596.64h.51c0,1.79,1.15,3.09,3.2,3.09,1.79,0,2.84-.96,2.84-2.49s-1.37-2.44-2.54-2.44h-1.12v-.42h1.06c1.23,0,2.2-.88,2.2-2.23,0-1.13-.78-2.24-2.44-2.24-2.2,0-2.87,1.38-2.87,2.69h-.51c0-1.75,1.15-3.11,3.38-3.11,1.54,0,2.94.99,2.94,2.66,0,1.29-.67,2-1.67,2.42v.03c1.36.4,2.08,1.36,2.08,2.63,0,1.88-1.37,2.91-3.35,2.91-2.24,0-3.71-1.33-3.71-3.51Z"/>
    </g>
    <g>
      <path class="cls-1" d="M321.45,597.11c0-1.4.91-2.32,2.17-2.75v-.03c-.96-.39-1.7-1.12-1.7-2.29,0-1.63,1.37-2.55,3.11-2.55s3.11.93,3.11,2.55c0,1.17-.76,1.9-1.7,2.29v.03c1.24.43,2.17,1.35,2.17,2.75,0,1.96-1.76,3.03-3.57,3.03s-3.57-1.07-3.57-3.03ZM328.09,597.11c0-1.57-1.42-2.55-3.06-2.55s-3.06.99-3.06,2.55,1.42,2.61,3.06,2.61,3.06-1,3.06-2.61ZM327.62,592.05c0-1.38-1.12-2.14-2.6-2.14s-2.6.76-2.6,2.14c0,1.3,1.12,2.09,2.6,2.09s2.6-.79,2.6-2.09Z"/>
      <path class="cls-1" d="M330.08,595.26c0-3.88,1.34-5.77,3.72-5.77,1.54,0,2.76.97,2.88,2.63h-.48c-.1-1.37-1.09-2.21-2.41-2.21-2.2,0-3.24,1.88-3.24,5.36v.7h.02c.33-1.82,1.87-2.63,3.15-2.63,2,0,3.27,1.39,3.27,3.36s-1.27,3.44-3.33,3.44c-2.31,0-3.58-1.75-3.58-4.88ZM336.49,596.71c0-1.73-1.02-2.94-2.76-2.94-1.31,0-2.88.96-2.88,3.18,0,1.33.96,2.78,2.82,2.78s2.82-1.25,2.82-3.02Z"/>
    </g>
    <g>
      <path class="cls-1" d="M20.41,581.46c0-3.17,1.8-5.35,4.75-5.35s4.75,2.18,4.75,5.35-1.8,5.35-4.75,5.35-4.75-2.18-4.75-5.35ZM29.26,581.46c0-2.77-1.45-4.83-4.1-4.83s-4.1,2.06-4.1,4.83,1.45,4.83,4.1,4.83,4.1-2.06,4.1-4.83Z"/>
      <path class="cls-1" d="M45.4,579.28v7.29h-.61v-7.29c0-1.25-.4-2.63-2.32-2.63-2.24,0-3.5,1.94-3.5,3.25v6.67h-.61v-7.29c0-1.25-.4-2.63-2.32-2.63-2.24,0-3.5,1.94-3.5,3.25v6.67h-.61v-10.3h.61v1.98h.04c.5-1.09,1.68-2.12,3.46-2.12,1.37,0,2.5.73,2.83,2.18h.04c.57-1.15,1.78-2.18,3.56-2.18s2.93,1.05,2.93,3.15Z"/>
      <path class="cls-1" d="M56.93,581.4c0,3.33-1.94,5.31-4.3,5.31-2.12,0-3.43-1.27-4.04-2.87h-.04v2.73h-.61v-14.45h.61v6.71h.04c.59-1.5,1.92-2.81,4.06-2.81,2.34,0,4.28,1.98,4.28,5.37ZM56.29,581.4c0-3.03-1.58-4.85-3.78-4.85s-3.96,1.82-3.96,4.85,1.84,4.79,3.96,4.79,3.78-1.82,3.78-4.79Z"/>
      <path class="cls-1" d="M63.49,576.19v.53c-.14-.02-.46-.04-.55-.04-1.78,0-3.37,1.46-3.37,3.54v6.36h-.61v-10.3h.61v2.22h.04c.44-1.35,1.7-2.36,3.13-2.36.32,0,.54.02.75.06Z"/>
      <path class="cls-1" d="M63.88,584.05c0-1.9,1.21-2.71,3.88-3.13,1.56-.24,3.29-.2,3.29-1.98,0-1.55-1.19-2.3-2.79-2.3-2.08,0-3.15.99-3.25,2.54h-.65c.1-1.43.99-3.07,3.9-3.07,1.88,0,3.39.79,3.39,3.13v5.64c0,.87.12,1.21.71,1.21.14,0,.24-.02.38-.04v.53c-.14.02-.32.04-.46.04-.79,0-1.23-.34-1.23-1.7h-.04c-.83,1.33-2.16,1.88-3.8,1.88-1.98,0-3.33-1.07-3.33-2.75ZM71.05,582.99v-2.61c-.3.67-1.58.87-3.09,1.05-1.98.24-3.43.81-3.43,2.42s.99,2.4,2.85,2.4c2.53,0,3.68-1.7,3.68-3.27Z"/>
      <path class="cls-1" d="M82.16,576.25h.61v9.76c0,2.91-1.74,4.26-4.4,4.26s-4.08-1.37-4.24-2.93h.61c.22,1.23,1.33,2.4,3.68,2.4s3.76-1.11,3.76-3.52v-2.59h-.04c-.59,1.5-2.08,2.53-3.9,2.53-2.26,0-4.38-1.57-4.38-5.09s2.12-4.97,4.38-4.97c1.82,0,3.29.99,3.9,2.59h.04v-2.44ZM82.16,581.08c0-3.03-2-4.45-3.8-4.45-2.12,0-3.88,1.41-3.88,4.45s1.76,4.56,3.88,4.56c1.8,0,3.8-1.41,3.8-4.56Z"/>
      <path class="cls-1" d="M85.43,581.32v.12c0,2.67,1.33,4.85,4.06,4.85,2.4,0,3.33-1.68,3.58-2.81h.65c-.44,1.8-1.8,3.33-4.24,3.33-2.91,0-4.69-2.18-4.69-5.33s1.9-5.38,4.73-5.38,4.34,2.1,4.34,4.69c0,.18,0,.34-.02.53h-8.4ZM85.43,580.79h7.78c0-2.18-1.13-4.16-3.74-4.16s-3.94,1.96-4.04,4.16Z"/>
    </g>
  </g>
</svg>