<?xml version="1.0" encoding="UTF-8"?>
<svg id="Layer_1" data-name="Layer 1" xmlns="http://www.w3.org/2000/svg" viewBox="0 0 318.87 104.75">
  <defs>
    <style>
      .cls-1 {
        fill: #231f20;
      }
    </style>
  </defs>
  <polygon class="cls-1" points="61.06 14.42 61.06 1.82 13.72 1.82 .98 1.82 0 1.82 0 103.07 13.72 103.07 13.72 60.08 53.5 60.08 53.5 47.61 13.72 47.61 13.72 14.42 61.06 14.42"/>
  <rect class="cls-1" x="70.16" width="13.16" height="103.07"/>
  <path class="cls-1" d="M109.86,100.13c5.37,3.08,11.51,4.62,18.42,4.62s13.02-1.54,18.35-4.62c5.32-3.08,9.52-7.33,12.6-12.74,3.08-5.41,4.62-11.62,4.62-18.63s-1.54-13.21-4.62-18.62c-3.08-5.41-7.28-9.66-12.6-12.74-5.32-3.08-11.44-4.62-18.35-4.62s-13.05,1.54-18.42,4.62c-5.37,3.08-9.59,7.33-12.67,12.74-3.08,5.42-4.62,11.62-4.62,18.62s1.54,13.21,4.62,18.63c3.08,5.42,7.3,9.66,12.67,12.74ZM108.74,56.09c1.91-3.59,4.55-6.42,7.91-8.47,3.36-2.05,7.23-3.08,11.62-3.08s8.26,1.03,11.62,3.08c3.36,2.05,6,4.88,7.91,8.47,1.91,3.6,2.87,7.82,2.87,12.67s-.96,8.96-2.87,12.6c-1.91,3.64-4.55,6.49-7.91,8.54-3.36,2.05-7.24,3.08-11.62,3.08s-8.26-1.03-11.62-3.08c-3.36-2.05-6-4.9-7.91-8.54-1.92-3.64-2.87-7.84-2.87-12.6s.96-9.08,2.87-12.67Z"/>
  <path class="cls-1" d="M197.46,103.07l11.9-36.55c1.21-4.11,2.17-7.4,2.87-9.87.7-2.47,1.24-4.55,1.61-6.23.37,1.87.91,4.13,1.61,6.79.7,2.66,1.61,5.72,2.73,9.17l11.9,36.69h12.46l23.39-68.48h-13.72l-11.48,35.57c-.65,2.05-1.24,3.95-1.75,5.67-.51,1.73-.98,3.46-1.4,5.18-.42,1.73-.82,3.53-1.19,5.39-.28-1.31-.61-2.71-.98-4.2-.37-1.49-.79-2.99-1.26-4.48-.47-1.49-.86-2.92-1.19-4.27-.33-1.35-.68-2.45-1.05-3.29l-11.34-35.57h-13.44l-11.48,35.57c-.47,1.5-.98,3.11-1.54,4.83-.56,1.73-1.1,3.55-1.61,5.46-.51,1.92-.96,3.9-1.33,5.95-.65-2.99-1.31-5.81-1.96-8.47-.65-2.66-1.4-5.25-2.24-7.77l-11.34-35.57h-13.58l22.41,68.48h13.02Z"/>
  <path class="cls-1" d="M301.51,65.12l-12.04-2.94c-6.72-1.68-10.08-4.81-10.08-9.38,0-3.08,1.12-5.51,3.36-7.28,2.24-1.77,5.41-2.66,9.52-2.66s7.14.98,9.38,2.94c2.24,1.96,3.41,4.72,3.5,8.26h12.6c-.09-4.39-1.19-8.17-3.29-11.34-2.1-3.17-5-5.65-8.68-7.42-3.69-1.77-8.05-2.66-13.09-2.66s-9.5.84-13.37,2.52c-3.88,1.68-6.91,4.06-9.1,7.14-2.19,3.08-3.29,6.72-3.29,10.92,0,5.04,1.47,9.1,4.41,12.18,2.94,3.08,7.44,5.37,13.51,6.86l12.04,2.8c3.55.93,6,2.15,7.35,3.64,1.35,1.49,2.03,3.36,2.03,5.6,0,3.08-1.26,5.53-3.78,7.35-2.52,1.82-6.12,2.73-10.78,2.73-4.29,0-7.7-1-10.22-3.01-2.52-2.01-3.78-4.74-3.78-8.19h-12.6c0,6.54,2.38,11.76,7.14,15.68,4.76,3.92,11.15,5.88,19.19,5.88,5.51,0,10.29-.86,14.35-2.59,4.06-1.73,7.26-4.2,9.59-7.42,2.33-3.22,3.5-6.98,3.5-11.27,0-5.04-1.45-9.03-4.34-11.97-2.9-2.94-7.24-5.06-13.02-6.37Z"/>
</svg>