<?xml version="1.0" encoding="UTF-8"?>
<svg id="Layer_1" data-name="Layer 1" xmlns="http://www.w3.org/2000/svg" viewBox="0 0 473.07 78.19">
  <defs>
    <style>
      .cls-1 {
        fill: #fff;
      }
    </style>
  </defs>
  <path class="cls-1" d="M59.81,24.27c-4.48,0-8.28,1.17-11.41,3.51-2.26,1.69-3.89,3.77-4.91,6.24-1.15-2.47-2.74-4.56-4.8-6.24-2.86-2.34-6.53-3.51-11-3.51-4.13,0-7.58.95-10.33,2.84-2.07,1.42-3.65,3.01-4.75,4.77l-1.03-6.06H0v51.03h12.6v-28.92c0-2.75.48-5.04,1.45-6.87.96-1.82,2.27-3.17,3.93-4.03,1.65-.86,3.48-1.29,5.47-1.29,2.96,0,5.34.93,7.13,2.79,1.79,1.86,2.69,4.58,2.69,8.16v30.16h12.6v-28.92c0-2.82.48-5.13,1.45-6.92.96-1.79,2.25-3.13,3.87-4.03,1.62-.89,3.39-1.34,5.32-1.34,3.03,0,5.46.95,7.28,2.84,1.82,1.9,2.74,4.67,2.74,8.31v30.06h12.5v-33.36c0-5.85-1.65-10.52-4.96-14-3.31-3.48-8.06-5.22-14.25-5.22Z"/>
  <path class="cls-1" d="M121.16,26.7c-3.31-1.62-7.27-2.43-11.88-2.43s-8.56.76-12.03,2.27c-3.48,1.52-6.16,3.63-8.06,6.35-1.9,2.72-2.84,5.94-2.84,9.66h10.74c0-2.69,1-4.77,3-6.25,2-1.48,4.85-2.22,8.57-2.22,2.13,0,3.99.33,5.58.98,1.58.66,2.8,1.69,3.67,3.1.86,1.41,1.29,3.29,1.29,5.63v1.14l-15.29,1.24c-6.06.48-10.73,2.12-14,4.91-3.27,2.79-4.91,6.52-4.91,11.21s1.57,8.59,4.7,11.52c3.13,2.93,7.39,4.39,12.76,4.39,3.99,0,7.56-.83,10.69-2.48,3.13-1.65,5.25-3.79,6.35-6.4l.93,7.54h11.05v-30.99c0-4.75-.9-8.73-2.69-11.93-1.79-3.2-4.34-5.61-7.64-7.23ZM119.3,56.19c0,3.93-1.15,6.99-3.46,9.19-2.31,2.2-5.42,3.31-9.35,3.31-2.76,0-4.89-.58-6.4-1.76-1.52-1.17-2.27-2.89-2.27-5.17,0-2.07.83-3.73,2.48-5.01,1.65-1.27,4.44-2.08,8.37-2.43l10.64-.83v2.69Z"/>
  <path class="cls-1" d="M171.78,25.62c-1.03-.27-2-.45-2.89-.52-.9-.07-1.79-.1-2.69-.1-4.06,0-7.37,1.07-9.92,3.2-1.74,1.46-3.04,3.21-3.91,5.25l-.74-7.52h-11.88v50.92h12.6v-24.79c0-4.96,1.31-8.66,3.93-11.1,2.62-2.44,6.23-3.67,10.85-3.67h4.65v-11.67Z"/>
  <path class="cls-1" d="M206.02,65.9c-2.24,1.31-5.08,1.96-8.52,1.96-4.68,0-8.21-1.41-10.59-4.24-1.89-2.25-3.02-5.36-3.4-9.31l38.37-.09v-3.82c0-5.37-1.02-9.98-3.05-13.84-2.03-3.86-4.91-6.87-8.62-9.04-3.72-2.17-8.16-3.25-13.32-3.25s-9.37,1.15-13.22,3.46c-3.86,2.31-6.85,5.49-8.99,9.55-2.14,4.06-3.2,8.75-3.2,14.05s1.1,9.86,3.31,13.89c2.2,4.03,5.25,7.2,9.14,9.5,3.89,2.31,8.35,3.46,13.38,3.46,6.68,0,12.2-1.58,16.58-4.75,4.37-3.17,7.11-7.54,8.21-13.12h-11.67c-.69,2.41-2.15,4.27-4.39,5.58ZM189.49,36.46c2.03-1.24,4.53-1.86,7.49-1.86,3.79,0,6.8,1.07,9.04,3.2,2.24,2.14,3.36,4.96,3.36,8.47h-25.66c.26-1.55.65-2.97,1.17-4.24,1.03-2.48,2.56-4.34,4.6-5.58Z"/>
  <polygon class="cls-1" points="260.4 25.82 240.57 47.21 240.57 0 228.07 0 228.07 76.85 240.57 76.85 240.57 63.11 248 55.37 261.33 76.85 275.79 76.85 256.78 46.07 276.2 25.82 260.4 25.82"/>
  <path class="cls-1" d="M322.32,27.73c-3.48-2.31-7.66-3.46-12.55-3.46-3.93,0-7.47.77-10.64,2.32-3.17,1.55-5.58,3.77-7.23,6.66V0h-12.6v76.85h11.67l.83-7.95c1.51,2.89,3.8,5.16,6.87,6.82,3.06,1.65,6.49,2.48,10.28,2.48,4.89,0,9.16-1.12,12.81-3.36,3.65-2.24,6.47-5.35,8.47-9.35,2-3.99,3-8.57,3-13.74,0-5.44-.95-10.23-2.84-14.36-1.89-4.13-4.58-7.35-8.06-9.66ZM318.86,59.19c-1.1,2.34-2.72,4.17-4.86,5.47-2.13,1.31-4.68,1.96-7.64,1.96s-5.42-.64-7.59-1.91c-2.17-1.27-3.84-3.1-5.01-5.47-1.17-2.38-1.76-5.08-1.76-8.11s.58-5.8,1.76-8.11c1.17-2.31,2.84-4.13,5.01-5.47s4.7-2.01,7.59-2.01,5.51.67,7.64,2.01c2.13,1.34,3.75,3.19,4.86,5.53,1.1,2.34,1.65,5.03,1.65,8.06s-.55,5.72-1.65,8.06Z"/>
  <rect class="cls-1" x="339.31" width="12.5" height="76.85"/>
  <path class="cls-1" d="M394.78,26.7c-3.31-1.62-7.27-2.43-11.88-2.43s-8.56.76-12.03,2.27c-3.48,1.52-6.16,3.63-8.06,6.35-1.89,2.72-2.84,5.94-2.84,9.66h10.74c0-2.69,1-4.77,3-6.25,2-1.48,4.86-2.22,8.57-2.22,2.13,0,3.99.33,5.58.98,1.58.66,2.81,1.69,3.67,3.1.86,1.41,1.29,3.29,1.29,5.63v1.14l-15.29,1.24c-6.06.48-10.73,2.12-14,4.91-3.27,2.79-4.91,6.52-4.91,11.21s1.57,8.59,4.7,11.52c3.13,2.93,7.39,4.39,12.76,4.39,3.99,0,7.56-.83,10.69-2.48,3.13-1.65,5.25-3.79,6.35-6.4l.93,7.54h11.05v-30.99c0-4.75-.9-8.73-2.69-11.93-1.79-3.2-4.34-5.61-7.64-7.23ZM392.92,56.19c0,3.93-1.15,6.99-3.46,9.19-2.31,2.2-5.42,3.31-9.35,3.31-2.75,0-4.89-.58-6.4-1.76-1.51-1.17-2.27-2.89-2.27-5.17,0-2.07.83-3.73,2.48-5.01,1.65-1.27,4.44-2.08,8.37-2.43l10.64-.83v2.69Z"/>
  <rect class="cls-1" x="413.37" y="25.82" width="12.6" height="51.03"/>
  <path class="cls-1" d="M419.57.41c-2.13,0-3.94.72-5.42,2.17-1.48,1.45-2.22,3.24-2.22,5.37s.74,3.94,2.22,5.42c1.48,1.48,3.29,2.22,5.42,2.22s3.94-.74,5.42-2.22c1.48-1.48,2.22-3.29,2.22-5.42s-.74-3.93-2.22-5.37c-1.48-1.45-3.29-2.17-5.42-2.17Z"/>
  <path class="cls-1" d="M469.82,52.37c-2.17-2.13-5.39-3.68-9.66-4.65l-9.19-2.17c-4.41-1.03-6.61-2.96-6.61-5.78,0-1.86.69-3.34,2.07-4.44,1.38-1.1,3.31-1.65,5.78-1.65s4.41.64,5.79,1.91c1.38,1.27,2.07,3.01,2.07,5.22h11.98c-.07-3.31-.91-6.2-2.53-8.68-1.62-2.48-3.87-4.41-6.77-5.78-2.89-1.38-6.23-2.07-10.02-2.07s-7.4.64-10.43,1.91c-3.03,1.27-5.42,3.12-7.18,5.53-1.76,2.41-2.63,5.27-2.63,8.57,0,4.06,1.12,7.25,3.36,9.55,2.24,2.31,5.66,3.98,10.28,5.01l9.19,2.17c2.27.48,3.82,1.21,4.65,2.17.83.96,1.24,2.07,1.24,3.31,0,1.86-.78,3.34-2.32,4.44-1.55,1.1-3.84,1.65-6.87,1.65-2.82,0-5.03-.65-6.61-1.96-1.58-1.31-2.41-3.06-2.48-5.27h-11.98c0,5.03,1.88,9.09,5.63,12.19,3.75,3.1,8.8,4.65,15.13,4.65,4.2,0,7.92-.67,11.16-2.01,3.24-1.34,5.75-3.27,7.54-5.78,1.79-2.51,2.69-5.49,2.69-8.93,0-3.93-1.08-6.95-3.25-9.09Z"/>
</svg>