<?xml version="1.0" encoding="UTF-8"?>
<svg id="Layer_1" data-name="Layer 1" xmlns="http://www.w3.org/2000/svg" viewBox="0 0 141.2 78.19">
  <defs>
    <style>
      .cls-1 {
        fill: #fff;
      }
    </style>
  </defs>
  <path class="cls-1" d="M59.81,24.27c-4.48,0-8.28,1.17-11.41,3.51-2.26,1.69-3.89,3.77-4.91,6.24-1.15-2.47-2.74-4.56-4.8-6.24-2.86-2.34-6.53-3.51-11-3.51-4.13,0-7.58.95-10.33,2.84-2.07,1.42-3.65,3.01-4.75,4.77l-1.03-6.06H0v51.03h12.6v-28.92c0-2.75.48-5.04,1.45-6.87.96-1.82,2.27-3.17,3.93-4.03,1.65-.86,3.48-1.29,5.47-1.29,2.96,0,5.34.93,7.13,2.79,1.79,1.86,2.69,4.58,2.69,8.16v30.16h12.6v-28.92c0-2.82.48-5.13,1.45-6.92.96-1.79,2.25-3.13,3.87-4.03,1.62-.89,3.39-1.34,5.32-1.34,3.03,0,5.46.95,7.28,2.84,1.82,1.9,2.74,4.67,2.74,8.31v30.06h12.5v-33.36c0-5.85-1.65-10.52-4.96-14-3.31-3.48-8.06-5.22-14.25-5.22Z"/>
  <path class="cls-1" d="M138.36,37.39c-1.89-4.13-4.58-7.35-8.06-9.66-3.48-2.31-7.66-3.46-12.55-3.46-3.93,0-7.47.77-10.64,2.32-3.17,1.55-5.58,3.77-7.23,6.66V0h-12.6v76.85h11.67l.83-7.95c1.51,2.89,3.8,5.16,6.87,6.82,3.06,1.65,6.49,2.48,10.28,2.48,4.89,0,9.16-1.12,12.81-3.36,3.65-2.24,6.47-5.35,8.47-9.35,2-3.99,3-8.57,3-13.74,0-5.44-.95-10.23-2.84-14.36ZM126.84,59.19c-1.1,2.34-2.72,4.17-4.85,5.47-2.14,1.31-4.68,1.96-7.64,1.96s-5.42-.64-7.59-1.91c-2.17-1.27-3.84-3.1-5.01-5.47-1.17-2.38-1.76-5.08-1.76-8.11s.58-5.8,1.76-8.11c1.17-2.31,2.84-4.13,5.01-5.47,2.17-1.34,4.7-2.01,7.59-2.01s5.51.67,7.64,2.01c2.13,1.34,3.75,3.19,4.85,5.53,1.1,2.34,1.65,5.03,1.65,8.06s-.55,5.72-1.65,8.06Z"/>
</svg>