<?xml version="1.0" encoding="UTF-8"?>
<svg id="Layer_1" data-name="Layer 1" xmlns="http://www.w3.org/2000/svg" viewBox="0 0 155.99 22.24">
  <g>
    <path d="M21.51,7c-2.45-1.4-5.96-.72-7.71,1.5-.41.34-.74.26-1.11-.12-1.82-2.51-6.16-2.87-8.38-.54-1.75,2.11-.64-1-2.2-1.2-.69-.03-1.67-.21-2.04.19-.13,1.74,0,7.9-.04,11.92.02,1.44-.04,2.49.04,2.85.19.33.69.21,1.51.25.89-.05,1.53.15,1.72-.43.17-2.36-.12-5.89.13-8.35.18-3.66,5.17-5.72,6.74-1.82.73,2.9.23,5.58.37,8.58.04,1.17-.14,1.81.36,1.94.56.11,2.06.17,2.7-.04.1-.07.18-.17.22-.3.1-.9.01-1.84.04-3.22.21-3.16-1.06-8.16,3.02-9.02,4.35-.63,4.3,3.76,4.18,7.04.09,1.45-.17,4.33.12,5.38.31.35,1.1.22,1.63.25.51-.02.99.05,1.36-.17.44-.97.05-4.31.18-6.64.1-2.8-.09-6.34-2.67-7.95l-.15-.09Z"/>
    <path d="M37.16,7c-3.42-1.53-8.45-.83-10.06,2.83-.18.43-.44,1.07-.08,1.41.36.34,1.63.34,2.32.14.9-.28,1.09-1.33,1.86-1.8,1.92-1.42,5.41-.51,5.6,2.15.23,1.49-2.32.91-3.24,1.03-1.26,0-2.41.06-3.59.4-3.23.64-4.79,4.79-2.64,7.33,1.78,2.05,5.1,2.13,7.4.97.45-.23.86-.52,1.22-.85.59-.5,1.04-1.26,1.31-.21.13.84.47,1.51,1.43,1.47.58-.03,1.41.17,1.55-.48.06-1.23,0-6.5.02-8.19.14-2.19-.72-5.04-2.95-6.12l-.15-.08ZM36.48,16.77c-.7,2.21-3.52,3.42-5.58,2.41-1.13-.51-1.47-2.06-.77-3.04.65-.88,1.76-1.07,2.89-1.11.98-.02,2.68,0,3.51,0,.63-.14.03,1.36-.02,1.62l-.05.14Z"/>
    <path d="M47.26,7.63c-.51.61-.88,1.28-1.3,1.8-.2.22-.27.01-.37-.73-.19-1.6-.03-2.24-1.95-2.11-.49-.01-.95.03-1.04.25-.15,1.19-.05,2.84-.08,4.34,0,4.03,0,9.32.04,10.43.03.1.11.18.29.22.47.08,1.66.06,2.29.03.3-.03.53-.11.62-.35.69-4.07-1.97-11.24,4.31-11.73,1.09.02,1.44-.42,1.38-1.49,0-.55.08-1.61-.36-1.84-1-.49-3.08.34-3.74,1.08l-.1.11Z"/>
    <path d="M63.5,7.21c-6.49-3.43-13.27,2.41-11.29,9.46,1.38,6.36,11.21,7.58,13.95,1.6.95-1.65-2.78-1.21-3.28-.42-1.96,2.72-6.9,1.65-7.52-1.81-.39-1.6.99-.87,2.44-1.03,2.36,0,5.33,0,7.68,0,.79,0,1.25.06,1.43-.28.64-2.75-.8-5.95-3.26-7.44l-.15-.09ZM55.22,12.62c.47-4.95,8.45-5.02,8.47.07-1.29.19-2.85,0-4.37.07-1.41-.06-2.94.12-4.1-.06v-.08Z"/>
    <path d="M81.94,6.68c-.64-.09-2.74-.09-3.49,0-.6.13-.87.62-1.32,1.06-1.51,1.59-3.91,4.29-4.69,4.99-.21.13-.09-.87-.12-2.38-.02-2.3.03-8.17-.02-9.61-.14-.47-.56-.32-1.34-.38-.76.07-1.68-.17-1.98.23-.05,1.61,0,18.27-.02,20.8-.04.65,1,.35,1.57.43.65-.07,1.51.21,1.75-.45.1-1.04,0-5.86.05-6.88.02-.13,0-.28.12-.24.36.29,3.63,4.23,5.35,6.22.46.48.68.95,1.21,1.23.33.15,1.13.11,2.17.12.93,0,1.64.02,1.73-.1-.2-.66-1.81-2.05-2.52-2.97-1.34-1.58-3.44-3.62-4.56-5.16.65-1.21,2.7-2.91,3.71-4.14.59-.75,2.41-2.3,2.44-2.76l-.05-.03Z"/>
    <path d="M103.25,7.25c-2.41-1.4-5.95-1.29-8.1.53-1.54,1.48-1.04-.93-1.16-1.96,0-1.75.08-3.75.02-4.65-.02-.82-1.05-.84-1.73-.84-.74.03-1.44-.1-1.55.52.01,2.64-.15,16.56.03,20.35,0,.61.44.65,1.33.63.78-.05,1.28-.33,1.44-.97.24-1.36.58-1.21,1.57-.35,9.24,6.52,16.25-7.36,8.29-13.18l-.14-.09ZM102.8,17.1c-1.11,2.17-4.11,2.91-6.24,1.81-2.6-1.32-3.14-4.93-1.94-7.38.43-.85,1.04-1.57,1.92-1.98,4.88-2.4,8.42,3.08,6.32,7.42l-.06.13Z"/>
    <path d="M109.38,21.72c.26.13.75.13,1.31.12.72-.06,1.3.07,1.53-.44.07-2.28.11-14.61.01-19.89.05-.84-.62-1.19-1.4-1.16-.73-.04-1.92.03-1.84.72-.01,4.64-.07,9.94-.06,14.66,0,2.08.03,3.95.1,5.24.02.27.04.53.26.69l.09.05Z"/>
    <path d="M125.41,7c-3.42-1.53-8.45-.83-10.06,2.83-.18.43-.44,1.07-.08,1.41.36.34,1.63.34,2.32.14.9-.28,1.09-1.33,1.86-1.8,1.92-1.42,5.41-.51,5.6,2.15.23,1.49-2.32.91-3.23,1.03-1.26,0-2.41.06-3.59.4-3.23.64-4.79,4.79-2.64,7.33,1.78,2.05,5.1,2.13,7.4.97.45-.23.86-.52,1.22-.85.59-.5,1.04-1.26,1.31-.21.13.84.47,1.51,1.43,1.47.58-.03,1.41.17,1.55-.48.06-1.23,0-6.5.02-8.19.14-2.19-.72-5.04-2.95-6.12l-.15-.08ZM124.73,16.77c-.7,2.21-3.52,3.42-5.58,2.41-1.13-.51-1.47-2.06-.77-3.04.65-.88,1.76-1.07,2.9-1.11.98-.02,2.68,0,3.51,0,.63-.14.03,1.36-.02,1.62l-.05.14Z"/>
    <path d="M131.7,21.67c.27.15.76.17,1.29.16.89-.03,1.68-.02,1.63-.96,0-2.4,0-9.46,0-12.61,0-.54.02-1.11-.46-1.41-.61-.3-1.96-.4-2.59.06-.5.79-.2,1.94-.27,2.92.01,3.07-.06,7.66,0,10.67.02.39,0,.88.3,1.11l.1.06Z"/>
    <path d="M132.88,0c-3.04.12-2.6,4.56.47,4.08,2.52-.41,2.19-4.04-.32-4.08h-.15Z"/>
    <path d="M149.01,14.94c-1.75-1.72-4.76-2.09-6.93-2.98-.47-.2-.94-.5-1.15-.96-.57-1.38,1.12-2.24,2.31-2.14.96-.03,1.98.41,2.5,1.19.33.42.71.74,1.4.83.45.05.99.07,1.42-.04.57-.14.69-.53.5-1.09-1.61-5-11.35-4.67-11.73.88-.04,3.82,4.64,4.11,7.36,5.21,2.65.84,2.01,3.68-.65,3.79-1.23.1-2.49-.28-3.23-1.23-.6-.86-1.15-1.38-2.38-1.33-1.28-.06-1.95.31-1.35,1.51.93,2.16,3.17,3.37,5.56,3.58,4.23.73,9.21-2.79,6.47-7.09l-.11-.13Z"/>
  </g>
  <path d="M155.75,21.66c-.32.24-1.01.15-1.48.17-.59-.04-1.44.15-1.64-.54-.07-.67-.25-2.01.16-2.66.57-.41,1.8-.21,2.53-.19.15.03.31.09.43.19.32.4.21.97.24,1.48-.02.47.07,1.16-.17,1.48l-.07.07Z"/>
</svg>