<?xml version="1.0" encoding="UTF-8"?>
<svg id="Layer_1" data-name="Layer 1" xmlns="http://www.w3.org/2000/svg" viewBox="0 0 963.05 209.78">
  <defs>
    <style>
      .cls-1 {
        fill: #fff;
      }
    </style>
  </defs>
  <path class="cls-1" d="M91.8,79.61c4.15-7.89,6.23-16.97,6.23-27.24s-2.08-19.33-6.23-27.17c-4.16-7.84-9.87-14-17.16-18.49-7.28-4.48-15.73-6.72-25.35-6.72s-17.92,2.24-25.21,6.72c-7.28,4.48-13,10.64-17.16,18.49C2.78,33.05.7,42.11.7,52.38s2.05,19.47,6.16,27.31c4.11,7.84,9.83,13.98,17.16,18.42,7.33,4.44,15.71,6.65,25.14,6.65s18.09-2.22,25.42-6.65c7.33-4.43,13.07-10.59,17.23-18.49ZM67.36,86.62c-5.14,3.31-11.16,4.97-18.07,4.97s-12.79-1.63-17.92-4.9c-5.14-3.27-9.13-7.84-11.97-13.72-2.85-5.88-4.27-12.74-4.27-20.59s1.42-14.7,4.27-20.59c2.85-5.88,6.84-10.43,11.97-13.65,5.13-3.22,11.11-4.83,17.92-4.83s12.93,1.61,18.07,4.83c5.13,3.22,9.12,7.77,11.97,13.65,2.85,5.88,4.27,12.74,4.27,20.59s-1.42,14.56-4.27,20.45c-2.85,5.88-6.84,10.48-11.97,13.79Z"/>
  <path class="cls-1" d="M173.65,103.07V34.59h-13.02v36.13c0,7.38-1.59,12.95-4.76,16.73-3.18,3.78-7.8,5.67-13.86,5.67-5.04,0-9.03-1.56-11.97-4.69-2.94-3.13-4.41-8.33-4.41-15.61v-38.23h-13.16v42.57c0,8.4,2.17,15.1,6.51,20.1,4.34,5,10.48,7.49,18.42,7.49,5.04,0,9.66-1.12,13.86-3.36,4.2-2.24,7.28-5.13,9.24-8.68l1.4,10.36h11.76Z"/>
  <path class="cls-1" d="M224.9,103.07l28.57-68.48h-13.72l-15.26,38.23c-1.21,2.99-2.31,5.88-3.29,8.68s-1.8,5.37-2.45,7.7c-.56-2.05-1.31-4.5-2.24-7.35-.93-2.85-2.01-5.86-3.22-9.03l-14.98-38.23h-14l27.59,68.48h13.02Z"/>
  <path class="cls-1" d="M311.45,98.73c5.51-4.01,9.1-9.66,10.78-16.94h-12.32c-1.12,3.92-3.32,6.91-6.58,8.96-3.27,2.05-7.47,3.08-12.6,3.08-7,0-12.37-2.22-16.11-6.65-3.23-3.84-5.06-9.1-5.49-15.77l52.97-.13v-4.9c0-6.81-1.33-12.74-3.99-17.79-2.66-5.04-6.4-8.96-11.2-11.76-4.81-2.8-10.48-4.2-17.02-4.2s-12.44,1.54-17.43,4.62c-5,3.08-8.92,7.33-11.76,12.74-2.85,5.42-4.27,11.72-4.27,18.91s1.45,13.33,4.34,18.7c2.89,5.37,6.91,9.57,12.04,12.6,5.13,3.03,11.02,4.55,17.65,4.55,8.49,0,15.5-2.01,21.01-6.02ZM278.61,46.56c3.13-1.91,6.88-2.87,11.27-2.87,5.79,0,10.41,1.73,13.86,5.18,3.45,3.46,5.18,8.03,5.18,13.72h-39.55c.39-2.82,1.08-5.36,2.09-7.63,1.63-3.69,4.01-6.49,7.14-8.4Z"/>
  <path class="cls-1" d="M349.96,66.8c0-6.63,1.8-11.74,5.39-15.33,3.59-3.59,8.52-5.39,14.77-5.39h5.88v-12.04c-1.31-.28-2.5-.49-3.57-.63-1.07-.14-2.22-.21-3.43-.21-5.32,0-9.76,1.42-13.3,4.27-2.63,2.11-4.54,4.67-5.73,7.68l-.85-10.41h-12.32v68.34h13.16v-36.27Z"/>
  <polygon class="cls-1" points="410.45 103.07 410.45 45.65 423.9 45.65 423.9 34.59 410.45 34.59 410.45 13.16 397.29 13.16 397.29 34.59 383.85 34.59 383.85 45.65 397.29 45.65 397.29 103.07 410.45 103.07"/>
  <polygon class="cls-1" points="507.36 26.61 498.12 7.98 485.37 7.98 497.28 26.61 507.36 26.61"/>
  <path class="cls-1" d="M508.69,101.32c4.34-2.29,7.4-5.39,9.17-9.31l1.4,11.06h11.21v-42.99c0-6.16-1.19-11.27-3.57-15.33-2.38-4.06-5.7-7.09-9.94-9.1-4.25-2.01-9.22-3.01-14.91-3.01s-11.04.98-15.47,2.94c-4.43,1.96-7.87,4.72-10.29,8.26-2.43,3.55-3.64,7.7-3.64,12.46h11.48c0-4.2,1.52-7.44,4.55-9.73,3.03-2.29,7.3-3.43,12.81-3.43,3.08,0,5.83.49,8.26,1.47,2.43.98,4.34,2.61,5.74,4.9,1.4,2.29,2.1,5.35,2.1,9.17v1.96l-21.57,1.68c-8.03.65-14.28,2.87-18.76,6.65-4.48,3.78-6.72,8.8-6.72,15.05s2.08,11.16,6.23,14.98c4.15,3.83,9.87,5.74,17.16,5.74,5.51,0,10.43-1.14,14.77-3.43ZM483.83,83.6c0-3.36,1.28-6.11,3.85-8.26,2.57-2.15,6.74-3.5,12.53-4.06l17.51-1.4v3.64c0,6.44-1.78,11.55-5.32,15.33-3.55,3.78-8.45,5.67-14.7,5.67-4.3,0-7.68-.91-10.15-2.73-2.47-1.82-3.71-4.55-3.71-8.19Z"/>
  <rect class="cls-1" x="587.18" width="13.16" height="103.07"/>
  <path class="cls-1" d="M676.25,60.08c0-6.16-1.19-11.27-3.57-15.33-2.38-4.06-5.7-7.09-9.94-9.1-4.25-2.01-9.22-3.01-14.91-3.01s-11.04.98-15.47,2.94c-4.44,1.96-7.87,4.72-10.29,8.26-2.43,3.55-3.64,7.7-3.64,12.46h11.48c0-4.2,1.52-7.44,4.55-9.73,3.03-2.29,7.3-3.43,12.81-3.43,3.08,0,5.83.49,8.26,1.47,2.43.98,4.34,2.61,5.74,4.9,1.4,2.29,2.1,5.35,2.1,9.17v1.96l-21.57,1.68c-8.03.65-14.28,2.87-18.77,6.65-4.48,3.78-6.72,8.8-6.72,15.05s2.08,11.16,6.23,14.98c4.15,3.83,9.87,5.74,17.16,5.74,5.51,0,10.43-1.14,14.77-3.43,4.34-2.29,7.4-5.39,9.17-9.31l1.4,11.06h11.2v-42.99ZM663.5,73.52c0,6.44-1.77,11.55-5.32,15.33-3.55,3.78-8.45,5.67-14.7,5.67-4.3,0-7.68-.91-10.15-2.73-2.47-1.82-3.71-4.55-3.71-8.19,0-3.36,1.28-6.11,3.85-8.26,2.57-2.15,6.74-3.5,12.53-4.06l17.5-1.4v3.64Z"/>
  <path class="cls-1" d="M45.51,194.52c-3.36,2.33-7.38,3.5-12.04,3.5-4.11,0-7.7-1-10.78-3.01-3.08-2.01-5.46-4.81-7.14-8.4-1.68-3.59-2.52-7.86-2.52-12.81s.89-9.24,2.66-12.88c1.77-3.64,4.25-6.46,7.42-8.47,3.17-2.01,6.81-3.01,10.92-3.01,4.39,0,8.21,1.12,11.48,3.36,3.27,2.24,5.46,5.56,6.58,9.94h13.16c-1.12-7.56-4.53-13.63-10.22-18.21-5.7-4.57-12.84-6.86-21.43-6.86-6.63,0-12.46,1.54-17.5,4.62-5.04,3.08-8.99,7.33-11.83,12.74-2.85,5.42-4.27,11.72-4.27,18.91s1.4,13.47,4.2,18.84c2.8,5.37,6.7,9.55,11.69,12.53,4.99,2.99,10.85,4.48,17.58,4.48,5.51,0,10.52-1.05,15.05-3.15,4.53-2.1,8.26-4.99,11.2-8.68,2.94-3.69,4.83-8,5.67-12.95h-13.16c-1.12,4.02-3.36,7.19-6.72,9.52Z"/>
  <path class="cls-1" d="M128.84,142.42c-5.32-3.08-11.44-4.62-18.35-4.62s-13.05,1.54-18.42,4.62c-5.37,3.08-9.59,7.33-12.67,12.74-3.08,5.42-4.62,11.62-4.62,18.63s1.54,13.21,4.62,18.63c3.08,5.42,7.3,9.66,12.67,12.74,5.37,3.08,11.5,4.62,18.42,4.62s13.02-1.54,18.35-4.62c5.32-3.08,9.52-7.33,12.6-12.74,3.08-5.41,4.62-11.62,4.62-18.63s-1.54-13.21-4.62-18.63c-3.08-5.41-7.28-9.66-12.6-12.74ZM130.03,186.39c-1.92,3.64-4.55,6.49-7.91,8.54-3.36,2.05-7.24,3.08-11.62,3.08s-8.26-1.03-11.62-3.08c-3.36-2.05-6-4.9-7.91-8.54-1.92-3.64-2.87-7.84-2.87-12.6s.96-9.08,2.87-12.67c1.91-3.59,4.55-6.42,7.91-8.47,3.36-2.05,7.23-3.08,11.62-3.08s8.26,1.03,11.62,3.08c3.36,2.05,6,4.88,7.91,8.47,1.91,3.6,2.87,7.82,2.87,12.67s-.96,8.96-2.87,12.6Z"/>
  <path class="cls-1" d="M237.93,137.66c-6.16,0-11.34,1.63-15.54,4.9-3.08,2.4-5.28,5.38-6.6,8.93-1.44-3.55-3.62-6.53-6.57-8.93-4.01-3.27-9.06-4.9-15.12-4.9-5.42,0-10.01,1.28-13.79,3.85-2.92,1.98-5.12,4.34-6.62,7.07l-1.29-8.96h-11.76v68.48h13.16v-40.61c0-3.64.7-6.79,2.1-9.45s3.34-4.71,5.81-6.16c2.47-1.45,5.34-2.17,8.61-2.17,4.67,0,8.35,1.42,11.06,4.27,2.71,2.85,4.06,6.98,4.06,12.39v41.73h13.02v-40.61c0-3.64.7-6.81,2.1-9.52,1.4-2.71,3.34-4.78,5.81-6.23,2.47-1.45,5.34-2.17,8.61-2.17,4.67,0,8.38,1.47,11.13,4.41,2.75,2.94,4.13,7.12,4.13,12.53v41.59h12.88v-44.81c0-7.93-2.24-14.19-6.72-18.77-4.48-4.57-10.64-6.86-18.49-6.86Z"/>
  <path class="cls-1" d="M358.64,137.66c-6.16,0-11.34,1.63-15.54,4.9-3.08,2.4-5.28,5.38-6.6,8.93-1.44-3.55-3.62-6.53-6.57-8.93-4.01-3.27-9.06-4.9-15.12-4.9-5.42,0-10.01,1.28-13.79,3.85-2.92,1.98-5.12,4.34-6.62,7.07l-1.29-8.96h-11.76v68.48h13.16v-40.61c0-3.64.7-6.79,2.1-9.45s3.34-4.71,5.81-6.16c2.47-1.45,5.34-2.17,8.61-2.17,4.67,0,8.35,1.42,11.06,4.27,2.71,2.85,4.06,6.98,4.06,12.39v41.73h13.02v-40.61c0-3.64.7-6.81,2.1-9.52,1.4-2.71,3.34-4.78,5.81-6.23,2.47-1.45,5.34-2.17,8.61-2.17,4.67,0,8.38,1.47,11.13,4.41,2.75,2.94,4.13,7.12,4.13,12.53v41.59h12.88v-44.81c0-7.93-2.24-14.19-6.72-18.77-4.48-4.57-10.64-6.86-18.49-6.86Z"/>
  <path class="cls-1" d="M449.39,175.75c0,7.38-1.59,12.95-4.76,16.73-3.18,3.78-7.8,5.67-13.86,5.67-5.04,0-9.03-1.56-11.97-4.69-2.94-3.13-4.41-8.33-4.41-15.61v-38.23h-13.16v42.57c0,8.4,2.17,15.1,6.51,20.1,4.34,5,10.48,7.49,18.42,7.49,5.04,0,9.66-1.12,13.86-3.36,4.2-2.24,7.28-5.13,9.24-8.68l1.4,10.36h11.76v-68.48h-13.02v36.13Z"/>
  <path class="cls-1" d="M517.45,137.66c-4.86,0-9.31,1.1-13.38,3.29-4.06,2.19-7.17,5.25-9.31,9.17l-1.4-10.5h-11.9v68.48h13.16v-36.27c0-6.72,1.7-12.09,5.11-16.1,3.41-4.01,8.19-6.02,14.36-6.02,5.04,0,9.05,1.52,12.04,4.55,2.99,3.04,4.48,8.01,4.48,14.91v38.93h13.16v-41.87c0-8.77-2.15-15.73-6.44-20.87-4.29-5.13-10.92-7.7-19.88-7.7Z"/>
  <path class="cls-1" d="M568.42,106.01c-2.33,0-4.37.84-6.09,2.52-1.73,1.68-2.59,3.73-2.59,6.16s.86,4.37,2.59,6.09c1.73,1.73,3.76,2.59,6.09,2.59s4.48-.86,6.16-2.59c1.68-1.73,2.52-3.76,2.52-6.09s-.84-4.48-2.52-6.16c-1.68-1.68-3.73-2.52-6.16-2.52Z"/>
  <rect class="cls-1" x="561.98" y="139.62" width="13.16" height="68.48"/>
  <path class="cls-1" d="M635.22,194.52c-3.36,2.33-7.38,3.5-12.04,3.5-4.11,0-7.7-1-10.78-3.01-3.08-2.01-5.46-4.81-7.14-8.4-1.68-3.59-2.52-7.86-2.52-12.81s.89-9.24,2.66-12.88c1.77-3.64,4.25-6.46,7.42-8.47,3.17-2.01,6.81-3.01,10.92-3.01,4.39,0,8.21,1.12,11.48,3.36,3.27,2.24,5.46,5.56,6.58,9.94h13.16c-1.12-7.56-4.53-13.63-10.22-18.21-5.7-4.57-12.84-6.86-21.43-6.86-6.63,0-12.46,1.54-17.5,4.62-5.04,3.08-8.99,7.33-11.83,12.74-2.85,5.42-4.27,11.72-4.27,18.91s1.4,13.47,4.2,18.84c2.8,5.37,6.7,9.55,11.69,12.53,4.99,2.99,10.85,4.48,17.57,4.48,5.51,0,10.53-1.05,15.05-3.15,4.53-2.1,8.26-4.99,11.2-8.68,2.94-3.69,4.83-8,5.67-12.95h-13.16c-1.12,4.02-3.36,7.19-6.72,9.52Z"/>
  <path class="cls-1" d="M712.03,140.67c-4.25-2.01-9.22-3.01-14.91-3.01s-11.04.98-15.47,2.94c-4.44,1.96-7.87,4.72-10.29,8.26-2.43,3.55-3.64,7.7-3.64,12.46h11.48c0-4.2,1.52-7.44,4.55-9.73,3.03-2.29,7.3-3.43,12.81-3.43,3.08,0,5.83.49,8.26,1.47,2.43.98,4.34,2.61,5.74,4.9,1.4,2.29,2.1,5.35,2.1,9.17v1.96l-21.57,1.68c-8.03.65-14.28,2.87-18.77,6.65-4.48,3.78-6.72,8.8-6.72,15.05s2.08,11.16,6.23,14.98c4.15,3.83,9.87,5.74,17.16,5.74,5.51,0,10.43-1.14,14.77-3.43,4.34-2.29,7.4-5.39,9.17-9.31l1.4,11.06h11.2v-42.99c0-6.16-1.19-11.27-3.57-15.33-2.38-4.06-5.7-7.09-9.94-9.1ZM712.8,178.55c0,6.44-1.77,11.55-5.32,15.33-3.55,3.78-8.45,5.67-14.7,5.67-4.3,0-7.68-.91-10.15-2.73-2.47-1.82-3.71-4.55-3.71-8.19,0-3.36,1.28-6.11,3.85-8.26,2.57-2.15,6.74-3.5,12.53-4.06l17.5-1.4v3.64Z"/>
  <polygon class="cls-1" points="761.96 118.19 748.79 118.19 748.79 139.62 735.35 139.62 735.35 150.68 748.79 150.68 748.79 208.1 761.96 208.1 761.96 150.68 775.4 150.68 775.4 139.62 761.96 139.62 761.96 118.19"/>
  <path class="cls-1" d="M793.6,106.01c-2.33,0-4.37.84-6.09,2.52-1.73,1.68-2.59,3.73-2.59,6.16s.86,4.37,2.59,6.09c1.73,1.73,3.76,2.59,6.09,2.59s4.48-.86,6.16-2.59c1.68-1.73,2.52-3.76,2.52-6.09s-.84-4.48-2.52-6.16c-1.68-1.68-3.73-2.52-6.16-2.52Z"/>
  <rect class="cls-1" x="787.16" y="139.62" width="13.16" height="68.48"/>
  <path class="cls-1" d="M868.95,142.42c-5.32-3.08-11.44-4.62-18.35-4.62s-13.05,1.54-18.42,4.62c-5.37,3.08-9.59,7.33-12.67,12.74-3.08,5.42-4.62,11.62-4.62,18.63s1.54,13.21,4.62,18.63c3.08,5.42,7.3,9.66,12.67,12.74,5.37,3.08,11.5,4.62,18.42,4.62s13.02-1.54,18.35-4.62c5.32-3.08,9.52-7.33,12.6-12.74,3.08-5.41,4.62-11.62,4.62-18.63s-1.54-13.21-4.62-18.63c-3.08-5.41-7.28-9.66-12.6-12.74ZM870.14,186.39c-1.91,3.64-4.55,6.49-7.91,8.54-3.36,2.05-7.24,3.08-11.62,3.08s-8.26-1.03-11.62-3.08c-3.36-2.05-6-4.9-7.91-8.54-1.91-3.64-2.87-7.84-2.87-12.6s.96-9.08,2.87-12.67c1.91-3.59,4.55-6.42,7.91-8.47,3.36-2.05,7.23-3.08,11.62-3.08s8.26,1.03,11.62,3.08c3.36,2.05,6,4.88,7.91,8.47,1.91,3.6,2.87,7.82,2.87,12.67s-.96,8.96-2.87,12.6Z"/>
  <path class="cls-1" d="M956.61,145.36c-4.3-5.13-10.92-7.7-19.89-7.7-4.86,0-9.31,1.1-13.37,3.29-4.06,2.19-7.17,5.25-9.31,9.17l-1.4-10.5h-11.9v68.48h13.16v-36.27c0-6.72,1.7-12.09,5.11-16.1,3.41-4.01,8.19-6.02,14.35-6.02,5.04,0,9.05,1.52,12.04,4.55,2.99,3.04,4.48,8.01,4.48,14.91v38.93h13.16v-41.87c0-8.77-2.15-15.73-6.44-20.87Z"/>
</svg>