<?xml version="1.0" encoding="UTF-8"?>
<svg id="Layer_1" data-name="Layer 1" xmlns="http://www.w3.org/2000/svg" viewBox="0 0 329.37 104.75">
  <defs>
    <style>
      .cls-1 {
        fill: #231f20;
      }
    </style>
  </defs>
  <path class="cls-1" d="M23.32,98.1c7.33,4.44,15.71,6.65,25.14,6.65s18.09-2.22,25.42-6.65c7.33-4.43,13.07-10.59,17.22-18.49,4.15-7.89,6.23-16.97,6.23-27.24s-2.08-19.33-6.23-27.17c-4.15-7.84-9.87-14-17.15-18.49-7.28-4.48-15.73-6.72-25.35-6.72s-17.93,2.24-25.21,6.72c-7.28,4.48-13,10.64-17.16,18.49C2.08,33.05,0,42.11,0,52.38s2.05,19.47,6.16,27.31c4.11,7.84,9.83,13.98,17.16,18.42ZM18.7,31.79c2.85-5.88,6.84-10.43,11.97-13.65,5.13-3.22,11.11-4.83,17.93-4.83s12.93,1.61,18.06,4.83c5.13,3.22,9.12,7.77,11.97,13.65,2.85,5.88,4.27,12.74,4.27,20.59s-1.43,14.56-4.27,20.45c-2.85,5.88-6.84,10.48-11.97,13.79-5.13,3.31-11.16,4.97-18.06,4.97s-12.79-1.63-17.93-4.9c-5.13-3.27-9.13-7.84-11.97-13.72-2.85-5.88-4.27-12.74-4.27-20.59s1.42-14.7,4.27-20.59Z"/>
  <path class="cls-1" d="M120.15,66.8c0-6.63,1.8-11.74,5.39-15.33,3.59-3.59,8.52-5.39,14.77-5.39h5.88v-12.04c-1.31-.28-2.5-.49-3.57-.63-1.07-.14-2.22-.21-3.43-.21-5.32,0-9.76,1.42-13.3,4.27-2.63,2.11-4.54,4.67-5.73,7.68l-.85-10.41h-12.32v68.34h13.16v-36.27Z"/>
  <path class="cls-1" d="M166.09,62.46c0-3.64.7-6.79,2.1-9.45s3.34-4.71,5.81-6.16c2.47-1.45,5.34-2.17,8.61-2.17,4.67,0,8.35,1.42,11.06,4.27,2.71,2.85,4.06,6.98,4.06,12.39v41.73h13.02v-40.61c0-3.64.7-6.81,2.1-9.52,1.4-2.71,3.34-4.78,5.81-6.23,2.47-1.45,5.34-2.17,8.61-2.17,4.67,0,8.38,1.47,11.13,4.41,2.75,2.94,4.13,7.12,4.13,12.53v41.59h12.88v-44.81c0-7.93-2.24-14.19-6.72-18.77-4.48-4.57-10.64-6.86-18.49-6.86-6.16,0-11.34,1.63-15.54,4.9-3.08,2.4-5.28,5.38-6.6,8.93-1.44-3.55-3.62-6.53-6.57-8.93-4.01-3.27-9.06-4.9-15.12-4.9-5.42,0-10.01,1.28-13.79,3.85-2.92,1.98-5.12,4.34-6.62,7.07l-1.29-8.96h-11.76v68.48h13.16v-40.61Z"/>
  <path class="cls-1" d="M279.94,100.2c5.13,3.03,11.02,4.55,17.64,4.55,8.5,0,15.5-2.01,21.01-6.02,5.51-4.01,9.1-9.66,10.78-16.94h-12.32c-1.12,3.92-3.32,6.91-6.58,8.96-3.27,2.05-7.47,3.08-12.6,3.08-7,0-12.37-2.22-16.11-6.65-3.23-3.84-5.06-9.1-5.49-15.77l52.97-.13v-4.9c0-6.81-1.33-12.74-3.99-17.79-2.66-5.04-6.4-8.96-11.2-11.76-4.81-2.8-10.48-4.2-17.01-4.2s-12.44,1.54-17.43,4.62c-5,3.08-8.92,7.33-11.76,12.74-2.85,5.42-4.27,11.72-4.27,18.91s1.45,13.33,4.34,18.7c2.89,5.37,6.91,9.57,12.04,12.6ZM285.75,46.56c3.13-1.91,6.88-2.87,11.27-2.87,5.79,0,10.41,1.73,13.86,5.18,3.45,3.46,5.18,8.03,5.18,13.72h-39.55c.39-2.82,1.08-5.36,2.09-7.63,1.63-3.69,4.01-6.49,7.14-8.4Z"/>
</svg>