<?xml version="1.0" encoding="UTF-8"?>
<svg id="Layer_1" data-name="Layer 1" xmlns="http://www.w3.org/2000/svg" viewBox="0 0 1000 1000">
  <defs>
    <style>
      .cls-1 {
        fill: #fcf9f2;
      }

      .cls-2 {
        fill: #1b1b1b;
      }
    </style>
  </defs>
  <rect class="cls-1" y=".02" width="1000" height="1000"/>
  <g>
    <path class="cls-2" d="M648.05,556.98h-42.93c-2.58,0-4.69.38-6.35,1.14-1.66.76-2.87,1.96-3.65,3.62-.78,1.66-1.16,3.79-1.16,6.41v69.18c0,3.72.85,6.5,2.54,8.34,1.7,1.84,3.89,2.76,6.59,2.76s4.83-.91,6.53-2.73c1.7-1.82,2.54-4.61,2.54-8.37v-29.62h29.99c2.74,0,4.8-.61,6.19-1.84,1.39-1.23,2.08-2.88,2.08-4.97s-.69-3.75-2.05-5c-1.37-1.25-3.44-1.87-6.22-1.87h-29.99v-23h35.88c2.9,0,5.06-.64,6.47-1.93,1.41-1.29,2.12-2.99,2.12-5.12s-.71-3.77-2.12-5.06c-1.41-1.29-3.57-1.93-6.47-1.93Z"/>
    <path class="cls-2" d="M725.82,632.41h-42.44v-25.57h37.78c2.82,0,4.91-.64,6.26-1.93,1.35-1.29,2.02-2.95,2.02-5s-.68-3.69-2.05-4.94c-1.37-1.25-3.45-1.87-6.23-1.87h-37.78v-22.08h41.03c2.9,0,5.06-.64,6.47-1.93,1.41-1.29,2.12-2.99,2.12-5.12s-.71-3.77-2.12-5.06c-1.41-1.29-3.57-1.93-6.47-1.93h-48.08c-2.58,0-4.69.38-6.35,1.14-1.66.76-2.87,1.96-3.65,3.62-.78,1.66-1.16,3.79-1.16,6.41v67.58c0,3.92.87,6.77,2.61,8.52,1.74,1.76,4.59,2.64,8.56,2.64h49.49c2.86,0,5.02-.66,6.47-1.99,1.45-1.33,2.18-3.06,2.18-5.18s-.73-3.98-2.18-5.31c-1.45-1.33-3.61-1.99-6.47-1.99Z"/>
    <path class="cls-2" d="M803.06,600.64c-2.88-2.04-6.38-3.78-10.49-5.21-4.11-1.43-8.7-2.74-13.77-3.93-4.05-1.02-6.95-1.8-8.71-2.33-1.76-.53-3.5-1.27-5.21-2.21-1.72-.94-3.07-2.06-4.05-3.37-.98-1.31-1.47-2.86-1.47-4.66,0-2.9,1.44-5.39,4.32-7.45,2.88-2.06,6.67-3.1,11.38-3.1,5.07,0,8.75.95,11.04,2.85s4.25,4.55,5.89,7.94c1.27,2.37,2.44,4.08,3.53,5.12,1.08,1.04,2.67,1.56,4.75,1.56,2.29,0,4.2-.87,5.73-2.61,1.53-1.74,2.3-3.69,2.3-5.86,0-2.37-.61-4.8-1.84-7.3-1.23-2.49-3.17-4.88-5.83-7.15-2.66-2.27-6-4.09-10.03-5.46-4.03-1.37-8.8-2.05-14.32-2.05-6.91,0-12.92,1.03-18.03,3.1-5.11,2.07-9.02,5.02-11.71,8.86-2.7,3.84-4.05,8.24-4.05,13.19,0,5.19,1.28,9.54,3.83,13.03,2.55,3.5,6.01,6.26,10.36,8.28,4.35,2.02,9.76,3.79,16.22,5.31,4.82,1.1,8.68,2.15,11.56,3.13,2.88.98,5.23,2.4,7.05,4.26,1.82,1.86,2.73,4.28,2.73,7.27,0,3.76-1.69,6.9-5.06,9.41s-7.76,3.77-13.15,3.77c-3.92,0-7.09-.62-9.51-1.87-2.41-1.25-4.28-2.83-5.61-4.75-1.33-1.92-2.57-4.31-3.71-7.18-.94-2.41-2.08-4.23-3.4-5.46-1.33-1.23-2.95-1.84-4.88-1.84-2.37,0-4.32.79-5.86,2.36-1.53,1.57-2.3,3.47-2.3,5.67,0,3.8,1.28,7.72,3.83,11.74,2.55,4.03,5.88,7.25,9.96,9.66,5.77,3.35,13.08,5.03,21.96,5.03,7.4,0,13.8-1.23,19.19-3.68s9.5-5.85,12.3-10.18c2.8-4.33,4.2-9.22,4.2-14.66,0-4.54-.81-8.37-2.42-11.5-1.62-3.13-3.86-5.71-6.75-7.76Z"/>
    <path class="cls-2" d="M881.05,556.98h-57.89c-2.98,0-5.27.67-6.84,2.02-1.57,1.35-2.36,3.19-2.36,5.52s.76,4.06,2.27,5.43c1.51,1.37,3.82,2.05,6.93,2.05h19.87v65.31c0,3.72.85,6.5,2.54,8.34s3.89,2.76,6.59,2.76,4.82-.91,6.5-2.73c1.68-1.82,2.51-4.61,2.51-8.37v-65.31h19.87c3.11,0,5.44-.69,6.99-2.05,1.55-1.37,2.33-3.18,2.33-5.43s-.77-4.07-2.3-5.46c-1.53-1.39-3.87-2.08-7.02-2.08Z"/>
    <path class="cls-2" d="M603.88,354.03h11.19c5.61,0,10.16,4.55,10.16,10.16v153.73c0,5.61-4.55,10.16-10.16,10.16h-11.19c-5.61,0-10.16-4.55-10.16-10.16v-153.73c0-5.61,4.55-10.16,10.16-10.16Z"/>
    <path class="cls-2" d="M764.09,517.92v-11.19c0-5.61-4.55-10.16-10.16-10.16h-57.53c-5.61,0-10.16-4.55-10.16-10.16v-122.21c0-5.61-4.55-10.16-10.16-10.16h-11.19c-5.61,0-10.16,4.55-10.16,10.16v153.73c0,5.61,4.55,10.16,10.16,10.16h89.04c5.61,0,10.16-4.55,10.16-10.16Z"/>
    <path class="cls-2" d="M881.18,354.03h-89.04c-5.61,0-10.16,4.55-10.16,10.16v153.73c0,5.61,4.55,10.16,10.16,10.16h11.19c5.61,0,10.16-4.55,10.16-10.16v-52.74c0-5.61,4.55-10.16,10.16-10.16h28.07c5.61,0,10.16-4.55,10.16-10.16v-11.19c0-5.61-4.55-10.16-10.16-10.16h-28.07c-5.61,0-10.16-4.55-10.16-10.16v-17.63c0-5.61,4.55-10.16,10.16-10.16h57.53c5.61,0,10.16-4.55,10.16-10.16v-11.19c0-5.61-4.55-10.16-10.16-10.16Z"/>
    <path class="cls-2" d="M544.41,313.18h-152.11c-9.64,0-17.68,6.93-18.52,15.95l-14.06,151.84c-1.36,14.63-20.16,21.25-31.42,11.06l-188.43-173.95c-10.73-9.71-28.64-4.22-31.21,9.57v341.71c0,9.65,8.32,17.46,18.59,17.46h4.62c10.27,0,18.59-7.82,18.59-17.46l22.74-108.51c3.19-15.24,12.73-26.87,31.61-17.91l57.85,26.54c5.82,2.16,10.08,4.44,19.5,6l76.1,15.02c8.48,2.04,17.33-1.75,21.24-9.11l49.55-93.09c7.44-13.98,29.19-12.44,34.32,2.43l63.37,184.01c2.48,7.21,9.63,12.09,17.69,12.09,10.27,0,18.59-7.82,18.59-17.46v-338.72c0-9.65-8.32-17.46-18.59-17.46Z"/>
  </g>
</svg>