<?xml version="1.0" encoding="UTF-8"?>
<svg id="Layer_1" data-name="Layer 1" xmlns="http://www.w3.org/2000/svg" viewBox="0 0 446.16 104.75">
  <defs>
    <style>
      .cls-1 {
        fill: #231f20;
      }
    </style>
  </defs>
  <path class="cls-1" d="M17.16,101.32c5.18,2.29,11.18,3.43,17.99,3.43,7.19,0,13.47-1.21,18.84-3.64,5.37-2.43,9.52-5.88,12.46-10.36,2.94-4.48,4.41-9.75,4.41-15.82,0-7.09-2.08-12.91-6.23-17.44-4.15-4.53-10.39-7.72-18.7-9.59l-16.66-3.92c-4.76-1.12-8.31-2.92-10.64-5.39-2.34-2.47-3.5-5.76-3.5-9.87,0-5.04,1.91-9.03,5.74-11.97,3.83-2.94,8.91-4.41,15.26-4.41,5.69,0,10.22,1.4,13.58,4.2,3.36,2.8,5.23,6.72,5.6,11.76h13.87c-.38-5.88-1.94-10.92-4.69-15.12-2.76-4.2-6.54-7.44-11.34-9.73-4.81-2.29-10.43-3.43-16.88-3.43-6.91,0-13,1.21-18.28,3.64-5.28,2.43-9.36,5.84-12.25,10.22-2.89,4.39-4.34,9.48-4.34,15.26,0,7.28,2.12,13.28,6.37,18,4.25,4.72,10.48,8.01,18.7,9.87l16.66,3.78c4.85,1.12,8.4,2.94,10.64,5.46,2.24,2.52,3.36,5.79,3.36,9.8,0,4.95-1.98,8.92-5.95,11.9-3.97,2.99-9.31,4.48-16.04,4.48-6.35,0-11.44-1.42-15.26-4.27-3.83-2.85-5.79-6.7-5.88-11.55H0c.37,5.7,2.03,10.67,4.97,14.91,2.94,4.25,7,7.52,12.18,9.8Z"/>
  <polygon class="cls-1" points="86.4 13.16 86.4 34.59 72.96 34.59 72.96 45.65 86.4 45.65 86.4 103.07 99.57 103.07 99.57 45.65 113.01 45.65 113.01 34.59 99.57 34.59 99.57 13.16 86.4 13.16"/>
  <path class="cls-1" d="M132.35,45.14l-.85-10.41h-12.32v68.34h13.16v-36.27c0-6.63,1.8-11.74,5.39-15.33,3.59-3.59,8.52-5.39,14.77-5.39h5.88v-12.04c-1.31-.28-2.5-.49-3.57-.63-1.07-.14-2.22-.21-3.43-.21-5.32,0-9.76,1.42-13.3,4.27-2.63,2.11-4.54,4.67-5.73,7.68Z"/>
  <path class="cls-1" d="M164.27,34.59v42.57c0,8.4,2.17,15.1,6.51,20.1,4.34,5,10.48,7.49,18.42,7.49,5.04,0,9.66-1.12,13.86-3.36,4.2-2.24,7.28-5.13,9.24-8.68l1.4,10.36h11.76V34.59h-13.02v36.13c0,7.38-1.59,12.95-4.76,16.73-3.18,3.78-7.8,5.67-13.87,5.67-5.04,0-9.03-1.56-11.97-4.69-2.94-3.13-4.41-8.33-4.41-15.61v-38.23h-13.16Z"/>
  <polygon class="cls-1" points="245.07 13.16 245.07 34.59 231.62 34.59 231.62 45.65 245.07 45.65 245.07 103.07 258.23 103.07 258.23 45.65 271.67 45.65 271.67 34.59 258.23 34.59 258.23 13.16 245.07 13.16"/>
  <path class="cls-1" d="M300.24,36.06c-4.01,2.29-7.1,5.3-9.24,9.03V0h-13.16v102.93h13.16v-37.25c0-3.92.75-7.47,2.24-10.64,1.49-3.17,3.71-5.69,6.65-7.56,2.94-1.87,6.51-2.8,10.71-2.8,3.27,0,6.14.65,8.61,1.96,2.47,1.31,4.39,3.39,5.74,6.23,1.35,2.85,2.03,6.61,2.03,11.27v38.93h13.16v-41.87c0-8.77-2.15-15.73-6.44-20.87-4.29-5.13-10.78-7.7-19.46-7.7-5.32,0-9.99,1.14-14,3.43Z"/>
  <rect class="cls-1" x="352.76" y="34.59" width="13.16" height="68.48"/>
  <path class="cls-1" d="M359.2,18.35c2.43,0,4.48-.86,6.16-2.59,1.68-1.73,2.52-3.76,2.52-6.09s-.84-4.48-2.52-6.16c-1.68-1.68-3.73-2.52-6.16-2.52s-4.37.84-6.09,2.52c-1.73,1.68-2.59,3.73-2.59,6.16s.86,4.37,2.59,6.09c1.73,1.73,3.76,2.59,6.09,2.59Z"/>
  <path class="cls-1" d="M392.18,100.13c5.37,3.08,11.5,4.62,18.42,4.62s13.02-1.54,18.35-4.62,9.52-7.33,12.6-12.74c3.08-5.41,4.62-11.62,4.62-18.63s-1.54-13.21-4.62-18.63c-3.08-5.41-7.28-9.66-12.6-12.74-5.32-3.08-11.44-4.62-18.35-4.62s-13.05,1.54-18.42,4.62c-5.37,3.08-9.59,7.33-12.67,12.74-3.08,5.42-4.62,11.62-4.62,18.63s1.54,13.21,4.62,18.63c3.08,5.42,7.3,9.66,12.67,12.74ZM391.06,56.09c1.91-3.59,4.55-6.42,7.91-8.47,3.36-2.05,7.23-3.08,11.62-3.08s8.26,1.03,11.62,3.08c3.36,2.05,6,4.88,7.91,8.47,1.91,3.6,2.87,7.82,2.87,12.67s-.96,8.96-2.87,12.6c-1.92,3.64-4.55,6.49-7.91,8.54-3.36,2.05-7.24,3.08-11.62,3.08s-8.26-1.03-11.62-3.08c-3.36-2.05-6-4.9-7.91-8.54-1.91-3.64-2.87-7.84-2.87-12.6s.96-9.08,2.87-12.67Z"/>
</svg>