<?xml version="1.0" encoding="UTF-8"?>
<svg id="Layer_1" data-name="Layer 1" xmlns="http://www.w3.org/2000/svg" viewBox="0 0 602.31 104.61">
  <defs>
    <style>
      .cls-1 {
        fill: #231f20;
      }
    </style>
  </defs>
  <path class="cls-1" d="M30.67,17.92c5.23-3.36,11.48-5.04,18.77-5.04,6.72,0,12.67,1.61,17.86,4.83,5.18,3.22,8.71,8.05,10.57,14.49h14.56c-1.03-6.53-3.52-12.21-7.49-17.01-3.97-4.81-8.99-8.54-15.05-11.2-6.07-2.66-12.79-3.99-20.17-3.99-9.9,0-18.58,2.24-26.05,6.72-7.47,4.48-13.28,10.69-17.43,18.63C2.08,33.28,0,42.39,0,52.66s2.05,19.56,6.16,27.31c4.11,7.75,9.8,13.79,17.08,18.14,7.28,4.34,15.68,6.51,25.21,6.51,5.51,0,10.55-.82,15.12-2.45,4.57-1.63,8.49-3.8,11.76-6.51,2.36-1.96,4.26-4.09,5.69-6.39l1.03,13.81h11.48v-55.88h-46.77v12.18h33.89v2.94c0,5.04-.82,9.43-2.45,13.16-1.63,3.73-3.85,6.79-6.65,9.17-2.8,2.38-6.07,4.13-9.8,5.25-3.74,1.12-7.8,1.68-12.18,1.68-6.91,0-13.02-1.52-18.35-4.55-5.32-3.03-9.45-7.44-12.39-13.23-2.94-5.79-4.41-12.74-4.41-20.87s1.4-15.03,4.2-21.01c2.8-5.97,6.81-10.64,12.04-14Z"/>
  <path class="cls-1" d="M118.47,66.66c0-6.63,1.8-11.74,5.39-15.33,3.59-3.59,8.52-5.39,14.77-5.39h5.88v-12.04c-1.31-.28-2.5-.49-3.57-.63-1.07-.14-2.22-.21-3.43-.21-5.32,0-9.76,1.42-13.3,4.27-2.63,2.11-4.54,4.67-5.73,7.68l-.85-10.41h-12.32v68.34h13.16v-36.27Z"/>
  <path class="cls-1" d="M170.57,62.18c-8.03.65-14.28,2.87-18.77,6.65-4.48,3.78-6.72,8.8-6.72,15.05s2.08,11.16,6.23,14.98c4.15,3.83,9.87,5.74,17.16,5.74,5.51,0,10.43-1.14,14.77-3.43,4.34-2.29,7.4-5.39,9.17-9.31l1.4,11.06h11.2v-42.99c0-6.16-1.19-11.27-3.57-15.33-2.38-4.06-5.7-7.09-9.94-9.1-4.25-2.01-9.22-3.01-14.91-3.01s-11.04.98-15.47,2.94c-4.44,1.96-7.87,4.72-10.29,8.26-2.43,3.55-3.64,7.7-3.64,12.46h11.48c0-4.2,1.52-7.44,4.55-9.73,3.03-2.29,7.3-3.43,12.81-3.43,3.08,0,5.83.49,8.26,1.47,2.43.98,4.34,2.61,5.74,4.9,1.4,2.29,2.1,5.35,2.1,9.17v1.96l-21.57,1.68ZM192.28,69.74v3.64c0,6.44-1.77,11.55-5.32,15.33-3.55,3.78-8.45,5.67-14.71,5.67-4.29,0-7.68-.91-10.15-2.73-2.47-1.82-3.71-4.55-3.71-8.19,0-3.36,1.28-6.11,3.85-8.26,2.57-2.15,6.74-3.5,12.53-4.06l17.5-1.4Z"/>
  <path class="cls-1" d="M261.88,34.45l-15.26,38.23c-1.21,2.99-2.31,5.88-3.29,8.68s-1.8,5.37-2.45,7.7c-.56-2.05-1.31-4.5-2.24-7.35-.93-2.85-2.01-5.86-3.22-9.03l-14.98-38.23h-14l27.59,68.48h13.02l28.57-68.48h-13.72Z"/>
  <path class="cls-1" d="M306.97,104.61c8.49,0,15.5-2.01,21.01-6.02,5.51-4.01,9.1-9.66,10.78-16.94h-12.32c-1.12,3.92-3.32,6.91-6.58,8.96-3.27,2.05-7.47,3.08-12.6,3.08-7,0-12.37-2.22-16.1-6.65-3.23-3.84-5.06-9.1-5.49-15.77l52.97-.13v-4.9c0-6.81-1.33-12.74-3.99-17.79-2.66-5.04-6.4-8.96-11.2-11.76-4.81-2.8-10.48-4.2-17.02-4.2s-12.44,1.54-17.43,4.62c-5,3.08-8.92,7.33-11.76,12.74-2.85,5.42-4.27,11.72-4.27,18.91s1.45,13.33,4.34,18.7c2.89,5.37,6.91,9.57,12.04,12.6,5.13,3.03,11.01,4.55,17.64,4.55ZM295.14,46.42c3.13-1.91,6.88-2.87,11.27-2.87,5.79,0,10.41,1.73,13.86,5.18,3.45,3.46,5.18,8.03,5.18,13.72h-39.55c.39-2.82,1.08-5.36,2.08-7.63,1.63-3.69,4.01-6.49,7.14-8.4Z"/>
  <path class="cls-1" d="M421.24,1.68h-38.65v101.25h40.05c6.63,0,12.37-1.07,17.22-3.22,4.85-2.15,8.56-5.25,11.13-9.31,2.57-4.06,3.85-8.89,3.85-14.49,0-6.53-1.66-11.88-4.97-16.03-2.83-3.54-6.83-6.14-12-7.82,4.52-1.87,8.07-4.54,10.6-8.01,3.03-4.15,4.55-9.36,4.55-15.61,0-8.31-2.83-14.84-8.47-19.61-5.65-4.76-13.42-7.14-23.32-7.14ZM435.95,86.4c-3.17,2.9-7.7,4.34-13.58,4.34h-26.05v-32.49h26.05c5.79,0,10.29,1.4,13.51,4.2,3.22,2.8,4.83,6.72,4.83,11.76s-1.59,9.29-4.76,12.18ZM434.41,42.01c-3.08,2.89-7.47,4.34-13.16,4.34h-24.93V13.86h24.09c5.97,0,10.57,1.38,13.79,4.13,3.22,2.75,4.83,6.65,4.83,11.69,0,5.32-1.54,9.43-4.62,12.32Z"/>
  <path class="cls-1" d="M477.05,99.99c5.37,3.08,11.51,4.62,18.42,4.62s13.02-1.54,18.35-4.62c5.32-3.08,9.52-7.33,12.6-12.74,3.08-5.41,4.62-11.62,4.62-18.63s-1.54-13.21-4.62-18.63c-3.08-5.41-7.28-9.66-12.6-12.74-5.32-3.08-11.44-4.62-18.35-4.62s-13.05,1.54-18.42,4.62c-5.37,3.08-9.59,7.33-12.67,12.74-3.08,5.42-4.62,11.62-4.62,18.63s1.54,13.21,4.62,18.63c3.08,5.42,7.3,9.66,12.67,12.74ZM475.93,55.95c1.91-3.59,4.55-6.42,7.91-8.47,3.36-2.05,7.23-3.08,11.62-3.08s8.26,1.03,11.62,3.08c3.36,2.05,6,4.88,7.91,8.47,1.91,3.6,2.87,7.82,2.87,12.67s-.96,8.96-2.87,12.6c-1.91,3.64-4.55,6.49-7.91,8.54-3.36,2.05-7.24,3.08-11.62,3.08s-8.26-1.03-11.62-3.08c-3.36-2.05-6-4.9-7.91-8.54-1.92-3.64-2.87-7.84-2.87-12.6s.96-9.08,2.87-12.67Z"/>
  <path class="cls-1" d="M553.16,66.66c0-6.72,1.7-12.09,5.11-16.1,3.41-4.01,8.19-6.02,14.35-6.02,5.04,0,9.05,1.52,12.04,4.55,2.99,3.04,4.48,8.01,4.48,14.91v38.93h13.16v-41.87c0-8.77-2.15-15.73-6.44-20.87-4.3-5.13-10.92-7.7-19.89-7.7-4.86,0-9.31,1.1-13.37,3.29-4.06,2.19-7.17,5.25-9.31,9.17l-1.4-10.5h-11.9v68.48h13.16v-36.27Z"/>
</svg>