<?xml version="1.0" encoding="UTF-8"?>
<svg id="Layer_1" data-name="Layer 1" xmlns="http://www.w3.org/2000/svg" viewBox="0 0 624.29 104.75">
  <defs>
    <style>
      .cls-1 {
        fill: #231f20;
      }
    </style>
  </defs>
  <path class="cls-1" d="M45.93,47.89l-16.66-3.92c-4.76-1.12-8.31-2.92-10.64-5.39-2.34-2.47-3.5-5.76-3.5-9.87,0-5.04,1.91-9.03,5.74-11.97,3.83-2.94,8.91-4.41,15.26-4.41,5.69,0,10.22,1.4,13.58,4.2,3.36,2.8,5.23,6.72,5.6,11.76h13.87c-.38-5.88-1.94-10.92-4.69-15.12-2.76-4.2-6.54-7.44-11.34-9.73-4.81-2.29-10.43-3.43-16.88-3.43-6.91,0-13,1.21-18.28,3.64-5.28,2.43-9.36,5.84-12.25,10.22-2.89,4.39-4.34,9.48-4.34,15.26,0,7.28,2.12,13.28,6.37,18,4.25,4.72,10.48,8.01,18.7,9.87l16.66,3.78c4.85,1.12,8.4,2.94,10.64,5.46,2.24,2.52,3.36,5.79,3.36,9.8,0,4.95-1.98,8.92-5.95,11.9-3.97,2.99-9.31,4.48-16.04,4.48-6.35,0-11.44-1.42-15.26-4.27-3.83-2.85-5.79-6.7-5.88-11.55H0c.37,5.7,2.03,10.67,4.97,14.92,2.94,4.25,7,7.52,12.18,9.8,5.18,2.29,11.18,3.43,17.99,3.43,7.19,0,13.47-1.21,18.84-3.64,5.37-2.43,9.52-5.88,12.46-10.36s4.41-9.75,4.41-15.82c0-7.09-2.08-12.91-6.23-17.44-4.15-4.53-10.39-7.72-18.7-9.59Z"/>
  <polygon class="cls-1" points="99.57 13.16 86.4 13.16 86.4 34.59 72.96 34.59 72.96 45.65 86.4 45.65 86.4 103.07 99.57 103.07 99.57 45.65 113.01 45.65 113.01 34.59 99.57 34.59 99.57 13.16"/>
  <path class="cls-1" d="M168.05,37.39c-5.32-3.08-11.44-4.62-18.34-4.62s-13.05,1.54-18.42,4.62c-5.37,3.08-9.59,7.33-12.67,12.74-3.08,5.42-4.62,11.62-4.62,18.63s1.54,13.21,4.62,18.62c3.08,5.42,7.3,9.66,12.67,12.74,5.37,3.08,11.51,4.62,18.42,4.62s13.02-1.54,18.34-4.62,9.52-7.33,12.6-12.74c3.08-5.41,4.62-11.62,4.62-18.62s-1.54-13.21-4.62-18.63c-3.08-5.41-7.28-9.66-12.6-12.74ZM169.24,81.36c-1.91,3.64-4.55,6.49-7.91,8.54-3.36,2.05-7.24,3.08-11.62,3.08s-8.26-1.03-11.62-3.08c-3.36-2.05-6-4.9-7.91-8.54-1.92-3.64-2.87-7.84-2.87-12.6s.96-9.08,2.87-12.67c1.91-3.59,4.55-6.42,7.91-8.47,3.36-2.05,7.23-3.08,11.62-3.08s8.26,1.03,11.62,3.08c3.36,2.05,6,4.88,7.91,8.47,1.91,3.59,2.87,7.82,2.87,12.67s-.96,8.96-2.87,12.6Z"/>
  <path class="cls-1" d="M235.27,89.49c-3.36,2.33-7.38,3.5-12.04,3.5-4.11,0-7.7-1-10.78-3.01-3.08-2.01-5.46-4.81-7.14-8.4-1.68-3.59-2.52-7.86-2.52-12.81s.89-9.24,2.66-12.88c1.77-3.64,4.25-6.46,7.42-8.47,3.17-2.01,6.81-3.01,10.92-3.01,4.39,0,8.21,1.12,11.48,3.36,3.27,2.24,5.46,5.56,6.58,9.94h13.16c-1.12-7.56-4.53-13.63-10.22-18.21-5.7-4.57-12.84-6.86-21.43-6.86-6.63,0-12.46,1.54-17.51,4.62-5.04,3.08-8.99,7.33-11.83,12.74-2.85,5.42-4.27,11.72-4.27,18.91s1.4,13.47,4.2,18.84c2.8,5.37,6.7,9.55,11.69,12.53,4.99,2.99,10.85,4.48,17.58,4.48,5.51,0,10.53-1.05,15.05-3.15,4.53-2.1,8.26-4.99,11.2-8.68,2.94-3.69,4.83-8,5.67-12.95h-13.16c-1.12,4.02-3.36,7.19-6.72,9.52Z"/>
  <polygon class="cls-1" points="307.25 34.59 276.86 66.8 276.86 0 263.69 0 263.69 103.07 276.86 103.07 276.86 83.6 288.48 71.42 308.51 103.07 323.63 103.07 297.58 61.9 323.77 34.59 307.25 34.59"/>
  <path class="cls-1" d="M390.64,8.19c-7.61-4.25-16.46-6.37-26.54-6.37h-32.91v101.25h33.47c9.99,0,18.74-2.12,26.26-6.37,7.51-4.25,13.38-10.17,17.58-17.79,4.2-7.61,6.3-16.41,6.3-26.4s-2.12-18.93-6.37-26.54c-4.25-7.61-10.18-13.54-17.79-17.79ZM395.96,72.61c-3.04,5.65-7.28,10.01-12.74,13.09-5.46,3.08-11.97,4.62-19.54,4.62h-18.77V14.42h18.21c7.75,0,14.4,1.54,19.96,4.62,5.55,3.08,9.85,7.47,12.88,13.16,3.03,5.7,4.55,12.46,4.55,20.31s-1.52,14.45-4.55,20.1Z"/>
  <path class="cls-1" d="M466.89,90.75c-3.27,2.05-7.47,3.08-12.6,3.08-7,0-12.37-2.22-16.11-6.65-3.23-3.84-5.06-9.1-5.49-15.77l52.97-.13v-4.9c0-6.81-1.33-12.74-3.99-17.79-2.66-5.04-6.4-8.96-11.2-11.76-4.81-2.8-10.48-4.2-17.01-4.2s-12.44,1.54-17.43,4.62c-5,3.08-8.92,7.33-11.76,12.74-2.85,5.42-4.27,11.72-4.27,18.91s1.45,13.33,4.34,18.7c2.89,5.37,6.91,9.57,12.04,12.6,5.13,3.03,11.02,4.55,17.64,4.55,8.5,0,15.5-2.01,21.01-6.02,5.51-4.01,9.1-9.66,10.78-16.95h-12.32c-1.12,3.92-3.32,6.91-6.58,8.96ZM442.17,46.56c3.13-1.91,6.88-2.87,11.27-2.87,5.79,0,10.41,1.73,13.86,5.18,3.45,3.46,5.18,8.03,5.18,13.72h-39.55c.39-2.82,1.08-5.36,2.09-7.63,1.63-3.69,4.01-6.49,7.14-8.4Z"/>
  <path class="cls-1" d="M535.79,89.49c-3.36,2.33-7.38,3.5-12.04,3.5-4.11,0-7.7-1-10.78-3.01-3.08-2.01-5.46-4.81-7.14-8.4-1.68-3.59-2.52-7.86-2.52-12.81s.89-9.24,2.66-12.88c1.77-3.64,4.25-6.46,7.42-8.47,3.17-2.01,6.81-3.01,10.92-3.01,4.39,0,8.21,1.12,11.48,3.36,3.27,2.24,5.46,5.56,6.58,9.94h13.16c-1.12-7.56-4.53-13.63-10.22-18.21-5.7-4.57-12.84-6.86-21.43-6.86-6.63,0-12.46,1.54-17.5,4.62-5.04,3.08-8.99,7.33-11.83,12.74-2.85,5.42-4.27,11.72-4.27,18.91s1.4,13.47,4.2,18.84c2.8,5.37,6.7,9.55,11.69,12.53,4.99,2.99,10.85,4.48,17.57,4.48,5.51,0,10.53-1.05,15.05-3.15,4.53-2.1,8.26-4.99,11.2-8.68,2.94-3.69,4.83-8,5.67-12.95h-13.16c-1.12,4.02-3.36,7.19-6.72,9.52Z"/>
  <polygon class="cls-1" points="607.77 34.59 577.38 66.8 577.38 0 564.22 0 564.22 103.07 577.38 103.07 577.38 83.6 589 71.42 609.03 103.07 624.16 103.07 598.11 61.9 624.29 34.59 607.77 34.59"/>
</svg>