<?xml version="1.0" encoding="UTF-8"?>
<svg id="Layer_1" data-name="Layer 1" xmlns="http://www.w3.org/2000/svg" viewBox="0 0 1000 1000">
  <defs>
    <style>
      .cls-1 {
        fill: #f7f7f7;
      }

      .cls-2 {
        fill: #272525;
      }
    </style>
  </defs>
  <rect class="cls-1" width="1000" height="1000"/>
  <g>
    <path class="cls-2" d="M0,0v1000h1000V0H0ZM995.31,995.31H4.69V4.69h990.61v990.61Z"/>
    <path class="cls-2" d="M206.35,384.82c7.92,7.36,55.69,159.83,56.18,179.29.49,19.63-22.19,77.23-33.76,79.59-15.7,3.21-51.13,75.06-51.58,98.26-.4,20.52,30.52,137.75,45.61,142.28,6.42,1.93,70.9,5.61,141.56,5.61,66.16,0,137.75-3.23,172.12-14.15,23.64-7.51,69.07-16.6,117.17-26.22,125.58-25.12,214.49-44.65,214.71-67.34.29-30.8-21.99-173.14-57.37-194.08-25.45-15.06-77.04-129.4-99.07-178.23-8.29-18.37-11.07-24.44-12.19-25.9-.44-.58-1.38-4.36.04-13.83,2.23-14.87,8.83-33.3,16.01-38.42,5.86-4.18,12.72-17.36,19.99-31.32,6.8-13.05,16.1-30.92,20.87-31.66.16-.02.36-.06.77.35,2.14,2.14,4.48,3.07,6.88,2.78,5.43-.65,9.49-7.28,14.19-14.96,4.19-6.85,8.94-14.61,14.33-17.04,3.19-1.44,5.72-4.89,7.72-10.55,7.35-20.74,5.84-70.32-.76-83.45-7.97-15.88-69.07-23.42-75.77-24.19-7.69-1.58-188.83-38.49-231.06-27.55-12.84,3.33-46.98,7.46-86.51,12.24-119.21,14.41-219.18,28.07-234.91,49.32-13.39,18.08-4.91,77.35,4.57,123.88,9.99,49.08,24.7,100.24,30.26,105.28ZM175.99,158.97c15.59-21.06,145.28-36.74,231.11-47.11,41.37-5,74.05-8.95,87.24-12.38,5.04-1.31,12.26-1.88,21.07-1.88,62.8,0,205.86,29.16,207.7,29.53,25.06,2.92,66.69,11.26,71.68,21.21,5.52,11,7.79,58.48.48,79.1-1.9,5.37-3.8,6.9-4.77,7.34-6.95,3.14-12.17,11.67-16.78,19.21-3.45,5.63-7.35,12.01-10.11,12.34-.24.03-.98.12-2.3-1.19-1.57-1.57-3.49-2.24-5.55-1.91-7.04,1.09-14.12,13.79-24.95,34.59-6.64,12.76-13.52,25.95-18.29,29.36-9.86,7.03-16.35,29.13-18.3,42.27-1.36,9.18-1,15.2,1.06,17.88.96,1.35,5.86,12.22,11.54,24.81,18.82,41.72,53.51,118.61,80.66,157.99-4.48-5.13-9.18-9.32-14.1-12.23-4.85-2.87-10.44-7.66-16.51-13.81-7.96-13.66-18.84-26.72-32.67-39.23-29.07-38.89-59.77-87.89-75.02-112.25-5.67-9.06-8.44-13.47-9.43-14.75-.78-1.01-1.39-4.21-.55-9.86,1.91-12.85,10.06-31.06,19.91-38.08,5.92-4.22,12.95-13.55,20.39-23.43,1.87-2.48,3.83-5.08,5.83-7.66,5.5-1.13,11.13-3.82,17.31-6.79,2.45-1.18,5.05-2.43,7.82-3.69,2.16-.98,4.14-2.37,5.92-4.17,7.29,2.22,13.88-3.58,20.29-9.27,4.57-4.05,9.3-8.24,14.95-10.8,4.34-1.96,7.81-6.55,10.32-13.64,7.49-21.15,5.08-61.21-2.19-75.68-9.41-18.72-60.94-28.07-64.96-28.77-8.36-2.51-155.18-46.13-205.47-33.08-13.62,3.53-38.98,7.76-68.34,12.64-81.85,13.62-193.96,32.28-215.26,61.06-29.56,39.93,29.76,206.51,41.73,217.35,10.42,9.44,67,144.26,67.57,167.2.55,22.1-25.83,67.83-40.9,70.9-10.46,2.14-26.62,19.69-37.29,34.08-14.93,20.14-23.99,39.7-24.24,52.32-.53,27.34,38.2,127.79,54.39,132.65,7.6,2.28,61.1,6.81,122.86,6.81,57.21,0,121.52-3.89,162.96-17.06,20.45-6.5,47.96-13.95,77.08-21.85,120.01-32.53,211.82-59.82,212.11-89.98.31-32.41-17.05-113.69-45.73-157.25,4.28,5.12,8.28,8.95,11.85,11.07,32.25,19.08,54.95,156.62,54.64,189.24-.05,4.7-8.9,14.93-67.65,30.66-40.81,10.92-94.88,21.74-142.59,31.28-48.26,9.65-93.84,18.77-117.77,26.37-70.37,22.36-298.09,12.21-310.38,8.52-9.46-3.73-42.16-111.17-41.66-136.85.42-21.88,35.22-90.49,47.13-92.92,16.24-3.32,38.67-66.77,38.21-85.18-.44-17.59-47.94-174.16-57.99-183.25-3.47-3.58-17.64-48.43-28.69-102.91-12.76-62.93-14.74-106.24-5.41-118.83ZM635.22,381.33c.86,1.12,4.32,6.64,9.11,14.3,13.06,20.85,37.33,59.6,62.43,94.9-11.51-8.63-24.52-17-39.08-25.12-2.04-1.14-4.19-2.31-6.38-3.5-40.03-41.14-78-85.62-81.5-90.17-1.14-1.48-1.48-4.22-.96-7.72,1.31-8.84,8.12-21.81,17.89-31.14,10.77,6.67,22.68,9.06,38.65,1.99,8.45-3.74,14.64-9.52,18.53-17.19,4-.75,8.26-2.13,12.85-4.06-4.03,5.05-7.85,9.35-10.97,11.59-11.22,8-20.12,27.59-22.25,41.91-.99,6.69-.43,11.47,1.68,14.2ZM575.12,375.34c3.16,4.1,34.2,40.5,69.7,77.87-11.97-6.18-25.22-12.77-38.96-19.48-43.12-32.02-82.27-63.22-86.02-68.09-1.27-1.65-1.7-3.73-1.3-6.37,1.34-9.04,12.31-22.29,27.28-32.97l3.7-2.65c6.08-4.37,13.1-9.41,20.32-13.93.49.4.98.8,1.44,1.25l3.94,3.79c5.6,5.4,10.96,10.56,16.51,14.74-10.5,10.4-17.33,24.18-18.73,33.67-.78,5.24-.06,9.34,2.13,12.19ZM671.25,480.28c-11.04-7.4-23.04-15.78-35.32-24.59,8.17,4.17,15.85,8.17,22.75,11.92,4.18,4.28,8.38,8.52,12.57,12.67ZM515.02,369.35c3.63,4.72,29.72,25.84,62.15,50.51-8.67-4.16-17.3-8.29-25.7-12.3-43.69-20.87-88.87-42.45-93.06-47.69-1.37-1.71-1.88-3.37-1.61-5.21,1.16-7.88,15.57-18.37,32.87-30.28,19.07-13.13,53.64-27.77,74.43-18.23-6.47,4.17-12.66,8.61-18.14,12.55l-3.69,2.64c-16.74,11.94-28.14,26.13-29.76,37.03-.64,4.3.2,8,2.5,10.98ZM579.56,310.23l-3.96-3.81s-.08-.07-.12-.11c2.18-1.25,4.36-2.43,6.53-3.5,3.4,2.35,6.9,4.94,10.54,7.85,4.31,3.45,8.67,5.94,12.87,7.48-2.27,1.97-4.42,3.73-6.39,5.13-.87.62-1.71,1.27-2.55,1.94-5.48-3.98-10.92-9.19-16.93-14.98ZM427.64,352.53c5.7,21.65,20.71,27.92,41.48,36.6,6.53,2.73,13.93,5.82,21.76,9.73,30.95,15.46,138.72,76.84,170.07,95.71,29.33,17.65,43.88,33.16,63.62,59.21,18.46,24.37,23.8,101.79-17.41,143.65-45.01,45.73-133.6,63.38-162.71,69.18-44.9,8.94-122.4,7.4-137.18,2.56-10.87-3.56-61.01-44.82-63.19-73.12-.68-8.86,3.42-15.42,12.56-20.07,19.49-9.91,39.78-12.64,59.41-15.29,26.7-3.6,51.91-7,68.66-28.83,27.81-36.27,4.8-71.29-17.45-105.15l-3.2-4.88c-11.3-17.28-24.96-29.29-40.78-43.2-17.45-15.34-37.22-32.72-58.41-61.61-48.95-66.73-54.31-113.69-17.37-152.24,43.07-44.94,111.18-69.25,156.42-76.41,2.8-.44,5.58-.65,8.32-.65,37.98,0,69.55,39.65,69.89,40.08l.16.19c20.19,21.88,39.73,58.37,43.58,71.46-.82.72-1.63,1.45-2.45,2.19-1.58-1.39-3.19-2.89-4.87-4.57-9.1-9.08-22.17-7.3-35.7-1.3-15.69-10.4-34.24-18.2-53.71-12.64-11.23,3.2-37.7,12.9-60.91,25.27-30.37,16.19-44.02,31.04-40.58,44.13ZM623.9,309.86c-.63.72-1.35,1.37-2.19,1.91-.37.24-.8.39-1.2.58.99-.92,1.99-1.85,3-2.79.13.1.26.21.38.3ZM614.24,301.37c1.59,1.59,3.14,3.02,4.68,4.39-1.13,1.05-2.26,2.1-3.37,3.14-1.58,1.48-3.14,2.93-4.66,4.33-4.47-.95-9.42-3.44-14.44-7.45-2.47-1.98-5.07-3.97-7.76-5.93,10.14-3.93,19.39-4.61,25.54,1.52ZM602.47,328.09c3.05-2.18,6.42-5.06,9.99-8.29,4.67.47,8.98-.42,12.63-2.77,1.59-1.02,2.94-2.28,4.06-3.7,5.63,3.28,11.17,4.93,17.09,5.02-3.22,4.64-7.68,8.28-13.38,10.8-12.65,5.59-22.17,4.42-31.08-.54.23-.17.46-.36.7-.53ZM631.94,308.02c.67-2.12.94-4.36.71-6.62,6.7-5.7,13.36-10.54,19.02-12.36,1.08,8.08.59,15.61-1.63,21.9-.16.45-.36.86-.53,1.3-6.24.6-11.78-.76-17.57-4.21ZM657.98,288.46c1.47.31,2.81.99,3.97,2.14,4.93,4.92,9.56,7.41,14.12,8.32-2.46,3.69-5.56,6.4-9.27,8.08-3.68,1.66-7.03,2.94-10.18,3.84,1.97-6.73,2.4-14.33,1.36-22.38ZM679.71,291.53c-.23.64-.48,1.24-.73,1.85-4.2-.35-8.26-2.38-12.84-6.96-2.77-2.77-5.88-4.05-9.24-4.21-1.63-7.51-4.44-15.29-8.44-23.04-13.19-25.58-29.7-39.39-32.24-41.43-4.17-5.18-57.68-69.2-135.57-48.97-80.89,21-134.67,54.68-179.83,112.6-47.53,60.97,47.93,168.65,63.2,181.82,20.73,17.9,104.58,97.27,105.01,130,.42,32.12-38.88,40.25-64.89,45.63l-1.21.25c-3.85.8-8.59,1.54-14.09,2.4-30.3,4.75-81.01,12.71-82.24,49.68-1.38,41.67,59.28,96.5,83.38,103.14l2.86.8c11.4,3.21,30.18,8.51,61.22,8.51,33.28,0,80.65-6.08,148.12-27.34,113.32-35.69,169.28-91.05,171.07-169.22.05-2.39.02-4.76-.06-7.12,6.6,17.75,10.24,35.84,10.08,52.83-.46,48.27-78.79,104.26-199.57,142.63-107.8,34.25-202,20.98-226.5,13.63-17.6-5.28-68.32-71.91-67.64-107.44.66-33.94,55.48-52.53,76.54-56.84,24.68-5.04,60.82-27.48,60.02-59.64-.82-33.11-79.84-136.08-92.34-147.4-14.33-12.97-90.62-137.12-54.73-185.59,39.05-52.74,150.88-81.76,204.62-95.71,8.04-2.09,16.37-3,24.8-3,59.84,0,124.59,46.12,125.33,46.65l.6.34c.28.12,28.56,12.24,39.95,34.91,8.59,17.1,10.85,40.75,5.36,56.23ZM766.99,606.9c-1.75,76.21-54.72,128.13-166.7,163.4-128.62,40.52-182.68,25.28-205.76,18.78l-2.9-.81c-22.13-6.1-80.05-58.63-78.79-96.9,1.05-31.8,46.73-38.97,76.96-43.71,5.58-.88,10.39-1.63,14.39-2.46l1.21-.25c26.32-5.45,70.36-14.56,69.88-51.84-.53-40.12-106.11-133.73-107.17-134.65-14.01-12.1-106.25-116.93-62.35-173.24,44.24-56.75,97.02-89.76,176.46-110.39,10.01-2.6,19.6-3.73,28.72-3.73,60.7,0,100.13,50.19,100.58,50.78l.57.57c.17.13,17.47,13.7,30.82,39.6,3.63,7.04,6.19,14.17,7.71,21.05-6.17,1.85-12.87,6.41-19.62,11.97-5.47-15.24-23.82-49.29-44.02-71.23-1.02-1.28-10.22-12.66-24.61-23.38-20.05-14.93-40.6-21.24-59.42-18.27-46.2,7.31-115.82,32.2-159.96,78.26-24.49,25.56-49.39,69.98,16.84,160.27,21.6,29.44,41.64,47.06,59.33,62.61,15.48,13.61,28.84,25.36,39.68,41.92l3.21,4.89c22.02,33.51,42.82,65.16,17.71,97.91-15.17,19.79-38.04,22.87-64.53,26.44-20.15,2.71-40.97,5.52-61.41,15.91-11.32,5.76-16.84,14.79-15.96,26.13,2.46,31.92,55.13,74.54,67.48,78.58,8.08,2.65,30.11,4.25,55.8,4.25,28.35,0,61.16-1.95,84.55-6.61,29.58-5.89,119.59-23.82,165.95-70.93,43.4-44.09,37.51-125.97,17.93-151.82-19.8-26.14-35.35-42.73-65.38-60.8-31.41-18.9-139.44-80.43-170.49-95.94-8.02-4-15.52-7.14-22.14-9.91-19.82-8.29-32.92-13.76-37.84-32.42-5.78-21.94,68.1-53.5,97.15-61.79,13.63-3.89,28.06-.82,45.35,9.87-1.98,1.05-3.96,2.18-5.93,3.34-22.99-14.1-61.93,1.6-84.13,16.88-19.82,13.65-33.98,24.11-35.51,34.52-.53,3.58.45,6.96,2.91,10.04,4.85,6.05,39.35,22.72,95.25,49.42,17.73,8.47,36.5,17.43,54.44,26.2,32.87,24.33,67.69,48.86,90.82,62.66,13.47,12.33,25.97,22.6,36.18,29.07,13.52,14.25,25.19,30.96,34.11,48.6,1.98,8.82,2.88,17.86,2.67,27.17ZM731.36,523.4c-10.16-10.1-21.3-18.91-33.11-25.9-.49-.29-1.02-.62-1.52-.92-6.13-5.64-12.45-11.69-18.84-17.98,17.23,10.5,31.9,21.39,44.09,32.71,3.16,4.17,6.29,8.22,9.39,12.1ZM713.73,275.77c-2.03-2.03-4.57-3.01-7.28-2.81-5.94.42-12.42,6.29-19.26,14.36,4.03-18.26-.29-40.59-7.4-54.75-11.87-23.63-39.26-36.15-42.71-37.65-2.64-1.87-23.49-16.35-51.36-28.73-27.59-12.25-67.95-24.92-103.58-15.68-54.42,14.12-167.65,43.5-207.98,97.97-38.68,52.24,40.15,179.79,55.54,193.72,14.66,13.28,89.6,113.35,90.34,143.04.74,29.71-35.56,49.52-55.15,53.53-22.39,4.57-80.67,24.75-81.41,62.68-.7,36.28,50.59,106.97,71.97,113.38,12.47,3.74,42.62,9,83.3,9s92.1-5.28,146.78-22.66c125.22-39.79,203.32-96.64,203.81-148.37.24-24.63-6.83-50.95-19.1-75.45-.71-3.07-1.56-6.1-2.53-9.11,25.98,38.54,42.38,93.89,42.06,127.61-.46,47.66-169.99,101.52-242.39,124.53-99.89,31.74-239.17,16.51-254.46,11.92-15.55-4.67-59.55-87.13-58.97-117.24.56-29.09,48.35-65.11,66.74-68.86,19.89-4.06,53.46-39.28,52.75-68.15-.71-28.78-67.88-147.57-80.89-159.36-12.63-11.44-79.4-155.03-47.85-197.64,25.95-35.05,130.04-58.19,198.91-73.51,17.22-3.83,32.09-7.13,43.62-10.13,57.21-14.85,175.24,37.91,176.42,38.45l.47.17c.4.11,40.56,10.73,50.38,30.27,7.21,14.36,10.27,44.55,3.57,63.46-.96,2.69-2.07,5-3.32,6.94-.34-.29-.68-.6-1.02-.95ZM711.03,281.04c-.94.78-1.94,1.41-2.98,1.88-2.83,1.28-5.47,2.55-7.96,3.75-2.87,1.38-5.49,2.64-7.93,3.69,5.55-6.45,10.86-11.41,14.69-11.68,1.04-.07,1.96.27,2.83,1.15.45.45.9.83,1.35,1.21ZM723.64,271.75c7.18-20.27,3.89-52.67-3.86-68.09-10.7-21.31-50.07-32.25-53.92-33.28-7.49-3.36-121.59-53.86-180.11-38.68-11.44,2.97-26.26,6.26-43.42,10.08-69.73,15.5-175.11,38.94-202.38,75.76-34.12,46.08,35.46,193.6,48.64,205.53,11.95,10.82,78.31,129.39,78.95,155.12.64,25.86-30.34,58.6-48.02,62.22-19.82,4.05-70.82,41.04-71.47,74.54-.6,30.94,43.68,117.17,63.18,123.02,8.13,2.44,50.7,7.85,103.94,7.85,48.48,0,105.82-4.49,154.01-19.8,121.65-38.65,246.07-84.34,246.5-130.1.33-34.99-16.97-92.68-44.3-132.51,38.29,24.14,65.28,135.18,64.9,175.56-.27,28.22-120.26,60.75-207.88,84.5-29.18,7.91-56.75,15.39-77.31,21.92-85.24,27.08-267.97,14.56-282.43,10.22-12.75-3.82-50.83-100-50.31-127.04.49-25.64,42.35-77.91,56.94-80.89,18.96-3.87,46.06-53.58,45.48-76.67-.61-24.66-58.22-161.14-69.45-171.31-4.33-3.92-21.45-45.58-34.44-94.62-15.58-58.84-17.9-99.7-6.53-115.06,19.93-26.91,135.27-46.11,211.6-58.81,29.5-4.91,54.98-9.15,68.85-12.75,6.05-1.57,13.65-2.26,22.35-2.26,61.9,0,178.85,34.92,180.19,35.33l.34.08c14.63,2.51,54.11,12.04,60.98,25.73,6.65,13.25,8.85,51.58,1.91,71.19-1.95,5.49-4.46,9.06-7.28,10.33-6.45,2.91-11.74,7.6-16.4,11.73-5.63,4.99-9.28,7.87-12.51,8.24,1.23-2.08,2.33-4.42,3.26-7.07Z"/>
    <path class="cls-2" d="M165.15,365.61c7,8.48,44.49,176.21,44.87,191.45.45,17.88-18.96,86.71-26.64,88.28-13.96,2.85-41.34,94.48-41.64,110.12-.27,14.37,24.15,148.11,36.82,151.91,5.35,1.61,81.62,4.69,161.85,4.69,74.16,0,151.71-2.64,179.68-11.53,21.47-6.82,81.7-15.3,145.47-24.26,142.44-20.04,228.94-33.47,229.11-51.03.22-23.09-17.04-189.79-46.13-207-19.49-11.53-60.03-139.43-77.34-194.04-8.38-26.45-10.45-32.77-11.47-34.09-2.5-4.72,3.46-50.05,12.68-56.63,4.96-3.53,10.01-17.09,17.73-39,4.68-13.28,11.68-33.11,15.32-35.87,1.79,1.58,3.51,1.62,4.68,1.36,4.61-1.04,7.36-8.22,11.82-20.81,3.23-9.11,7.65-21.59,11.99-23.56,2.24-1.01,4.03-3.49,5.48-7.59,6.9-19.48,6.12-79.53.31-91.08-6.38-12.71-73.45-18.6-86.67-19.63-9.08-1.26-222.78-30.76-256.55-22-10.93,2.84-53.19,6.44-102.12,10.61-133.37,11.37-244.77,22.14-257.12,38.82-10.83,14.63-4.05,77.6,3.55,127.85,6.66,44.05,19.16,108.39,24.3,113.04ZM141.64,127.92c11.91-16.08,157.14-28.46,253.25-36.65,51.2-4.36,91.64-7.81,103.01-10.76,4.03-1.04,10.86-1.5,19.78-1.5,63.64,0,232.76,23.36,234.84,23.64,32.01,2.52,78.75,9.37,82.43,16.7,4.65,9.24,6.16,67.82-.58,86.86-1.35,3.81-2.5,4.42-2.62,4.48-6.44,2.91-10.71,14.99-14.85,26.67-2.27,6.4-5.67,15.99-7.79,17.27-.05-.04-.11-.09-.18-.16-1.22-1.21-2.75-1.68-4.32-1.33-5.51,1.25-10.18,13.01-19.54,39.55-5.28,14.97-11.85,33.6-15.78,36.4-8.75,6.24-13.2,33.54-14.01,38.94-1.17,7.86-2.7,21.59.02,25.12.95,1.68,5.5,16.04,10.77,32.67,30.36,95.81,61.04,186,79.73,197.05,25.31,14.98,43.74,175.04,43.48,202.31-.02,2.05-5.24,9.7-71.64,22.19-43.41,8.16-99.04,15.99-152.84,23.56-66.77,9.39-124.44,17.51-146.35,24.46-55.79,17.73-327.79,9.75-338.09,6.93-7.9-5.76-33.63-126.41-33.24-146.76.41-21.12,29.38-102.53,37.33-104.95,2.24-.46,9.07-1.85,20.69-42.37,6.06-21.11,10.47-43.17,10.26-51.32-.29-11.47-37.57-187.09-46.43-195.09-6.82-9.1-45.47-209.42-27.34-233.9Z"/>
    <path class="cls-2" d="M124.12,346.56c-.17-.15-.24-.27-.25-.28,4.7,7.68,33.26,188.1,33.65,203.73.31,12.6-13.13,91.61-19.74,97.02-2.4.55-7.31,3.22-19.57,57.24-6.2,27.33-11.76,57.56-11.9,64.69-.14,7.19,4.78,47.31,10.31,84.17,11.32,75.45,15.33,76.65,17.73,77.37,4.43,1.33,91.61,3.32,171.37,3.45,3.19,0,6.41,0,9.66,0,75.81,0,166.24-1.56,188.37-8.59,17.2-5.47,91.13-12.38,169.39-19.69,182.83-17.09,247.76-25.3,247.88-37.33.16-16.71-12.75-206.83-34.88-219.92-14.05-8.31-44.11-150.3-56.95-210.93-7.13-33.69-8.46-39.59-9.39-41.16-.75-2.16-.53-14.85,1.57-31,2.42-18.6,5.69-28.62,7.71-30.06,4.03-2.87,7.64-17.08,14.37-46.56,3.45-15.11,8.08-35.4,10.87-40.22.75.3,1.56.33,2.36.1,3.81-1.14,5.52-7.89,9.44-26.88,2.08-10.08,5.96-28.84,9.02-30.35,1.54-.7,2.71-2.29,3.68-5.03,5.95-16.81,5.65-88.98.96-98.32s-69.82-13.65-97.51-15.06c-10.47-.94-256.73-23.05-282.11-16.48-8.47,2.2-58.52,5.05-116.47,8.36-153.31,8.74-271.31,16.42-280.58,28.93h0c-8.25,11.14-3.17,77.85,2.54,131.85,4.25,40.18,14.03,116.91,18.48,120.94ZM107.29,96.88c8.56-11.54,176.4-21.11,276.68-26.83,60.62-3.46,108.51-6.19,117.48-8.52,24.52-6.38,277.78,16.39,280.44,16.63,43,2.2,89.64,7.38,93.21,12.2,4.35,8.65,4.24,90.71-2.12,96.25-5.09,2.3-7.92,14.39-11.98,34.04-1.68,8.16-3.93,19.03-5.68,22.34-.71-.31-1.51-.36-2.29-.13-4.2,1.21-6.9,10.61-14.68,44.68-3.95,17.3-9.36,40.99-12.32,43.48-1.36.97-5.48,3.91-9.21,28.98-1.05,7.09-4.32,33.93-1.54,38.97.84,2.11,4.52,19.49,8.78,39.6,20.99,99.12,44.61,205.59,59.39,214.34,17.76,10.51,32.51,186.78,32.33,215.15-7.08,10.35-149.07,23.63-243.15,32.42-81.96,7.66-152.75,14.28-170.48,19.91-17.43,5.54-86.89,8.52-195.24,8.34-84.12-.13-162.79-2.14-170.65-3.17-6.64-10.06-25.07-140.1-24.76-156.52.3-15.66,20.92-111.11,27.86-117.07,11.47-4,23.55-94.01,23.35-102.11-.15-6.13-7.43-56.46-15.28-105.6-14.63-91.66-18.24-99.83-19.59-101.35-2.43-4.93-10.67-56.98-17.29-120.22-8.8-84.16-7.47-120.18-3.28-125.83Z"/>
    <path class="cls-2" d="M83,327.43c-.32-.29-.45-.57-.45-.59,3.35,7.89,22.18,204.89,22.45,216.12.28,11.15-8.66,97.86-13.13,105.87-2.35,1.03-5.39,7.19-13.09,64.68-4.24,31.68-7.82,64.39-7.91,68.95-.09,4.8,3.22,48.07,6.86,87.46,7.61,82.28,10.04,83.01,12.38,83.71,3.28.98,106.13,2.25,189.74,2.34,3.53,0,7.1,0,10.69,0,83.97,0,181.99-1.05,196.83-5.76,11.88-3.77,99-8.64,191.23-13.78,63.63-3.55,129.42-7.22,180.32-11.01,88.34-6.58,88.37-10.33,88.41-13.96.02-2.18-7.54-223.32-23.58-232.81-9.21-7.63-29.62-168.08-37.31-228.48-5.27-41.44-5.97-46.3-6.61-47.58-1.61-6.73,2.48-61.38,5.87-65.53,2.98-2.13,4.99-14.08,10.33-54.1,2.4-17.93,5.33-39.91,7.19-45.37.14-.03.28-.07.42-.11,2.9-1.02,3.81-5.34,6.92-33.03,1.55-13.76,3.87-34.47,6.03-37.49,1.14-.68,1.71-1.96,2.04-2.89,4.71-13.29,4.51-98.2,1.11-104.97-1.01-2.01-2.54-5.05-56.34-8.18-25.91-1.51-51.78-2.29-51.98-2.29-11.86-.63-290.69-15.36-307.7-10.96-5.72,1.48-63.36,3.46-130.12,5.75-201.86,6.92-298.95,11.58-304.74,19.4-5.65,7.63-2.29,78.09,1.53,135.86.08,1.25,8.36,124.92,12.58,128.73ZM72.87,65.93c10.39-7.51,192.19-13.74,300.93-17.47,79.8-2.73,125.25-4.36,131.21-5.9,13.01-3.39,205.96,5.79,306.22,11.11,46.39,1.39,98.09,4.64,104.11,7.99,1.01,3.69,1.97,24.61,1.78,50.44-.23,31.05-1.89,47.88-3.38,50.7-3.34,2.24-4.9,11.88-8.18,41.09-1.23,10.98-2.74,24.38-4.01,28.46-.13.02-.26.06-.39.1-2.97,1.01-4.17,5.41-10.11,49.85-2.67,19.99-6.32,47.3-8.48,50.83-1.29,1.04-2.79,3.45-4.47,14.72-1.97,13.25-4.83,50.6-2.81,56.78h-.03c.57,1.94,3.17,22.44,6.19,46.17,21.19,166.6,31.58,227.34,39.66,232.13,10.94,8.01,21.17,200.81,21.19,227.61-12.12,6.8-157.44,14.91-263.97,20.85-96.58,5.39-179.99,10.04-192.48,14.01-11.53,3.66-84.06,5.58-204.19,5.52-91.85-.08-179.38-1.4-189.3-2.05-4.52-13.16-16.72-152.52-16.45-166.32.2-10.49,13.28-119.68,18.54-129.24,2.26-1.02,5.19-6.65,10.51-53.53,2.83-24.92,5.2-52.6,5.1-56.95-.05-2.02-18.75-214.69-23.66-219.14.35.32.48.63.49.65-4.65-11.87-21.36-246.43-14-258.41Z"/>
    <path class="cls-2" d="M38.6,264.14c1.45,33.27,2.03,40.95,2.68,43.14h-.04c1.74,7.1,10.94,215.64,11.27,228.63.16,6.51-4.37,108.52-6.74,115.39-1.64,2.98-3.01,15.36-6.38,71.4-2.1,35-3.9,71.02-3.95,73.26-.05,2.38,1.58,47.82,3.42,90.78,3.83,89.07,4.7,89.33,7.03,90.03,1.15.35,118.1,1.23,229.09,1.23,96.69,0,188.87-.67,196.04-2.95,6.01-1.89,110.67-4.53,211.89-7.08,290.7-7.33,290.71-8.86,290.75-13.4.03-3.04-1.06-62.45-3.06-122.94-3.67-111.08-6.72-120.69-8.86-122.5-4.76-10.82-13.96-169.77-18.4-246.45-2.48-42.91-2.97-51.37-3.43-53.51h.04c-.89-5.16,1.01-65.15,2.95-70.81,1.42-1.95,2.23-9.58,5.29-61.08,1.29-21.65,2.73-46.01,3.67-51.19,1.43-1.28,1.83-6.26,3.36-38.74.83-17.51,1.96-41.33,3.12-45.09.28-.31.5-.7.66-1.16,2.4-6.78,3.08-106.26.76-110.89-.86-1.72-2.17-4.32-119.1-5.88-33.22-.79-324.82-7.64-333.26-5.45-3.9.75-68.57,1.76-143.46,2.93C87.59,26.1,37.43,28.18,34.67,31.89c-.9,1.22-3.66,4.94.53,139.89,1,32.13,2.23,65.8,3.39,92.36ZM38.59,35.16c15.45-3.67,201.52-6.57,325.42-8.5,92.79-1.45,141.37-2.24,144.52-3.06,8.41-1.68,242.51,3.46,332.04,5.59,40.39.54,105.26,2.05,114.86,3.9,1.07,11.27,1.43,97.33-.91,106.06-1.59,1.96-2.32,9.24-4.15,47.96-.66,14-1.48,31.19-2.2,35.34-1.52,1.55-2.09,8.4-4.83,54.53-1.44,24.28-3.23,54.36-4.4,58.5-.57.74-.9,1.93-1.24,4.2-.87,5.86-3.87,62.12-2.31,70.62l-.13.02c.29,1.76,1.59,24.2,3.24,52.62,11.88,205.27,16.04,245.97,20.05,249.84-.17-.15-.28-.28-.28-.29,5.68,10.01,10.35,217.72,10.53,240.44-16.15,3.36-165.39,7.13-286.01,10.17-128.11,3.23-206.95,5.31-213.24,7.31-13.5,4.29-393.31,2.08-421.05,1.65-2.29-16.94-8.37-167.18-8.2-176.02.14-7.2,6.73-132.18,9.39-141.89,1.62-2.42,2.77-12.41,5.14-58.53,1.43-27.86,2.6-57.6,2.54-59.83-.05-1.87-2.47-59.1-5.08-115.59-4.36-94.25-5.62-110.91-6.56-114.44l.09-.02c-.83-3.65-3.58-64.53-5.76-134.66-2.82-91.05-2.63-129.57-1.46-135.92Z"/>
  </g>
</svg>