<?xml version="1.0" encoding="UTF-8"?>
<svg id="Layer_1" data-name="Layer 1" xmlns="http://www.w3.org/2000/svg" viewBox="0 0 847.52 133.74">
  <defs>
    <style>
      .cls-1 {
        fill: #231f20;
      }
    </style>
  </defs>
  <path class="cls-1" d="M6.02,79.89c4.01,7.8,9.61,13.86,16.8,18.21,7.19,4.34,15.59,6.51,25.21,6.51,7.65,0,14.63-1.4,20.94-4.2s11.58-6.72,15.82-11.76c4.25-5.04,7.07-10.92,8.47-17.65h-14.56c-1.87,6.26-5.53,11.23-10.99,14.92-5.46,3.69-11.93,5.53-19.4,5.53-6.72,0-12.65-1.61-17.79-4.83-5.14-3.22-9.1-7.77-11.9-13.65s-4.2-12.74-4.2-20.59,1.4-14.82,4.2-20.66c2.8-5.83,6.74-10.36,11.83-13.58,5.09-3.22,11.04-4.83,17.85-4.83,7.37,0,13.72,1.87,19.05,5.6,5.32,3.74,8.91,8.92,10.78,15.54h14.7c-1.21-6.91-3.88-12.93-7.98-18.06-4.11-5.13-9.24-9.12-15.41-11.97C63.3,1.56,56.39.14,48.73.14c-9.62,0-18.09,2.19-25.42,6.58-7.33,4.39-13.05,10.5-17.16,18.35C2.05,32.91,0,42.06,0,52.51s2.01,19.58,6.02,27.38Z"/>
  <path class="cls-1" d="M122.96,62.32c-8.03.65-14.28,2.87-18.77,6.65-4.48,3.78-6.72,8.8-6.72,15.05s2.08,11.16,6.23,14.98c4.15,3.83,9.87,5.74,17.16,5.74,5.51,0,10.43-1.14,14.77-3.43,4.34-2.29,7.4-5.39,9.17-9.31l1.4,11.06h11.2v-42.99c0-6.16-1.19-11.27-3.57-15.33-2.38-4.06-5.7-7.09-9.94-9.1-4.25-2.01-9.22-3.01-14.92-3.01s-11.04.98-15.47,2.94c-4.43,1.96-7.87,4.71-10.29,8.26-2.43,3.55-3.64,7.7-3.64,12.46h11.48c0-4.2,1.52-7.44,4.55-9.73,3.03-2.29,7.3-3.43,12.81-3.43,3.08,0,5.83.49,8.26,1.47,2.43.98,4.34,2.62,5.74,4.9,1.4,2.29,2.1,5.35,2.1,9.17v1.96l-21.57,1.68ZM144.66,69.88v3.64c0,6.44-1.78,11.55-5.32,15.33-3.55,3.78-8.45,5.67-14.7,5.67-4.3,0-7.68-.91-10.15-2.73-2.47-1.82-3.71-4.55-3.71-8.19,0-3.36,1.28-6.11,3.85-8.26,2.57-2.15,6.74-3.5,12.53-4.06l17.51-1.4Z"/>
  <path class="cls-1" d="M187.72,14.98c1.45-2.05,4.32-3.08,8.61-3.08h5.88V.56c-1.31-.19-2.66-.33-4.06-.42-1.4-.09-2.75-.14-4.06-.14-4.2,0-7.91.79-11.13,2.38-3.22,1.59-5.79,4.13-7.7,7.63-1.92,3.5-2.87,8.05-2.87,13.65v10.92h-10.08v11.06h10.08v57.42h13.16v-57.42h16.24v-11.06h-16.24v-10.92c0-3.73.72-6.63,2.17-8.68Z"/>
  <path class="cls-1" d="M235.83,104.75c8.5,0,15.5-2.01,21.01-6.02,5.51-4.01,9.1-9.66,10.78-16.95h-12.32c-1.12,3.92-3.31,6.91-6.58,8.96-3.27,2.05-7.47,3.08-12.6,3.08-7,0-12.37-2.22-16.11-6.65-3.23-3.84-5.06-9.1-5.49-15.77l52.97-.13v-4.9c0-6.81-1.33-12.74-3.99-17.79s-6.4-8.96-11.2-11.76c-4.81-2.8-10.48-4.2-17.01-4.2s-12.44,1.54-17.44,4.62c-5,3.08-8.92,7.33-11.76,12.74-2.85,5.42-4.27,11.72-4.27,18.91s1.45,13.33,4.34,18.7c2.89,5.37,6.91,9.57,12.04,12.6,5.13,3.03,11.02,4.55,17.65,4.55ZM223.99,46.56c3.13-1.91,6.88-2.87,11.27-2.87,5.79,0,10.41,1.73,13.86,5.18,3.45,3.46,5.18,8.03,5.18,13.72h-39.55c.39-2.82,1.08-5.36,2.09-7.63,1.63-3.69,4.01-6.49,7.14-8.4Z"/>
  <polygon class="cls-1" points="252.77 7.98 239.89 7.98 230.51 26.61 240.73 26.61 252.77 7.98"/>
  <path class="cls-1" d="M325.17,1.82h-13.72v101.25h13.72v-36.13h25.63c6.63,0,12.37-1.4,17.22-4.2,4.85-2.8,8.63-6.67,11.34-11.62,2.71-4.95,4.06-10.55,4.06-16.8s-1.35-12.23-4.06-17.08c-2.71-4.85-6.49-8.63-11.34-11.34-4.86-2.71-10.6-4.06-17.22-4.06h-25.63ZM369,34.17c0,6.26-1.82,11.23-5.46,14.91-3.64,3.69-8.87,5.53-15.69,5.53h-22.69V14.14h23.25c6.44,0,11.48,1.75,15.12,5.25,3.64,3.5,5.46,8.43,5.46,14.77Z"/>
  <path class="cls-1" d="M410.46,62.32c-8.03.65-14.28,2.87-18.77,6.65s-6.72,8.8-6.72,15.05,2.08,11.16,6.23,14.98c4.15,3.83,9.87,5.74,17.16,5.74,5.51,0,10.43-1.14,14.77-3.43,4.34-2.29,7.4-5.39,9.17-9.31l1.4,11.06h11.2v-42.99c0-6.16-1.19-11.27-3.57-15.33-2.38-4.06-5.7-7.09-9.94-9.1-4.25-2.01-9.22-3.01-14.92-3.01s-11.04.98-15.47,2.94c-4.43,1.96-7.87,4.71-10.29,8.26-2.43,3.55-3.64,7.7-3.64,12.46h11.48c0-4.2,1.52-7.44,4.55-9.73,3.03-2.29,7.3-3.43,12.81-3.43,3.08,0,5.83.49,8.26,1.47,2.43.98,4.34,2.62,5.74,4.9,1.4,2.29,2.1,5.35,2.1,9.17v1.96l-21.57,1.68ZM432.16,69.88v3.64c0,6.44-1.77,11.55-5.32,15.33-3.55,3.78-8.45,5.67-14.7,5.67-4.3,0-7.68-.91-10.15-2.73-2.47-1.82-3.71-4.55-3.71-8.19,0-3.36,1.28-6.11,3.85-8.26,2.57-2.15,6.74-3.5,12.53-4.06l17.5-1.4Z"/>
  <path class="cls-1" d="M470.67,91.87c2.24,4.2,5.51,7.42,9.8,9.66,4.29,2.24,9.19,3.36,14.7,3.36,6.81,0,12.58-1.59,17.29-4.76,4.71-3.17,8.31-7.51,10.78-13.02,2.47-5.51,3.71-11.76,3.71-18.76s-1.29-13.19-3.85-18.56c-2.57-5.37-6.23-9.57-10.99-12.6-4.76-3.03-10.41-4.55-16.95-4.55-5.42,0-10.34,1.19-14.77,3.57-4.44,2.38-7.77,5.95-10.01,10.71l-.98-12.32h-11.9v99.15h13.16v-41.87ZM473.41,56.3c1.73-3.64,4.2-6.49,7.42-8.54,3.22-2.05,7.07-3.08,11.55-3.08s8.31,1.03,11.48,3.08c3.17,2.05,5.62,4.9,7.35,8.54,1.73,3.64,2.59,7.84,2.59,12.6s-.86,8.68-2.59,12.32c-1.73,3.64-4.18,6.51-7.35,8.61-3.17,2.1-7,3.15-11.48,3.15s-8.33-1.03-11.55-3.08c-3.22-2.05-5.7-4.92-7.42-8.61-1.73-3.69-2.59-7.82-2.59-12.39s.86-8.96,2.59-12.6Z"/>
  <path class="cls-1" d="M547.83,100.2c5.13,3.03,11.02,4.55,17.65,4.55,8.49,0,15.5-2.01,21.01-6.02,5.51-4.01,9.1-9.66,10.78-16.95h-12.32c-1.12,3.92-3.32,6.91-6.58,8.96-3.27,2.05-7.47,3.08-12.6,3.08-7,0-12.37-2.22-16.1-6.65-3.23-3.84-5.06-9.1-5.49-15.77l52.97-.13v-4.9c0-6.81-1.33-12.74-3.99-17.79s-6.4-8.96-11.2-11.76c-4.81-2.8-10.48-4.2-17.02-4.2s-12.44,1.54-17.43,4.62c-5,3.08-8.92,7.33-11.76,12.74-2.85,5.42-4.27,11.72-4.27,18.91s1.45,13.33,4.34,18.7c2.89,5.37,6.91,9.57,12.04,12.6ZM553.65,46.56c3.13-1.91,6.88-2.87,11.27-2.87,5.79,0,10.41,1.73,13.86,5.18,3.45,3.46,5.18,8.03,5.18,13.72h-39.55c.39-2.82,1.08-5.36,2.09-7.63,1.63-3.69,4.01-6.49,7.14-8.4Z"/>
  <path class="cls-1" d="M619.4,66.8c0-6.63,1.8-11.74,5.39-15.33s8.52-5.39,14.77-5.39h5.88v-12.04c-1.31-.28-2.5-.49-3.57-.63-1.07-.14-2.22-.21-3.43-.21-5.32,0-9.76,1.42-13.3,4.27-2.63,2.11-4.54,4.67-5.73,7.68l-.85-10.41h-12.32v68.34h13.16v-36.27Z"/>
  <polygon class="cls-1" points="700.76 58.12 750.89 58.12 750.89 103.07 764.62 103.07 764.62 1.82 750.89 1.82 750.89 45.37 700.76 45.37 700.76 1.82 687.03 1.82 687.03 103.07 700.76 103.07 700.76 58.12"/>
  <path class="cls-1" d="M786.74.98c-2.33,0-4.37.84-6.09,2.52-1.73,1.68-2.59,3.73-2.59,6.16s.86,4.37,2.59,6.09c1.73,1.73,3.76,2.59,6.09,2.59s4.48-.86,6.16-2.59c1.68-1.73,2.52-3.76,2.52-6.09s-.84-4.48-2.52-6.16c-1.68-1.68-3.73-2.52-6.16-2.52Z"/>
  <rect class="cls-1" x="780.3" y="34.59" width="13.16" height="68.48"/>
  <rect class="cls-1" x="807.19" width="13.16" height="103.07"/>
  <rect class="cls-1" x="834.35" width="13.16" height="103.07"/>
</svg>